<?xml version="1.0" encoding="utf-8"?>
<svg viewBox="20 20 149.658 150" xmlns="http://www.w3.org/2000/svg">
  <path d="M 154.409 98.82 L 169.658 118.977 C 154.084 134.953 126.055 141.491 104.966 133.93 C 105.413 141.583 106.062 149.324 107 155 C 107.619 158.75 110 166 110 166 L 110 170 L 80 170 L 80 166 C 80 166 82.381 158.75 83 155 C 84.494 145.954 85.256 131.662 85.637 120.842 C 69.388 108.139 50.095 118.964 35.249 134.147 L 20 113.99 C 35.898 97.682 64.776 91.208 86 99.528 L 86 84 C 86 84 85.977 81.703 85.893 78.025 C 69.592 65.005 50.173 75.864 35.249 91.127 L 20 70.97 C 35.659 54.907 63.911 48.385 85.039 56.143 C 84.591 48.466 83.941 40.694 83 35 C 82.381 31.25 80 24 80 24 L 80 20 L 110 20 L 110 24 C 110 24 107.619 31.25 107 35 C 105.496 44.103 104.734 58.519 104.356 69.363 C 120.534 81.659 139.665 70.879 154.409 55.8 L 169.658 75.957 C 153.845 92.178 125.192 98.669 104 90.552 L 104 106 C 104 106 104.024 108.389 104.112 112.195 C 120.341 124.788 139.591 113.975 154.409 98.82 Z"/>
</svg>