<?xml version="1.0" standalone="no"?>
<svg id="svg" version="1.1" xmlns="http://www.w3.org/2000/svg" xmlns:xlink="http://www.w3.org/1999/xlink" viewBox="0, 0, 400,504.3478260869565" style=""><g id="svgg"><path id="path0" d="M87.000 70.418 C 85.900 70.590,83.509 70.746,81.686 70.765 C 73.822 70.848,73.640 71.872,73.596 116.400 C 73.556 157.163,72.995 154.625,82.483 156.568 C 92.000 158.518,92.280 158.123,92.538 142.400 C 92.727 130.904,93.390 125.605,94.834 124.055 C 96.420 122.353,97.690 122.243,117.439 122.100 L 136.278 121.964 139.639 123.254 L 143.000 124.543 157.400 124.664 L 171.800 124.786 174.000 125.931 C 176.631 127.300,177.801 128.875,178.151 131.516 C 178.718 135.788,178.099 189.379,177.358 200.200 C 176.589 211.426,176.373 227.449,176.050 297.200 C 175.854 339.550,175.573 376.900,175.425 380.200 C 175.117 387.080,175.623 389.394,178.115 392.511 C 178.858 393.440,179.884 394.920,180.394 395.800 C 180.905 396.680,182.072 398.140,182.988 399.043 C 183.903 399.947,185.147 401.730,185.751 403.006 C 186.355 404.281,187.466 406.078,188.221 406.999 C 188.975 407.920,190.318 410.222,191.205 412.114 C 192.092 414.007,193.579 416.456,194.509 417.556 C 195.508 418.739,196.678 420.811,197.367 422.622 C 198.009 424.308,199.309 426.866,200.256 428.307 C 201.203 429.749,202.365 432.114,202.838 433.564 C 204.934 439.983,205.811 441.100,206.980 438.838 C 208.346 436.198,208.517 432.371,208.279 409.800 C 208.046 387.769,208.439 337.655,209.217 290.000 C 209.445 276.030,209.799 239.670,210.004 209.200 C 210.217 177.487,210.552 151.919,210.789 149.400 C 211.016 146.980,211.295 141.670,211.409 137.600 C 211.682 127.862,212.970 125.843,220.514 123.332 L 223.800 122.239 247.200 121.986 C 269.752 121.744,270.694 121.703,273.200 120.870 C 276.880 119.647,286.330 119.606,289.794 120.798 C 294.540 122.431,294.589 122.600,293.346 133.230 C 292.162 143.362,292.252 147.354,293.693 148.542 C 295.699 150.197,298.280 151.106,302.800 151.749 C 310.897 152.903,311.957 152.697,313.757 149.624 C 314.487 148.377,314.495 147.849,314.000 134.466 C 313.644 124.865,313.570 114.080,313.760 99.400 C 314.143 69.775,314.490 70.800,304.062 70.800 C 294.093 70.800,293.091 71.709,292.369 81.400 C 291.836 88.547,291.470 89.917,289.589 91.800 L 287.990 93.400 275.895 93.600 L 263.800 93.800 261.000 95.400 L 258.200 97.000 177.400 97.000 C 112.915 97.000,96.421 96.898,95.714 96.493 C 93.943 95.481,93.723 93.139,94.209 80.504 C 94.449 74.254,94.402 72.684,93.958 72.149 C 93.364 71.433,90.222 69.967,89.467 70.053 C 89.210 70.083,88.100 70.247,87.000 70.418 " stroke="none" fill="#464646" fill-rule="evenodd"></path></g></svg>