<svg id="svg" version="1.1" xmlns="http://www.w3.org/2000/svg" xmlns:xlink="http://www.w3.org/1999/xlink" width="400" height="400" viewBox="0, 0, 400,400"><path id="path0" d="M85.800 90.000 C 85.140 90.437,84.060 90.798,83.400 90.801 C 82.050 90.808,79.019 92.190,77.701 93.400 C 77.222 93.840,75.649 95.190,74.207 96.400 C 70.285 99.689,70.286 101.192,74.209 101.780 C 75.184 101.927,76.076 102.199,76.191 102.386 C 76.306 102.572,77.346 102.852,78.500 103.008 C 84.677 103.841,91.915 109.548,102.207 121.700 C 103.200 122.872,104.299 122.544,105.441 120.735 C 106.827 118.540,107.173 106.210,105.900 104.411 C 105.515 103.867,105.200 103.164,105.200 102.850 C 105.200 99.839,98.933 91.493,96.000 90.597 C 95.450 90.430,94.645 90.046,94.211 89.746 C 92.916 88.850,87.279 89.020,85.800 90.000 M124.400 90.217 C 123.190 90.495,121.660 90.741,121.000 90.763 C 119.610 90.810,116.807 93.150,116.787 94.280 C 116.780 94.676,116.510 95.349,116.187 95.776 C 114.348 98.208,116.648 100.703,119.127 98.966 C 121.355 97.406,128.090 101.182,129.889 105.000 C 130.201 105.660,130.745 106.740,131.100 107.400 C 131.633 108.391,131.735 109.869,131.686 115.896 L 131.628 123.193 130.348 125.896 C 129.644 127.383,128.493 129.320,127.791 130.200 C 127.089 131.080,126.374 132.250,126.203 132.800 C 126.031 133.350,125.480 134.291,124.978 134.891 C 124.477 135.491,123.596 136.976,123.021 138.191 C 122.447 139.406,121.904 140.400,121.814 140.400 C 120.549 140.400,119.674 139.489,119.440 137.929 C 119.266 136.774,118.586 135.406,117.390 133.808 C 116.405 132.492,115.600 131.290,115.600 131.136 C 115.600 130.810,112.562 128.709,110.062 127.307 C 106.789 125.471,105.188 127.407,107.221 130.742 C 107.672 131.481,108.526 133.551,109.120 135.342 L 110.200 138.600 110.200 153.000 C 110.200 167.194,110.187 167.423,109.300 168.994 C 108.713 170.033,108.400 171.256,108.400 172.507 C 108.400 173.562,108.119 175.095,107.775 175.913 C 107.431 176.731,106.988 178.799,106.791 180.509 C 106.594 182.219,106.156 184.014,105.817 184.498 C 105.472 184.989,105.200 186.213,105.200 187.269 C 105.200 189.815,104.475 193.039,103.772 193.623 C 103.405 193.928,103.194 194.902,103.182 196.349 C 103.173 197.587,102.890 199.320,102.555 200.200 C 101.060 204.122,99.874 210.676,99.370 217.800 C 99.230 219.780,98.941 221.729,98.727 222.132 C 98.513 222.534,98.267 223.974,98.180 225.332 C 97.648 233.644,97.618 237.597,97.990 250.000 C 98.405 263.806,98.700 266.560,100.266 271.200 C 100.600 272.190,101.050 274.170,101.266 275.600 C 101.482 277.030,101.923 278.492,102.245 278.849 C 102.567 279.205,103.364 281.063,104.015 282.977 C 106.117 289.158,110.694 295.408,115.711 298.950 C 116.200 299.295,117.500 300.210,118.600 300.983 C 119.700 301.755,121.055 302.391,121.611 302.394 C 122.167 302.397,123.067 302.715,123.611 303.099 C 124.992 304.075,133.568 304.375,134.912 303.495 C 135.407 303.170,136.439 302.770,137.206 302.606 C 141.628 301.656,148.624 296.350,149.369 293.379 C 149.524 292.765,149.976 291.849,150.374 291.342 C 152.234 288.977,152.261 281.421,150.419 278.792 C 150.030 278.238,149.577 277.338,149.412 276.792 C 148.032 272.232,143.794 272.548,144.980 277.123 C 145.678 279.815,145.797 283.031,145.213 283.392 C 145.000 283.524,144.289 284.749,143.632 286.116 C 139.345 295.038,130.591 296.409,123.279 289.303 C 121.238 287.319,119.218 284.482,119.207 283.585 C 119.203 283.246,118.868 282.317,118.461 281.520 C 118.055 280.723,117.616 278.929,117.485 277.533 C 117.355 276.137,116.881 274.186,116.433 273.198 C 115.310 270.721,115.268 262.841,116.354 258.200 C 116.766 256.440,117.223 253.471,117.369 251.603 C 117.515 249.735,117.886 247.823,118.193 247.354 C 118.500 246.885,119.048 245.358,119.410 243.960 C 119.772 242.563,120.392 240.785,120.786 240.009 C 121.181 239.234,122.154 237.340,122.950 235.800 C 123.746 234.260,124.398 232.780,124.399 232.512 C 124.400 231.884,126.729 227.291,127.191 227.006 C 127.384 226.886,127.760 226.126,128.028 225.316 C 128.295 224.506,129.096 223.024,129.808 222.022 C 130.520 221.020,131.241 219.750,131.409 219.200 C 131.578 218.650,131.972 217.807,132.287 217.326 C 132.601 216.845,133.250 215.741,133.729 214.871 C 135.847 211.028,137.174 209.232,139.700 206.789 C 141.185 205.353,142.400 203.964,142.400 203.703 C 142.400 203.442,142.748 203.042,143.173 202.814 C 143.598 202.587,144.054 202.060,144.186 201.644 C 144.505 200.638,146.716 200.284,147.166 201.166 C 147.344 201.515,147.602 202.930,147.740 204.310 C 147.877 205.691,148.239 207.311,148.543 207.910 C 148.847 208.510,149.225 209.900,149.382 211.000 C 150.172 216.519,152.161 221.529,154.882 224.856 C 155.717 225.876,156.400 226.877,156.400 227.081 C 156.400 227.851,158.755 229.660,160.741 230.414 C 164.550 231.862,166.159 231.214,164.814 228.775 C 164.397 228.019,163.856 226.963,163.611 226.430 C 163.367 225.896,162.544 224.771,161.783 223.929 L 160.400 222.398 160.400 217.986 C 160.400 214.969,160.590 213.120,161.000 212.138 C 161.330 211.349,161.604 209.779,161.609 208.651 C 161.615 207.403,162.006 205.661,162.608 204.200 C 163.151 202.880,163.597 201.340,163.598 200.779 C 163.599 200.217,164.058 198.777,164.618 197.579 C 165.931 194.768,170.760 184.841,171.321 183.800 C 171.558 183.360,172.067 182.356,172.452 181.569 C 172.837 180.782,173.433 179.905,173.776 179.620 C 174.119 179.335,174.400 178.886,174.400 178.621 C 174.400 178.356,175.165 177.125,176.100 175.885 C 177.035 174.645,178.160 173.097,178.600 172.445 C 180.573 169.521,183.612 165.756,184.370 165.297 C 184.826 165.020,185.202 164.570,185.204 164.297 C 185.206 164.023,186.129 162.723,187.255 161.407 C 188.382 160.091,189.590 158.561,189.940 158.007 C 190.291 157.453,191.604 155.920,192.859 154.600 C 194.114 153.280,196.819 150.410,198.870 148.222 C 200.922 146.034,203.410 143.472,204.400 142.529 C 205.390 141.585,207.904 139.190,209.987 137.207 C 212.071 135.223,213.974 133.600,214.218 133.600 C 214.461 133.600,215.083 133.150,215.600 132.600 C 216.117 132.050,216.786 131.600,217.087 131.600 C 217.388 131.600,218.582 130.900,219.741 130.044 C 220.899 129.188,222.827 128.003,224.024 127.411 C 225.221 126.819,226.470 126.169,226.800 125.966 C 227.130 125.763,228.348 125.125,229.508 124.548 C 230.667 123.971,231.712 123.342,231.831 123.150 C 231.950 122.957,232.318 122.800,232.648 122.800 C 233.192 122.800,234.234 122.370,239.400 120.014 C 240.280 119.613,242.060 119.159,243.356 119.006 C 244.652 118.853,246.362 118.397,247.156 117.991 C 247.950 117.586,249.500 117.139,250.600 116.997 C 251.700 116.856,253.790 116.466,255.245 116.130 C 261.763 114.624,280.654 115.834,287.400 118.190 C 288.280 118.497,289.657 118.855,290.459 118.985 C 291.262 119.115,292.355 119.564,292.889 119.984 C 293.422 120.403,295.105 121.236,296.629 121.834 C 298.153 122.431,299.761 123.244,300.202 123.638 C 300.643 124.033,302.082 124.931,303.399 125.633 C 304.716 126.336,305.975 127.136,306.197 127.411 C 306.418 127.685,307.500 128.583,308.600 129.405 C 311.586 131.638,316.513 136.429,317.942 138.491 C 318.289 138.991,318.893 139.749,319.286 140.175 C 319.679 140.602,320.000 141.075,320.000 141.227 C 320.000 141.379,320.810 142.547,321.800 143.822 C 322.790 145.097,323.600 146.484,323.600 146.905 C 323.600 147.326,324.212 148.779,324.961 150.135 C 327.362 154.485,328.394 166.986,326.556 169.473 C 326.092 170.102,325.572 171.059,325.400 171.600 C 325.228 172.141,324.781 173.038,324.406 173.592 C 322.335 176.656,321.600 177.890,321.600 178.302 C 321.600 180.050,312.214 185.947,307.980 186.860 C 303.906 187.739,296.905 186.341,294.630 184.195 C 294.393 183.972,293.720 183.482,293.132 183.107 C 292.482 182.691,291.415 181.086,290.401 179.003 L 288.738 175.581 289.644 173.691 C 291.082 170.689,292.422 169.231,294.000 168.949 C 294.770 168.812,296.189 168.346,297.154 167.915 C 299.051 167.067,301.073 167.185,302.569 168.233 C 303.014 168.545,303.631 168.800,303.941 168.800 C 304.250 168.800,305.212 169.441,306.079 170.224 C 308.344 172.270,310.403 171.229,308.979 168.758 C 308.676 168.231,308.078 167.059,307.651 166.153 C 306.801 164.351,304.281 162.403,301.739 161.584 C 300.893 161.312,299.678 160.900,299.039 160.670 C 296.396 159.719,291.908 160.265,288.167 161.993 C 286.254 162.877,284.488 163.602,284.244 163.604 C 284.000 163.606,282.668 164.326,281.284 165.204 C 279.900 166.082,278.634 166.800,278.471 166.800 C 277.745 166.800,274.215 170.804,273.013 172.992 C 271.306 176.099,271.008 177.859,271.762 180.398 C 272.680 183.489,273.949 185.881,276.400 189.143 C 277.566 190.695,278.587 191.631,279.300 191.801 C 279.904 191.945,280.624 192.364,280.900 192.732 C 281.175 193.099,281.940 193.669,282.600 193.997 C 283.260 194.325,284.790 195.155,286.000 195.841 C 287.735 196.826,288.859 197.143,291.320 197.341 C 293.036 197.480,294.811 197.792,295.265 198.035 C 295.739 198.289,296.711 198.364,297.546 198.211 C 298.345 198.065,300.350 197.892,302.000 197.826 C 310.006 197.510,316.698 196.169,317.980 194.624 C 318.229 194.324,318.871 193.969,319.406 193.834 C 319.941 193.700,321.039 193.142,321.845 192.595 C 322.652 192.048,323.491 191.600,323.711 191.600 C 324.131 191.600,328.950 187.841,331.000 185.914 C 331.660 185.293,332.857 184.196,333.661 183.475 C 335.754 181.596,338.000 178.533,338.000 177.557 C 338.000 177.097,338.265 176.154,338.589 175.460 C 341.178 169.915,342.174 158.050,340.440 153.414 C 339.978 152.180,339.600 150.794,339.600 150.333 C 339.600 149.449,337.758 143.418,337.177 142.400 C 336.989 142.070,336.404 140.893,335.878 139.784 C 333.351 134.460,319.939 120.834,313.728 117.282 C 312.560 116.614,306.967 113.490,303.800 111.736 C 302.920 111.249,301.390 110.466,300.400 109.997 C 299.410 109.528,297.520 108.617,296.200 107.974 C 294.880 107.330,293.170 106.684,292.400 106.539 C 291.630 106.394,290.571 105.944,290.046 105.538 C 289.521 105.132,288.567 104.800,287.926 104.800 C 287.285 104.800,286.274 104.555,285.680 104.255 C 283.268 103.038,276.934 101.578,272.332 101.178 C 269.682 100.948,266.677 100.592,265.656 100.387 C 261.709 99.595,253.976 99.490,250.400 100.181 C 248.530 100.542,245.020 101.087,242.600 101.392 C 240.180 101.696,237.570 102.121,236.800 102.336 C 236.030 102.550,234.050 102.836,232.400 102.971 C 230.750 103.106,226.880 103.852,223.800 104.630 C 220.720 105.408,217.300 106.229,216.200 106.455 C 215.100 106.681,213.639 107.212,212.953 107.633 C 212.267 108.055,211.007 108.402,210.153 108.404 C 209.299 108.406,207.680 108.836,206.555 109.360 C 205.430 109.884,203.900 110.440,203.155 110.597 C 200.625 111.128,196.603 112.503,195.969 113.052 C 195.621 113.354,195.104 113.600,194.819 113.600 C 194.264 113.600,190.311 115.224,188.000 116.400 C 187.230 116.792,185.973 117.246,185.206 117.409 C 184.439 117.572,183.449 117.931,183.006 118.207 C 182.563 118.483,181.030 119.215,179.600 119.833 C 178.170 120.451,176.491 121.372,175.869 121.878 C 175.247 122.385,174.420 122.800,174.031 122.800 C 173.642 122.800,172.998 123.160,172.600 123.600 C 172.202 124.040,171.714 124.400,171.517 124.400 C 171.319 124.400,170.495 124.850,169.686 125.400 C 168.877 125.950,167.902 126.400,167.521 126.400 C 167.140 126.400,166.237 126.914,165.514 127.541 C 164.791 128.169,163.480 129.145,162.600 129.710 C 161.720 130.276,160.370 131.295,159.600 131.976 C 158.830 132.657,157.531 133.681,156.713 134.252 C 155.895 134.823,154.326 136.215,153.225 137.345 C 152.125 138.475,150.051 140.597,148.617 142.060 C 147.184 143.523,145.826 145.143,145.601 145.660 C 145.376 146.177,144.292 147.770,143.193 149.200 C 142.093 150.630,140.928 152.373,140.603 153.073 C 140.278 153.773,139.844 154.449,139.638 154.576 C 139.433 154.703,138.588 156.018,137.760 157.498 C 136.933 158.978,136.106 160.371,135.923 160.594 C 134.498 162.333,133.200 164.165,133.200 164.437 C 133.200 164.786,131.545 167.410,130.709 168.387 C 129.948 169.275,128.479 171.489,127.839 172.711 C 127.525 173.310,126.739 174.340,126.092 175.000 C 125.444 175.660,124.626 176.740,124.274 177.400 C 123.922 178.060,123.131 179.164,122.517 179.854 C 119.990 182.691,119.509 183.343,119.120 184.457 C 118.703 185.652,116.621 187.081,116.226 186.442 C 115.671 185.544,116.067 178.170,116.737 176.918 C 116.972 176.478,117.440 174.877,117.777 173.359 C 118.848 168.532,119.539 166.404,120.381 165.334 C 120.831 164.761,121.200 164.039,121.200 163.729 C 121.200 163.419,121.920 162.212,122.800 161.046 C 123.680 159.881,124.400 158.581,124.400 158.159 C 124.400 157.450,127.646 152.188,128.940 150.800 C 129.247 150.470,129.616 149.819,129.760 149.353 C 129.903 148.887,130.376 148.184,130.810 147.791 C 131.245 147.398,131.600 146.768,131.600 146.392 C 131.600 146.016,131.960 145.250,132.400 144.691 C 132.840 144.131,133.200 143.548,133.200 143.395 C 133.200 143.241,133.650 142.581,134.200 141.927 C 134.750 141.273,135.200 140.399,135.200 139.983 C 135.200 139.568,135.558 139.037,135.995 138.803 C 136.433 138.568,136.911 137.887,137.059 137.288 C 137.206 136.690,137.999 135.120,138.821 133.800 C 139.643 132.480,140.444 130.770,140.601 130.000 C 140.758 129.230,141.201 128.060,141.585 127.400 C 142.398 126.005,143.412 122.478,143.092 122.158 C 142.972 122.038,143.054 121.368,143.276 120.670 C 144.218 117.698,144.387 111.242,143.589 108.649 C 143.175 107.302,142.717 105.390,142.571 104.400 C 142.426 103.410,141.977 102.020,141.574 101.312 C 141.171 100.603,140.714 99.343,140.558 98.512 C 140.313 97.197,138.044 94.401,137.222 94.400 C 137.100 94.399,136.477 93.949,135.838 93.400 C 135.199 92.850,134.493 92.400,134.269 92.400 C 134.046 92.400,133.549 92.116,133.166 91.769 C 132.650 91.302,126.600 89.361,126.600 89.662 C 126.600 89.689,125.610 89.938,124.400 90.217 M246.600 136.825 C 243.300 137.025,239.790 137.385,238.800 137.624 C 237.810 137.863,235.604 138.305,233.897 138.607 C 232.190 138.909,230.580 139.289,230.319 139.450 C 230.057 139.612,228.754 140.063,227.422 140.452 C 220.969 142.338,214.511 145.403,211.762 147.883 C 211.081 148.497,209.834 149.540,208.990 150.200 C 206.829 151.891,205.304 153.586,204.582 155.100 C 204.241 155.815,203.804 156.400,203.611 156.400 C 203.078 156.400,201.198 160.750,201.213 161.948 C 201.230 163.259,202.234 164.492,204.024 165.397 C 204.781 165.780,205.760 166.409,206.200 166.794 C 207.881 168.267,212.303 168.079,213.569 166.481 C 213.916 166.043,214.610 165.562,215.110 165.412 C 216.205 165.084,219.200 163.166,219.200 162.793 C 219.200 162.647,219.965 162.298,220.900 162.016 C 222.596 161.505,222.977 161.350,227.275 159.421 C 228.527 158.860,229.977 158.400,230.498 158.400 C 231.018 158.400,232.055 157.950,232.800 157.400 C 233.555 156.843,234.701 156.400,235.389 156.400 C 236.067 156.400,237.967 155.718,239.611 154.883 C 241.255 154.049,243.860 153.126,245.400 152.831 C 246.940 152.537,248.380 152.172,248.600 152.020 C 249.967 151.077,256.204 149.781,266.000 148.405 C 273.931 147.290,286.605 147.257,289.000 148.344 C 289.880 148.744,291.590 149.199,292.800 149.356 C 296.140 149.788,302.875 152.535,304.209 154.010 C 304.602 154.445,305.101 154.800,305.318 154.800 C 305.749 154.800,309.653 158.146,312.236 160.729 C 314.254 162.749,316.108 162.670,316.319 160.555 C 316.430 159.445,310.870 152.800,309.831 152.800 C 309.673 152.800,308.701 152.100,307.672 151.245 C 305.669 149.580,303.096 148.284,297.237 145.985 C 296.487 145.691,295.317 144.845,294.637 144.104 C 293.801 143.193,292.817 142.630,291.600 142.364 C 290.610 142.148,288.900 141.636,287.800 141.226 C 282.668 139.313,280.448 138.813,276.000 138.571 C 273.266 138.422,270.345 138.000,268.800 137.532 C 265.637 136.573,255.863 136.262,246.600 136.825 M178.691 137.774 C 179.381 138.340,178.832 139.815,177.800 140.173 C 177.140 140.402,176.461 140.808,176.291 141.075 C 176.121 141.342,174.816 142.732,173.391 144.164 C 171.966 145.596,170.800 146.957,170.800 147.188 C 170.800 147.419,170.250 148.182,169.579 148.885 C 166.824 151.767,161.610 158.323,161.604 158.913 C 161.593 159.879,155.482 165.185,154.090 165.437 C 153.271 165.586,152.114 165.953,151.520 166.253 C 150.926 166.554,150.050 166.800,149.574 166.800 C 148.825 166.800,144.044 170.447,143.664 171.308 C 143.434 171.829,141.430 172.701,140.900 172.512 C 139.902 172.156,140.527 170.092,142.872 166.000 C 143.061 165.670,143.503 164.770,143.854 164.000 C 144.604 162.355,148.304 157.600,148.834 157.600 C 149.035 157.600,149.200 157.312,149.200 156.960 C 149.200 156.188,150.484 154.962,155.548 150.899 C 157.666 149.198,159.760 147.425,160.200 146.959 C 160.640 146.493,161.449 145.970,161.998 145.797 C 162.548 145.625,163.178 145.264,163.398 144.996 C 163.822 144.481,166.052 143.245,168.400 142.225 C 169.170 141.890,170.070 141.444,170.400 141.233 C 170.730 141.023,171.630 140.547,172.400 140.175 C 175.401 138.728,176.212 138.245,176.530 137.715 C 176.799 137.265,178.115 137.302,178.691 137.774 M238.600 163.264 C 235.814 163.779,233.028 164.693,230.117 166.046 C 228.751 166.681,227.503 167.200,227.343 167.200 C 227.066 167.200,224.941 168.119,222.800 169.165 C 220.893 170.097,219.141 171.129,218.472 171.716 C 218.103 172.040,217.353 172.442,216.808 172.609 C 215.084 173.136,212.801 174.904,207.059 180.159 C 201.589 185.165,199.884 186.877,198.800 188.457 C 198.250 189.259,196.846 191.059,195.679 192.457 C 192.037 196.823,189.730 200.358,188.405 203.600 C 188.181 204.150,187.378 205.410,186.621 206.400 C 185.864 207.390,184.132 210.450,182.773 213.200 C 181.414 215.950,179.776 218.865,179.134 219.678 C 178.316 220.715,177.894 221.790,177.723 223.278 C 177.588 224.445,177.146 226.027,176.740 226.793 C 176.334 227.559,175.894 228.819,175.763 229.593 C 175.460 231.385,174.121 235.131,173.368 236.294 C 173.050 236.786,172.680 238.316,172.547 239.694 C 172.414 241.072,172.027 242.643,171.688 243.185 C 171.348 243.726,170.850 245.256,170.581 246.585 C 169.859 250.145,168.834 254.280,167.999 257.000 C 167.593 258.320,167.146 261.290,167.004 263.600 C 166.862 265.910,166.447 268.700,166.081 269.800 C 165.160 272.568,165.140 287.562,166.055 289.400 C 166.383 290.060,166.856 291.500,167.106 292.600 C 168.609 299.217,169.350 301.874,169.855 302.445 C 170.168 302.800,170.535 304.060,170.670 305.245 C 170.806 306.430,171.214 307.850,171.578 308.400 C 171.942 308.950,172.842 310.615,173.580 312.100 C 174.317 313.585,175.059 314.800,175.229 314.800 C 175.399 314.800,175.742 315.418,175.991 316.174 C 176.444 317.544,179.193 320.400,180.060 320.400 C 180.553 320.400,183.528 322.736,184.936 324.229 C 187.793 327.258,198.742 329.799,203.040 328.431 C 203.678 328.228,204.870 327.951,205.689 327.815 C 207.101 327.581,216.026 321.997,216.336 321.153 C 216.411 320.950,217.024 320.498,217.699 320.149 C 220.211 318.850,225.017 314.126,227.033 310.976 C 227.798 309.779,228.599 308.800,228.812 308.800 C 229.026 308.800,229.200 308.554,229.200 308.254 C 229.200 307.954,229.551 307.261,229.980 306.716 C 231.041 305.367,234.198 299.235,234.807 297.339 C 235.079 296.492,235.549 295.515,235.853 295.166 C 236.724 294.165,236.786 287.893,235.934 286.943 C 235.567 286.534,235.144 285.531,234.992 284.714 C 234.377 281.401,231.951 282.035,231.562 285.611 C 231.308 287.956,229.535 292.081,228.210 293.414 C 227.764 293.861,226.307 295.571,224.971 297.214 C 222.966 299.679,217.222 304.400,216.227 304.400 C 216.122 304.400,215.008 305.120,213.751 306.000 C 212.495 306.880,211.142 307.600,210.743 307.600 C 210.345 307.600,209.430 307.959,208.710 308.399 C 207.406 309.193,204.628 309.492,204.248 308.878 C 204.138 308.700,205.371 307.338,206.988 305.851 C 210.075 303.010,210.656 301.926,210.007 300.218 C 209.435 298.714,208.524 298.549,206.600 299.600 C 203.409 301.343,197.197 300.270,193.400 297.320 C 192.740 296.807,192.018 296.256,191.796 296.094 C 188.904 293.988,185.259 290.428,184.952 289.409 C 184.818 288.964,184.381 288.240,183.981 287.800 C 183.581 287.360,183.062 286.550,182.828 286.000 C 182.593 285.450,182.246 284.730,182.054 284.400 C 177.862 277.162,176.405 262.340,179.171 255.074 C 179.407 254.455,179.600 253.321,179.600 252.554 C 179.600 251.787,179.890 250.599,180.245 249.913 C 180.600 249.227,181.133 247.391,181.430 245.833 C 181.727 244.275,182.323 241.920,182.755 240.600 C 183.187 239.280,183.927 236.924,184.399 235.365 C 184.872 233.806,185.604 232.006,186.027 231.365 C 186.449 230.724,186.796 229.823,186.797 229.362 C 186.799 228.901,187.144 228.213,187.564 227.833 C 187.984 227.452,188.445 226.674,188.589 226.102 C 188.732 225.531,189.198 224.620,189.625 224.078 C 190.051 223.536,190.400 222.862,190.400 222.580 C 190.400 222.298,191.032 220.927,191.805 219.534 C 192.578 218.140,193.496 216.379,193.844 215.620 C 194.192 214.862,195.090 213.283,195.839 212.113 C 196.587 210.942,197.200 209.841,197.200 209.666 C 197.200 209.490,198.452 207.739,199.983 205.773 C 204.012 200.598,204.158 200.396,205.414 198.200 C 206.658 196.026,207.015 195.584,210.600 191.777 C 211.920 190.375,213.195 188.907,213.434 188.514 C 213.673 188.121,214.419 187.440,215.092 187.000 C 215.765 186.560,216.564 185.798,216.868 185.306 C 218.302 182.987,223.292 178.556,228.029 175.396 C 230.860 173.507,233.270 171.810,233.385 171.625 C 233.718 171.085,240.909 167.644,243.049 167.000 C 247.597 165.631,248.249 163.207,244.071 163.195 C 243.042 163.192,241.840 163.123,241.400 163.041 C 240.960 162.960,239.700 163.060,238.600 163.264 M149.405 180.900 C 149.658 181.935,149.138 184.677,148.248 187.000 C 147.906 187.893,147.625 189.927,147.611 191.600 C 147.577 195.969,145.819 197.133,144.146 193.894 C 143.778 193.182,143.195 192.394,142.851 192.141 C 140.892 190.706,142.517 185.782,146.149 182.147 C 148.454 179.839,149.086 179.597,149.405 180.900 " stroke="none" fill="#000" fill-rule="evenodd"></path></svg>