<?xml version="1.0" encoding="utf-8"?>
<svg viewBox="20 20 150 150" xmlns="http://www.w3.org/2000/svg">
  <path d="M 58.197 29.034 L 60.548 32.27 C 60.548 32.27 60.106 35.063 64.808 41.535 C 66.461 43.81 74.878 55.396 85.675 70.256 C 85.307 59.322 84.545 44.356 83 35 C 82.381 31.25 80 24 80 24 L 80 20 L 110 20 L 110 24 C 110 24 107.619 31.25 107 35 C 105.455 44.356 104.693 59.322 104.325 70.256 C 115.122 55.396 123.539 43.81 125.192 41.535 C 129.894 35.063 129.452 32.27 129.452 32.27 L 131.803 29.034 L 146.365 39.614 L 144.014 42.85 C 144.014 42.85 141.22 43.292 136.518 49.764 C 134.547 52.478 122.949 68.44 109.172 87.402 L 80.828 87.402 C 67.05 68.439 55.452 52.478 53.482 49.764 C 48.78 43.292 45.986 42.85 45.986 42.85 L 43.635 39.614 Z M 156 88 C 164 88 166 86 166 86 L 170 86 L 170 104 L 166 104 C 166 104 164 102 156 102 C 155.004 102 152.564 102 149.011 102 L 149.011 88 C 152.564 88 155.004 88 156 88 Z M 136.518 140.236 C 141.22 146.708 144.014 147.15 144.014 147.15 L 146.365 150.386 L 131.803 160.966 L 129.452 157.73 C 129.452 157.73 129.894 154.937 125.192 148.465 C 123.539 146.19 115.122 134.604 104.325 119.744 C 104.693 130.678 105.455 145.644 107 155 C 107.619 158.75 110 166 110 166 L 110 170 L 80 170 L 80 166 C 80 166 82.381 158.75 83 155 C 84.545 145.644 85.307 130.678 85.675 119.744 C 74.878 134.604 66.461 146.19 64.808 148.465 C 60.106 154.937 60.548 157.73 60.548 157.73 L 58.197 160.966 L 43.635 150.386 L 45.986 147.15 C 45.986 147.15 48.78 146.708 53.482 140.236 C 55.377 137.628 66.165 122.781 79.234 104.792 L 110.766 104.792 C 123.835 122.781 134.623 137.628 136.518 140.236 Z M 34 102 C 26 102 24 104 24 104 L 20 104 L 20 86 L 24 86 C 24 86 26 88 34 88 C 34.874 88 36.86 88 39.734 88 L 39.734 102 C 36.86 102 34.874 102 34 102 Z"/>
  <path style="stroke: rgb(0, 0, 0); fill: none; stroke-width: 16px;" d="M 95 95.01 C 95 95.01 95 95.01 99.1 92.01 C 171 39.81 171 150.21 99.1 98.01 C 95 95.01 95 95.01 95 95.01 Z M 90.9 98 C 19 150.2 19 39.8 90.9 92 C 95 95 95 95 95 95 C 95 95 95 95 90.9 98 Z"/>
</svg>