<?xml version="1.0" encoding="utf-8"?>
<svg viewBox="0 0 850 850" xmlns="http://www.w3.org/2000/svg">
  <g transform="translate(0 850) scale(.1 -.1)">
<path d="m6110 8450c-108-72-181-169-195-260-9-60 10-172 41-241 48-106 150-174 280-186 61-6 72-10 111-46 109-101 132-279 56-432-59-116-291-303-514-416l-99-49h-572-573l-69 40c-169 99-292 212-346 319-45 91-65 271-40 363 20 69 121 128 222 128 77 0 187 82 260 194 41 64 81 178 92 262 6 49 5 53-24 78-17 14-47 30-68 36-23 6-211 10-494 10h-457l-37-32c-77-67-89-145-52-314 18-82 22-131 22-284 1-178 0-188-27-265-33-93-56-133-111-192l-39-43h-313-314l-20 33c-71 115-56 292 36 432 47 72 63 89 115 118 135 77 248 280 252 454 2 90-6 93-232 93-217 0-449-13-646-36-123-15-159-15-292-4-183 15-187 14-177-64 23-192 105-337 256-448 21-16 48-51 65-85l28-58 6-736 36-62c20-34 66-92 103-129 103-104 54-98 859-98 415 0 710 4 746 10 91 15 300 13 380-3 202-43 325-137 385-295 18-46 20-78 20-321 1-287-4-327-48-350-32-17-79-13-125 11-54 27-261 42-457 33-127-6-157-12-513-101-436-110-814-216-1083-305l-189-62-75-76c-204-207-566-658-733-911-45-69-64-111-97-220-89-290-164-638-196-910-24-202-24-491 0-635 95-579 476-1391 813-1734 82-82 143-123 232-152 36-12 138-55 226-96 278-130 447-205 545-240 609-223 1092-214 1638 30 163 73 271 136 395 228 349 262 590 634 712 1103 26 102 88 439 104 571 46 366 46 886 0 1090-32 139-183 360-368 538-202 193-418 306-658 342-123 19-196 19-353 0-277-32-522-122-659-242-61-53-193-215-244-300-97-159-157-404-157-633 1-231 115-427 304-516 194-92 462-81 616 25 115 79 177 215 187 406l6 110-49 24c-36 18-71 25-135 29-77 4-92 2-150-24-84-36-131-37-167-1-24 25-27 34-27 100 0 94 35 168 120 253 129 130 327 187 534 155 363-57 562-258 658-661 34-143 43-412 19-580-62-443-243-774-575-1051-254-213-506-337-786-386-112-19-382-13-495 12-327 72-650 248-986 537-360 310-554 747-554 1246 0 530 219 1135 590 1631 280 374 558 588 929 716 182 62 320 86 536 92 228 6 366-10 525-63 174-58 262-120 311-217 41-80 118-160 188-194 53-26 65-28 219-31l162-4v830 829l48 40c265 222 588 308 937 248 26-5 48 7 155 86 300 219 464 377 520 501 18 39 20 67 20 330v288l44 57c45 59 86 159 86 210 0 56-23 110-77 180-146 192-346 322-553 359-46 8-154 13-280 14h-205l-45-30z"/>
</g>
</svg>