<?xml version="1.0" encoding="utf-8"?>
<svg viewBox="0 0 850 850" xmlns="http://www.w3.org/2000/svg">
  <g transform="translate(0 850) scale(.1 -.1)">
<path d="m6260 8469c-77-15-186-76-246-137-65-65-136-204-154-297-31-161 58-314 230-398 215-106 441-81 595 64 257 243 104 687-264 765-74 15-96 16-161 3z"/>
<path d="m2840 7327c-34-17-83-115-105-214l-18-81-51 38c-108 80-198 110-334 110-114 0-207-28-327-98-359-210-669-638-780-1079-48-193-59-284-59-518-1-306 35-508 119-675 46-91 83-131 158-174 85-48 159-129 142-156-26-41-202-282-261-355-109-136-243-323-270-377-13-26-24-60-24-76 0-52-39-184-98-326l-57-141 2-120c2-141 26-379 53-519 18-92 22-101 57-131 42-35 62-76 172-338 78-184 108-237 154-276 17-14 59-50 92-80 171-154 362-270 447-274 24-1 113 11 198 27 118 21 199 29 341 33 203 6 285-3 381-41l58-24 111 48c204 88 348 190 389 276 38 77 20 131-110 330-104 160-113 189-118 369l-3 150 38 37c21 20 74 62 118 93 167 120 282 150 344 91 96-92 86-309-18-428-21-24-51-50-66-58-25-14-27-18-23-68 8-92 67-142 191-162 152-24 247 33 328 195 83 169 123 405 123 740 0 288-2 299-57 326-23 12-69 49-103 83-100 100-144 218-144 385-1 166-27 277-129 551l-76 205v125c0 99 5 142 23 205 73 257 211 517 362 680 85 91 105 144 105 285 0 74-4 103-19 130-60 113-135 126-261 45-74-48-126-103-165-175-48-88-131-170-206-206-58-27-63-32-77-79-28-90-28-109-17-483 6-203 11-504 11-669 1-375 11-514 44-611 53-155 59-323 16-434-26-68-101-154-169-195l-47-28-1e3 -10-77-37c-42-20-97-55-122-78-52-48-102-143-109-207l-5-43h364 365l15-35c23-55 34-202 34-460 0-460-47-525-340-469-348 66-641 278-789 572-85 169-121 346-121 598 0 423 92 725 277 906 71 71 115 101 207 143 142 65 180 70 586 71 201 0 378 4 392 7 18 5 33 21 50 54 23 47 23 53 26 418 2 203 0 381-3 394-5 20-10 22-38 17-56-10-193-84-246-132-57-51-97-120-107-183l-7-41h-222c-193 0-231 3-286 20-289 89-447 381-426 790 26 527 381 1103 720 1171 44 9 65 8 110-5 46-13 69-29 134-94 126-124 218-256 264-381 23-61 26-65 84-92 178-85 306-18 360 186l14 56-43 112c-110 285-184 549-193 694l-6 93-46 29c-92 59-150 73-201 48z"/>
<path d="m4800 7067c0-38 29-139 56-194 43-89 103-146 209-198 104-50 154-98 173-164 9-27 12-246 12-780v-741l30-66c61-136 160-260 261-328 50-33 59-36 129-36 123-1 201-53 229-153 12-41 18-48 55-60 46-15 66-44 66-97 0-81-61-126-190-142-118-15-170-33-266-97-378-249-766-834-865-1305-31-144-31-354 0-486 69-295 186-515 381-711 251-254 568-376 847-326 78 15 87 19 145 71 153 137 364 198 553 162 44-8 98-21 121-27l41-12 79 59c105 79 238 213 314 315 77 104 153 258 182 370l22 87-65 69c-36 38-78 92-93 119-37 65-72 175-81 249-4 33-16 78-27 100-48 92-191 193-348 243-131 42-235 56-430 56-164 1-194-2-265-22-245-71-394-256-395-489 0-99 16-165 53-220 45-66 81-84 182-91 66-4 95-1 129 12 115 44 149 164 101 355l-14 55 41 38c23 21 67 51 97 66 149 72 341-6 417-171 27-58 29-70 29-187-1-110-4-134-28-205-72-208-224-373-430-470-130-62-221-80-397-79-170 0-230 11-348 65-190 86-334 253-388 449-26 97-24 271 5 374 48 172 139 323 285 475 154 159 530 449 1121 866 332 234 476 345 526 403 64 77 163 317 200 487 9 41 12 111 10 220-14 577-5 822 50 1315 27 242 35 258 185 405 92 91 114 119 124 155 25 91-11 178-90 218l-44 22h-578c-476 0-578-2-578-13 0-35 42-174 67-218 36-68 111-140 184-179 79-42 134-98 168-169l26-56 3-709c3-786 5-764-62-842-73-86-198-126-391-126s-318 40-391 126c-66 77-64 46-64 1028v889l24 47c30 60 45 107 55 171l8 51h-583-584v-23z"/>
<path d="m2315 814c-109-19-155-38-209-86-88-76-127-179-128-330 0-71 5-106 22-150 59-159 245-257 431-230 352 52 514 464 273 692-64 60-135 95-224 109-76 13-64 13-165-5z"/>
</g>
</svg>