<svg id="svg" version="1.1" xmlns="http://www.w3.org/2000/svg" xmlns:xlink="http://www.w3.org/1999/xlink" width="400" height="400" viewBox="0, 0, 400,400"><path id="path0" d="M222.584 41.722 C 218.066 44.057,217.289 44.400,216.508 44.400 C 216.077 44.400,215.415 44.741,215.037 45.159 C 214.660 45.576,213.593 46.108,212.667 46.341 C 211.741 46.575,208.860 47.853,206.266 49.183 C 203.672 50.512,201.277 51.600,200.944 51.600 C 200.610 51.600,198.957 52.247,197.269 53.039 C 189.897 56.495,184.956 58.955,184.400 59.448 C 182.824 60.844,180.870 62.333,179.600 63.106 C 177.431 64.427,171.511 70.726,169.883 73.444 C 167.061 78.159,167.476 81.715,171.115 84.001 C 173.947 85.780,174.836 85.488,175.992 82.400 C 176.452 81.173,180.550 76.800,181.241 76.800 C 181.382 76.800,182.592 75.925,183.930 74.856 C 185.337 73.731,187.424 72.539,188.881 72.028 C 190.267 71.542,192.300 70.806,193.400 70.392 C 202.782 66.860,216.745 65.909,219.454 68.617 C 221.341 70.504,220.812 72.087,217.800 73.570 C 215.060 74.919,214.234 76.701,215.761 77.968 C 216.279 78.397,217.399 80.512,218.958 84.000 C 219.302 84.770,219.737 85.670,219.924 86.000 C 221.171 88.202,222.002 90.061,222.018 90.679 C 222.027 91.076,222.307 92.120,222.640 93.000 C 222.973 93.880,223.494 95.713,223.796 97.074 C 224.099 98.434,224.618 99.964,224.949 100.474 C 225.331 101.062,225.596 102.641,225.675 104.800 L 225.800 108.200 224.580 108.319 C 223.748 108.401,223.123 108.178,222.618 107.619 C 221.689 106.593,219.939 106.562,219.039 107.557 C 218.617 108.023,217.541 108.415,216.236 108.578 C 215.071 108.724,213.254 109.103,212.199 109.420 C 211.144 109.738,208.643 110.267,206.640 110.596 C 202.172 111.330,199.032 112.158,197.875 112.908 C 197.394 113.219,196.062 113.583,194.915 113.716 C 193.768 113.850,192.148 114.322,191.315 114.766 C 190.482 115.210,188.630 116.136,187.200 116.825 C 185.770 117.513,183.790 118.596,182.800 119.230 C 181.810 119.865,180.628 120.551,180.174 120.754 C 174.754 123.182,161.786 134.345,156.521 141.116 C 152.151 146.736,151.514 147.679,151.126 149.106 C 150.903 149.928,150.482 150.870,150.191 151.200 C 149.900 151.530,149.533 152.340,149.374 153.000 C 149.216 153.660,148.752 154.868,148.343 155.684 C 147.888 156.592,147.591 158.067,147.577 159.484 C 147.565 160.758,147.334 162.430,147.064 163.200 C 146.499 164.810,147.401 170.426,148.492 172.091 C 148.824 172.597,149.220 173.579,149.372 174.272 C 149.524 174.966,149.885 175.624,150.173 175.734 C 150.462 175.845,151.096 176.758,151.583 177.764 C 153.459 181.639,159.432 186.041,163.892 186.835 C 165.161 187.061,166.972 187.532,167.915 187.883 C 171.326 189.150,181.200 185.596,181.200 183.101 C 181.200 182.919,182.016 181.922,183.014 180.885 C 186.584 177.176,184.597 174.329,180.579 177.395 C 177.118 180.037,171.878 178.857,167.657 174.485 C 162.656 169.306,165.094 166.718,178.800 162.656 C 183.299 161.322,194.737 160.415,197.315 161.187 C 198.241 161.465,199.654 161.683,200.456 161.671 C 201.397 161.658,202.382 161.997,203.235 162.626 C 203.961 163.162,204.708 163.600,204.893 163.600 C 205.719 163.600,209.370 166.464,210.325 167.861 C 211.910 170.180,212.041 173.917,210.642 176.875 C 210.069 178.086,209.600 179.364,209.600 179.715 C 209.600 180.066,209.412 180.469,209.183 180.610 C 208.954 180.752,208.487 181.566,208.146 182.419 C 206.967 185.365,198.198 192.350,195.600 192.411 C 195.270 192.419,194.651 192.690,194.224 193.013 C 193.796 193.336,193.037 193.600,192.536 193.600 C 192.035 193.600,190.224 194.065,188.512 194.633 C 183.577 196.272,170.508 196.310,167.052 194.697 C 165.760 194.093,164.410 193.599,164.052 193.598 C 163.089 193.595,158.910 191.824,158.067 191.061 C 157.665 190.697,157.123 190.400,156.861 190.400 C 156.330 190.400,152.624 188.482,151.152 187.445 C 150.628 187.076,148.940 185.956,147.400 184.954 C 144.024 182.758,144.205 182.915,138.100 176.892 C 135.405 174.233,133.200 171.863,133.200 171.625 C 133.200 171.387,132.549 170.266,131.754 169.134 C 130.959 168.003,130.048 166.520,129.730 165.839 C 129.412 165.157,128.895 164.150,128.582 163.600 C 128.268 163.050,128.009 162.145,128.006 161.589 C 128.003 161.033,127.716 160.172,127.368 159.676 C 126.392 158.282,126.156 153.288,126.926 150.295 C 127.279 148.923,127.776 146.720,128.032 145.400 C 128.288 144.080,128.745 142.645,129.048 142.211 C 129.352 141.777,129.602 141.057,129.604 140.611 C 129.606 140.165,130.050 138.900,130.591 137.800 C 131.132 136.700,131.581 135.603,131.587 135.362 C 131.594 135.121,131.960 134.598,132.400 134.200 C 132.840 133.802,133.200 133.248,133.200 132.969 C 133.200 132.690,133.650 131.927,134.200 131.273 C 134.750 130.619,135.200 129.878,135.200 129.625 C 135.200 128.245,146.072 116.510,150.319 113.305 C 151.354 112.524,152.470 111.636,152.800 111.331 C 153.786 110.421,156.967 108.415,157.438 108.407 C 157.679 108.403,158.186 108.057,158.566 107.638 C 159.132 107.012,160.070 106.825,163.802 106.591 C 167.883 106.336,168.439 106.210,169.246 105.351 L 170.144 104.395 169.204 102.697 C 168.312 101.085,166.373 99.050,163.861 97.089 C 163.234 96.600,162.244 95.822,161.661 95.361 C 161.077 94.899,160.060 94.390,159.400 94.230 C 158.740 94.069,157.876 93.646,157.480 93.289 C 156.557 92.456,154.249 92.453,153.320 93.283 C 152.924 93.636,151.835 94.129,150.900 94.378 C 149.965 94.627,149.200 94.983,149.200 95.169 C 149.200 95.355,148.885 95.597,148.500 95.708 C 148.115 95.819,147.485 96.039,147.100 96.197 C 146.200 96.568,146.120 95.131,147.000 94.400 C 148.131 93.462,147.155 90.803,145.677 90.798 C 145.305 90.796,144.460 90.511,143.800 90.163 C 141.575 88.992,138.812 88.978,136.543 90.128 C 134.391 91.218,128.239 97.018,127.814 98.357 C 127.674 98.798,127.224 99.265,126.815 99.395 C 126.009 99.651,123.734 102.267,122.637 104.200 C 122.262 104.860,121.335 106.298,120.578 107.395 C 119.820 108.493,119.200 109.684,119.200 110.041 C 119.200 110.399,118.851 111.136,118.425 111.678 C 117.998 112.220,117.518 113.189,117.357 113.832 C 117.196 114.474,116.736 115.540,116.334 116.200 C 115.932 116.860,115.601 117.670,115.599 118.000 C 115.597 118.330,115.315 119.137,114.973 119.793 C 113.278 123.044,110.938 130.168,110.570 133.200 C 110.423 134.410,110.035 135.985,109.706 136.700 C 109.348 137.478,109.208 138.481,109.355 139.200 C 109.490 139.860,109.710 140.938,109.845 141.596 C 109.992 142.314,109.832 143.438,109.445 144.404 C 108.270 147.342,109.210 157.116,110.984 160.400 C 111.281 160.950,111.721 162.465,111.961 163.767 C 112.201 165.069,112.668 166.433,112.999 166.799 C 113.329 167.164,113.600 167.640,113.600 167.856 C 113.600 168.072,113.918 168.598,114.306 169.025 C 115.289 170.104,117.600 173.785,117.600 174.272 C 117.600 175.327,127.989 185.813,129.830 186.616 C 130.506 186.911,132.126 188.187,133.430 189.451 C 135.704 191.657,138.163 193.600,138.681 193.600 C 138.817 193.600,139.849 194.296,140.976 195.147 C 142.103 195.998,144.099 197.185,145.412 197.785 C 146.726 198.385,149.600 199.759,151.800 200.839 C 154.000 201.918,156.181 202.801,156.646 202.801 C 157.111 202.800,157.950 203.160,158.509 203.600 C 159.069 204.040,159.728 204.400,159.975 204.400 C 160.222 204.400,161.493 204.850,162.800 205.400 C 164.301 206.032,165.954 206.404,167.288 206.410 C 168.450 206.415,170.120 206.614,171.000 206.852 C 176.394 208.310,191.181 208.755,195.000 207.575 C 196.320 207.167,197.900 206.731,198.510 206.606 C 199.121 206.482,199.973 206.027,200.405 205.595 C 200.836 205.164,201.956 204.702,202.894 204.569 C 203.832 204.436,205.410 203.961,206.400 203.512 C 207.390 203.064,209.100 202.295,210.200 201.805 C 211.300 201.314,212.871 200.592,213.691 200.198 C 215.847 199.165,222.395 193.802,223.585 192.096 C 224.143 191.295,224.915 190.316,225.300 189.920 C 225.685 189.524,226.000 188.948,226.000 188.640 C 226.000 188.332,226.719 186.673,227.598 184.955 C 228.476 183.237,229.301 181.194,229.431 180.415 C 229.561 179.637,229.939 178.136,230.272 177.079 C 230.893 175.110,230.863 174.725,229.630 168.800 C 229.113 166.314,226.080 160.560,224.177 158.454 C 221.311 155.282,214.457 149.600,213.496 149.600 C 213.179 149.600,212.073 149.150,211.038 148.600 C 210.004 148.050,208.639 147.600,208.005 147.600 C 207.371 147.600,206.345 147.399,205.726 147.153 C 203.501 146.269,201.731 145.934,197.400 145.577 C 191.802 145.116,192.473 145.126,187.755 145.436 C 183.383 145.723,182.925 145.551,183.367 143.788 C 183.737 142.315,189.644 137.803,194.872 135.000 C 201.598 131.394,203.858 130.485,206.703 130.242 C 208.300 130.105,210.280 129.742,211.103 129.435 C 217.628 126.999,218.163 126.875,222.169 126.876 C 225.556 126.877,226.302 126.999,227.259 127.707 C 228.199 128.402,228.544 128.463,229.383 128.081 C 231.490 127.120,232.398 128.690,232.877 134.122 C 233.628 142.648,232.631 147.600,230.163 147.600 C 229.394 147.600,225.602 151.981,225.564 152.912 C 225.416 156.628,225.652 157.812,226.719 158.698 C 227.851 159.638,228.990 159.863,229.386 159.223 C 229.707 158.703,232.969 158.255,234.195 158.563 C 235.052 158.778,235.200 159.043,235.200 160.365 C 235.200 161.217,235.493 163.329,235.851 165.057 C 236.942 170.320,235.584 192.578,233.818 198.400 C 233.518 199.390,233.170 201.047,233.046 202.083 C 232.922 203.118,232.456 204.646,232.010 205.477 C 231.565 206.308,231.200 207.318,231.200 207.720 C 231.200 208.699,230.570 209.859,228.947 211.867 C 228.206 212.784,227.600 213.700,227.600 213.901 C 227.600 214.549,225.463 216.184,223.200 217.266 C 217.024 220.220,212.829 221.745,208.200 222.717 C 207.100 222.948,205.390 223.327,204.400 223.559 C 198.833 224.862,187.351 225.460,180.400 224.808 C 178.090 224.592,174.219 224.240,171.797 224.027 C 169.375 223.814,166.726 223.361,165.910 223.020 C 165.094 222.679,163.887 222.400,163.228 222.400 C 162.569 222.400,161.078 222.056,159.915 221.636 C 158.752 221.216,156.900 220.760,155.800 220.624 C 154.700 220.488,152.990 220.048,152.000 219.645 C 151.010 219.243,149.210 218.601,148.000 218.218 C 146.790 217.835,144.810 217.025,143.600 216.419 C 142.390 215.812,140.950 215.177,140.400 215.007 C 139.850 214.838,138.230 214.027,136.800 213.206 C 135.370 212.384,133.726 211.599,133.146 211.460 C 132.566 211.321,131.171 210.588,130.046 209.831 C 128.920 209.073,127.595 208.329,127.100 208.176 C 125.982 207.831,122.787 206.008,122.060 205.302 C 121.763 205.014,120.953 204.505,120.260 204.173 C 117.508 202.853,116.128 202.037,115.627 201.433 C 115.338 201.085,114.867 200.800,114.580 200.800 C 114.292 200.800,113.819 200.563,113.529 200.274 C 113.238 199.984,112.100 199.127,111.000 198.369 C 107.829 196.182,103.126 192.601,101.600 191.211 C 98.338 188.239,94.936 185.219,94.065 184.523 C 93.486 184.060,93.002 183.095,92.794 181.988 C 92.468 180.251,88.708 174.000,87.990 174.000 C 87.805 174.000,87.528 173.595,87.374 173.100 C 87.221 172.605,86.765 171.731,86.362 171.158 C 85.958 170.585,85.507 169.325,85.358 168.358 C 85.210 167.391,84.808 166.060,84.464 165.400 C 83.482 163.512,83.312 154.112,84.201 150.778 C 84.578 149.360,85.069 147.405,85.290 146.433 C 85.512 145.461,86.032 144.303,86.447 143.858 C 86.861 143.413,87.203 142.858,87.207 142.625 C 87.244 140.482,93.851 133.994,96.756 133.250 C 100.397 132.317,100.363 129.354,96.701 128.378 C 95.765 128.129,94.730 127.693,94.400 127.410 C 93.376 126.530,88.667 126.241,87.254 126.972 C 86.586 127.317,85.743 127.600,85.380 127.600 C 82.760 127.600,73.587 135.213,70.545 139.913 C 69.731 141.171,68.844 142.386,68.574 142.614 C 68.304 142.841,67.788 143.651,67.427 144.414 C 67.066 145.176,66.471 146.340,66.103 147.000 C 65.736 147.660,65.362 149.415,65.273 150.900 C 65.096 153.823,65.112 153.795,63.974 153.186 C 63.057 152.695,62.947 151.272,63.800 150.945 C 64.140 150.814,64.400 150.218,64.400 149.572 C 64.400 148.179,61.901 146.216,60.836 146.773 C 60.486 146.956,58.940 147.673,57.400 148.366 C 55.860 149.059,54.330 149.798,54.000 150.009 C 53.670 150.219,52.769 150.735,51.998 151.154 C 49.423 152.554,42.434 162.401,42.406 164.669 C 42.403 164.927,41.939 165.686,41.376 166.356 C 38.773 169.450,41.157 172.400,46.261 172.400 C 47.322 172.400,48.292 172.730,49.200 173.400 C 49.945 173.950,50.702 174.400,50.881 174.400 C 51.706 174.400,56.178 178.263,62.226 184.200 C 67.733 189.606,74.071 195.405,75.026 195.910 C 75.556 196.191,76.267 196.956,76.605 197.610 C 76.944 198.265,77.477 198.800,77.790 198.800 C 78.319 198.800,82.646 202.165,84.000 203.630 C 84.330 203.987,85.409 204.891,86.399 205.639 C 87.388 206.388,88.468 207.214,88.799 207.475 C 92.714 210.570,94.067 211.588,95.600 212.594 C 96.590 213.244,98.210 214.428,99.200 215.225 C 100.190 216.022,102.170 217.341,103.600 218.156 C 105.030 218.972,107.730 220.617,109.600 221.813 C 111.470 223.008,113.270 223.991,113.600 223.997 C 113.930 224.003,115.351 224.738,116.758 225.630 C 118.165 226.523,121.209 227.873,123.522 228.631 C 125.836 229.389,127.925 230.161,128.164 230.346 C 128.837 230.867,133.925 232.671,136.600 233.337 C 141.284 234.503,142.619 234.907,144.244 235.649 C 145.148 236.062,146.362 236.400,146.942 236.400 C 147.522 236.400,149.033 236.756,150.298 237.190 C 151.564 237.625,154.670 238.243,157.200 238.563 C 159.730 238.883,162.752 239.328,163.916 239.551 C 170.639 240.840,197.589 240.433,201.914 238.977 C 202.857 238.660,204.350 238.400,205.233 238.400 C 206.116 238.400,207.584 238.040,208.494 237.600 C 209.405 237.160,210.613 236.800,211.178 236.800 C 212.688 236.800,214.712 236.146,215.433 235.424 C 216.710 234.147,217.388 236.277,216.195 237.819 C 215.863 238.248,215.026 239.500,214.335 240.600 C 211.729 244.752,210.985 245.850,209.589 247.600 C 208.800 248.590,207.128 250.975,205.874 252.900 C 204.621 254.825,203.437 256.400,203.244 256.400 C 203.051 256.400,202.783 256.715,202.648 257.100 C 202.131 258.572,197.224 264.466,194.429 266.971 C 192.703 268.518,192.057 269.164,190.775 270.629 C 190.211 271.273,188.798 272.610,187.635 273.600 C 186.472 274.590,185.216 275.670,184.843 276.000 C 183.982 276.762,180.760 279.214,179.585 280.000 C 179.092 280.330,178.219 280.969,177.644 281.421 C 175.250 283.302,169.881 286.772,168.000 287.653 C 161.347 290.769,159.486 291.600,159.158 291.600 C 158.946 291.600,158.373 291.850,157.886 292.155 C 157.399 292.460,156.010 292.934,154.800 293.209 C 153.590 293.483,152.150 293.927,151.600 294.196 C 148.547 295.687,131.793 295.727,128.874 294.250 C 128.283 293.951,127.080 293.577,126.200 293.419 C 124.730 293.154,123.434 292.694,119.000 290.861 C 112.813 288.304,107.348 276.884,109.358 270.714 C 109.666 269.771,110.034 268.325,110.177 267.500 C 110.319 266.675,110.891 265.505,111.446 264.900 C 113.587 262.569,113.937 262.148,115.127 260.472 C 117.007 257.824,116.226 256.903,112.735 257.651 C 110.729 258.082,101.600 266.123,101.600 267.459 C 101.600 267.697,101.233 268.359,100.784 268.930 C 98.760 271.503,97.271 282.774,98.613 285.361 C 98.888 285.890,99.321 286.956,99.577 287.729 C 99.832 288.503,100.302 289.352,100.620 289.617 C 101.302 290.182,101.385 291.438,100.767 291.820 C 100.214 292.162,98.351 290.378,96.694 287.917 C 95.141 285.611,93.799 285.431,92.842 287.400 C 92.522 288.060,91.936 289.246,91.541 290.035 C 91.146 290.824,90.700 292.534,90.551 293.835 C 90.402 295.136,90.037 296.898,89.740 297.750 C 88.552 301.163,90.054 306.337,93.160 309.528 C 97.663 314.153,104.345 319.600,105.516 319.600 C 105.709 319.600,107.561 320.152,109.633 320.828 C 119.843 324.155,139.487 323.195,147.659 318.969 C 148.265 318.656,149.091 318.400,149.496 318.400 C 149.900 318.400,150.937 318.040,151.800 317.600 C 152.663 317.160,153.561 316.800,153.795 316.800 C 154.029 316.800,155.296 316.266,156.610 315.613 C 157.925 314.959,159.360 314.414,159.800 314.401 C 160.240 314.388,161.680 313.766,163.000 313.018 C 164.320 312.271,166.570 311.007,168.000 310.210 C 174.534 306.569,176.950 304.907,183.353 299.650 C 189.778 294.375,192.653 291.618,200.570 283.142 C 206.636 276.648,209.600 273.284,209.600 272.893 C 209.600 272.678,210.500 271.376,211.600 270.000 C 212.700 268.624,213.600 267.357,213.600 267.186 C 213.600 267.014,214.410 265.879,215.400 264.664 C 216.390 263.448,217.200 262.345,217.200 262.211 C 217.200 262.077,217.560 261.435,218.000 260.784 C 218.440 260.133,219.143 259.090,219.563 258.467 C 219.982 257.843,221.268 255.548,222.420 253.367 C 223.572 251.185,224.693 249.173,224.911 248.895 C 225.317 248.376,226.358 246.561,227.258 244.800 C 227.539 244.250,228.181 243.291,228.684 242.669 C 229.188 242.047,229.600 241.304,229.600 241.018 C 229.600 240.732,229.869 240.275,230.197 240.002 C 230.526 239.730,230.982 238.808,231.213 237.953 C 231.648 236.338,231.841 236.185,232.735 236.752 C 233.320 237.122,232.744 250.324,232.018 253.200 C 231.663 254.607,231.099 270.108,231.144 277.200 C 231.176 282.120,231.782 289.551,232.565 294.600 C 232.906 296.800,233.188 299.602,233.192 300.827 C 233.197 302.052,233.449 303.942,233.753 305.027 C 234.057 306.112,234.527 308.837,234.796 311.082 C 235.065 313.327,235.531 315.487,235.830 315.882 C 236.130 316.277,236.388 317.140,236.405 317.800 C 236.421 318.460,236.716 319.720,237.059 320.600 C 237.403 321.480,237.915 323.370,238.197 324.800 C 238.479 326.230,239.000 328.069,239.355 328.887 C 239.710 329.705,240.000 330.788,240.000 331.293 C 240.000 331.798,240.333 332.839,240.739 333.606 C 241.146 334.373,241.594 335.742,241.736 336.648 C 241.877 337.555,242.351 339.085,242.788 340.048 C 243.225 341.012,243.586 342.271,243.591 342.846 C 243.596 343.421,243.933 344.321,244.339 344.846 C 244.745 345.371,245.201 346.305,245.352 346.921 C 247.341 355.064,257.419 354.596,263.592 346.074 C 265.112 343.977,265.511 338.985,264.219 338.227 C 261.766 336.786,259.527 333.913,260.275 333.165 C 260.615 332.825,261.090 333.081,264.338 335.347 C 266.281 336.703,268.781 336.596,270.557 335.081 C 271.125 334.597,272.008 333.840,272.519 333.400 C 274.266 331.896,275.330 328.610,274.794 326.377 C 274.261 324.152,274.105 323.997,271.400 323.002 C 266.993 321.380,263.480 318.063,260.805 313.000 C 259.875 311.240,258.885 309.530,258.605 309.200 C 258.324 308.870,257.965 308.150,257.806 307.600 C 257.647 307.050,256.816 305.140,255.959 303.355 C 255.101 301.570,254.400 299.717,254.400 299.236 C 254.400 298.756,253.950 297.518,253.400 296.485 C 252.850 295.452,252.400 294.223,252.400 293.754 C 252.400 293.285,252.055 292.114,251.633 291.151 C 251.211 290.188,250.743 288.500,250.593 287.400 C 250.443 286.300,250.023 284.590,249.660 283.600 C 248.847 281.383,248.806 256.582,249.604 249.600 C 249.868 247.290,250.295 243.126,250.554 240.346 C 251.134 234.121,252.011 233.166,259.294 230.823 C 260.116 230.558,260.892 230.175,261.018 229.971 C 261.144 229.767,261.549 229.600,261.918 229.600 C 263.081 229.600,269.872 226.234,272.800 224.206 C 273.790 223.520,275.860 222.264,277.400 221.414 C 278.940 220.564,281.246 219.043,282.525 218.034 C 283.803 217.025,285.709 215.570,286.759 214.800 C 287.810 214.030,289.824 212.140,291.235 210.600 C 292.646 209.060,293.898 207.710,294.018 207.600 C 294.912 206.781,298.800 201.412,298.800 200.997 C 298.800 200.710,299.610 199.162,300.600 197.556 C 301.590 195.951,302.400 194.323,302.400 193.940 C 302.400 193.556,302.850 192.396,303.400 191.362 C 303.950 190.327,304.400 189.141,304.400 188.726 C 304.400 188.311,304.685 187.538,305.032 187.007 C 306.407 184.910,305.090 177.590,303.017 175.800 C 300.801 173.887,301.570 172.817,305.168 172.805 C 306.766 172.801,309.508 171.777,313.200 169.807 C 313.750 169.513,314.920 169.140,315.800 168.978 C 316.680 168.815,318.368 168.124,319.551 167.441 C 320.733 166.759,322.842 165.570,324.235 164.800 C 326.462 163.570,329.163 161.527,335.327 156.411 C 337.420 154.674,340.929 151.148,342.908 148.794 C 344.291 147.150,348.395 139.536,348.404 138.600 C 348.406 138.380,348.850 137.300,349.391 136.200 C 350.706 133.526,350.846 126.731,349.642 123.951 C 349.225 122.988,348.763 120.835,348.614 119.167 C 348.300 115.634,347.838 114.800,344.662 112.020 C 340.762 108.608,341.542 108.202,329.600 119.849 C 323.784 125.521,322.611 128.729,326.012 129.660 C 329.630 130.649,329.408 130.440,329.309 132.762 C 329.255 134.036,328.815 135.737,328.209 137.017 C 327.654 138.191,327.200 139.359,327.200 139.613 C 327.200 139.868,326.795 140.641,326.300 141.330 C 325.805 142.019,325.220 142.866,325.000 143.211 C 324.780 143.556,324.254 144.370,323.832 145.019 C 323.409 145.669,321.275 147.820,319.089 149.800 C 316.903 151.780,314.878 153.624,314.588 153.898 C 314.298 154.173,313.642 154.587,313.130 154.819 C 312.619 155.051,311.480 155.678,310.600 156.212 C 309.720 156.746,308.370 157.487,307.600 157.858 C 294.727 164.063,293.093 164.476,292.238 161.736 C 292.090 161.260,291.542 160.592,291.021 160.250 C 290.499 159.909,289.561 159.151,288.936 158.567 C 286.708 156.485,284.586 154.893,283.659 154.609 C 283.141 154.450,282.147 153.933,281.449 153.460 C 278.113 151.198,270.911 148.347,266.600 147.581 C 265.720 147.425,263.920 147.019,262.600 146.679 C 261.280 146.339,258.984 145.943,257.497 145.798 C 253.884 145.447,253.810 145.284,254.444 139.076 C 254.718 136.394,254.902 132.815,254.852 131.121 C 254.744 127.409,255.479 126.562,258.492 126.923 C 263.585 127.533,269.666 128.416,271.600 128.824 C 278.975 130.383,280.898 130.827,283.550 131.587 C 285.173 132.051,287.009 132.694,287.630 133.016 C 288.252 133.337,288.980 133.600,289.249 133.600 C 289.517 133.600,290.021 133.840,290.369 134.134 C 290.716 134.428,291.630 134.911,292.400 135.207 C 294.362 135.962,297.272 138.169,300.171 141.100 C 302.902 143.861,303.651 144.104,304.666 142.555 C 305.664 141.032,304.402 138.901,300.063 134.783 C 292.858 127.946,291.773 126.820,290.800 125.158 C 290.250 124.219,289.483 123.122,289.096 122.721 C 288.709 122.320,287.493 120.263,286.393 118.148 C 285.294 116.034,283.711 113.471,282.876 112.452 C 281.509 110.785,278.843 107.000,277.800 105.243 C 273.266 97.611,266.993 92.322,264.672 94.175 L 263.543 95.075 264.738 96.838 C 265.395 97.807,266.508 99.140,267.213 99.800 C 272.261 104.532,276.832 114.740,274.078 115.131 C 273.571 115.203,272.923 115.068,272.639 114.833 C 271.168 113.612,263.600 111.600,260.478 111.600 C 258.676 111.600,256.564 111.340,255.600 111.000 C 254.665 110.670,253.222 110.400,252.394 110.400 C 249.737 110.400,248.576 108.419,248.173 103.200 C 247.894 99.587,246.476 91.920,244.400 82.800 C 243.974 80.930,243.516 78.646,243.382 77.723 C 243.248 76.801,242.792 75.368,242.369 74.539 C 241.946 73.709,241.600 72.623,241.600 72.124 C 241.600 71.624,241.346 70.538,241.035 69.708 C 240.725 68.879,240.369 67.615,240.245 66.900 C 240.121 66.185,239.656 64.800,239.210 63.822 C 238.765 62.844,238.400 61.804,238.400 61.511 C 238.400 61.218,238.140 60.606,237.822 60.152 C 237.504 59.698,237.034 58.443,236.778 57.363 C 236.239 55.093,234.634 50.683,233.784 49.138 C 233.463 48.554,233.200 47.443,233.200 46.669 C 233.200 44.766,231.664 42.976,229.716 42.611 C 228.897 42.457,227.771 42.016,227.214 41.631 C 225.493 40.442,225.045 40.450,222.584 41.722 M260.621 163.205 C 262.352 163.648,264.586 164.386,265.585 164.845 C 273.010 168.256,275.264 169.874,278.059 173.800 C 278.999 175.120,279.973 176.410,280.223 176.667 C 280.652 177.108,280.883 177.887,281.957 182.506 C 282.560 185.098,282.524 185.588,281.600 187.400 C 281.160 188.263,280.800 189.257,280.800 189.609 C 280.800 191.735,276.336 198.634,273.084 201.533 C 272.179 202.340,271.154 203.276,270.807 203.613 C 270.459 203.949,268.047 205.659,265.447 207.413 C 255.994 213.785,253.765 214.862,252.182 213.825 L 251.255 213.218 251.442 201.396 C 251.545 194.894,251.803 189.118,252.015 188.561 C 252.227 188.004,252.400 186.216,252.400 184.588 C 252.400 182.960,252.763 179.777,253.206 177.514 C 253.649 175.251,254.111 172.050,254.234 170.400 C 254.470 167.216,255.315 164.255,256.317 163.100 C 257.063 162.239,256.821 162.233,260.621 163.205 " stroke="none" fill="#000" fill-rule="evenodd"></path></svg>