<?xml version="1.0" encoding="utf-8"?>
<svg viewBox="0 0 850 850" xmlns="http://www.w3.org/2000/svg">
  <g transform="translate(0 850) scale(.1 -.1)">
<path d="m4224 8469c-972-53-1682-400-2093-1023-211-321-407-854-486-1321-97-578-25-961 294-1555 49-91 109-206 134-256 61-121 129-184 281-259 140-69 290-118 476-155 80-16 183-38 230-49 138-33 319-46 457-32 215 22 356 59 616 162 398 159 665 321 847 516 170 182 217 329 207 648-7 223-42 386-134 636-37 99-39 102-98 144-214 152-474 205-753 155-202-36-319-90-434-198-145-137-192-341-118-509 74-167 233-190 391-54 25 22 78 87 119 146 107 155 136 174 216 140 43-18 142-115 184-181 107-169 89-398-48-596-149-215-420-370-765-435-136-26-520-25-632 1-180 42-304 107-425 223-168 160-265 362-322 673-31 168-31 545 0 745 64 411 171 680 370 930 340 427 851 707 1412 775 106 13 364 13 582 0 259-15 425-58 643-167 315-159 694-427 827-587 151-180 254-399 308-651 16-72 23-151 27-285 5-180 2-239-31-500-8-63-20-203-26-310-28-510-67-754-149-925-60-125-221-331-495-632-77-85-186-205-241-267-55-61-131-134-169-162-247-187-648-309-1161-355-165-15-646-15-835 0-80 6-215 19-300 28-85 10-193 17-240 17-201-3-461-109-623-255-201-180-316-476-317-814v-80l-70-28c-198-80-354-228-447-423l-38-79-6-280c-4-190-10-291-19-315-22-60-59-100-116-125-76-34-155-112-188-186-55-121-59-280-8-319 25-20 34-21 487-18l461 3 41 27c61 40 97 120 90 197-10 111-87 222-202 288-89 52-115 118-115 291 1 140 22 242 70 338 90 182 250 266 505 267 149 0 215-17 268-69 47-47 67-103 107-289 94-445 161-639 273-792 140-189 332-255 747-257 178-1 188 0 265 27 44 16 107 45 139 65 74 45 195 157 254 237 94 127 216 164 350 105 26-12 82-57 135-110 114-112 188-167 298-225 165-85 327-116 504-95 196 23 377 101 505 216l35 32 175 4c145 4 187 9 245 27 157 50 280 149 347 278 70 133 70 125 66 680l-3 498-25 50c-42 84-61 90-285 91-104 0-224 6-266 12-142 21-295-22-345-96-33-48-48-157-41-297 3-66 9-128 12-137 9-22 64-38 135-38 107-1 180-57 200-155 15-73 5-135-37-225-50-105-147-200-264-258-254-126-719-148-925-44-66 33-151 117-184 181-47 94-81 312-63 410 10 56 40 79 128 97 134 28 176 80 164 197-17 153-95 281-202 328-70 31-222 37-389 15-68-9-170-20-226-26-114-11-160-28-197-72-36-42-46-89-52-224l-5-122 40-40c27-27 57-45 94-56 35-10 65-27 88-51l35-36-1-92c-4-239-139-447-359-552-281-135-585-100-676 76-10 21-30 94-44 161-79 400-262 718-505 880-126 85-157 120-187 217-25 80-26 88-15 169 13 96 43 166 85 196 58 43 179 17 360-75 31-16 84-43 117-60 33-16 104-42 158-56 86-23 117-26 272-27 168-1 178 0 255 27 92 33 191 90 355 206 215 152 309 182 565 184 119 0 172-4 255-22 119-25 250-68 356-116l73-33 173 97c569 322 993 656 1167 921 226 345 440 989 535 1610 46 305 57 586 36 929-24 396-82 672-216 1040-135 369-256 586-442 798-154 175-400 332-622 397-47 13-133 45-191 69-481 203-1103 293-1775 256z"/>
<path d="m4321 7259c-131-26-290-164-322-282-34-123 115-374 266-448 42-20 65-24 145-24 110 0 161 19 267 99 191 145 212 368 48 532-104 104-259 152-404 123z"/>
</g>
</svg>