<?xml version="1.0" encoding="utf-8"?>
<svg viewBox="0 0 850 850" xmlns="http://www.w3.org/2000/svg">
  <g transform="translate(0 850) scale(.1 -.1)">
<path d="m3810 8440c-184-23-465-92-755-187-141-46-180-63-230-101-121-92-224-184-265-237-23-30-109-116-191-191-146-133-151-139-282-337-176-266-189-289-257-485-103-297-170-562-185-732-12-135 44-351 157-610 62-139 94-232 137-395 37-142 40-149 94-221 118-157 433-410 827-666 240-156 435-258 750-393 279-119 470-244 632-413 140-145 227-293 286-482 26-85 26-86 27-425v-340l-33-67c-61-126-179-212-334-244-86-18-270-20-372-4-48 8-274 10-711 8l-640-3-45-27c-58-34-98-76-154-163l-46-69v-306c0-168-5-336-10-374-14-91-50-156-117-207-113-88-188-235-207-411-4-35-1-49 11-60 13-10 130-14 609-16 583-3 594-2 614 18 16 16 19 28 14 67-23 190-91 315-231 420-84 64-136 138-167 237-25 78-19 202 13 274l23 52h293 292l41-44c84-91 122-206 129-391 5-126-1-187-39-395-14-82-5-131 33-175 55-62 171-85 434-85 366 0 565 82 565 232 0 78-94 220-188 285-47 33-68 41-120 46-90 8-151 41-179 97-41 81-29 267 24 378 40 83 183 222 297 289l90 53h530 531l85-46c259-139 449-310 497-449 26-74 24-216-4-276-30-67-93-127-140-134-143-22-194-46-252-119-42-52-72-153-74-246-1-61 3-85 24-130 29-61 83-121 153-170l48-32 221 5c242 5 291 14 401 69 88 44 142 83 219 157 89 85 162 185 177 240 21 80-6 182-70 267l-40 53v279 279l-31 63c-55 108-265 311-506 487l-81 59-89-13c-111-18-259-11-373 18-122 30-288 113-390 196l-85 69-6 305c-7 304-13 373-54 527-78 302-255 579-527 823-176 158-356 284-763 534-469 288-654 423-821 598-154 160-250 325-302 516-25 90-26 110-26 306 0 743 287 1364 783 1697 167 111 323 182 505 226 105 25 309 23 453-6 404-80 761-300 948-582 102-153 169-339 185-513 14-145-12-420-56-592-9-33-22-116-30-185-23-214-80-290-297-399-227-113-457-174-662-175-250-1-397 65-592 267-110 114-169 215-198 337-19 82-19 219 0 289 53 202 228 356 445 392 191 31 393-116 408-297 6-71-1-92-44-139-109-119-115-305-11-333 77-21 196 29 281 118 93 97 135 203 143 361 13 256-103 491-328 664-148 115-258 150-444 142-192-8-357-66-550-194-112-75-258-214-327-313-144-205-213-452-189-672 20-172 61-288 174-488 83-148 133-216 218-294 83-77 298-217 429-280 58-27 166-86 240-130l135-81 410 2 125 37c257 77 485 157 587 205 295 142 516 344 628 576 67 140 139 432 187 757 29 204 32 603 5 773-87 543-329 904-767 1143-303 165-770 258-1255 251-93-1-210 0-260 4-49 3-124 2-165-3z"/>
<path d="m3615 3043c-66-34-175-145-209-210-34-68-56-162-56-244 0-127 85-241 234-314 172-84 347-86 440-5 64 56 126 203 145 343 39 278-131 458-429 456-61 0-84-5-125-26z"/>
</g>
</svg>