<?xml version="1.0" encoding="utf-8"?>
<svg viewBox="20 20 150 150" xmlns="http://www.w3.org/2000/svg">
  <path d="M 117.233 53.055 C 114.856 58.885 110.253 63.57 104.48 66.055 C 104.23 72.331 104.104 77.799 104.046 81 L 156 81 C 156 68.289 139.928 57.425 117.233 53.055 Z M 104 102 C 129.78 102 152.389 102 156 102 C 164 102 166 100 166 100 L 170 100 L 170 118 L 166 118 C 166 118 164 116 156 116 C 152.398 116 129.902 116 104.209 116 C 104.277 118.388 104.365 121.082 104.479 123.945 C 113.02 127.62 119 136.112 119 146 C 119 159.255 108.255 170 95 170 C 81.745 170 71 159.255 71 146 C 71 136.112 76.98 127.62 85.521 123.945 C 85.635 121.082 85.723 118.388 85.791 116 C 60.098 116 37.602 116 34 116 C 26 116 24 118 24 118 L 20 118 L 20 100 L 24 100 C 24 100 26 102 34 102 C 37.611 102 60.22 102 86 102 L 86 94.697 C 78.999 94.744 71.999 94.845 65 95 C 49.989 95.333 20 97 20 97 L 20 81 C 20 61.519 41.58 44.996 71.479 39.207 C 73.7 28.249 83.386 20 95 20 C 106.614 20 116.3 28.249 118.521 39.207 C 148.421 44.996 170 61.519 170 81 L 170 97 C 170 97 140.011 95.333 125 95 C 118.001 94.845 111.001 94.744 104 94.697 Z M 85.52 66.055 C 79.747 63.57 75.144 58.885 72.767 53.055 C 50.072 57.425 34 68.289 34 81 L 85.954 81 C 85.896 77.799 85.77 72.331 85.52 66.055 Z M 95 134 C 88.373 134 83 139.373 83 146 C 83 152.627 88.373 158 95 158 C 101.627 158 107 152.627 107 146 C 107 139.373 101.627 134 95 134 Z M 95 32 C 88.373 32 83 37.373 83 44 C 83 50.627 88.373 56 95 56 C 101.627 56 107 50.627 107 44 C 107 37.373 101.627 32 95 32 Z"/>
</svg>