<?xml version="1.0" encoding="utf-8"?>
<svg viewBox="0 0 850 850" xmlns="http://www.w3.org/2000/svg">
  <g transform="translate(0 850) scale(.1 -.1)">
<path d="m5140 8474c-19-2-114-8-212-13-205-11-243-23-315-98l-45-47 5-65c4-53 19-101 80-243 116-269 112-247 112-633 0-311-1-335-23-420-47-183-140-321-234-346l-43-12v-406c1-223 4-431 9-461 4-30 38-246 76-480 168-1032 217-1489 227-2085 6-392-4-605-42-870-94-653-325-1073-698-1270-368-194-927-159-1242 78-320 241-469 675-452 1317 10 375 64 727 183 1202 136 544 365 1174 584 1608 94 186 135 251 250 395 287 362 450 623 530 850 72 207 87 340 65 577-26 268-11 452 66 808 43 199 67 414 55 494-5 34-16 58-36 78l-29 29-908-6-49-30c-58-36-64-60-40-155 37-144 116-249 235-315 82-45 153-115 184-183 21-45 22-61 25-425 3-325 1-385-13-426-50-152-228-230-495-218-243 10-370 82-416 233-11 38-14 150-14 604v557l24 44c36 67 57 142 59 211l2 63-100-3c-55-2-122 2-150 8-39 9-117 7-347-6-327-18-415-13-464 25-35 28-56 26-93-5-47-39-52-54-40-124 27-169 137-318 269-365 64-23 127-72 157-123l28-47 10-870 27-57c63-135 161-260 254-324 53-37 62-39 149-45 141-9 207-55 237-165 10-37 17-43 57-57 110-39 185-51 326-51 164 1 233 15 348 73l79 40-7-27c-20-83-128-265-239-402-151-187-424-445-751-710-93-76-189-158-213-181-114-115-163-332-118-524 25-109 26-348 2-504-24-158-75-352-134-511-155-418-234-885-234-1375 0-693 170-1201 518-1549 310-311 749-466 1316-466 394 0 690 78 956 253 168 110 334 286 444 472 305 514 411 1307 313 2335-31 323-67 573-155 1070-77 440-84 518-84 935-1 427 25 768 64 845 42 82 136 139 231 140 176 0 294-63 353-189 19-43 21-61 19-251-2-113-7-594-13-1070-5-476-12-962-15-1081s0-362 5-540c29-926 29-1980 0-2214-15-127-25-152-71-181-103-65-179-188-204-331-43-237-8-254 475-234 304 13 503 27 576 42 82 16 89 30 88 169-2 106-5 123-29 173-37 75-76 120-145 167-54 37-59 44-69 92-35 175-49 957-32 1773 22 1016 24 1371 12 1550-22 318-41 476-67 551-47 140-65 236-71 375-7 162 10 254 63 356l34 66v477 477l42 19c181 81 343 252 400 424 21 62 22 86 28 550l5 485 27 47c31 51 92 101 147 119 137 45 242 183 277 364 17 84 17 86-3 113-41 55-91 60-368 32-103-10-332-8-637 6l-128 6-31-32c-30-30-31-33-25-90 8-67 36-157 66-207 19-33 20-53 20-592 0-465-2-566-15-608-44-148-173-220-415-230-244-11-402 48-478 176l-27 46v400c0 390 1 401 22 447 31 68 102 138 184 183 119 66 196 169 233 311 33 126 19 173-55 195-36 10-241 20-299 13z"/>
<path d="m3741 3994c-154-42-229-153-238-354-5-92-2-112 17-164 30-78 85-136 163-172 55-26 73-29 157-29 74 1 107 6 151 23 150 60 237 217 227 412-7 137-64 235-162 275-56 23-244 29-315 9z"/>
<path d="m3695 2614c-139-31-258-123-311-239-84-183-63-385 56-547 133-181 380-286 551-235 66 20 327 196 386 261 61 66 78 120 77 233-4 244-173 453-420 518-89 23-255 28-339 9z"/>
</g>
</svg>