<?xml version="1.0" encoding="utf-8"?>
<svg viewBox="20 20 150 150" xmlns="http://www.w3.org/2000/svg">
  <path d="M 20 32 C 20 32 56.664 32.833 75 33 C 77.534 33.023 80.069 33.042 82.603 33.056 C 81.704 29.187 80 24 80 24 L 80 20 L 110 20 L 110 24 C 110 24 108.296 29.187 107.397 33.056 C 109.931 33.042 112.466 33.023 115 33 C 133.336 32.833 170 32 170 32 L 169.931 32.049 L 169.951 32.018 C 169.951 32.018 152.622 43.179 144.095 48.967 C 135.822 54.584 127.638 60.335 119.551 66.218 C 115.373 69.256 109.215 73.917 104.112 77.811 C 104.024 81.614 104 84 104 84 L 104 90.896 C 108.863 90.711 118.479 90.268 124 89.5 C 126.364 89.171 131 88 131 88 L 135 88 L 135 101.5 L 104 101.5 L 104 106 C 104 106 104.002 106.173 104.006 106.5 L 135 106.5 L 135 120 L 131 120 C 131 120 126.364 118.829 124 118.5 C 118.569 117.745 109.176 117.304 104.242 117.113 C 104.362 121.141 104.539 125.924 104.796 130.865 C 109.853 130.664 118.766 130.228 124 129.5 C 126.364 129.171 131 128 131 128 L 135 128 L 135 141.5 L 105.481 141.5 C 105.616 143.208 105.763 144.883 105.923 146.5 L 135 146.5 L 135 160 L 131 160 C 131 160 126.364 158.829 124 158.5 C 119.598 157.888 112.592 157.482 107.468 157.249 C 108.384 161.079 110 166 110 166 L 110 170 L 80 170 L 80 166 C 80 166 81.616 161.079 82.532 157.249 C 77.408 157.482 70.402 157.888 66 158.5 C 63.636 158.829 59 160 59 160 L 55 160 L 55 146.5 L 84.077 146.5 C 84.237 144.883 84.384 143.208 84.519 141.5 L 55 141.5 L 55 128 L 59 128 C 59 128 63.636 129.171 66 129.5 C 71.234 130.228 80.147 130.664 85.204 130.865 C 85.461 125.923 85.638 121.141 85.758 117.113 C 80.824 117.304 71.431 117.745 66 118.5 C 63.636 118.829 59 120 59 120 L 55 120 L 55 106.5 L 85.994 106.5 C 85.998 106.173 86 106 86 106 L 86 101.5 L 55 101.5 L 55 88 L 59 88 C 59 88 63.636 89.171 66 89.5 C 71.521 90.268 81.137 90.711 86 90.896 L 86 84 C 86 84 85.976 81.67 85.891 77.947 C 80.571 73.956 74.086 69.117 69.825 66.018 C 61.738 60.136 53.555 54.385 45.281 48.768 C 39.213 44.648 28.686 37.807 23.12 34.205 Z M 95 67.679 L 128.433 44.5 L 61.567 44.5 Z"/>
</svg>