<?xml version="1.0" encoding="utf-8"?>
<svg viewBox="20 20 150 150" xmlns="http://www.w3.org/2000/svg">
  <path d="M 80 20 L 110 20 L 110 24 C 110 24 107.619 31.25 107 35 C 106.473 38.189 106.037 42.031 105.677 46.143 C 124.721 50.285 139.715 65.279 143.857 84.323 C 147.969 83.963 151.811 83.527 155 83 C 158.75 82.381 166 80 166 80 L 170 80 L 170 110 L 166 110 C 166 110 158.75 107.619 155 107 C 151.811 106.473 147.969 106.037 143.857 105.677 C 139.715 124.721 124.721 139.715 105.677 143.857 C 106.037 147.969 106.473 151.811 107 155 C 107.619 158.75 110 166 110 166 L 110 170 L 80 170 L 80 166 C 80 166 82.381 158.75 83 155 C 83.527 151.811 83.963 147.969 84.323 143.857 C 65.279 139.715 50.285 124.721 46.143 105.677 C 42.031 106.037 38.189 106.473 35 107 C 31.25 107.619 24 110 24 110 L 20 110 L 20 80 L 24 80 C 24 80 31.25 82.381 35 83 C 38.189 83.527 42.031 83.963 46.143 84.323 C 50.285 65.279 65.279 50.285 84.323 46.143 C 83.963 42.031 83.527 38.189 83 35 C 82.381 31.25 80 24 80 24 Z M 104 84 L 104 86 L 106 86 C 106 86 114.812 85.911 125.552 85.454 C 122.432 75.458 114.542 67.568 104.546 64.448 C 104.089 75.188 104 84 104 84 Z M 106 104 L 104 104 L 104 106 C 104 106 104.089 114.812 104.546 125.552 C 114.542 122.432 122.432 114.542 125.552 104.546 C 114.812 104.089 106 104 106 104 Z M 86 106 L 86 84 C 86 84 85.911 75.188 85.454 64.448 C 72.443 68.509 63 80.652 63 95 C 63 109.348 72.443 121.491 85.454 125.552 C 85.911 114.812 86 106 86 106 Z"/>
</svg>