<?xml version="1.0" encoding="utf-8"?>
<svg viewBox="20 20 150 150" xmlns="http://www.w3.org/2000/svg">
  <path d="M 80 20 L 110 20 L 110 24 C 110 24 107.619 31.25 107 35 C 106.741 36.57 106.503 38.298 106.286 40.138 C 109.524 40.106 112.762 40.06 116 40 C 134.009 39.667 170 38 170 38 C 170 38 168.334 55.982 168 65 C 167.729 72.328 167.729 79.672 168 87 C 168.334 96.018 170 114 170 114 C 170 114 134.009 112.333 116 112 C 112.035 111.927 108.07 111.874 104.104 111.842 C 104.171 114.8 104.277 118.675 104.442 122.977 C 109.184 122.893 124.463 122.548 132.7 121.5 C 135.164 121.186 140 120 140 120 L 144 120 L 144 144 L 140 144 C 140 144 135.164 142.814 132.7 142.5 C 124.975 141.517 111.058 141.153 105.445 141.042 C 105.846 146.205 106.355 151.092 107 155 C 107.619 158.75 110 166 110 166 L 110 170 L 80 170 L 80 166 C 80 166 82.381 158.75 83 155 C 83.645 151.092 84.154 146.205 84.555 141.042 C 78.942 141.153 65.025 141.517 57.3 142.5 C 54.836 142.814 50 144 50 144 L 46 144 L 46 120 L 50 120 C 50 120 54.836 121.186 57.3 121.5 C 65.537 122.548 80.816 122.893 85.558 122.977 C 85.723 118.675 85.829 114.8 85.896 111.842 C 81.93 111.874 77.965 111.927 74 112 C 55.991 112.333 20 114 20 114 C 20 114 21.666 96.018 22 87 C 22.271 79.672 22.271 72.328 22 65 C 21.666 55.982 20 38 20 38 C 20 38 55.991 39.667 74 40 C 77.238 40.06 80.476 40.106 83.714 40.138 C 83.497 38.298 83.259 36.57 83 35 C 82.381 31.25 80 24 80 24 Z M 104 94 L 150 94 L 150 58 L 40 58 L 40 94 L 86 94 L 86 85.015 C 81.851 85.085 65.814 85.417 57.3 86.5 C 54.836 86.814 50 88 50 88 L 46 88 L 46 64 L 50 64 C 50 64 54.836 65.186 57.3 65.5 C 67.133 66.751 87 67 87 67 L 103 67 C 103 67 122.867 66.751 132.7 65.5 C 135.164 65.186 140 64 140 64 L 144 64 L 144 88 L 140 88 C 140 88 135.164 86.814 132.7 86.5 C 124.186 85.417 108.149 85.085 104 85.015 Z"/>
</svg>