<svg id="svg" version="1.1" xmlns="http://www.w3.org/2000/svg" xmlns:xlink="http://www.w3.org/1999/xlink" width="400" height="400" viewBox="0, 0, 400,400"><path id="path0" d="M199.029 75.829 C 198.024 76.833,198.596 79.757,200.155 81.585 C 200.691 82.214,201.761 85.082,202.407 87.621 C 202.606 88.403,203.132 89.843,203.576 90.821 C 204.019 91.800,204.386 93.003,204.391 93.496 C 204.396 93.990,204.825 95.700,205.345 97.296 C 205.865 98.893,206.505 101.010,206.766 102.000 C 207.028 102.990,207.686 105.420,208.230 107.400 C 208.774 109.380,209.402 112.530,209.626 114.400 C 209.851 116.270,210.284 118.801,210.589 120.024 C 210.895 121.247,211.345 124.425,211.590 127.087 C 211.835 129.749,212.218 132.528,212.442 133.263 C 212.952 134.937,213.403 143.936,213.048 145.350 C 212.823 146.248,212.569 146.400,211.292 146.402 C 209.232 146.404,199.224 147.900,198.000 148.388 C 197.450 148.608,195.920 149.049,194.600 149.370 C 191.745 150.063,188.815 151.043,186.556 152.060 C 185.652 152.467,184.626 152.800,184.275 152.800 C 183.469 152.800,181.600 153.639,181.600 154.001 C 181.600 154.151,180.901 154.483,180.047 154.739 C 179.194 154.994,178.272 155.473,177.998 155.802 C 177.725 156.131,177.299 156.406,177.051 156.413 C 176.182 156.437,172.155 158.674,167.200 161.884 C 164.450 163.667,160.898 165.965,159.306 166.993 C 155.654 169.350,153.133 168.864,155.522 166.264 C 155.958 165.789,156.447 164.594,156.608 163.609 C 156.769 162.624,157.135 161.454,157.421 161.009 C 157.707 160.564,158.072 159.484,158.232 158.609 C 158.609 156.549,161.947 151.794,165.800 147.827 C 167.253 146.332,174.574 140.800,175.101 140.800 C 175.307 140.800,175.787 140.457,176.166 140.037 C 176.807 139.329,179.755 137.765,183.284 136.261 C 185.961 135.120,191.259 134.000,193.980 134.000 C 198.819 134.000,200.361 130.537,200.214 120.000 C 200.060 108.998,199.521 107.053,196.518 106.651 C 195.463 106.510,194.060 106.037,193.400 105.600 C 192.740 105.163,191.854 104.804,191.431 104.803 C 191.009 104.801,190.379 104.555,190.031 104.256 C 189.684 103.957,188.232 103.489,186.805 103.217 C 185.378 102.945,183.758 102.491,183.205 102.209 C 182.652 101.926,181.390 101.564,180.400 101.403 C 179.410 101.243,177.610 100.788,176.400 100.391 C 173.130 99.319,160.760 97.789,158.315 98.154 C 157.592 98.262,154.930 98.651,152.400 99.019 C 149.870 99.386,146.630 100.015,145.200 100.415 C 143.770 100.816,141.880 101.263,141.000 101.409 C 138.950 101.749,134.659 103.068,132.600 103.989 C 131.720 104.384,130.460 104.831,129.800 104.984 C 129.140 105.137,128.330 105.503,128.000 105.797 C 127.212 106.500,119.599 110.400,119.015 110.400 C 118.766 110.400,118.211 110.672,117.781 111.005 C 117.352 111.337,116.164 112.152,115.142 112.814 C 113.094 114.143,103.600 122.646,103.600 123.151 C 103.600 123.459,101.109 126.859,100.100 127.927 C 99.825 128.219,99.600 128.650,99.600 128.885 C 99.600 129.120,99.255 130.052,98.833 130.956 C 94.900 139.381,96.197 145.923,101.720 145.522 L 103.400 145.400 103.600 143.171 C 103.829 140.622,104.629 139.259,108.399 135.000 C 112.885 129.932,114.181 128.699,115.800 127.958 C 116.680 127.555,118.570 126.591,120.000 125.815 C 121.430 125.039,122.910 124.403,123.289 124.402 C 123.668 124.401,124.748 124.058,125.689 123.640 C 126.630 123.222,128.300 122.691,129.400 122.461 C 130.500 122.231,132.570 121.768,134.000 121.432 C 136.458 120.855,146.003 119.873,148.600 119.930 C 151.550 119.995,159.943 120.796,161.332 121.145 C 163.880 121.786,163.788 121.991,160.600 122.770 C 158.005 123.404,154.249 124.826,153.574 125.430 C 153.230 125.738,152.330 126.205,151.574 126.468 C 150.818 126.731,149.986 127.159,149.725 127.420 C 149.464 127.680,147.754 128.894,145.925 130.117 C 141.367 133.166,136.249 138.192,135.048 140.800 C 134.693 141.570,133.950 142.960,133.396 143.889 C 132.842 144.817,132.109 146.670,131.767 148.005 C 131.425 149.341,130.887 151.050,130.573 151.804 C 129.738 153.801,129.848 158.195,130.800 160.904 C 131.240 162.156,131.600 163.628,131.600 164.175 C 131.600 164.723,131.938 166.032,132.351 167.085 C 132.764 168.138,133.228 169.755,133.382 170.677 C 133.536 171.599,133.907 172.557,134.206 172.805 C 134.504 173.052,134.866 173.792,135.010 174.448 C 135.154 175.103,135.999 176.338,136.887 177.191 C 138.710 178.943,138.763 180.147,137.064 181.200 C 135.836 181.961,131.638 185.598,128.983 188.200 C 126.163 190.965,114.251 201.892,112.196 203.600 C 111.269 204.370,109.541 206.237,108.356 207.749 C 107.170 209.261,104.715 211.955,102.900 213.737 C 101.085 215.518,99.600 217.212,99.600 217.500 C 99.600 217.789,99.345 218.123,99.033 218.243 C 98.376 218.495,94.563 223.261,93.428 225.248 C 91.520 228.591,89.225 233.377,88.976 234.534 C 88.826 235.230,88.448 236.299,88.136 236.910 C 87.824 237.520,87.382 239.050,87.154 240.310 C 86.926 241.569,86.485 242.995,86.174 243.479 C 85.864 243.962,85.493 245.672,85.351 247.279 C 85.208 248.885,84.746 251.100,84.322 252.200 C 82.040 258.133,83.265 275.676,86.449 282.644 C 86.862 283.548,87.200 284.576,87.200 284.929 C 87.200 286.618,91.455 295.073,93.276 297.000 C 93.691 297.440,94.915 298.906,95.996 300.259 C 97.076 301.611,98.554 303.135,99.280 303.645 C 100.006 304.155,101.115 305.079,101.744 305.699 C 103.848 307.773,105.374 308.698,109.200 310.220 C 111.290 311.051,113.355 311.972,113.789 312.266 C 114.223 312.560,114.856 312.800,115.195 312.800 C 115.534 312.800,116.529 313.190,117.406 313.667 C 118.561 314.296,120.049 314.610,122.807 314.809 C 125.206 314.982,127.125 315.348,127.997 315.798 C 128.974 316.304,130.909 316.614,134.590 316.855 C 137.456 317.043,140.477 317.307,141.306 317.443 C 142.135 317.578,143.033 317.505,143.306 317.280 C 143.577 317.055,144.520 316.738,145.400 316.575 C 146.280 316.413,147.360 316.046,147.800 315.762 C 148.240 315.477,149.480 315.048,150.555 314.808 C 151.630 314.568,152.959 314.018,153.509 313.586 C 154.058 313.154,154.672 312.800,154.873 312.800 C 155.589 312.800,161.854 308.997,164.800 306.772 C 166.450 305.527,168.340 304.220,169.000 303.867 C 169.997 303.335,172.525 301.307,173.693 300.102 C 174.749 299.013,176.701 296.707,178.012 295.000 C 182.505 289.153,183.200 288.169,183.200 287.652 C 183.200 287.341,183.542 286.348,183.960 285.444 C 184.378 284.540,184.925 283.035,185.176 282.100 C 185.427 281.165,185.805 280.400,186.016 280.400 C 186.515 280.400,186.517 277.720,186.018 277.411 C 185.127 276.861,183.629 277.701,183.203 278.990 C 182.965 279.712,182.433 280.608,182.021 280.981 C 181.609 281.354,181.171 282.061,181.047 282.553 C 180.490 284.774,174.011 288.437,168.586 289.598 C 167.699 289.788,165.989 290.344,164.786 290.832 C 161.194 292.293,148.948 292.181,143.400 290.637 C 138.679 289.323,133.900 287.670,133.608 287.250 C 133.493 287.086,132.006 286.287,130.302 285.475 C 127.568 284.171,122.148 280.781,121.600 280.032 C 121.490 279.882,120.548 279.155,119.507 278.417 C 118.466 277.678,117.509 276.743,117.380 276.337 C 117.251 275.932,116.996 275.600,116.813 275.600 C 116.629 275.600,116.112 275.015,115.662 274.300 C 115.213 273.585,114.340 272.268,113.723 271.373 C 112.467 269.553,112.337 269.333,110.204 265.400 C 109.368 263.860,108.543 262.060,108.370 261.400 C 108.196 260.740,107.780 259.480,107.445 258.600 C 106.748 256.770,106.568 244.985,107.195 242.200 C 108.004 238.607,108.517 236.917,109.286 235.315 C 109.731 234.388,110.514 232.433,111.025 230.969 C 111.961 228.290,113.080 226.383,115.493 223.357 C 116.863 221.638,117.518 220.756,120.270 216.925 C 122.632 213.635,130.036 206.310,135.600 201.758 C 136.370 201.128,137.090 200.509,137.200 200.383 C 141.850 195.042,146.542 192.841,147.404 195.597 C 148.201 198.146,154.261 202.810,161.516 206.459 C 164.001 207.708,166.251 208.902,166.517 209.113 C 166.782 209.323,167.720 209.723,168.600 210.000 C 169.480 210.277,170.380 210.642,170.600 210.811 C 170.820 210.979,171.630 211.308,172.400 211.542 C 173.170 211.775,174.790 212.328,176.000 212.770 C 177.210 213.212,178.802 213.580,179.538 213.587 C 180.275 213.594,181.895 213.912,183.138 214.293 C 186.516 215.327,203.329 215.332,204.905 214.299 C 205.492 213.915,206.293 213.599,206.686 213.598 C 207.681 213.594,211.601 209.891,211.594 208.962 C 211.583 207.623,210.974 207.070,209.828 207.357 C 209.246 207.503,208.054 207.409,207.180 207.147 C 205.937 206.774,205.389 206.778,204.670 207.162 C 203.250 207.922,195.977 207.512,192.800 206.492 C 187.839 204.900,186.197 204.339,185.600 204.033 C 185.270 203.863,184.640 203.547,184.200 203.330 C 183.760 203.113,182.770 202.606,182.000 202.205 C 181.230 201.803,178.530 200.416,176.000 199.124 C 171.090 196.615,168.678 194.501,164.974 189.456 C 164.027 188.167,162.881 186.852,162.426 186.533 C 160.679 185.309,162.551 182.365,166.800 179.654 C 167.693 179.084,170.395 177.099,172.600 175.393 C 173.306 174.846,174.408 174.103,176.400 172.828 C 178.249 171.644,182.741 169.260,183.600 169.006 C 184.150 168.843,186.040 168.019,187.800 167.176 C 189.560 166.332,191.540 165.517,192.200 165.365 C 192.860 165.212,193.876 164.848,194.458 164.555 C 195.040 164.262,196.750 163.741,198.258 163.396 C 199.766 163.052,201.828 162.578,202.839 162.344 C 206.156 161.576,208.810 162.435,211.116 165.022 L 213.049 167.190 213.531 171.895 C 213.797 174.483,214.357 180.740,214.775 185.800 C 215.194 190.860,215.751 195.540,216.013 196.200 C 217.471 199.864,218.957 254.092,217.806 261.600 C 217.485 263.690,217.047 268.679,216.832 272.688 C 216.617 276.696,216.251 280.331,216.018 280.766 C 215.785 281.201,215.494 283.501,215.371 285.878 C 215.242 288.374,214.817 291.298,214.365 292.800 C 213.333 296.231,212.805 302.851,213.443 304.366 C 214.376 306.585,217.200 306.290,217.200 303.975 C 217.200 303.355,217.378 302.737,217.595 302.603 C 217.812 302.469,218.284 301.333,218.643 300.080 C 219.002 298.826,219.470 297.583,219.682 297.318 C 219.894 297.053,220.305 295.793,220.594 294.518 C 220.884 293.243,221.428 291.300,221.803 290.200 C 222.177 289.100,222.668 287.660,222.892 287.000 C 223.116 286.340,223.563 284.720,223.885 283.400 C 224.207 282.080,224.724 280.370,225.034 279.600 C 225.627 278.130,226.489 274.553,227.415 269.728 C 227.718 268.148,228.231 266.220,228.556 265.443 C 228.881 264.666,229.258 263.169,229.395 262.115 C 229.883 258.356,229.819 258.452,232.050 258.156 C 234.473 257.834,243.600 250.053,243.600 248.308 C 243.600 248.227,244.577 247.151,245.770 245.919 C 246.964 244.687,248.382 242.986,248.922 242.139 C 249.462 241.293,250.461 240.060,251.141 239.400 C 251.821 238.740,252.383 238.039,252.389 237.841 C 252.395 237.644,253.075 236.497,253.900 235.292 C 255.467 233.004,256.085 232.090,257.374 230.160 C 257.799 229.522,258.476 228.627,258.877 228.171 C 259.775 227.150,264.800 217.397,264.800 216.674 C 264.800 216.386,265.160 215.764,265.600 215.292 C 266.040 214.820,266.401 214.291,266.401 214.117 C 266.403 213.705,269.033 208.484,269.556 207.852 C 269.778 207.586,270.158 206.482,270.400 205.400 C 270.642 204.318,270.995 203.245,271.184 203.016 C 271.372 202.787,271.887 201.530,272.327 200.222 C 273.358 197.162,274.342 196.682,275.906 198.475 C 276.508 199.165,277.450 200.212,278.000 200.801 C 279.190 202.078,280.196 203.341,282.718 206.728 C 283.753 208.119,285.254 210.112,286.053 211.157 C 286.852 212.202,287.801 213.629,288.163 214.328 C 288.525 215.028,288.982 215.600,289.178 215.600 C 289.375 215.600,289.660 216.185,289.811 216.900 C 289.963 217.615,290.429 218.574,290.847 219.030 C 291.751 220.017,295.600 227.446,295.600 228.205 C 295.600 228.496,295.764 228.793,295.965 228.867 C 296.432 229.037,297.941 233.198,298.479 235.800 C 298.707 236.900,299.277 238.880,299.747 240.200 C 300.993 243.705,300.966 260.271,299.708 263.400 C 299.266 264.500,298.775 266.460,298.617 267.756 C 298.443 269.179,297.870 270.922,297.172 272.156 C 296.535 273.280,295.538 275.100,294.955 276.200 C 293.756 278.463,288.857 283.478,285.822 285.549 C 284.710 286.308,283.710 287.056,283.600 287.212 C 283.490 287.367,282.590 287.894,281.600 288.382 C 272.627 292.808,268.487 292.342,260.875 286.051 C 258.781 284.321,255.785 284.050,257.110 285.710 C 257.325 285.979,257.584 287.550,257.686 289.200 C 257.836 291.646,258.215 292.989,259.735 296.478 C 260.761 298.830,261.611 300.900,261.625 301.078 C 261.666 301.621,265.124 303.966,266.296 304.247 C 266.903 304.392,267.760 304.707,268.200 304.947 C 272.316 307.191,282.641 306.750,290.000 304.016 C 291.870 303.321,294.030 302.600,294.800 302.413 C 296.359 302.035,301.915 299.762,302.576 299.232 C 302.809 299.045,303.585 298.767,304.300 298.614 C 305.015 298.462,305.600 298.204,305.600 298.042 C 305.600 297.881,306.257 297.435,307.059 297.052 C 307.862 296.670,309.275 295.736,310.200 294.978 C 311.126 294.220,312.046 293.600,312.245 293.600 C 312.445 293.600,313.057 293.195,313.606 292.700 C 314.155 292.205,316.134 290.523,318.005 288.962 C 319.875 287.401,321.870 285.421,322.437 284.562 C 323.005 283.703,324.308 281.727,325.334 280.171 C 326.360 278.615,327.200 277.204,327.200 277.035 C 327.200 276.726,329.283 272.307,329.951 271.200 C 330.583 270.153,332.121 262.709,332.312 259.776 C 332.508 256.761,331.554 252.019,330.081 248.689 C 329.663 247.745,329.201 246.329,329.053 245.541 C 328.905 244.754,328.428 243.787,327.992 243.393 C 327.556 242.999,327.200 242.507,327.200 242.300 C 327.200 242.093,326.852 241.435,326.427 240.837 C 326.001 240.240,325.528 239.222,325.374 238.576 C 325.221 237.929,324.772 237.040,324.377 236.600 C 323.982 236.160,323.536 235.305,323.386 234.700 C 323.236 234.095,322.972 233.600,322.800 233.600 C 322.628 233.600,322.189 232.925,321.825 232.100 C 321.002 230.233,319.836 228.338,317.900 225.721 C 317.075 224.605,316.400 223.570,316.400 223.420 C 316.400 222.894,314.207 220.181,312.019 218.000 C 309.733 215.722,307.620 212.925,307.607 212.162 C 307.603 211.921,307.216 211.381,306.747 210.962 C 306.277 210.543,305.165 209.210,304.275 208.000 C 301.663 204.449,288.010 190.400,287.171 190.400 C 286.990 190.400,286.396 189.995,285.851 189.500 C 285.306 189.005,283.507 187.549,281.854 186.263 C 278.337 183.530,278.091 182.901,278.993 178.958 C 279.340 177.441,279.801 175.390,280.018 174.400 C 281.246 168.789,281.394 146.388,280.225 143.064 C 279.851 142.000,279.376 140.086,279.171 138.812 C 278.718 136.000,276.781 131.740,274.499 128.538 C 274.005 127.844,273.600 127.157,273.600 127.012 C 273.600 126.745,271.746 124.159,271.000 123.385 C 267.494 119.748,261.263 120.504,254.670 125.367 C 250.654 128.328,240.851 139.060,238.562 143.000 C 237.054 145.596,235.342 145.760,235.775 143.267 C 236.125 141.253,236.042 138.488,235.578 136.741 C 235.366 135.939,235.011 130.730,234.791 125.166 C 234.570 119.602,234.220 114.408,234.011 113.625 C 233.803 112.841,233.634 111.300,233.635 110.200 C 233.637 109.100,233.263 106.310,232.804 104.000 C 232.346 101.690,231.782 98.720,231.551 97.400 C 231.320 96.080,230.787 94.097,230.366 92.992 C 229.945 91.888,229.600 90.672,229.600 90.290 C 229.600 89.907,229.150 89.203,228.600 88.725 C 228.050 88.247,227.600 87.698,227.600 87.506 C 227.600 85.765,222.456 79.600,221.003 79.600 C 220.845 79.600,220.048 79.071,219.232 78.425 L 217.749 77.251 216.654 78.125 L 215.560 79.000 216.264 80.400 C 217.132 82.127,217.497 86.666,216.822 87.331 C 216.207 87.937,215.200 86.667,215.200 85.285 C 215.200 84.756,214.862 83.846,214.450 83.262 C 214.037 82.678,213.581 81.654,213.437 80.986 C 213.292 80.318,212.481 79.013,211.633 78.086 C 210.010 76.310,209.680 76.221,205.334 76.391 C 204.418 76.427,203.122 76.174,202.454 75.828 C 200.913 75.031,199.826 75.031,199.029 75.829 M252.347 156.700 C 255.128 159.552,256.403 162.856,255.793 165.634 C 255.528 166.838,253.595 167.363,252.996 166.394 C 252.858 166.171,252.158 165.742,251.439 165.442 C 250.213 164.930,248.649 163.834,245.100 160.998 C 242.975 159.300,243.065 158.123,245.466 156.254 C 248.242 154.091,249.907 154.199,252.347 156.700 M242.378 173.323 C 246.132 175.760,249.506 177.927,250.522 178.554 C 251.138 178.935,252.606 180.118,253.782 181.184 C 254.959 182.249,256.280 183.235,256.717 183.374 C 257.802 183.718,257.941 185.142,257.308 189.419 C 257.017 191.389,256.439 195.340,256.023 198.200 C 255.194 203.910,254.832 205.527,253.377 210.016 C 252.840 211.675,252.400 213.408,252.400 213.867 C 252.400 214.326,252.148 214.911,251.839 215.167 C 251.531 215.423,251.158 216.120,251.012 216.716 C 250.733 217.848,249.514 220.686,248.570 222.400 C 248.268 222.950,247.671 224.145,247.243 225.056 C 246.816 225.967,246.285 226.824,246.064 226.961 C 245.843 227.097,245.538 227.792,245.386 228.505 C 245.235 229.217,244.842 230.105,244.514 230.478 C 244.185 230.851,243.342 232.291,242.640 233.678 C 241.256 236.416,240.757 237.252,238.134 241.229 C 237.180 242.675,236.400 243.989,236.400 244.149 C 236.400 244.309,235.794 245.063,235.054 245.826 C 232.989 247.952,232.495 247.038,233.362 242.700 C 233.725 240.885,234.276 237.654,234.587 235.520 C 234.897 233.386,235.327 231.310,235.543 230.906 C 235.760 230.502,236.135 227.568,236.377 224.386 C 236.620 221.204,236.992 216.710,237.204 214.400 C 237.928 206.521,238.547 178.749,238.060 175.986 C 237.406 172.271,239.125 171.210,242.378 173.323 " stroke="none" fill="#000" fill-rule="evenodd"></path></svg>