<?xml version="1.0" encoding="utf-8"?>
<svg viewBox="20 20 150 150" xmlns="http://www.w3.org/2000/svg">
  <path d="M 110 24 C 110 24 107.619 31.25 107 35 C 104.333 51.145 104 84 104 84 L 104 86 L 106 86 C 106 86 113.441 85.925 122.98 85.558 C 122.83 82.335 121.84 62.28 120 52 C 119.33 48.259 117 41 117 41 L 117 37 L 147 37 L 147 41 C 147 41 144.67 48.259 144 52 C 142.298 61.504 141.324 79.365 141.068 84.553 C 146.222 84.153 151.099 83.644 155 83 C 158.75 82.381 166 80 166 80 L 170 80 L 170 110 L 166 110 C 166 110 158.75 107.619 155 107 C 151.099 106.356 146.222 105.847 141.068 105.447 C 141.324 110.635 142.298 128.496 144 138 C 144.67 141.741 147 149 147 149 L 147 153 L 117 153 L 117 149 C 117 149 119.33 141.741 120 138 C 121.84 127.72 122.83 107.665 122.98 104.442 C 113.441 104.075 106 104 106 104 L 104 104 L 104 106 C 104 106 104.333 138.855 107 155 C 107.619 158.75 110 166 110 166 L 110 170 L 80 170 L 80 166 C 80 166 82.381 158.75 83 155 C 85.667 138.855 86 106 86 106 L 86 104 L 84 104 C 84 104 76.559 104.075 67.02 104.442 C 67.17 107.665 68.16 127.72 70 138 C 70.67 141.741 73 149 73 149 L 73 153 L 43 153 L 43 149 C 43 149 45.33 141.741 46 138 C 47.702 128.496 48.676 110.635 48.932 105.447 C 43.778 105.847 38.901 106.356 35 107 C 31.25 107.619 24 110 24 110 L 20 110 L 20 80 L 24 80 C 24 80 31.25 82.381 35 83 C 38.901 83.644 43.778 84.153 48.932 84.553 C 48.676 79.365 47.702 61.504 46 52 C 45.33 48.259 43 41 43 41 L 43 37 L 73 37 L 73 41 C 73 41 70.67 48.259 70 52 C 68.16 62.28 67.17 82.335 67.02 85.558 C 76.559 85.925 84 86 84 86 L 86 86 L 86 84 C 86 84 85.667 51.145 83 35 C 82.381 31.25 80 24 80 24 L 80 20 L 110 20 Z"/>
</svg>