<?xml version="1.0" encoding="utf-8"?>
<svg viewBox="0 0 850 850" xmlns="http://www.w3.org/2000/svg">
  <g transform="translate(0 850) scale(.1 -.1)">
<path d="m2405 8454c-16-2-118-14-225-25-236-26-442-28-612-5-145 18-211 20-238 6-25-13-35-113-20-205 23-146 101-259 232-336 58-34 70-47 95-97l28-57 6-915c4-503 7-1286 8-1740 1-813 0-835-34-1510-46-905-46-1088 3-2030 31-590 37-749 30-855-15-210 8-313 80-362 44-29 158-47 263-40 158 10 215 43 244 139 19 66 19 192 0 943-29 1100-33 1862-12 2595 10 360 22 1087 25 1615l7 960 157 3c140 2 163 0 199-17 64-31 134-90 190-158 28-34 68-77 90-94 21-17 39-35 39-40 0-6-16-35-35-65-86-135-168-326-208-489-46-183-52-240-51-465 0-177 4-238 23-343 90-512 313-964 691-1402 271-314 388-466 516-668 259-408 380-805 345-1128-29-274-136-490-349-711-118-122-201-173-302-184-116-13-248 44-345 148-165 178-89 452 160 575 22 11 73 30 113 42 125 37 191 115 214 250 23 136-22 282-116 377-60 59-121 84-209 84-289 0-582-277-743-700-27-70-28-84-28-225 0-123 4-164 22-228 69-251 228-490 423-637 193-145 401-202 632-171 390 52 730 295 907 648 79 159 117 314 127 514l6 128 68 66 194 3c219 4 283-5 372-49 48-23 69-40 88-73l25-43v-480-480l-89-6c-163-12-241-68-281-204-31-104-33-201-4-240l21-28 704-3c767-2 791-1 842 50 26 26 29 33 23 71-11 73-80 202-139 261-86 87-97 90-287 96l-165 5-24 60c-13 33-30 94-37 135-21 111-36 682-29 1090 3 195 5 1521 4 2945l-2 2590 32 91c55 161 66 180 119 206 39 19 63 23 138 23 81 0 94-3 131-27 49-32 87-104 104-193 13-66 6-305-11-390-19-95-18-95-48-95-49 0-70-25-98-117-14-47-40-117-56-156-24-57-29-81-25-121 4-43 10-55 50-93l46-43h303c190 0 318 4 343 11 62 17 110 73 125 144 21 103-5 198-81 287l-39 47v331 331l-134 172c-235 303-358 397-593 457-108 28-313 44-392 31-230-38-375-249-437-638-15-93-18-196-20-753-2-720-20-2891-30-3615-6-456-6-472 15-556 26-106 28-260 6-337-20-66-66-119-130-148-48-23-61-24-267-24-233 0-291 7-378 48-94 44-155 116-237 282-160 324-373 618-838 1156-113 132-238 286-276 343-127 188-208 373-251 574-29 137-31 382-4 507 59 274 186 497 363 638 113 91 223 132 354 132 159 0 270-97 324-285 24-79 16-229-14-298-59-136-200-286-376-402-44-29-92-66-107-81-98-105-94-288 9-391 52-52 106-76 180-81 80-5 130 12 236 81 235 153 436 369 547 587 86 170 105 294 97 627-6 243-22 398-73 698-38 227-94 485-114 531-44 102-144 167-255 167-80 1-135-25-231-107-293-251-560-301-776-146-43 30-60 51-81 98-102 226-15 505 217 701 200 169 432 172 677 8 93-62 155-82 228-71 166 24 271 176 237 342-22 109-92 178-277 276-379 200-785 187-1122-38-103-68-244-204-320-307-66-91-149-169-214-200-42-21-65-24-191-27l-143-3 3 146 3 147 100 54c188 101 265 226 265 431 0 98-4 109-42 129-30 16-147 26-203 18z"/>
<path d="m6604 5662c-235-83-357-255-341-482 16-237 200-402 447-402 189 0 360 101 435 257 105 218 6 510-211 616-58 29-79 34-158 37-80 2-101-1-172-26z"/>
<path d="m4495 4170c-94-21-193-57-217-77-25-22-66-134-79-214-27-178 56-348 204-415 118-53 282-33 389 49 64 49 81 86 86 188 10 198-73 415-178 469-48 24-99 24-205 0z"/>
<path d="m6731 3875c-148-42-258-104-341-191-87-94-130-198-130-321 0-120 70-236 190-313 114-73 299-114 402-89 45 10 64 23 124 83 200 200 271 508 160 685-79 124-256 188-405 146z"/>
<path d="m2704 3241c-55-25-104-70-162-149-99-134-146-256-147-382 0-75 3-91 27-131 91-155 336-232 506-159 64 28 133 101 157 168 26 69 32 286 11 375-43 182-157 297-296 297-32 0-72-8-96-19z"/>
<path d="m6641 1895c-232-51-360-222-348-464 5-114 27-184 82-266 81-121 206-188 350-189 108-1 167 24 245 103 91 92 146 210 175 380 27 155 16 215-53 292-94 104-313 174-451 144z"/>
</g>
</svg>