<?xml version="1.0" encoding="utf-8"?>
<svg viewBox="0 0 850 850" xmlns="http://www.w3.org/2000/svg">
  <g transform="translate(0 850) scale(.1 -.1)">
<path d="m7065 7480c-243-32-553-189-796-404-135-120-296-321-363-453l-26-52 40-148c120-454 236-1014 275-1337 23-186 21-384-3-464-38-121-108-201-227-260-128-64-138-65-623-69l-442-4-25-43c-13-23-32-72-42-108-15-58-16-76-5-139 7-40 25-98 41-128l28-56 294-5c314-6 313-6 427-64 28-14 81-54 118-88 272-255 366-694 224-1054-77-193-285-464-458-595-131-99-301-170-492-204-126-22-476-32-562-16-105 21-203 74-284 155-59 58-80 90-122 176-52 108-81 204-89 300-4 41 64 1028 71 1036 0 1 53 7 117 13 196 19 269 52 269 124 0 52-37 183-66 238-37 67-85 121-141 158l-46 31h-441c-499 0-453 7-548-86-81-80-144-233-136-330 3-34 8-40 62-70 52-29 132-50 256-69l35-5 38-409c36-392 37-411 21-457-51-150-162-270-330-353-152-75-339-111-577-111-339 0-555 64-712 212-78 72-130 170-146 268-6 39-8 295-7 644l3 580 90 31c152 53 251 111 377 221 137 121 268 305 349 495 45 104 54 138 45 173-17 67-184 53-548-45l-117-32-52-85c-72-118-165-209-264-258l-79-39-1058-6 7-46c20-135 88-263 176-333l49-38 3-594c4-642 4-648 62-790 55-135 165-264 281-330l54-30v-173-174l-257-3c-289-5-321-10-458-77-102-51-175-122-220-216-18-38-36-87-40-107l-6-38h1126c655 0 1133 4 1143 9 9 5 55 15 102 21 372 54 821 274 1123 550 32 29 59 51 61 49s21-38 41-79c117-233 287-407 500-510 175-86 340-116 580-107s438 50 842 176c218 67 316 86 406 78 75-7 125-27 172-68 44-39 58-65 90-166 37-118 105-217 183-265 27-16 42-19 80-13 143 21 232 112 261 267 5 29 9 53 8 54-83 36-174 127-225 221l-32 61v670 671l34 78c72 163 109 309 127 490 13 140-1 265-51 459-87 336-142 906-171 1767-12 352-6 456 32 634 67 311 196 502 385 573 178 66 346 32 499-101 85-73 220-226 247-279 33-64 33-216 0-310-81-234-291-434-456-435-113 0-158 58-160 209-1 63-7 101-18 122-22 41-68 60-116 48-31-7-41-17-61-57-20-41-23-63-25-165-1-98 3-129 22-187 43-132 126-222 287-315 109-62 161-65 258-17 85 42 237 166 334 272l68 75 137-39 137-38 33 20c193 115 325 352 359 643 20 165-23 320-131 483-260 388-802 647-1235 591z"/>
<path d="m3501 6475c-268-61-388-253-322-516 34-136 102-215 233-273 175-77 427-64 536 29 59 51 77 114 76 270 0 239-81 404-229 474-64 30-200 38-294 16z"/>
</g>
</svg>