<?xml version="1.0" encoding="utf-8"?>
<svg viewBox="0 0 850 850" xmlns="http://www.w3.org/2000/svg">
  <g transform="translate(0 850) scale(.1 -.1)">
<path d="m3270 8444c-14-2-128-10-255-19-280-20-323-27-402-66l-63-30v-58c0-68 30-191 61-253 35-70 88-128 161-175 72-47 107-89 133-162 55-157-49-384-230-503-173-113-391-103-543 27-51 44-95 106-127 180l-24 54 53 36c128 84 209 208 210 319 1 53-3 67-31 107-77 111-397 297-685 400l-68 24-52-19c-117-41-193-125-224-245-23-93-15-135 56-278 47-95 76-139 120-184 51-52 60-68 88-156 64-202 160-364 291-493 133-132 239-189 431-231 58-12 107-26 110-29s34-16 70-29c106-38 254-120 339-188 233-186 344-432 327-728-21-393-225-671-562-767-112-32-295-32-409 0-216 62-424 225-497 392-26 59-34 157-18 216 8 28 28 63 50 85 32 34 43 39 81 39 116-1 247-122 282-260l14-55 64-23c285-104 483 67 398 344-29 95-99 205-189 294-84 85-242 194-304 211-26 7-104 10-211 6-176-4-286-22-356-58-90-45-315-337-357-464-24-70-48-195-61-317-9-74-7-98 10-169 49-206 188-416 371-563 103-83 258-162 357-182 41-8 78-17 82-20 4-2 17-30 29-62 17-44 20-69 15-106-14-106-54-165-163-238-111-74-167-123-185-161-22-46-64-347-77-547-38-611-46-843-31-922 18-92 84-308 128-417 37-92 39-94 80-106 62-18 127-59 167-106 40-48 116-188 116-216 0-10 4-23 9-29 5-5 19-43 31-84 30-102 68-174 138-261 313-394 1197-893 1812-1023 63-14 165-36 225-50 162-37 366-64 579-77 303-19 672 10 976 77 168 37 517 157 640 220 376 191 669 520 865 969 26 61 96 214 155 340 204 437 265 656 292 1054 20 303-13 709-88 1060-41 191-58 278-74 376-32 193-165 398-525 810-267 306-266 305-430 428-328 245-575 395-830 502-230 96-461 272-561 426-81 125-103 237-63 330l21 49h105c113 0 261 25 376 65 205 70 387 246 510 490 36 73 107 261 107 284 0 4 27 34 59 69 45 47 75 93 123 189 58 118 63 132 63 193-1 159-101 292-247 331-46 13-50 12-170-36-68-27-181-78-253-114-299-151-418-267-400-390 15-106 96-220 211-296l54-36-15-37c-51-122-137-215-245-266-130-61-302-45-435 42-175 113-282 345-231 500 23 70 68 127 118 153 57 29 141 115 173 178 36 72 65 191 65 267 0 52-4 68-24 91l-24 28-139-2c-76-1-304-4-506-5l-369-3-25-30c-24-27-25-33-19-106 12-143 54-244 142-341 56-60 98-137 108-199 4-19 10-77 15-129 7-84 18-123 91-320 96-262 119-314 189-435 63-108 194-374 211-430 21-68 97-203 205-365 126-189 195-275 251-319 24-18 78-70 121-114 43-45 177-181 299-302 222-221 314-320 415-450 399-510 658-1101 745-1700 24-165 25-523 2-650-73-391-302-799-638-1135-314-314-676-519-1065-602-96-20-137-23-315-23-232 1-322 15-530 84-729 243-1290 626-1606 1097-356 532-417 1210-175 1934 85 253 212 489 318 592 21 20 99 74 173 119s181 110 237 144c104 64 139 76 183 64 89-25 201 4 299 75 41 30 67 41 133 52 150 27 233 2 331-100 34-36 90-85 124-110 72-53 99-98 138-233 33-113 52-372 35-471-22-130-88-219-200-271-66-30-221-42-296-21-65 18-104 67-104 128 0 75 53 165 133 229 30 23 47 79 47 153 0 115-50 206-140 253-48 25-63 28-113 24-78-7-155-46-233-119-160-150-230-357-190-559 25-123 66-200 156-290 86-87 190-145 325-180 109-29 306-31 420-5 163 37 332 122 410 206 17 17 48 41 70 52 77 40 182 117 227 167 65 72 73 112 72 351-1 217-17 321-75 487-94 267-263 461-504 581-172 86-363 129-613 139l-154 6 6 31c4 17 9 49 13 71 3 22 17 57 31 78 25 37 25 38 19 215-4 164-40 459-68 564-25 95-188 289-315 373-151 100-235 165-243 188-7 19 2 34 63 97 126 132 209 290 266 504 27 105 60 293 60 349 0 19 10 31 45 51 112 66 195 192 221 335 23 131 20 149-34 208-44 49-51 53-112 63-60 9-170 11-230 4z"/>
<path d="m4250 2692c-159-53-272-175-314-339-20-76-21-240-2-311 39-147 157-253 326-293 132-31 337-6 458 55 128 65 205 216 204 400 0 182-77 321-227 415-120 76-333 110-445 73z"/>
</g>
</svg>