<svg id="svg" version="1.1" xmlns="http://www.w3.org/2000/svg" xmlns:xlink="http://www.w3.org/1999/xlink" width="400" height="400" viewBox="0, 0, 400,400"><path id="path0" d="M211.566 33.493 C 210.998 33.574,209.608 34.486,208.479 35.520 C 207.349 36.554,205.405 38.210,204.159 39.200 C 198.421 43.759,194.102 48.758,191.540 53.805 C 190.983 54.902,190.049 56.745,189.464 57.900 C 188.879 59.055,188.400 60.294,188.400 60.653 C 188.400 61.012,188.059 61.867,187.643 62.553 C 187.227 63.239,186.753 64.430,186.591 65.200 C 186.429 65.970,185.959 67.029,185.548 67.554 C 185.133 68.083,184.799 69.152,184.798 69.954 C 184.796 70.749,184.516 71.935,184.175 72.589 C 183.834 73.243,183.379 75.181,183.164 76.895 C 182.201 84.576,181.880 85.120,178.905 84.106 C 177.201 83.525,176.623 83.541,170.835 84.333 C 167.406 84.802,162.916 85.362,160.858 85.579 C 158.800 85.795,156.910 86.138,156.658 86.341 C 156.406 86.545,155.030 86.840,153.600 86.999 C 152.170 87.157,150.010 87.614,148.800 88.014 C 147.590 88.414,145.970 88.863,145.200 89.013 C 144.430 89.162,143.260 89.520,142.600 89.808 C 141.940 90.096,140.728 90.540,139.906 90.795 C 139.084 91.050,138.315 91.414,138.197 91.605 C 138.079 91.795,136.952 92.526,135.692 93.230 C 129.231 96.836,124.673 100.587,121.394 105.000 C 120.740 105.880,120.104 106.690,119.982 106.800 C 119.340 107.377,117.684 111.215,117.464 112.637 C 117.325 113.538,116.807 115.158,116.313 116.237 C 114.840 119.456,114.987 133.906,116.529 137.488 C 117.118 138.856,117.600 140.313,117.600 140.726 C 117.600 141.138,117.960 141.802,118.400 142.200 C 118.840 142.598,119.200 143.149,119.200 143.425 C 119.200 143.879,120.760 147.320,121.636 148.800 C 121.832 149.130,122.347 150.030,122.781 150.800 C 123.215 151.570,124.387 153.083,125.386 154.162 C 126.384 155.241,127.786 156.947,128.501 157.953 C 129.215 158.959,131.465 161.460,133.500 163.510 C 135.535 165.561,137.200 167.481,137.200 167.777 C 137.200 168.274,132.563 170.800,131.652 170.800 C 131.433 170.800,130.386 171.338,129.327 171.996 C 128.267 172.654,126.381 173.550,125.135 173.988 C 123.889 174.425,121.999 175.320,120.935 175.977 C 119.871 176.634,118.460 177.442,117.800 177.772 C 117.140 178.102,115.880 178.830,115.000 179.389 C 114.120 179.948,112.827 180.672,112.126 180.997 C 110.940 181.548,108.320 183.166,107.400 183.914 C 107.180 184.093,106.415 184.585,105.700 185.006 C 104.985 185.428,104.400 185.914,104.400 186.086 C 104.400 186.259,104.146 186.400,103.835 186.400 C 103.524 186.400,102.193 187.300,100.876 188.400 C 99.560 189.500,98.356 190.400,98.200 190.400 C 97.721 190.400,91.670 195.585,89.476 197.876 C 88.334 199.068,86.706 200.708,85.858 201.522 C 85.009 202.335,83.682 203.990,82.908 205.200 C 82.134 206.410,80.814 208.432,79.975 209.693 C 77.892 212.825,77.032 216.264,77.621 219.103 C 78.294 222.342,77.875 222.912,76.180 221.062 C 75.421 220.233,74.800 219.151,74.800 218.658 C 74.800 216.799,72.281 216.398,71.621 218.152 C 71.376 218.805,71.335 231.421,71.563 236.168 C 71.698 238.972,86.056 247.089,91.108 247.218 C 91.489 247.227,92.520 247.500,93.400 247.823 C 94.280 248.147,96.329 248.587,97.952 248.803 C 99.576 249.018,101.466 249.477,102.152 249.822 C 102.839 250.168,104.300 250.535,105.400 250.637 C 108.453 250.921,112.952 251.695,113.400 252.012 C 113.620 252.168,114.970 252.416,116.400 252.563 C 117.830 252.710,120.530 253.184,122.400 253.617 C 124.270 254.049,127.960 254.581,130.600 254.800 C 133.240 255.018,136.930 255.382,138.800 255.607 C 140.670 255.833,144.000 256.207,146.200 256.440 C 150.343 256.877,151.922 257.429,152.590 258.673 C 152.805 259.073,153.390 260.040,153.890 260.822 C 154.391 261.603,154.800 262.522,154.800 262.863 C 154.800 263.204,155.205 263.955,155.700 264.531 C 157.553 266.688,158.400 267.944,158.400 268.535 C 158.400 268.869,158.634 269.381,158.919 269.671 C 159.823 270.590,168.800 283.176,168.800 283.524 C 168.800 283.706,169.205 284.232,169.700 284.693 C 170.195 285.153,172.040 287.095,173.800 289.009 C 176.816 292.288,182.249 296.800,183.181 296.800 C 183.415 296.800,183.997 297.250,184.475 297.800 C 184.953 298.350,185.560 298.800,185.823 298.800 C 186.087 298.800,186.518 299.061,186.783 299.380 C 187.048 299.698,187.925 300.171,188.732 300.430 C 189.539 300.689,190.500 301.163,190.867 301.483 C 193.452 303.737,194.594 300.422,192.158 297.735 C 191.193 296.671,190.403 295.654,190.402 295.477 C 190.400 295.132,188.502 292.652,186.726 290.675 C 184.867 288.605,179.370 279.198,178.149 276.000 C 177.771 275.010,177.286 273.969,177.071 273.687 C 176.573 273.033,174.858 268.249,174.445 266.360 C 174.271 265.568,173.713 264.060,173.205 263.010 C 172.207 260.948,172.442 258.816,173.629 259.171 C 173.943 259.265,178.030 259.376,182.712 259.417 C 187.394 259.458,191.354 259.620,191.512 259.778 C 191.670 259.935,191.916 263.515,192.058 267.732 C 192.237 273.085,192.509 275.993,192.958 277.364 C 193.311 278.444,193.600 280.168,193.600 281.196 C 193.600 282.224,194.048 285.300,194.595 288.032 C 195.143 290.765,195.593 293.849,195.595 294.886 C 195.598 295.923,195.856 297.543,196.168 298.486 C 196.481 299.429,196.858 301.820,197.006 303.800 C 197.155 305.780,197.607 309.020,198.012 311.000 C 198.417 312.980,198.858 315.410,198.993 316.400 C 199.128 317.390,199.575 319.730,199.986 321.600 C 201.904 330.332,202.389 332.742,202.604 334.600 C 202.849 336.711,203.986 340.837,205.258 344.231 C 205.677 345.349,206.178 347.239,206.373 348.431 C 206.567 349.624,206.923 351.050,207.164 351.600 C 207.404 352.150,207.861 353.770,208.177 355.200 C 209.186 359.755,211.872 367.865,212.723 368.922 C 212.934 369.185,213.239 370.015,213.400 370.767 C 213.561 371.518,214.031 372.688,214.445 373.367 C 214.859 374.045,215.198 374.969,215.199 375.420 C 215.201 376.548,215.954 377.200,217.253 377.200 C 218.949 377.200,219.259 374.929,217.799 373.200 C 217.520 372.870,217.088 370.826,216.837 368.657 C 216.587 366.489,216.207 364.387,215.993 363.986 C 215.778 363.586,215.410 360.950,215.175 358.129 C 214.939 355.308,214.505 352.444,214.211 351.765 C 213.887 351.019,213.569 348.015,213.406 344.165 C 213.257 340.664,212.892 336.270,212.593 334.400 C 212.295 332.530,211.942 328.300,211.810 325.000 C 211.553 318.585,210.853 309.609,210.574 309.157 C 210.176 308.514,210.324 280.553,210.731 279.532 C 210.965 278.944,211.355 275.794,211.598 272.532 C 212.018 266.896,212.677 263.422,213.747 261.200 L 214.228 260.200 225.717 259.854 C 239.610 259.435,239.290 259.304,237.044 264.487 C 236.690 265.305,236.400 266.598,236.400 267.361 C 236.400 268.124,236.200 269.255,235.956 269.874 C 235.137 271.952,233.744 282.110,232.811 292.800 C 232.342 298.179,232.907 314.710,233.665 317.800 C 233.881 318.680,234.305 320.930,234.606 322.800 C 234.907 324.670,235.426 326.920,235.759 327.800 C 236.092 328.680,236.373 330.060,236.382 330.867 C 236.397 332.095,236.622 332.472,237.755 333.172 C 240.335 334.767,241.013 333.526,239.534 329.915 C 238.583 327.595,238.384 319.442,239.189 315.847 C 239.400 314.908,239.756 311.633,239.981 308.570 C 240.365 303.351,240.704 301.280,242.240 294.800 C 242.578 293.370,243.099 290.850,243.397 289.200 C 243.696 287.550,244.200 285.570,244.518 284.800 C 244.836 284.030,245.217 282.448,245.364 281.283 C 245.512 280.119,245.984 278.589,246.414 277.883 C 246.845 277.178,247.198 276.010,247.199 275.288 C 247.199 274.566,247.650 272.907,248.200 271.600 C 248.750 270.293,249.200 268.828,249.200 268.344 C 249.200 267.859,249.440 267.179,249.734 266.831 C 250.028 266.484,250.508 265.570,250.801 264.800 C 251.094 264.030,251.529 263.148,251.766 262.839 C 252.004 262.531,252.379 261.738,252.599 261.077 C 253.449 258.528,255.982 257.705,263.203 257.634 C 265.074 257.615,267.234 257.415,268.003 257.189 C 268.771 256.964,271.290 256.601,273.600 256.383 C 275.910 256.165,279.330 255.730,281.200 255.417 C 283.070 255.104,286.810 254.647,289.512 254.402 C 292.213 254.157,295.093 253.721,295.912 253.433 C 296.730 253.145,298.823 252.777,300.563 252.615 C 302.303 252.453,304.375 252.091,305.169 251.811 C 305.962 251.531,307.418 251.178,308.405 251.026 C 310.938 250.636,316.737 248.897,318.400 248.029 C 319.170 247.627,320.564 247.171,321.498 247.014 C 322.432 246.858,323.294 246.571,323.415 246.376 C 323.535 246.181,324.324 245.836,325.168 245.608 C 331.762 243.833,335.377 238.757,333.196 234.335 C 332.225 232.365,324.739 224.866,322.719 223.838 C 321.994 223.470,320.680 222.719,319.800 222.170 C 318.920 221.622,317.750 220.954,317.200 220.685 C 316.198 220.196,315.030 219.482,312.378 217.736 C 311.597 217.221,310.674 216.800,310.327 216.800 C 309.981 216.800,309.483 216.542,309.221 216.226 C 308.959 215.910,308.172 215.539,307.472 215.401 C 306.773 215.264,304.580 214.383,302.600 213.445 C 298.317 211.416,295.709 210.460,293.000 209.925 C 291.900 209.708,290.010 209.278,288.800 208.969 C 281.108 207.008,273.576 207.740,270.316 210.765 C 269.939 211.114,269.150 211.760,268.561 212.200 C 266.662 213.619,264.184 216.329,262.629 218.686 C 260.728 221.568,260.413 221.867,259.990 221.198 C 259.245 220.019,259.553 218.829,261.389 215.800 C 263.059 213.045,263.295 212.323,262.714 211.743 C 261.883 210.911,260.697 211.531,259.288 213.535 C 258.566 214.561,257.205 216.480,256.264 217.800 C 252.881 222.542,245.602 235.941,243.938 240.489 C 242.873 243.401,242.918 243.388,234.400 243.269 C 219.121 243.058,216.548 241.936,219.822 236.914 C 220.140 236.427,220.400 235.790,220.400 235.499 C 220.400 235.207,220.758 234.266,221.196 233.407 C 221.634 232.548,222.103 231.256,222.238 230.537 C 222.373 229.817,222.726 229.028,223.021 228.782 C 223.317 228.537,223.774 227.675,224.038 226.868 C 224.301 226.061,224.850 224.971,225.258 224.446 C 225.666 223.921,226.000 223.329,226.000 223.130 C 226.000 222.931,226.336 222.280,226.746 221.684 C 227.156 221.088,228.148 219.610,228.949 218.400 C 231.213 214.981,231.627 214.447,233.578 212.423 C 235.770 210.149,240.221 206.400,240.729 206.400 C 240.929 206.400,241.542 206.046,242.092 205.613 C 242.642 205.181,243.882 204.717,244.846 204.582 C 245.811 204.448,246.992 204.148,247.471 203.917 C 247.950 203.685,248.850 203.625,249.471 203.783 C 254.800 205.141,256.212 203.259,251.906 200.541 C 248.025 198.091,235.298 197.926,230.811 200.267 C 230.255 200.558,229.419 200.796,228.954 200.798 C 228.489 200.799,227.679 201.135,227.154 201.545 C 226.629 201.955,225.770 202.425,225.245 202.589 C 224.720 202.754,223.492 203.499,222.515 204.244 C 220.538 205.753,218.528 206.205,219.738 204.869 C 220.102 204.466,220.400 203.940,220.400 203.700 C 220.400 202.725,224.070 199.612,225.722 199.186 C 226.645 198.947,227.688 198.670,228.039 198.569 C 228.391 198.467,228.879 197.944,229.124 197.406 C 230.740 193.860,222.303 194.261,216.000 198.029 C 215.670 198.227,214.860 198.634,214.200 198.934 C 212.469 199.722,208.632 203.639,205.400 207.920 C 203.860 209.960,202.400 211.854,202.155 212.130 C 201.250 213.152,197.705 219.041,197.416 220.004 C 197.251 220.552,196.858 221.410,196.542 221.910 C 195.898 222.931,194.207 228.550,193.806 231.000 C 192.547 238.692,190.793 241.433,188.559 239.199 C 188.339 238.979,186.022 238.519,183.410 238.176 C 180.797 237.834,178.377 237.402,178.030 237.217 C 177.684 237.032,176.384 236.754,175.142 236.600 C 172.226 236.236,171.150 234.469,171.903 231.279 C 172.147 230.246,172.464 228.688,172.607 227.819 C 172.750 226.949,173.186 225.599,173.577 224.819 C 173.967 224.038,174.401 222.922,174.542 222.337 C 174.839 221.099,177.787 216.005,180.461 212.111 C 183.513 207.665,189.841 201.975,194.131 199.819 C 195.633 199.064,197.112 198.239,197.418 197.985 C 197.724 197.731,198.835 197.305,199.887 197.038 C 203.551 196.106,202.442 193.636,198.350 193.613 C 196.183 193.600,194.641 193.090,189.774 190.774 C 188.879 190.348,187.956 190.000,187.723 190.000 C 187.489 190.000,187.090 189.749,186.835 189.442 C 186.580 189.135,185.773 188.771,185.041 188.634 C 184.309 188.497,183.387 188.028,182.993 187.592 C 182.599 187.156,182.091 186.800,181.866 186.800 C 181.640 186.800,180.154 185.900,178.562 184.800 C 176.971 183.700,175.483 182.800,175.255 182.800 C 175.026 182.800,174.696 182.575,174.520 182.300 C 174.344 182.025,172.940 180.738,171.400 179.440 C 167.246 175.938,167.746 175.045,174.200 174.439 C 176.620 174.212,179.590 173.770,180.800 173.458 C 182.010 173.145,186.060 172.774,189.800 172.633 C 193.540 172.492,199.420 172.187,202.868 171.954 C 207.345 171.653,211.401 171.659,217.068 171.976 C 221.430 172.219,229.860 172.518,235.800 172.639 C 242.244 172.771,247.729 173.077,249.400 173.398 C 250.940 173.694,253.550 174.063,255.200 174.219 C 256.850 174.374,258.920 174.733,259.800 175.017 C 260.680 175.300,262.480 175.742,263.800 175.998 C 265.120 176.255,267.344 176.810,268.742 177.232 C 270.140 177.655,271.748 178.000,272.314 178.000 C 273.393 178.000,277.599 179.170,281.000 180.416 C 282.100 180.819,283.630 181.327,284.400 181.545 C 285.170 181.763,287.240 182.509,289.000 183.203 C 290.760 183.897,292.905 184.638,293.767 184.849 C 294.629 185.061,295.799 185.474,296.367 185.766 C 296.935 186.059,298.030 186.593,298.800 186.953 C 299.570 187.313,301.460 188.257,303.000 189.051 C 304.540 189.844,306.790 190.967,308.000 191.547 C 309.210 192.126,311.035 193.275,312.056 194.100 C 313.076 194.925,314.029 195.600,314.173 195.600 C 314.316 195.600,315.371 196.278,316.517 197.106 C 317.663 197.934,319.050 198.844,319.600 199.127 C 320.150 199.410,321.380 200.352,322.334 201.221 C 323.288 202.089,324.188 202.801,324.334 202.802 C 324.480 202.803,325.180 203.388,325.890 204.102 C 335.349 213.623,336.634 214.785,337.713 214.792 C 339.145 214.802,339.430 214.004,338.580 212.361 C 338.207 211.640,337.830 209.876,337.743 208.443 C 337.656 207.009,337.341 205.464,337.043 205.009 C 336.745 204.554,336.371 203.376,336.213 202.391 C 336.054 201.406,335.581 200.005,335.162 199.277 C 334.743 198.550,334.400 197.587,334.400 197.139 C 334.400 196.690,334.068 195.846,333.661 195.262 C 333.255 194.678,332.721 193.607,332.476 192.882 C 332.230 192.158,331.663 191.050,331.215 190.421 C 330.767 189.791,330.400 189.077,330.400 188.833 C 330.400 188.589,330.233 188.077,330.029 187.695 C 328.893 185.565,327.200 181.404,327.200 180.739 C 327.200 180.315,326.856 179.480,326.436 178.884 C 326.016 178.288,325.552 176.900,325.405 175.800 C 325.258 174.700,324.876 173.393,324.557 172.896 C 324.238 172.399,323.793 170.525,323.568 168.731 C 323.343 166.938,322.987 165.149,322.777 164.757 C 322.567 164.364,322.282 162.099,322.143 159.722 C 321.875 155.126,321.614 154.400,320.231 154.400 C 318.958 154.400,318.400 155.160,318.400 156.893 C 318.400 157.736,318.117 159.095,317.771 159.913 C 315.982 164.140,315.455 171.342,316.337 179.525 C 316.808 183.890,315.260 184.794,313.061 181.437 C 312.734 180.938,311.057 179.810,309.333 178.930 C 307.610 178.051,305.587 176.953,304.838 176.492 C 303.637 175.752,299.986 173.926,295.000 171.570 C 292.109 170.205,288.437 168.800,287.756 168.800 C 287.388 168.800,286.348 168.455,285.444 168.033 C 283.622 167.182,280.935 166.266,277.600 165.357 C 276.390 165.027,274.833 164.497,274.140 164.179 C 273.446 163.860,272.595 163.600,272.248 163.600 C 271.901 163.600,270.276 163.150,268.638 162.600 C 266.999 162.050,265.219 161.600,264.680 161.600 C 264.142 161.600,262.914 161.255,261.951 160.833 C 260.988 160.411,259.300 159.939,258.200 159.783 C 257.100 159.627,256.020 159.365,255.800 159.200 C 255.580 159.036,253.870 158.774,252.000 158.618 C 250.130 158.462,247.706 158.166,246.614 157.961 C 242.914 157.266,234.615 156.407,231.562 156.404 C 229.035 156.401,228.402 156.265,227.800 155.600 C 227.402 155.160,226.903 154.800,226.691 154.800 C 225.920 154.800,219.939 149.237,216.955 145.745 C 215.880 144.486,214.685 143.179,214.300 142.839 C 213.915 142.500,213.600 141.991,213.600 141.708 C 213.600 141.426,213.150 140.803,212.600 140.325 C 212.050 139.847,211.600 139.263,211.599 139.028 C 211.599 138.793,210.913 137.610,210.075 136.400 C 207.625 132.862,204.400 126.177,204.400 124.637 C 204.400 124.273,204.116 123.305,203.770 122.487 C 202.204 118.792,201.021 108.579,202.020 107.376 C 202.691 106.567,205.072 106.659,206.553 107.551 C 207.239 107.965,208.512 108.430,209.381 108.585 C 210.251 108.740,211.639 109.212,212.465 109.633 C 213.292 110.055,214.200 110.401,214.484 110.402 C 214.768 110.404,215.475 110.653,216.055 110.955 C 216.635 111.258,218.028 111.811,219.150 112.183 C 220.272 112.556,221.293 113.027,221.419 113.231 C 221.544 113.434,221.910 113.600,222.232 113.600 C 222.553 113.600,223.529 114.050,224.400 114.600 C 225.271 115.150,226.228 115.600,226.526 115.600 C 226.824 115.600,228.070 116.302,229.296 117.161 C 230.521 118.020,231.946 118.855,232.462 119.017 C 233.816 119.443,237.452 121.539,238.016 122.220 C 238.281 122.539,238.675 122.800,238.891 122.800 C 239.108 122.800,239.793 123.205,240.415 123.700 C 241.036 124.195,242.192 125.050,242.983 125.600 C 243.774 126.150,244.804 126.915,245.272 127.300 C 245.740 127.685,246.268 128.000,246.446 128.000 C 246.937 128.000,257.135 138.242,259.589 141.200 C 263.239 145.599,265.120 147.222,266.544 147.201 C 269.021 147.164,273.838 147.872,275.903 148.576 C 279.580 149.831,280.486 147.314,279.926 137.411 C 279.271 125.820,277.985 121.307,272.600 111.685 C 270.404 107.760,262.899 103.830,262.753 106.527 C 262.671 108.025,262.792 108.536,263.764 110.800 C 266.067 116.168,266.365 117.339,266.483 121.480 C 266.635 126.767,265.464 127.876,263.310 124.486 C 262.931 123.889,262.053 122.770,261.360 122.000 C 260.668 121.230,259.184 119.570,258.063 118.310 C 255.347 115.257,251.912 112.049,249.918 110.705 C 249.026 110.103,247.554 109.017,246.648 108.291 C 245.144 107.087,244.520 106.638,241.789 104.800 C 241.299 104.470,239.912 103.525,238.708 102.700 C 237.503 101.875,236.333 101.200,236.108 101.200 C 235.882 101.200,235.489 100.948,235.233 100.640 C 234.977 100.332,233.470 99.423,231.884 98.621 C 230.298 97.819,228.730 97.007,228.400 96.817 C 227.845 96.496,226.207 95.736,221.600 93.659 C 220.610 93.212,219.260 92.721,218.600 92.567 C 217.940 92.414,216.860 92.009,216.200 91.668 C 214.144 90.607,209.897 89.181,207.629 88.792 C 204.572 88.267,203.985 86.765,205.600 83.600 C 206.040 82.738,206.400 81.777,206.400 81.466 C 206.400 80.822,208.004 76.991,209.275 74.600 C 210.105 73.036,213.377 68.865,214.191 68.332 C 214.416 68.184,215.770 66.955,217.200 65.601 C 221.982 61.071,227.866 58.028,232.000 57.947 C 233.733 57.913,238.499 59.032,239.132 59.622 C 239.533 59.996,240.253 60.426,240.731 60.578 C 241.209 60.730,241.600 60.977,241.600 61.127 C 241.601 61.277,242.051 61.923,242.600 62.562 C 243.150 63.201,243.600 63.915,243.600 64.148 C 243.600 64.381,243.959 64.938,244.398 65.386 C 246.146 67.170,247.097 68.667,247.347 70.030 C 248.184 74.584,251.832 74.448,252.683 69.832 C 252.949 68.390,253.354 66.859,253.583 66.431 C 254.286 65.118,254.074 60.341,253.200 57.800 C 252.760 56.521,252.400 55.205,252.400 54.875 C 252.400 53.907,250.458 51.640,249.076 50.996 C 247.860 50.430,247.204 50.023,244.560 48.201 C 243.922 47.761,242.328 46.366,241.017 45.101 C 239.707 43.835,238.416 42.800,238.148 42.800 C 237.880 42.800,237.153 42.375,236.531 41.855 C 235.909 41.335,234.995 40.783,234.500 40.628 C 234.005 40.473,233.600 40.211,233.600 40.047 C 233.600 39.337,225.606 35.603,224.073 35.597 C 223.703 35.596,222.863 35.241,222.206 34.808 C 221.550 34.375,220.290 33.935,219.406 33.829 C 216.736 33.510,212.664 33.336,211.566 33.493 M179.869 102.203 C 180.663 102.535,182.258 102.917,183.414 103.053 C 186.337 103.397,186.461 103.537,186.787 106.864 C 186.946 108.491,187.269 110.181,187.504 110.621 C 187.740 111.061,188.140 112.567,188.394 113.967 C 188.648 115.367,189.099 116.893,189.397 117.357 C 189.695 117.820,190.132 119.280,190.368 120.600 C 190.604 121.920,191.042 123.540,191.341 124.200 C 191.640 124.860,192.247 126.210,192.690 127.200 C 194.346 130.899,197.821 137.842,198.597 139.000 C 200.058 141.183,206.145 148.570,207.923 150.319 C 210.434 152.790,210.083 153.207,205.512 153.174 C 203.471 153.159,200.450 153.346,198.800 153.590 C 197.150 153.834,193.280 154.196,190.200 154.396 C 184.281 154.778,179.920 155.347,178.348 155.942 C 177.827 156.139,176.230 156.434,174.800 156.597 C 173.370 156.760,171.750 157.118,171.200 157.392 C 170.650 157.666,168.973 158.011,167.473 158.159 C 165.974 158.307,164.084 158.685,163.273 159.000 C 160.459 160.093,151.929 161.966,150.795 161.739 C 150.124 161.605,149.048 160.780,148.134 159.700 C 147.290 158.702,146.240 157.546,145.800 157.130 C 143.263 154.733,140.937 151.825,139.361 149.080 C 134.742 141.034,134.889 141.453,132.765 130.291 C 131.084 121.454,135.942 111.873,144.271 107.600 C 145.772 106.830,147.270 105.992,147.600 105.737 C 147.930 105.483,148.950 105.075,149.867 104.831 C 150.783 104.587,152.043 104.121,152.667 103.796 C 153.290 103.471,154.160 103.194,154.600 103.181 C 155.040 103.167,156.660 102.822,158.200 102.413 C 161.998 101.406,177.598 101.254,179.869 102.203 M160.079 185.548 C 162.345 187.059,164.650 188.434,165.200 188.603 C 165.750 188.772,166.629 189.245,167.154 189.655 C 167.679 190.065,168.338 190.400,168.620 190.400 C 169.144 190.400,174.993 193.373,175.905 194.102 C 176.570 194.634,175.810 195.600,174.726 195.600 C 173.819 195.600,170.054 197.326,168.017 198.675 C 167.238 199.192,166.256 199.836,165.835 200.107 C 165.023 200.630,161.903 203.393,159.840 205.416 C 158.009 207.212,155.032 210.855,154.460 212.000 C 154.186 212.550,153.530 213.720,153.003 214.600 C 151.178 217.646,149.544 221.236,149.309 222.715 C 149.180 223.532,148.742 224.980,148.337 225.933 C 147.932 226.886,147.598 228.236,147.595 228.933 C 147.581 232.178,146.762 232.690,143.012 231.797 C 141.685 231.482,139.430 230.942,138.000 230.597 C 136.570 230.253,133.957 229.715,132.193 229.401 C 130.429 229.087,128.201 228.553,127.243 228.215 C 126.284 227.877,125.117 227.592,124.650 227.582 C 124.182 227.573,123.080 227.289,122.200 226.953 C 121.320 226.616,119.790 226.158,118.800 225.936 C 116.845 225.497,112.403 223.888,110.800 223.039 C 110.250 222.747,109.274 222.383,108.632 222.230 C 107.989 222.076,107.020 221.602,106.478 221.175 C 105.936 220.749,105.286 220.400,105.034 220.400 C 103.783 220.400,99.629 215.781,99.162 213.871 C 98.236 210.082,100.406 206.926,104.235 206.495 C 106.579 206.231,106.967 207.179,106.648 212.400 C 106.395 216.542,106.618 217.319,108.479 218.779 C 109.924 219.912,111.361 219.544,112.055 217.865 C 114.152 212.793,127.118 198.722,133.400 194.700 C 134.500 193.996,135.638 193.190,135.929 192.910 C 136.219 192.629,136.590 192.400,136.753 192.400 C 136.916 192.400,137.398 192.085,137.825 191.700 C 140.288 189.476,153.072 182.806,154.879 182.802 C 155.548 182.801,157.520 183.842,160.079 185.548 M295.200 221.537 C 295.970 222.010,296.983 222.398,297.451 222.399 C 297.919 222.399,298.526 222.670,298.800 223.000 C 299.074 223.330,299.505 223.600,299.759 223.600 C 300.013 223.600,301.296 224.134,302.610 224.787 C 303.925 225.441,305.270 225.994,305.600 226.017 C 307.874 226.179,317.686 232.157,316.333 232.557 C 316.040 232.644,314.630 233.086,313.200 233.539 C 311.770 233.992,309.610 234.486,308.400 234.636 C 307.190 234.787,305.570 235.220,304.800 235.599 C 304.030 235.977,302.230 236.395,300.800 236.527 C 299.370 236.658,296.776 237.134,295.036 237.583 C 293.296 238.032,291.175 238.400,290.323 238.400 C 289.471 238.400,288.168 238.653,287.427 238.963 C 286.686 239.273,284.756 239.726,283.140 239.970 C 281.523 240.215,278.940 240.688,277.400 241.022 C 275.449 241.445,272.901 241.595,269.000 241.515 L 263.400 241.400 263.471 240.329 C 263.511 239.739,263.871 238.910,264.271 238.486 C 264.672 238.062,265.715 236.834,266.590 235.757 C 271.251 230.018,280.395 222.400,282.621 222.400 C 283.062 222.400,283.856 222.096,284.386 221.725 C 286.605 220.170,292.800 220.063,295.200 221.537 " stroke="none" fill="#000" fill-rule="evenodd"></path></svg>