<?xml version="1.0" standalone="no"?>
<!DOCTYPE svg PUBLIC "-//W3C//DTD SVG 20010904//EN"
 "http://www.w3.org/TR/2001/REC-SVG-20010904/DTD/svg10.dtd">
<svg version="1.0" xmlns="http://www.w3.org/2000/svg"
 width="32pt" height="32pt" viewBox="0 0 32 32"
 preserveAspectRatio="xMidYMid meet">

<g transform="translate(0.000000,32.000000) scale(0.100000,-0.100000)"
fill="#000000" stroke="none">
<path d="M74 285 c-24 -18 -38 -19 -28 -2 4 6 0 5 -9 -3 -15 -15 -34 -80 -23
-80 3 0 13 14 21 30 9 17 30 40 48 50 18 11 27 20 21 20 -5 0 -19 -7 -30 -15z"/>
<path d="M220 291 c32 -24 53 -34 45 -20 -5 8 -4 10 4 5 6 -4 9 -12 5 -17 -3
-5 -1 -16 6 -24 6 -7 16 -26 21 -42 l9 -28 -5 30 c-3 17 -7 40 -9 52 -6 32
-14 42 -34 41 -9 0 -26 3 -37 7 -16 6 -17 5 -5 -4z"/>
<path d="M64 246 c-36 -36 -40 -58 -24 -118 16 -56 96 -92 163 -73 15 4 27 11
27 16 0 5 7 9 15 9 8 0 15 5 15 10 0 19 -30 22 -55 6 -35 -23 -80 -20 -105 6
-21 23 -26 63 -11 87 7 11 10 9 16 -8 3 -11 13 -21 21 -21 17 0 18 12 3 27
-16 16 -2 33 26 33 15 0 31 -10 42 -26 15 -24 15 -29 2 -53 -9 -15 -27 -29
-44 -32 l-30 -7 27 -1 c32 -1 68 30 68 58 0 11 5 21 10 23 6 2 2 19 -9 42
l-20 39 26 -24 c25 -24 25 -24 14 -2 -16 31 -42 43 -96 43 -40 0 -52 -5 -81
-34z"/>
<path d="M252 185 c0 -16 2 -22 5 -12 2 9 2 23 0 30 -3 6 -5 -1 -5 -18z"/>
<path d="M5 170 c-3 -11 -2 -28 4 -37 8 -15 10 -11 11 20 0 41 -5 47 -15 17z"/>
<path d="M286 102 c-9 -17 -28 -40 -43 -53 -26 -20 -22 -21 24 -2 12 5 14 3 8
-7 -5 -9 -4 -11 3 -6 7 4 12 16 12 27 0 11 5 29 11 41 6 11 8 22 6 25 -3 3
-13 -9 -21 -25z"/>
<path d="M26 80 c8 -33 19 -43 46 -47 l23 -3 -22 18 c-12 9 -30 26 -38 37 -16
19 -16 19 -9 -5z"/>
</g>
</svg>
