<svg id="svg" xmlns="http://www.w3.org/2000/svg" xmlns:xlink="http://www.w3.org/1999/xlink" width="400" height="400" viewBox="0, 0, 400,400"><g id="svgg"><path id="path0" d="M173.942 17.541 C 170.355 20.865,171.128 21.875,177.257 21.875 C 184.169 21.875,187.289 19.976,184.833 17.262 C 182.628 14.825,176.709 14.977,173.942 17.541 M214.529 16.451 C 210.773 17.080,208.828 18.516,210.062 19.749 C 210.404 20.091,219.058 21.930,229.294 23.836 C 285.221 34.248,328.917 66.014,354.482 114.844 C 357.519 120.645,360.414 126.925,360.916 128.801 C 362.117 133.293,364.508 135.557,368.784 136.252 L 372.266 136.817 370.117 138.396 C 367.573 140.264,367.445 141.981,369.419 147.729 C 370.217 150.052,371.150 155.645,371.493 160.156 C 371.835 164.668,372.212 169.238,372.330 170.313 C 372.448 171.387,372.908 176.235,373.354 181.086 C 374.592 194.574,375.818 195.880,383.891 192.309 C 389.384 189.879,390.257 187.466,388.574 179.366 L 387.224 172.871 389.315 168.872 C 395.504 157.035,387.884 137.502,365.670 108.259 C 359.081 99.586,355.469 94.425,355.469 93.686 C 355.469 93.421,358.135 93.375,361.394 93.584 L 367.319 93.964 370.964 89.815 C 377.769 82.070,377.099 79.221,364.342 61.685 C 351.918 44.606,332.711 31.214,309.474 23.429 C 295.313 18.685,289.994 21.596,301.998 27.521 C 320.595 36.702,338.739 50.711,349.579 64.259 C 355.434 71.576,355.410 71.879,348.977 71.863 C 342.542 71.848,341.071 70.959,335.739 63.863 C 319.840 42.704,288.610 25.475,255.462 19.577 C 247.928 18.236,221.704 15.456,219.141 15.726 C 218.711 15.772,216.636 16.098,214.529 16.451 M119.321 24.248 C 112.954 25.319,108.892 27.839,104.227 33.613 C 98.434 40.783,96.822 41.748,90.990 41.536 C 85.474 41.336,85.295 41.463,78.254 50.529 C 74.117 55.857,72.727 57.036,67.418 59.721 C 64.069 61.415,58.414 64.668,54.853 66.950 C 48.709 70.885,39.390 74.807,38.440 73.857 C 36.653 72.070,63.560 41.588,71.965 35.878 C 80.658 29.971,82.861 25.539,76.758 26.233 C 61.381 27.983,51.595 35.549,51.567 45.709 C 51.563 47.081,51.135 47.243,48.141 47.005 C 44.400 46.707,43.015 47.933,39.064 55.044 C 38.119 56.743,35.295 60.259,32.788 62.856 C 30.282 65.453,27.240 68.886,26.029 70.484 C 24.819 72.082,23.264 73.584,22.574 73.821 C 21.584 74.161,21.220 75.858,20.849 81.853 C 20.590 86.033,20.133 90.298,19.832 91.331 L 19.286 93.210 24.598 92.665 L 29.911 92.121 28.737 93.912 C 19.246 108.400,16.881 112.204,14.234 117.240 C 7.784 129.513,8.782 146.388,16.341 152.860 C 18.657 154.843,18.785 154.428,10.991 170.281 C 5.738 180.965,5.074 184.849,5.103 204.688 C 5.143 232.617,6.753 240.538,13.761 247.289 C 16.450 249.880,19.828 254.099,21.267 256.664 C 23.501 260.646,24.243 261.363,26.343 261.569 C 31.074 262.033,31.341 257.196,27.175 246.494 C 21.850 232.817,18.979 198.548,21.447 178.125 C 29.325 112.912,70.856 58.626,132.031 33.578 C 143.360 28.939,144.721 27.980,142.760 26.019 C 140.567 23.826,127.640 22.849,119.321 24.248 M177.344 44.929 C 153.338 48.158,142.292 50.788,139.028 54.052 C 137.085 55.995,130.305 56.452,131.312 54.573 C 133.643 50.217,130.446 50.638,115.440 56.667 C 80.484 70.710,49.843 108.287,41.883 146.875 C 34.159 184.323,40.650 223.203,60.013 255.469 C 70.389 272.759,89.556 293.923,100.823 300.532 C 104.882 302.912,111.719 307.059,116.016 309.747 C 134.900 321.561,149.222 325.567,181.641 328.103 C 188.993 328.678,187.752 328.747,173.047 328.582 C 149.962 328.322,136.001 325.194,116.638 315.943 C 94.574 305.403,69.549 281.070,58.943 259.846 C 56.334 254.625,51.366 248.894,49.879 249.389 C 45.496 250.850,52.388 269.422,61.519 280.756 C 93.966 321.034,137.164 340.062,199.721 341.631 C 208.283 341.846,209.502 342.059,212.221 343.816 C 219.513 348.527,243.690 340.644,265.239 326.529 C 270.569 323.037,276.530 319.699,278.485 319.111 L 282.040 318.041 283.101 320.580 C 284.847 324.758,289.371 327.895,293.047 327.475 C 307.173 325.864,309.739 324.983,310.628 321.438 C 311.353 318.550,310.676 318.345,305.544 319.899 C 292.359 323.891,286.191 309.448,297.800 301.765 L 300.835 299.757 306.193 301.050 C 323.361 305.194,332.931 297.715,327.823 284.145 C 321.179 266.494,312.806 260.342,304.281 266.849 C 300.722 269.566,300.590 269.601,299.052 268.217 C 293.366 263.102,263.924 270.557,250.882 280.414 C 230.691 295.673,227.174 297.383,212.218 299.217 C 204.800 300.126,191.596 299.311,182.195 297.364 C 176.843 296.255,175.571 296.828,177.834 299.329 C 180.914 302.732,192.096 306.018,201.563 306.301 C 209.846 306.548,208.563 307.660,199.907 307.735 C 162.896 308.052,125.623 285.198,110.001 252.607 C 94.582 220.443,99.186 171.262,119.530 150.804 L 123.825 146.484 124.301 159.375 C 125.047 179.623,133.081 194.911,146.383 201.397 C 155.719 205.949,158.937 204.006,152.180 197.896 C 144.470 190.923,140.544 186.348,138.366 181.796 C 134.345 173.392,134.837 172.814,139.828 180.078 C 146.272 189.457,147.119 190.281,153.500 193.385 C 169.837 201.334,189.601 199.948,177.500 191.702 L 175.068 190.046 183.216 189.683 C 196.966 189.072,206.424 183.043,211.860 171.427 C 215.780 163.052,215.595 157.031,211.419 157.031 C 209.543 157.031,208.817 158.280,205.896 166.540 C 200.095 182.944,174.877 185.761,161.844 171.462 C 141.075 148.673,164.723 115.576,197.819 121.113 C 246.445 129.249,273.239 185.655,248.763 228.361 C 242.328 239.589,236.881 246.760,233.466 248.503 C 231.750 249.378,228.123 251.616,225.406 253.476 C 204.949 267.482,176.614 267.596,153.337 253.767 C 143.227 247.761,139.842 246.963,139.847 250.586 C 139.866 264.554,185.419 281.251,208.817 275.867 C 212.347 275.055,218.362 273.805,222.185 273.090 C 230.508 271.533,235.433 269.293,234.817 267.346 C 234.497 266.334,235.575 265.405,239.321 263.465 C 250.947 257.445,260.208 247.459,267.166 233.442 C 269.661 228.417,271.555 224.159,271.376 223.980 C 271.197 223.801,271.446 222.639,271.929 221.397 C 276.400 209.918,277.739 185.227,274.698 170.351 C 272.342 158.830,272.279 159.020,276.727 164.239 C 281.356 169.670,282.486 172.009,284.820 180.994 C 290.749 203.814,298.097 193.640,295.355 166.406 C 290.601 119.180,265.480 87.033,221.646 72.080 C 206.721 66.988,205.793 66.406,212.609 66.406 C 221.754 66.406,237.684 71.619,254.230 80.026 C 301.681 104.136,321.938 150.246,307.773 201.906 C 306.036 208.239,304.425 215.763,304.192 218.625 C 303.706 224.604,300.702 232.669,297.399 236.864 C 294.985 239.929,293.479 246.875,295.228 246.875 C 298.376 246.875,306.867 234.961,312.769 222.266 C 326.595 192.524,327.169 154.274,314.191 127.483 C 312.893 124.804,311.048 120.249,310.091 117.361 C 305.108 102.325,286.027 79.671,266.881 66.059 C 242.421 48.669,208.699 40.711,177.344 44.929 M112.500 66.741 C 112.500 66.925,110.303 68.739,107.617 70.773 C 104.932 72.806,101.268 75.663,99.476 77.122 C 96.719 79.366,96.282 79.526,96.639 78.160 C 96.872 77.272,97.900 76.335,98.924 76.078 C 101.389 75.459,104.688 71.455,104.688 69.081 C 104.688 68.039,105.060 67.188,105.515 67.188 C 105.970 67.188,106.137 67.519,105.887 67.925 C 105.547 68.475,109.533 67.580,112.305 66.483 C 112.412 66.441,112.500 66.557,112.500 66.741 M83.235 85.104 C 82.952 85.563,82.126 85.926,81.399 85.913 C 80.239 85.891,80.262 85.749,81.584 84.749 C 83.189 83.534,84.086 83.727,83.235 85.104 M208.179 147.071 C 208.571 151.877,210.048 154.688,212.182 154.688 C 214.508 154.688,215.216 152.344,214.017 148.621 C 212.027 142.442,207.709 141.296,208.179 147.071 M384.941 211.525 C 382.154 214.604,381.254 220.095,382.931 223.776 C 385.628 229.695,392.969 224.858,392.969 217.161 C 392.969 211.355,388.154 207.975,384.941 211.525 M374.609 229.504 C 372.754 230.868,371.809 232.884,371.016 237.174 C 368.045 253.244,355.426 282.610,345.598 296.321 C 334.702 311.524,332.656 314.124,326.235 320.923 C 312.894 335.050,282.096 356.704,266.425 362.974 C 264.696 363.666,263.281 364.546,263.281 364.929 C 263.281 366.232,266.400 368.750,268.015 368.750 C 270.661 368.750,269.079 369.999,264.049 371.880 C 258.821 373.835,258.343 375.261,262.788 375.635 C 264.956 375.818,266.929 375.186,270.591 373.139 C 273.287 371.631,278.282 369.654,281.691 368.746 C 293.081 365.711,315.213 352.626,328.309 341.185 C 337.202 333.416,337.463 333.293,343.814 333.884 C 353.073 334.744,353.178 334.893,348.321 340.251 C 335.810 354.052,325.956 361.544,310.156 369.269 C 303.496 372.525,294.947 376.758,291.159 378.674 C 287.371 380.590,283.767 381.965,283.151 381.729 C 282.493 381.476,282.031 381.771,282.031 382.441 C 282.031 385.542,305.536 381.233,317.969 375.853 C 343.837 364.658,368.821 340.426,368.717 326.633 C 368.649 317.612,367.134 313.702,363.617 313.464 C 356.735 312.997,356.625 312.878,359.606 309.156 C 373.998 291.189,393.799 245.945,390.625 238.282 C 388.284 232.629,378.016 227.001,374.609 229.504 M41.425 232.169 C 41.662 235.396,45.378 244.979,46.476 245.194 C 48.471 245.586,47.772 237.513,45.553 234.538 C 44.276 232.825,41.350 231.146,41.425 232.169 M25.058 270.774 C 23.735 271.888,22.851 273.121,23.094 273.514 C 23.338 273.908,22.987 274.441,22.315 274.698 C 18.503 276.161,24.922 294.018,34.800 309.428 C 38.975 315.942,38.937 315.625,35.547 315.625 L 32.813 315.625 32.830 322.461 C 32.855 332.695,33.618 333.919,49.725 349.554 C 68.264 367.551,73.112 371.027,81.406 372.271 C 87.611 373.202,86.715 367.841,79.882 363.154 C 74.442 359.424,59.276 344.000,56.438 339.313 L 53.988 335.266 56.243 336.052 C 57.483 336.484,60.275 338.130,62.448 339.708 C 86.028 356.839,86.015 356.832,98.047 359.440 C 100.625 359.999,106.819 362.135,111.811 364.188 C 120.732 367.856,135.864 371.094,144.088 371.094 C 148.123 371.094,147.771 369.037,143.555 367.971 C 119.844 361.979,94.989 346.639,72.897 324.365 C 58.957 310.309,52.557 301.268,38.098 275.200 C 34.302 268.356,29.762 266.816,25.058 270.774 M27.778 280.295 C 27.126 280.947,25.782 279.569,25.806 278.274 C 25.828 277.114,25.970 277.137,26.970 278.459 C 27.596 279.287,27.960 280.113,27.778 280.295 M286.778 316.090 L 288.672 318.117 285.776 316.742 C 284.183 315.986,283.061 315.074,283.283 314.715 C 283.952 313.632,284.790 313.962,286.778 316.090 M282.031 364.063 C 282.031 365.041,281.202 365.041,279.688 364.063 C 278.740 363.450,278.852 363.303,280.273 363.293 C 281.240 363.287,282.031 363.633,282.031 364.063 M248.973 368.763 C 243.840 370.304,242.852 373.438,247.500 373.438 C 250.898 373.438,252.344 372.341,252.344 369.766 C 252.344 367.816,252.236 367.784,248.973 368.763 M240.339 372.019 C 239.264 372.621,239.170 373.017,239.896 373.891 C 241.140 375.390,241.980 375.286,242.927 373.516 C 243.894 371.709,242.418 370.856,240.339 372.019 M232.179 373.225 C 230.340 373.452,229.663 373.899,229.836 374.774 C 230.224 376.744,232.572 377.877,234.180 376.869 C 235.558 376.005,236.595 372.549,235.406 372.781 C 235.054 372.850,233.602 373.050,232.179 373.225 M200.159 375.970 C 187.148 377.208,191.212 379.925,207.437 380.836 C 217.367 381.393,223.828 379.709,223.828 376.563 C 223.828 375.096,212.361 374.809,200.159 375.970 M242.344 376.719 C 240.483 378.579,241.235 379.917,243.848 379.395 C 245.190 379.126,247.124 378.906,248.145 378.906 C 249.479 378.906,250.000 378.468,250.000 377.344 C 250.000 375.517,244.032 375.030,242.344 376.719 " stroke="none" fill="#000000" fill-rule="evenodd"></path></g></svg>