<?xml version="1.0" encoding="utf-8"?>
<svg viewBox="0 0 850 850" xmlns="http://www.w3.org/2000/svg">
  <g transform="translate(0 850) scale(.1 -.1)">
<path d="m2183 8450c-70-42-128-182-128-310 0-62 5-85 27-131 43-86 137-171 253-225l95-45v-449-450l25-65c32-85 103-195 167-256 149-146 331-219 594-239 209-16 305 4 452 92 382 230 753 215 1026-41 39-37 85-77 103-90 49-33 139-61 205-62 81-2 123-30 122-82-2-52-36-92-176-203-134-107-313-259-400-341l-57-53h-875-875l-36 55c-88 132-243 218-416 232-74 6-77 5-93-19-28-42-28-108-7-473 34-573 37-708 16-873-14-116-16-151-6-183 15-50 32-54 141-35 150 27 296 117 365 226 12 19 38 99 58 177 53 210 120 343 189 379 26 13 40 14 87 5 105-20 196-23 320-11 117 11 128 14 190 51 130 78 276 115 421 105 146-10 145-1 17-140-568-613-1090-1353-1527-2166-46-85-131-236-190-335-207-349-351-630-424-829-83-222-147-516-166-757-12-159-33-263-73-359-35-84-96-154-146-165-88-19-147-128-175-323l-6-42 2727 2 2728 3 50 23c60 28 100 64 128 117 22 40 22 47 25 650l3 610-23 45c-16 31-38 54-72 75-49 30-51 30-211 33-184 4-215-3-259-60-38-51-61-127-101-334-39-203-71-303-120-379-63-97-166-174-295-219l-75-27-2860 6-53 24c-28 13-66 39-82 58-28 32-30 38-30 121 0 105 24 462 45 665 11 106 30 204 64 340 64 249 168 593 226 742 92 239 262 625 358 815 54 107 120 246 147 307 37 87 61 128 107 180 91 104 211 257 293 373 97 138 283 381 288 376 6-7 29-194 48-391 22-224 25-739 6-890-20-153-48-280-87-395-97-288-108-367-110-795-1-311-3-367-18-411-35-105-94-157-196-173-63-10-107-38-175-111-62-68-108-156-131-251-23-99-20-123 18-155l32-27 395 6c231 4 432 11 485 19 97 14 179 15 435 8 91-3 175-1 188 3 18 7 22 16 22 55 0 111-70 272-155 357-32 31-81 66-118 84-82 39-120 83-149 168-22 66-22 82-26 538-4 506 0 558 45 654 54 113 185 211 323 241 38 8 162 11 400 8 333-3 346-4 386-25 66-35 98-67 129-130 28-56 29-64 36-258 8-233 39-406 87-485 33-53 167-139 218-140 85-1 179 61 229 151l30 54 3 1633c1 1096-1 1646-8 1672-16 59-70 131-122 163l-47 29-80-17-81-18-84-87c-78-81-87-94-112-171l-28-84-6-545c-6-520-7-549-28-625-95-347-361-534-782-552-247-10-407 55-484 197l-28 51 5 382c4 333 8 397 26 497 43 232 113 408 208 522 148 177 741 661 1106 902 163 108 214 136 242 136 43 0 214 53 290 90 155 75 210 144 226 286 13 115 41 176 108 234 120 103 169 157 198 221 57 120 58 133 58 634 0 450 0 461-22 507-11 25-40 67-63 92l-43 46h-421c-485 0-468 3-523-89-40-67-77-218-68-278 10-70 60-157 125-217 54-50 203-136 235-136 45 0 29-209-28-375-64-182-136-303-241-403-156-148-353-228-611-247-101-7-291 7-392 31-231 53-398 173-473 339-50 111-55 149-55 445 0 263 1 277 22 323 31 67 79 124 122 147 98 50 185 163 226 291 34 110 33 133-7 150-47 20-1125 20-1180 1-43-15-44-20-23-110 31-131 110-247 216-318 73-48 101-79 140-154 23-43 24-57 27-270 4-237-3-305-41-395-66-158-210-274-397-320-105-26-302-31-393-11-177 40-303 138-382 299-25 51-54 126-64 168-25 97-45 297-36 360 6 44 9 49 32 49 164 0 302 221 291 468-4 101-20 140-82 207l-42 45h-425c-403 0-426-1-456-20z"/>
</g>
</svg>