<?xml version="1.0" encoding="utf-8"?>
<svg viewBox="20 20 150 150" xmlns="http://www.w3.org/2000/svg">
  <path d="M 145 58 C 145 58 143.525 63.972 143 67 C 142.083 72.296 141 83 141 83 L 141 84.558 C 146.179 84.157 151.081 83.647 155 83 C 158.75 82.381 166 80 166 80 L 170 80 L 170 110 L 166 110 C 166 110 158.75 107.619 155 107 C 150.774 106.302 145.404 105.764 139.777 105.35 C 135.774 121.987 122.333 135.063 105.284 138.871 C 105.706 144.825 106.264 150.548 107 155 C 107.619 158.75 110 166 110 166 L 110 170 L 80 170 L 80 166 C 80 166 82.381 158.75 83 155 C 83.736 150.548 84.294 144.825 84.716 138.871 C 67.667 135.063 54.226 121.987 50.223 105.35 C 44.596 105.764 39.226 106.302 35 107 C 31.25 107.619 24 110 24 110 L 20 110 L 20 80 L 24 80 C 24 80 31.25 82.381 35 83 C 38.919 83.647 43.821 84.157 49 84.558 L 49 83 C 49 83 47.917 72.296 47 67 C 46.475 63.972 45 58 45 58 L 45 54 L 71 54 L 71 58 C 71 58 69.525 63.972 69 67 C 68.083 72.296 67 83 67 83 L 67 85.557 C 76.549 85.924 84 86 84 86 L 86 86 L 86 84 C 86 84 85.667 51.145 83 35 C 82.381 31.25 80 24 80 24 L 80 20 L 110 20 L 110 24 C 110 24 107.619 31.25 107 35 C 104.333 51.145 104 84 104 84 L 104 86 L 106 86 C 106 86 113.451 85.924 123 85.557 L 123 83 C 123 83 121.917 72.296 121 67 C 120.475 63.972 119 58 119 58 L 119 54 L 145 54 Z M 95 126 C 107.506 126 118.098 116.922 121.691 104.394 C 112.779 104.069 106 104 106 104 L 84 104 C 84 104 77.221 104.069 68.309 104.394 C 71.902 116.922 82.494 126 95 126 Z"/>
</svg>