<svg id="svg" version="1.1" xmlns="http://www.w3.org/2000/svg" xmlns:xlink="http://www.w3.org/1999/xlink" width="400" height="400" viewBox="0, 0, 400,400"><path id="path0" d="M268.000 57.991 C 266.774 58.633,265.082 59.996,264.177 61.071 C 262.423 63.156,259.600 67.295,259.600 67.784 C 259.600 67.949,259.150 68.619,258.600 69.273 C 258.050 69.927,257.600 70.772,257.600 71.151 C 257.600 71.530,257.425 72.015,257.212 72.228 C 256.678 72.762,254.970 77.539,253.931 81.400 C 252.440 86.947,252.123 87.120,247.000 85.195 C 243.082 83.723,235.741 82.208,229.633 81.611 C 227.121 81.365,224.927 81.079,224.758 80.974 C 223.187 80.003,203.172 80.115,199.400 81.116 C 198.520 81.349,195.460 81.759,192.600 82.027 C 189.740 82.295,186.950 82.681,186.400 82.885 C 185.850 83.090,184.050 83.413,182.400 83.604 C 180.750 83.795,178.858 84.224,178.195 84.557 C 177.532 84.891,175.732 85.335,174.195 85.544 C 172.658 85.753,170.680 86.203,169.800 86.544 C 168.920 86.886,167.794 87.173,167.299 87.182 C 166.803 87.192,165.725 87.560,164.904 88.000 C 164.084 88.440,163.187 88.800,162.912 88.800 C 161.681 88.800,154.301 91.518,149.774 93.638 C 148.879 94.057,147.987 94.400,147.791 94.400 C 147.294 94.400,135.937 100.002,135.200 100.610 C 134.870 100.882,134.160 101.240,133.623 101.404 C 133.085 101.569,131.790 102.304,130.746 103.038 C 129.701 103.772,128.341 104.497,127.723 104.647 C 127.105 104.798,126.091 105.344,125.469 105.861 C 124.847 106.377,124.110 106.800,123.831 106.800 C 123.552 106.800,122.998 107.160,122.600 107.600 C 122.202 108.040,121.712 108.400,121.511 108.400 C 121.311 108.400,120.557 108.850,119.836 109.400 C 119.114 109.950,118.373 110.400,118.188 110.400 C 118.003 110.400,117.030 111.085,116.026 111.923 C 115.022 112.761,112.940 114.332,111.400 115.415 C 109.860 116.499,107.610 118.152,106.400 119.091 C 101.346 123.010,100.102 123.937,98.200 125.205 C 97.100 125.938,94.850 127.842,93.200 129.435 C 91.550 131.029,89.089 133.163,87.730 134.177 C 84.099 136.890,80.191 140.535,75.000 146.052 C 62.994 158.811,58.750 167.441,60.818 174.888 C 61.965 179.020,65.996 178.252,66.004 173.900 C 66.008 171.565,66.934 169.274,69.443 165.390 C 70.299 164.064,71.180 162.674,71.400 162.301 C 72.404 160.598,75.019 156.942,75.621 156.400 C 75.987 156.070,77.044 154.810,77.970 153.600 C 81.439 149.065,93.229 136.801,94.122 136.799 C 94.385 136.798,96.128 135.340,97.995 133.560 C 99.863 131.779,101.888 130.065,102.495 129.751 C 103.103 129.436,103.603 129.049,103.608 128.890 C 103.612 128.730,104.529 128.060,105.646 127.400 C 106.763 126.740,108.514 125.622,109.538 124.915 C 116.801 119.902,119.041 118.518,122.200 117.090 C 123.327 116.580,124.614 115.919,126.000 115.137 C 126.330 114.951,127.500 114.360,128.600 113.823 C 129.700 113.287,131.410 112.395,132.400 111.843 C 133.390 111.290,134.830 110.550,135.600 110.198 C 137.157 109.485,139.064 108.440,140.472 107.527 C 140.982 107.196,142.120 106.811,143.000 106.672 C 143.880 106.533,145.313 106.055,146.185 105.610 C 147.056 105.164,148.033 104.800,148.356 104.800 C 148.679 104.800,150.036 104.453,151.372 104.029 C 157.945 101.941,165.170 100.058,168.314 99.612 C 169.814 99.399,171.662 98.968,172.421 98.652 C 173.179 98.337,175.060 97.963,176.600 97.821 C 178.140 97.679,180.930 97.304,182.800 96.988 C 186.023 96.442,191.078 95.973,201.000 95.299 C 207.808 94.836,225.877 95.896,229.800 96.988 C 230.900 97.294,232.880 97.663,234.200 97.808 C 235.520 97.953,237.590 98.387,238.800 98.773 C 240.010 99.159,242.260 99.708,243.800 99.992 C 247.163 100.612,249.599 101.752,249.603 102.708 C 249.608 103.690,248.373 108.856,247.924 109.737 C 247.717 110.142,247.454 111.762,247.341 113.337 C 247.227 114.912,246.803 117.100,246.398 118.200 C 245.993 119.300,245.555 120.920,245.425 121.800 C 245.092 124.062,243.677 130.128,242.766 133.200 C 242.342 134.630,241.835 136.677,241.640 137.750 C 241.230 140.002,239.534 141.975,238.644 141.236 C 238.359 141.000,237.010 140.653,235.647 140.467 C 232.349 140.016,232.106 139.728,232.814 137.103 C 233.682 133.884,233.484 127.629,232.454 125.720 C 232.003 124.884,231.380 123.562,231.071 122.782 C 229.068 117.726,219.028 110.964,210.200 108.723 C 209.320 108.499,207.700 107.990,206.600 107.590 C 205.500 107.191,203.340 106.746,201.800 106.602 C 200.260 106.457,198.010 106.037,196.800 105.669 C 193.581 104.690,172.379 104.679,169.400 105.655 C 168.300 106.016,166.250 106.433,164.845 106.581 C 163.440 106.730,161.370 107.184,160.245 107.590 C 159.120 107.996,157.349 108.445,156.309 108.587 C 155.269 108.730,154.329 108.991,154.220 109.168 C 154.110 109.345,153.161 109.720,152.110 110.000 C 148.867 110.867,130.237 119.910,128.181 121.616 C 127.882 121.864,126.953 122.432,126.118 122.878 C 120.526 125.864,113.729 130.599,107.400 135.919 C 106.960 136.289,105.520 137.493,104.199 138.596 C 102.018 140.416,97.788 144.650,92.670 150.132 C 91.609 151.270,89.960 153.010,89.006 154.000 C 82.394 160.865,78.426 171.621,80.715 176.478 C 81.884 178.960,81.923 178.898,79.407 178.584 C 74.411 177.959,76.497 182.337,83.170 186.481 C 84.837 187.516,86.902 188.481,87.759 188.627 C 88.617 188.772,89.916 189.140,90.646 189.445 C 92.410 190.182,99.945 190.175,103.717 189.433 C 105.303 189.121,107.458 188.749,108.508 188.607 C 110.544 188.331,114.382 186.748,115.954 185.536 C 116.479 185.131,117.216 184.800,117.592 184.800 C 117.968 184.800,118.602 184.440,119.000 184.000 C 119.398 183.560,119.938 183.200,120.200 183.200 C 120.462 183.200,121.002 182.840,121.400 182.400 C 121.798 181.960,122.359 181.600,122.647 181.600 C 123.284 181.600,129.200 175.883,129.200 175.267 C 129.200 173.098,124.075 174.105,120.400 176.996 C 119.392 177.789,112.717 179.200,109.981 179.198 C 104.230 179.195,98.256 174.401,98.268 169.800 C 98.274 167.755,99.660 163.079,100.581 162.000 C 100.862 161.670,101.209 160.911,101.350 160.314 C 101.492 159.717,102.011 158.811,102.504 158.300 C 102.997 157.790,104.377 156.209,105.571 154.786 C 113.024 145.910,125.181 135.625,133.152 131.453 C 133.838 131.094,134.985 130.496,135.700 130.124 C 136.415 129.752,137.217 129.233,137.482 128.970 C 137.747 128.708,139.277 127.836,140.882 127.033 C 142.487 126.230,144.070 125.411,144.400 125.215 C 145.888 124.327,154.259 120.800,154.878 120.800 C 155.177 120.800,155.804 120.532,156.271 120.205 C 156.738 119.878,158.130 119.348,159.365 119.026 C 160.599 118.704,161.830 118.305,162.099 118.139 C 162.368 117.973,163.941 117.628,165.594 117.372 C 167.247 117.117,170.130 116.624,172.000 116.276 C 180.156 114.759,192.371 113.928,193.966 114.782 C 194.404 115.016,195.896 115.312,197.282 115.438 C 209.575 116.561,221.553 127.588,217.812 134.338 C 217.488 134.922,217.037 136.143,216.809 137.051 C 215.868 140.809,205.611 149.600,202.168 149.600 C 201.909 149.600,201.490 149.850,201.237 150.156 C 200.983 150.461,199.929 150.924,198.893 151.185 C 197.858 151.446,196.822 151.816,196.592 152.007 C 194.841 153.460,184.121 154.010,182.902 152.710 C 181.570 151.289,182.417 145.926,184.266 144.077 C 184.560 143.783,184.800 143.352,184.800 143.118 C 184.800 142.885,185.117 142.403,185.505 142.047 C 185.892 141.691,186.819 140.590,187.564 139.600 C 189.678 136.790,197.707 131.619,199.976 131.606 C 203.759 131.583,207.115 129.881,206.223 128.437 C 205.061 126.557,195.944 125.577,192.603 126.973 C 191.706 127.348,190.014 127.521,187.716 127.474 C 184.091 127.399,181.625 128.182,178.369 130.441 C 177.165 131.276,174.697 132.231,171.600 133.059 C 170.390 133.383,168.500 133.899,167.400 134.206 C 166.300 134.513,164.410 134.976,163.200 135.235 C 161.990 135.493,160.814 135.851,160.586 136.030 C 160.359 136.208,159.095 136.528,157.777 136.741 C 156.460 136.953,154.756 137.396,153.991 137.726 C 153.226 138.057,151.070 138.893,149.200 139.584 C 145.281 141.033,143.308 142.027,137.913 145.266 C 135.776 146.550,133.928 147.600,133.807 147.600 C 132.965 147.600,126.239 153.039,121.752 157.349 C 120.178 158.860,118.699 160.215,118.465 160.360 C 116.770 161.407,113.851 167.209,114.205 168.825 C 114.907 172.019,117.515 172.187,120.600 169.236 C 122.794 167.136,124.886 165.600,125.550 165.600 C 125.784 165.600,126.960 165.150,128.163 164.600 C 129.365 164.050,130.636 163.600,130.987 163.600 C 131.338 163.600,132.226 163.349,132.959 163.043 C 134.722 162.306,135.087 162.609,135.837 165.425 C 136.185 166.731,136.689 168.610,136.957 169.600 C 137.226 170.590,137.975 172.189,138.623 173.154 C 139.270 174.118,140.096 175.351,140.458 175.893 C 141.338 177.210,147.131 182.800,147.617 182.800 C 147.827 182.800,148.323 183.123,148.718 183.518 C 150.050 184.850,159.626 189.655,162.456 190.412 C 163.415 190.668,164.380 191.025,164.600 191.203 C 164.820 191.382,166.170 191.829,167.600 192.195 C 169.030 192.562,170.371 193.028,170.580 193.231 C 170.789 193.434,171.329 193.604,171.780 193.608 C 172.231 193.613,173.860 194.062,175.400 194.607 C 176.996 195.171,179.093 195.597,180.276 195.598 C 182.900 195.600,182.993 195.764,183.031 200.411 C 183.059 203.919,183.682 207.507,185.666 215.600 C 185.909 216.590,186.324 218.480,186.589 219.800 C 186.853 221.120,187.345 222.740,187.682 223.400 C 188.018 224.060,188.421 225.320,188.577 226.200 C 188.733 227.080,189.207 228.865,189.630 230.166 C 190.054 231.467,190.401 232.907,190.402 233.366 C 190.404 233.825,190.689 234.740,191.037 235.400 C 191.617 236.502,192.172 238.654,193.804 246.126 C 194.132 247.626,194.596 249.219,194.836 249.667 C 195.076 250.115,195.439 251.664,195.644 253.110 C 195.849 254.555,196.167 255.932,196.351 256.169 C 196.535 256.406,196.909 257.768,197.181 259.195 C 197.454 260.622,197.921 262.261,198.219 262.837 C 198.517 263.412,198.962 265.485,199.209 267.442 C 199.456 269.399,199.831 271.570,200.042 272.266 C 202.933 281.775,202.750 307.838,199.730 316.777 C 198.630 320.032,193.684 330.017,192.930 330.503 C 192.672 330.670,192.255 331.427,192.005 332.185 C 190.421 336.986,180.891 341.429,176.057 339.621 C 172.494 338.289,169.683 339.129,171.111 341.100 C 171.390 341.485,171.997 342.394,172.460 343.119 C 174.145 345.760,176.625 346.576,183.000 346.589 L 188.600 346.600 192.000 344.844 C 200.393 340.510,204.720 336.580,207.900 330.400 C 209.565 327.163,210.807 325.600,211.715 325.600 C 212.613 325.600,214.468 323.837,217.000 320.575 C 224.440 310.990,226.492 293.405,221.594 281.200 C 221.197 280.210,220.740 278.500,220.579 277.400 C 220.418 276.300,219.952 274.773,219.543 274.006 C 219.134 273.239,218.800 272.318,218.800 271.960 C 218.800 271.601,218.440 270.850,218.000 270.291 C 217.560 269.731,217.200 268.978,217.200 268.616 C 217.200 268.254,216.847 267.293,216.415 266.479 C 214.937 263.695,213.686 260.491,213.394 258.745 C 213.234 257.785,212.764 256.522,212.351 255.938 C 211.938 255.354,211.600 254.661,211.600 254.399 C 211.600 253.770,210.869 252.132,207.584 245.400 C 206.081 242.320,204.723 239.260,204.567 238.600 C 204.411 237.940,203.973 236.950,203.594 236.400 C 203.215 235.850,202.770 234.950,202.605 234.400 C 202.440 233.850,202.085 233.130,201.815 232.800 C 201.336 232.214,200.079 228.407,199.173 224.800 C 198.925 223.810,198.559 222.801,198.359 222.557 C 198.005 222.124,197.560 220.547,195.169 211.257 C 192.135 199.467,194.693 194.273,204.569 192.171 C 205.765 191.917,209.035 190.569,211.332 189.384 C 211.955 189.063,212.663 188.800,212.906 188.800 C 214.357 188.800,222.774 184.340,225.873 181.929 C 227.095 180.978,228.392 180.020,228.756 179.800 C 234.043 176.600,240.838 169.805,246.780 161.778 C 252.050 154.657,273.200 173.454,273.200 185.259 C 273.200 188.369,268.176 194.618,264.110 196.565 C 262.840 197.173,261.483 197.838,261.095 198.042 C 260.707 198.246,259.120 198.680,257.569 199.007 C 256.017 199.333,254.444 199.758,254.074 199.952 C 253.025 200.499,246.047 200.977,238.917 200.989 C 233.267 200.999,232.342 201.091,231.726 201.705 C 230.872 202.556,230.732 229.467,231.555 234.600 C 231.801 236.140,232.180 239.740,232.396 242.600 C 232.889 249.132,233.517 252.417,235.686 259.800 C 238.038 267.803,243.586 271.836,248.940 269.434 C 249.633 269.123,250.849 268.668,251.643 268.422 C 254.811 267.441,260.674 259.788,261.594 255.432 C 261.784 254.535,262.250 252.990,262.631 252.000 C 263.519 249.691,263.664 243.242,262.851 242.262 C 261.688 240.859,258.284 241.613,257.843 243.370 C 257.607 244.313,256.014 246.193,254.138 247.743 C 252.872 248.789,251.929 248.213,248.898 244.544 C 247.964 243.414,247.200 242.304,247.200 242.078 C 247.200 241.851,246.844 240.836,246.409 239.821 C 245.041 236.630,243.304 214.828,244.149 211.460 L 244.415 210.400 252.108 210.386 C 264.151 210.363,275.204 208.485,281.779 205.345 C 282.867 204.825,284.060 204.400,284.430 204.400 C 284.799 204.400,285.335 204.120,285.619 203.777 C 285.904 203.434,286.691 202.894,287.368 202.577 C 298.910 197.168,303.261 185.044,297.309 174.879 C 294.880 170.731,285.709 162.377,279.035 158.233 C 275.464 156.015,266.751 151.592,264.800 151.006 C 264.250 150.841,263.530 150.494,263.200 150.237 C 262.662 149.816,261.606 149.329,256.258 147.034 C 254.429 146.250,254.423 145.607,256.200 141.000 C 256.794 139.460,257.441 137.156,257.637 135.881 C 257.833 134.606,258.329 132.716,258.738 131.681 C 259.631 129.424,261.118 123.377,261.464 120.600 C 261.600 119.500,261.964 118.101,262.272 117.490 C 262.579 116.880,263.020 115.357,263.251 114.107 C 263.482 112.856,263.925 111.471,264.236 111.028 C 264.546 110.585,264.800 109.893,264.800 109.491 C 264.800 106.607,267.140 105.621,269.762 107.400 C 270.572 107.950,271.380 108.400,271.556 108.400 C 271.732 108.400,272.399 108.850,273.038 109.400 C 273.677 109.949,274.342 110.399,274.516 110.400 C 274.690 110.400,275.320 110.733,275.916 111.141 C 276.512 111.548,278.530 112.887,280.400 114.115 C 282.270 115.343,284.700 117.228,285.800 118.304 C 286.900 119.380,289.092 121.369,290.672 122.724 C 294.127 125.689,297.938 129.428,298.904 130.800 C 302.507 135.916,302.976 136.628,304.042 138.600 C 304.518 139.480,305.018 140.290,305.154 140.400 C 305.698 140.842,307.197 144.371,308.043 147.200 C 309.853 153.257,309.040 157.217,305.700 158.615 C 304.417 159.152,303.847 160.811,304.754 161.372 C 307.045 162.787,315.911 162.419,317.800 160.829 C 318.240 160.459,319.241 159.736,320.025 159.222 C 321.562 158.214,322.563 156.794,323.650 154.077 C 324.030 153.129,324.530 152.126,324.762 151.846 C 326.516 149.732,326.263 137.426,324.356 132.085 C 323.940 130.922,323.600 129.601,323.600 129.150 C 323.600 128.341,321.590 123.656,320.830 122.694 C 315.906 116.457,312.959 117.411,315.556 124.400 C 317.497 129.623,315.093 132.747,312.995 127.727 C 312.684 126.982,312.198 126.119,311.915 125.810 C 311.632 125.501,310.950 124.599,310.400 123.805 C 305.802 117.172,301.281 112.355,295.200 107.611 C 294.650 107.182,293.570 106.311,292.800 105.675 C 289.321 102.804,278.574 96.000,277.517 96.000 C 277.207 96.000,276.604 95.733,276.176 95.406 C 275.749 95.080,274.725 94.623,273.900 94.391 C 272.223 93.920,271.917 92.868,273.003 91.317 C 273.335 90.843,274.190 89.373,274.903 88.049 C 279.495 79.528,289.281 74.350,294.618 77.618 C 298.196 79.809,301.542 78.616,299.894 75.737 C 299.622 75.262,298.806 73.754,298.080 72.385 C 297.354 71.016,295.959 68.913,294.980 67.711 C 294.001 66.510,293.200 65.395,293.200 65.235 C 293.200 63.389,286.886 60.277,283.334 60.373 C 281.460 60.424,280.741 60.281,280.334 59.775 C 277.943 56.802,277.936 56.799,273.931 56.819 C 270.616 56.836,269.954 56.967,268.000 57.991 M164.400 146.367 C 164.400 146.737,164.206 147.234,163.969 147.471 C 163.045 148.395,163.295 158.452,164.276 159.828 C 168.182 165.304,193.709 166.089,203.200 161.026 C 203.750 160.732,204.830 160.359,205.600 160.196 C 206.370 160.033,207.630 159.587,208.400 159.205 C 209.170 158.823,210.880 158.010,212.200 157.399 C 213.520 156.788,214.870 156.130,215.200 155.936 C 215.530 155.742,216.344 155.332,217.008 155.025 C 217.673 154.718,218.555 154.091,218.970 153.633 C 219.385 153.175,219.895 152.800,220.105 152.800 C 220.314 152.800,221.924 151.703,223.682 150.362 C 227.124 147.736,228.920 147.304,231.812 148.405 C 232.465 148.654,233.882 149.025,234.960 149.230 C 238.472 149.897,238.830 151.156,236.677 155.271 C 232.284 163.669,223.116 172.987,213.762 178.562 C 207.018 182.582,207.400 182.384,205.045 183.079 C 203.920 183.410,202.798 183.846,202.552 184.047 C 200.627 185.615,186.756 186.784,182.800 185.712 C 181.810 185.444,179.920 184.966,178.600 184.650 C 171.530 182.957,164.128 178.972,160.090 174.684 C 158.778 173.291,157.656 171.439,155.798 167.600 C 155.000 165.950,154.065 164.082,153.720 163.449 C 152.893 161.927,151.904 153.906,152.387 152.635 C 152.620 152.021,153.297 151.505,154.275 151.195 C 155.114 150.929,155.980 150.501,156.200 150.242 C 158.731 147.273,164.400 144.593,164.400 146.367 " stroke="none" fill="#000" fill-rule="evenodd"></path></svg>