<?xml version="1.0" standalone="no"?>
<!DOCTYPE svg PUBLIC "-//W3C//DTD SVG 20010904//EN"
 "http://www.w3.org/TR/2001/REC-SVG-20010904/DTD/svg10.dtd">
<svg version="1.0" xmlns="http://www.w3.org/2000/svg"
 width="50pt" height="50pt" viewBox="0 0 500 500"
 preserveAspectRatio="xMidYMid meet">

<g transform="translate(0,500) scale(0.1,-0.1)"
fill="#464646" stroke="none">
<path d="M996 3650 c-4 -41 -40 -572 -81 -1180 -41 -608 -77 -1131 -80 -1162
l-6 -58 335 0 336 0 -7 33 c-4 17 -115 574 -248 1237 -239 1189 -242 1204
-249 1130z"/>
<path d="M3751 2497 c-134 -672 -246 -1228 -249 -1234 -3 -10 67 -13 332 -13
l337 0 -6 58 c-3 31 -42 585 -85 1231 -44 646 -81 1175 -82 1177 -2 1 -113
-547 -247 -1219z"/>
<path d="M2336 2507 c-87 -655 -161 -1207 -163 -1224 l-6 -33 333 0 333 0 -6
33 c-2 17 -76 569 -163 1224 -88 656 -161 1193 -164 1193 -3 0 -76 -537 -164
-1193z"/>
</g>
</svg>
