<svg id="svg" version="1.1" xmlns="http://www.w3.org/2000/svg" xmlns:xlink="http://www.w3.org/1999/xlink" width="400" height="400" viewBox="0, 0, 400,400"><path id="path0" d="M165.438 52.122 C 164.269 52.978,164.782 54.424,166.600 55.395 C 175.383 60.085,174.708 59.614,180.076 64.800 C 182.467 67.110,184.529 69.409,184.658 69.909 C 184.786 70.409,185.200 71.039,185.577 71.309 C 185.953 71.579,186.428 72.096,186.631 72.458 C 186.834 72.819,188.062 74.314,189.359 75.778 C 190.657 77.243,192.267 79.287,192.937 80.321 C 193.607 81.354,194.806 83.010,195.601 84.000 C 196.397 84.990,197.560 86.833,198.187 88.095 C 198.813 89.357,199.657 90.690,200.063 91.057 C 200.468 91.424,200.800 91.952,200.800 92.231 C 200.800 92.510,201.205 93.248,201.700 93.871 C 204.269 97.102,203.466 99.280,200.656 96.700 C 199.143 95.310,198.630 94.939,197.192 94.196 C 196.458 93.816,195.035 92.930,194.029 92.225 C 192.216 90.954,187.865 88.800,187.112 88.800 C 186.897 88.800,186.154 88.543,185.460 88.228 C 172.637 82.408,165.041 83.918,163.084 92.677 C 162.247 96.423,162.198 100.150,162.956 102.486 C 163.262 103.429,163.636 104.740,163.788 105.400 C 164.222 107.292,167.246 113.234,168.704 115.058 C 169.432 115.971,170.697 117.706,171.514 118.915 C 172.331 120.123,174.035 122.472,175.300 124.135 C 176.565 125.797,177.600 127.322,177.600 127.524 C 177.600 127.836,178.996 129.814,180.397 131.485 C 180.621 131.752,181.021 132.472,181.288 133.085 C 181.913 134.525,186.720 142.356,187.619 143.400 C 187.998 143.840,188.426 144.588,188.569 145.063 C 188.713 145.538,189.094 146.027,189.415 146.150 C 189.737 146.274,190.000 146.601,190.000 146.876 C 190.000 147.152,191.237 149.903,192.749 152.989 C 195.412 158.423,197.600 163.534,197.600 164.319 C 197.600 164.530,197.858 164.917,198.174 165.179 C 198.490 165.441,198.871 166.228,199.020 166.928 C 199.169 167.627,199.630 168.955,200.045 169.878 C 200.460 170.801,200.801 171.881,200.801 172.278 C 200.802 172.675,201.160 173.586,201.597 174.303 C 202.034 175.019,202.506 176.369,202.647 177.303 C 202.787 178.236,203.218 179.540,203.604 180.200 C 203.990 180.860,204.434 182.292,204.590 183.383 C 204.746 184.474,205.215 186.454,205.632 187.783 C 206.049 189.112,206.392 190.761,206.395 191.446 C 206.398 192.131,206.736 193.121,207.148 193.646 C 208.979 195.982,206.605 196.950,204.200 194.847 C 203.353 194.107,201.715 193.024,199.908 192.012 C 195.257 189.405,192.604 187.832,190.493 186.430 C 189.143 185.533,187.819 184.800,187.551 184.800 C 187.283 184.800,186.779 184.556,186.431 184.258 C 186.084 183.959,184.540 183.032,183.000 182.198 C 177.128 179.016,176.587 178.713,176.133 178.340 C 175.875 178.129,173.006 176.613,169.757 174.971 C 166.507 173.330,163.568 171.741,163.224 171.441 C 162.881 171.140,162.184 170.768,161.676 170.613 C 161.168 170.458,157.724 168.816,154.023 166.965 C 150.322 165.114,147.111 163.600,146.887 163.600 C 146.663 163.600,145.517 163.152,144.340 162.604 C 143.163 162.056,141.852 161.606,141.426 161.604 C 140.652 161.600,138.245 160.617,135.586 159.218 C 134.808 158.809,133.329 158.348,132.299 158.194 C 131.269 158.039,130.230 157.677,129.990 157.388 C 129.750 157.099,128.799 156.748,127.877 156.608 C 126.955 156.468,125.120 156.014,123.800 155.599 C 115.575 153.010,103.070 152.033,99.730 153.719 C 99.109 154.032,97.790 154.413,96.800 154.565 C 95.810 154.717,94.248 155.282,93.329 155.821 C 92.410 156.359,91.300 156.800,90.862 156.800 C 90.425 156.800,89.976 157.025,89.865 157.300 C 89.754 157.575,89.649 157.328,89.632 156.750 C 89.611 156.078,90.104 155.150,91.000 154.172 C 93.829 151.083,92.462 149.578,88.606 151.537 C 87.238 152.231,85.701 152.800,85.191 152.800 C 84.336 152.800,83.385 153.678,79.221 158.314 C 78.769 158.817,78.400 159.409,78.400 159.630 C 78.400 159.852,77.702 161.330,76.849 162.916 C 75.161 166.055,73.396 170.300,72.989 172.200 C 72.848 172.860,72.484 174.062,72.181 174.871 C 71.385 176.995,70.934 190.476,71.588 192.600 C 71.859 193.480,72.408 195.550,72.808 197.200 C 74.687 204.949,78.554 214.037,81.200 216.925 C 81.530 217.285,82.160 218.057,82.600 218.640 C 83.040 219.222,84.628 220.982,86.129 222.550 C 87.630 224.117,88.980 225.580,89.129 225.800 C 89.278 226.020,90.388 227.010,91.596 228.000 C 92.804 228.990,94.317 230.396,94.958 231.124 C 95.599 231.852,96.771 232.793,97.562 233.215 C 98.353 233.638,100.060 234.977,101.355 236.192 C 102.651 237.406,103.862 238.400,104.047 238.400 C 104.232 238.400,105.284 239.081,106.385 239.914 C 107.485 240.747,109.553 242.052,110.980 242.814 C 112.407 243.576,114.435 244.676,115.487 245.258 C 123.236 249.542,128.880 251.892,132.697 252.422 C 134.070 252.612,135.600 252.986,136.096 253.252 C 138.296 254.429,149.190 256.052,154.400 255.979 C 156.490 255.950,159.986 255.944,162.170 255.967 C 165.422 256.001,166.418 255.863,167.682 255.204 C 168.530 254.762,169.427 254.400,169.674 254.400 C 170.160 254.400,174.222 252.618,175.200 251.976 C 175.530 251.759,176.371 251.216,177.069 250.769 C 179.975 248.910,182.663 244.567,183.198 240.866 C 183.978 235.478,183.442 227.252,182.196 225.473 C 181.868 225.005,181.600 224.298,181.600 223.902 C 181.600 223.153,180.946 222.042,177.225 216.464 C 176.001 214.629,174.771 212.706,174.490 212.189 C 172.866 209.199,159.498 198.800,157.278 198.800 C 157.062 198.800,156.792 198.555,156.677 198.256 C 156.562 197.957,155.688 197.617,154.734 197.501 C 153.780 197.385,152.460 197.062,151.800 196.783 C 150.337 196.165,146.482 195.944,146.162 196.461 C 145.808 197.035,147.067 198.705,148.089 199.017 C 148.590 199.170,149.270 199.521,149.600 199.798 C 149.930 200.074,151.416 200.939,152.901 201.719 C 154.387 202.499,156.265 203.736,157.075 204.469 C 159.875 207.000,162.832 210.205,163.470 211.400 C 163.823 212.060,164.230 212.690,164.375 212.800 C 164.890 213.191,166.700 216.624,167.190 218.139 C 167.464 218.985,167.937 220.155,168.241 220.739 C 168.546 221.322,168.796 222.267,168.798 222.837 C 168.799 223.408,169.186 224.938,169.659 226.237 C 170.949 229.787,170.963 239.038,169.682 241.484 C 169.197 242.410,168.800 243.424,168.800 243.737 C 168.800 244.431,166.646 246.118,164.549 247.068 C 163.697 247.453,162.670 248.042,162.267 248.376 C 161.019 249.411,154.313 249.094,150.644 247.828 C 149.006 247.263,147.453 246.800,147.193 246.800 C 146.933 246.800,146.154 246.558,145.460 246.263 C 141.963 244.773,139.684 243.895,138.600 243.621 C 136.128 242.995,128.389 239.169,124.851 236.824 C 123.670 236.041,122.237 235.147,121.669 234.839 C 121.100 234.530,120.267 233.923,119.817 233.490 C 119.368 233.057,118.370 232.229,117.600 231.651 C 116.830 231.073,115.390 229.846,114.400 228.924 C 113.410 228.002,111.787 226.562,110.793 225.724 C 109.236 224.410,105.086 220.098,103.814 218.471 C 103.586 218.181,103.048 217.559,102.618 217.089 C 101.789 216.184,100.904 214.623,98.825 210.400 C 98.121 208.970,97.377 207.530,97.170 207.200 C 96.963 206.870,96.601 206.150,96.364 205.600 C 96.127 205.050,95.589 203.934,95.167 203.121 C 94.745 202.307,94.396 201.227,94.391 200.721 C 94.386 200.214,94.028 199.018,93.594 198.062 C 92.579 195.825,91.904 192.230,91.744 188.200 C 91.674 186.440,91.503 184.317,91.363 183.482 C 91.189 182.446,91.287 181.748,91.671 181.282 C 91.981 180.907,92.484 180.101,92.789 179.492 C 93.979 177.115,97.466 174.400,99.328 174.400 C 100.333 174.400,101.680 174.040,102.615 173.522 C 105.509 171.919,127.172 172.240,131.677 173.953 C 132.254 174.173,133.867 174.469,135.263 174.612 C 136.658 174.755,138.563 175.215,139.496 175.636 C 140.428 176.056,141.640 176.400,142.188 176.400 C 142.735 176.400,143.862 176.656,144.692 176.968 C 145.521 177.281,146.912 177.656,147.781 177.802 C 148.651 177.947,150.039 178.412,150.865 178.833 C 151.692 179.255,152.722 179.600,153.154 179.600 C 153.907 179.600,159.771 181.786,160.600 182.375 C 160.820 182.532,161.808 182.892,162.797 183.175 C 163.785 183.458,164.950 183.940,165.386 184.245 C 165.821 184.550,166.441 184.800,166.763 184.800 C 167.084 184.800,168.079 185.137,168.974 185.549 C 172.148 187.011,176.614 189.184,177.600 189.746 C 178.150 190.059,179.860 190.916,181.400 191.650 C 182.940 192.383,184.290 193.088,184.400 193.216 C 184.744 193.614,188.481 195.600,188.887 195.600 C 189.328 195.600,190.899 196.749,193.326 198.846 C 194.247 199.642,195.630 200.611,196.400 201.000 C 198.054 201.834,202.800 205.594,202.800 206.070 C 202.800 206.251,202.994 206.400,203.231 206.400 C 203.469 206.400,204.324 207.078,205.131 207.907 C 205.939 208.737,207.860 210.457,209.400 211.730 C 213.352 214.998,216.153 219.028,217.073 222.770 C 217.213 223.337,217.554 224.160,217.833 224.600 C 218.111 225.040,218.607 226.390,218.935 227.600 C 219.590 230.018,220.087 231.517,221.301 234.736 C 221.744 235.911,222.183 237.711,222.276 238.736 C 222.369 239.761,222.785 241.950,223.201 243.600 C 223.617 245.250,224.141 248.040,224.364 249.800 C 224.588 251.560,224.953 254.350,225.176 256.000 C 225.398 257.650,225.779 260.800,226.022 263.000 C 226.265 265.200,226.643 267.990,226.861 269.200 C 227.819 274.508,226.457 277.340,224.243 274.644 C 223.425 273.648,218.472 270.719,216.685 270.175 C 216.198 270.027,215.530 269.672,215.200 269.387 C 214.870 269.101,213.880 268.738,213.000 268.580 C 212.120 268.422,210.914 268.047,210.320 267.747 C 209.726 267.446,208.286 266.998,207.120 266.751 C 205.954 266.505,204.502 266.049,203.894 265.738 C 199.425 263.456,183.388 262.353,172.000 263.544 C 168.052 263.956,159.683 265.495,158.785 265.973 C 158.446 266.154,157.366 266.435,156.385 266.598 C 155.403 266.762,153.932 267.234,153.116 267.648 C 152.300 268.062,151.398 268.400,151.113 268.400 C 150.827 268.400,149.748 268.850,148.715 269.400 C 147.682 269.950,146.496 270.400,146.080 270.400 C 145.663 270.400,144.907 270.760,144.400 271.200 C 143.893 271.640,143.300 272.000,143.083 272.000 C 141.407 272.000,133.080 279.096,131.441 281.921 C 130.788 283.047,129.014 284.375,128.145 284.387 C 127.124 284.402,122.142 286.679,121.178 287.571 C 117.933 290.574,115.600 293.018,115.600 293.415 C 115.600 293.677,115.238 294.352,114.796 294.915 C 114.353 295.477,113.817 296.807,113.605 297.869 C 113.392 298.931,112.952 300.520,112.627 301.400 C 111.471 304.527,113.661 310.742,117.332 314.748 C 118.105 315.592,118.791 316.104,122.225 318.400 C 125.634 320.679,129.190 322.286,133.000 323.269 C 133.880 323.496,135.860 324.018,137.400 324.428 C 138.940 324.839,141.190 325.286,142.400 325.422 C 143.610 325.557,145.410 325.916,146.400 326.219 C 147.390 326.522,150.157 326.975,152.548 327.226 C 154.940 327.476,157.509 327.937,158.257 328.250 C 159.800 328.894,175.134 329.773,177.833 329.372 C 178.844 329.222,180.278 329.370,181.598 329.762 C 183.343 330.281,184.028 330.310,185.365 329.926 C 186.264 329.668,188.350 329.410,190.000 329.351 C 197.037 329.103,203.117 328.568,203.639 328.152 C 203.947 327.906,205.146 327.483,206.301 327.212 C 207.457 326.941,208.504 326.555,208.629 326.354 C 208.753 326.153,209.427 325.747,210.127 325.454 C 210.827 325.160,212.724 324.037,214.342 322.960 C 215.961 321.882,218.121 320.484,219.142 319.853 C 224.286 316.678,230.058 309.723,233.045 303.100 C 233.417 302.275,233.874 301.600,234.061 301.600 C 234.247 301.600,234.400 301.361,234.400 301.068 C 234.400 300.775,234.849 299.650,235.398 298.568 C 235.947 297.486,236.415 296.060,236.438 295.400 C 236.558 291.945,238.222 290.772,240.289 292.686 C 240.950 293.299,242.891 294.880,244.600 296.200 C 249.150 299.714,259.950 310.636,261.363 313.153 C 261.563 313.509,262.420 314.638,263.268 315.661 C 264.851 317.573,264.955 319.600,263.469 319.600 C 263.167 319.600,262.084 320.044,261.064 320.586 C 256.169 323.189,249.509 324.734,241.905 325.030 C 234.120 325.333,233.365 325.571,234.535 327.357 C 235.803 329.291,261.769 329.810,266.280 327.990 C 266.765 327.795,268.745 327.436,270.680 327.193 C 274.190 326.752,274.904 326.575,281.048 324.629 C 282.835 324.063,285.018 323.600,285.900 323.600 C 286.782 323.600,288.470 323.177,289.652 322.660 C 297.056 319.419,296.606 319.689,296.516 318.540 C 296.397 317.039,296.090 316.935,291.064 316.696 C 287.337 316.519,286.204 316.304,284.200 315.391 C 278.862 312.959,276.917 311.970,275.200 310.815 C 274.210 310.148,273.210 309.603,272.978 309.602 C 272.746 309.601,271.846 308.932,270.978 308.115 C 270.110 307.299,268.320 305.986,267.000 305.199 C 263.800 303.289,252.610 294.248,248.557 290.299 C 246.774 288.561,244.863 286.837,244.311 286.469 C 238.888 282.853,239.213 283.509,239.613 277.000 C 239.918 272.044,239.710 268.456,238.804 263.000 C 238.584 261.680,238.400 259.520,238.395 258.200 C 238.390 256.880,238.111 254.540,237.775 253.000 C 237.439 251.460,236.910 248.760,236.600 247.000 C 236.290 245.240,235.766 243.080,235.436 242.200 C 235.105 241.320,234.827 240.196,234.818 239.702 C 234.808 239.207,234.453 237.767,234.029 236.502 C 233.605 235.236,233.135 233.410,232.984 232.444 C 232.834 231.478,232.375 229.948,231.964 229.044 C 231.554 228.140,231.214 227.037,231.209 226.594 C 231.204 226.151,230.867 225.161,230.460 224.394 C 228.685 221.049,230.975 221.453,234.728 225.148 C 237.975 228.344,240.715 230.724,241.800 231.291 C 242.240 231.520,242.884 231.999,243.230 232.354 C 244.000 233.144,245.505 234.267,246.662 234.916 C 247.136 235.182,249.110 236.480,251.049 237.800 C 255.221 240.641,255.126 240.582,258.643 242.517 C 260.159 243.352,262.421 244.638,263.670 245.376 C 264.918 246.114,266.628 246.940,267.470 247.211 C 268.311 247.482,269.180 247.842,269.400 248.011 C 269.620 248.179,270.430 248.501,271.200 248.725 C 271.970 248.950,273.631 249.509,274.890 249.967 C 276.150 250.425,277.733 250.800,278.410 250.800 C 279.086 250.800,280.216 251.109,280.920 251.487 C 282.994 252.601,293.499 253.518,296.287 252.829 C 299.377 252.065,303.356 250.355,303.922 249.548 C 304.210 249.136,304.711 248.800,305.035 248.800 C 305.360 248.800,305.729 248.530,305.855 248.200 C 305.982 247.870,306.336 247.600,306.643 247.600 C 306.949 247.600,307.200 247.870,307.200 248.200 C 307.200 248.530,306.951 248.800,306.647 248.800 C 306.342 248.800,305.996 249.173,305.876 249.630 C 305.757 250.086,305.331 250.550,304.930 250.660 C 303.395 251.083,302.761 253.487,304.044 254.018 C 305.498 254.621,309.620 254.173,311.951 253.161 C 312.914 252.742,313.855 252.400,314.043 252.400 C 315.684 252.400,323.600 245.149,323.600 243.646 C 323.600 243.278,323.905 242.543,324.277 242.011 C 324.650 241.479,325.177 239.954,325.448 238.622 C 325.720 237.290,326.217 235.480,326.554 234.600 C 327.411 232.355,327.344 227.623,326.397 223.675 C 325.959 221.846,325.600 219.791,325.600 219.108 C 325.600 217.797,323.995 211.039,322.961 208.000 C 322.624 207.010,322.112 205.390,321.821 204.400 C 321.531 203.410,321.004 202.060,320.649 201.400 C 320.295 200.740,320.004 199.865,320.002 199.454 C 320.001 199.044,319.660 198.054,319.244 197.254 C 318.341 195.519,316.400 191.006,316.400 190.644 C 316.400 190.405,314.978 187.883,312.917 184.464 C 312.431 183.659,311.669 182.280,311.222 181.400 C 310.775 180.520,310.187 179.440,309.914 179.000 C 308.985 177.502,308.201 176.282,307.497 175.240 C 307.111 174.668,306.436 173.454,305.998 172.543 C 305.559 171.631,304.965 170.795,304.676 170.685 C 304.388 170.574,303.274 169.160,302.201 167.542 C 301.128 165.924,299.917 164.240,299.509 163.800 C 299.101 163.360,298.280 162.349,297.684 161.553 C 296.036 159.352,288.329 149.912,287.410 148.968 C 286.965 148.510,286.116 147.544,285.525 146.821 C 283.132 143.894,279.104 140.011,276.376 138.000 C 275.630 137.450,274.644 136.640,274.185 136.200 C 271.341 133.472,267.743 131.929,266.900 133.074 C 266.067 134.206,266.278 134.590,269.645 138.058 C 271.430 139.896,273.994 142.750,275.343 144.400 C 276.692 146.050,278.337 147.949,278.998 148.619 C 279.659 149.290,280.707 150.609,281.326 151.550 C 281.946 152.492,282.936 153.791,283.526 154.436 C 284.781 155.809,285.164 156.295,288.496 160.741 C 291.463 164.699,291.263 164.380,292.658 167.400 C 293.267 168.720,294.331 170.614,295.022 171.609 C 296.671 173.984,298.798 178.040,298.799 178.811 C 298.800 179.147,299.060 179.792,299.377 180.245 C 300.770 182.235,302.640 188.249,303.965 195.000 C 304.353 196.980,304.869 199.050,305.110 199.600 C 305.949 201.507,306.442 210.083,305.957 214.297 C 304.904 223.427,299.968 231.619,293.738 234.575 C 292.604 235.113,291.558 235.744,291.414 235.977 C 291.270 236.210,290.162 236.400,288.950 236.400 C 287.739 236.400,286.444 236.554,286.074 236.742 C 285.070 237.251,278.051 236.454,276.146 235.615 C 275.237 235.214,273.753 234.761,272.848 234.608 C 271.944 234.455,271.112 234.181,270.999 233.999 C 270.886 233.816,268.411 232.479,265.497 231.026 C 262.584 229.574,259.660 228.028,259.000 227.590 C 258.340 227.153,257.080 226.436,256.200 225.997 C 255.320 225.558,253.880 224.666,253.000 224.015 C 252.120 223.364,250.776 222.547,250.014 222.200 C 249.252 221.853,248.532 221.439,248.414 221.281 C 248.077 220.827,244.855 218.800,244.471 218.800 C 244.280 218.800,243.633 218.378,243.032 217.861 C 242.431 217.345,241.214 216.490,240.328 215.961 C 239.441 215.433,237.789 214.277,236.658 213.392 C 235.526 212.508,233.430 210.955,232.000 209.940 C 230.570 208.925,228.667 207.309,227.771 206.348 C 226.875 205.386,225.322 203.840,224.320 202.910 C 223.317 201.981,222.405 200.811,222.292 200.310 C 221.932 198.714,219.757 193.515,216.259 185.891 C 215.677 184.621,215.200 183.341,215.200 183.045 C 215.200 182.750,214.840 182.050,214.400 181.491 C 213.960 180.931,213.600 180.135,213.600 179.721 C 213.600 179.308,213.221 178.256,212.757 177.385 C 212.293 176.513,211.770 175.170,211.595 174.400 C 211.420 173.630,210.537 171.200,209.634 169.000 C 207.099 162.827,206.401 161.018,206.387 160.592 C 206.381 160.377,205.932 159.300,205.391 158.200 C 204.850 157.100,204.402 155.750,204.395 155.200 C 204.388 154.650,204.030 153.750,203.600 153.200 C 203.170 152.650,202.813 151.840,202.806 151.400 C 202.800 150.960,202.528 150.088,202.202 149.463 C 201.876 148.838,201.355 147.488,201.045 146.463 C 200.735 145.438,200.194 144.060,199.843 143.400 C 199.492 142.740,199.204 141.852,199.202 141.426 C 199.200 140.627,198.735 139.536,195.784 133.400 C 194.832 131.420,193.930 129.350,193.779 128.800 C 193.629 128.250,193.279 127.530,193.003 127.200 C 192.727 126.870,192.276 125.880,192.000 125.000 C 191.724 124.120,191.276 123.130,191.003 122.800 C 189.271 120.704,190.376 118.441,192.401 119.937 C 193.042 120.412,193.710 120.800,193.884 120.800 C 194.058 120.801,194.723 121.251,195.362 121.800 C 196.001 122.350,196.724 122.800,196.967 122.800 C 198.132 122.800,204.646 129.911,206.670 133.392 C 211.493 141.686,213.392 150.113,211.867 156.464 C 211.017 160.008,211.261 160.373,214.689 160.683 C 219.635 161.132,223.512 158.342,224.377 153.712 C 224.898 150.922,224.232 145.310,223.216 143.937 C 222.767 143.329,222.400 142.590,222.400 142.294 C 222.400 141.998,221.950 141.145,221.400 140.400 C 220.850 139.655,220.399 138.765,220.398 138.422 C 220.395 137.220,218.056 134.212,212.208 127.889 C 211.552 127.180,210.723 126.420,210.365 126.200 C 210.007 125.980,208.943 125.260,208.000 124.600 C 207.057 123.940,205.953 123.204,205.546 122.964 C 205.139 122.725,204.486 122.240,204.096 121.887 C 203.706 121.534,202.497 121.046,201.410 120.802 C 200.322 120.559,199.245 120.212,199.016 120.032 C 198.787 119.853,197.657 119.398,196.505 119.022 C 195.352 118.646,194.314 118.185,194.198 117.997 C 194.082 117.808,192.997 117.433,191.788 117.162 C 188.984 116.535,188.735 116.195,188.880 113.193 L 189.000 110.716 191.000 109.937 C 197.282 107.488,212.413 117.097,219.757 128.200 C 221.756 131.221,225.600 138.514,225.600 139.284 C 225.600 139.479,225.969 140.395,226.420 141.319 C 228.331 145.236,229.601 155.679,228.489 158.328 C 228.056 159.357,227.586 160.695,227.444 161.300 C 227.236 162.184,226.960 162.400,226.038 162.400 C 224.264 162.400,223.212 164.190,224.329 165.307 C 225.424 166.402,228.354 166.812,230.284 166.140 C 231.118 165.850,232.231 165.609,232.759 165.606 C 234.757 165.593,238.791 162.386,240.565 159.400 C 242.659 155.875,244.319 142.435,242.877 140.690 C 242.654 140.421,242.252 138.670,241.983 136.800 C 241.715 134.930,241.274 132.950,241.004 132.400 C 240.733 131.850,240.387 130.592,240.235 129.603 C 240.084 128.615,239.630 127.085,239.228 126.203 C 237.903 123.303,236.400 119.197,236.400 118.481 C 236.400 118.094,236.156 117.423,235.857 116.989 C 235.558 116.555,235.085 115.480,234.805 114.600 C 234.525 113.720,234.115 112.773,233.895 112.496 C 233.357 111.818,232.169 109.756,231.190 107.800 C 230.256 105.936,229.079 103.992,227.403 101.546 C 226.745 100.586,226.025 99.418,225.803 98.952 C 225.144 97.564,220.734 91.670,218.860 89.672 C 217.903 88.652,216.195 86.733,215.063 85.408 C 213.931 84.084,212.896 82.910,212.763 82.800 C 212.630 82.690,211.755 81.970,210.820 81.200 C 209.884 80.430,208.104 78.753,206.864 77.473 C 205.625 76.193,202.988 73.919,201.005 72.419 C 199.022 70.918,196.887 69.213,196.260 68.628 C 195.634 68.043,193.834 66.732,192.260 65.714 C 190.687 64.696,189.040 63.552,188.600 63.171 C 188.160 62.790,186.685 61.876,185.321 61.139 C 182.671 59.707,181.493 59.051,175.339 55.576 C 168.761 51.862,166.752 51.162,165.438 52.122 M195.689 270.986 C 197.290 271.309,199.950 271.839,201.600 272.165 C 204.873 272.811,208.033 273.767,209.600 274.587 C 210.150 274.874,211.860 275.600,213.400 276.199 C 217.121 277.648,221.904 279.921,222.184 280.374 C 222.308 280.575,222.945 280.856,223.599 281.000 C 226.163 281.563,226.952 287.792,224.815 290.600 C 224.647 290.820,224.382 291.534,224.226 292.187 C 223.956 293.312,223.016 295.500,221.021 299.644 C 219.677 302.438,217.868 304.880,214.997 307.781 C 213.346 309.448,206.968 314.400,206.472 314.400 C 206.319 314.400,205.385 314.828,204.397 315.351 C 203.409 315.874,201.973 316.437,201.206 316.603 C 200.439 316.769,199.449 317.137,199.006 317.420 C 198.563 317.704,196.670 318.127,194.800 318.361 C 183.493 319.775,183.606 319.767,181.272 319.252 C 180.023 318.976,176.515 318.594,173.478 318.403 C 166.394 317.958,161.835 316.542,157.211 313.349 C 156.215 312.662,154.820 311.805,154.111 311.445 C 152.654 310.705,147.600 305.779,147.600 305.097 C 147.600 304.852,147.273 304.280,146.873 303.826 C 142.123 298.426,143.825 290.457,151.278 283.206 C 154.808 279.772,154.694 279.857,157.954 278.196 C 159.508 277.404,160.881 276.592,161.005 276.393 C 161.128 276.193,161.807 275.856,162.514 275.644 C 163.222 275.432,165.240 274.691,167.000 273.997 C 170.733 272.525,172.040 272.175,175.817 271.636 C 177.348 271.417,179.320 271.070,180.200 270.865 C 182.811 270.256,192.438 270.332,195.689 270.986 " stroke="none" fill="#000" fill-rule="evenodd"></path></svg>