<?xml version="1.0" encoding="utf-8"?>
<svg viewBox="20 20.037 150 149.964" xmlns="http://www.w3.org/2000/svg">
  <path d="M 104 106.001 C 104 106.001 104.333 138.856 107 155.001 C 107.619 158.751 110 166.001 110 166.001 L 110 170.001 L 80 170.001 L 80 166.001 C 80 166.001 82.381 158.751 83 155.001 C 85.667 138.856 86 106.001 86 106.001 L 86 46.999 L 74.873 58.786 C 74.873 58.786 69.837 64.158 63.454 71.168 C 65.197 72.775 70.947 78.032 74.335 80.559 C 75.987 81.793 79.548 83.888 79.548 83.888 L 82.296 86.795 L 73.214 95.383 L 57.036 78.276 C 56.146 79.27 55.253 80.273 54.366 81.274 L 70.307 98.131 L 61.225 106.72 L 58.477 103.814 C 58.477 103.814 56.583 100.142 55.444 98.424 C 53.583 95.614 50.073 91.207 47.963 88.61 C 45.858 91.067 43.922 93.384 42.295 95.419 C 39.984 98.309 35.827 104.442 35.827 104.442 L 33.079 107.348 L 20 94.98 L 22.749 92.074 C 22.749 92.074 28.64 87.581 31.397 85.112 C 33.515 83.216 35.947 80.934 38.521 78.457 C 36.478 76.578 31.164 71.75 27.961 69.361 C 26.309 68.128 22.748 66.032 22.748 66.032 L 20 63.126 L 29.082 54.537 L 45.365 71.756 C 46.313 70.815 47.259 69.87 48.197 68.93 L 31.988 51.789 L 41.071 43.2 L 43.819 46.106 C 43.819 46.106 45.713 49.778 46.852 51.496 C 48.914 54.61 53.002 59.685 54.965 62.086 C 61.343 55.584 66.154 50.541 66.154 50.541 L 95 20.037 L 123.846 50.504 C 123.846 50.504 128.657 55.547 135.035 62.049 C 136.998 59.648 141.086 54.573 143.148 51.459 C 144.287 49.741 146.181 46.069 146.181 46.069 L 148.929 43.163 L 158.012 51.752 L 141.803 68.893 C 142.741 69.833 143.687 70.778 144.635 71.719 L 160.918 54.5 L 170 63.089 L 167.252 65.995 C 167.252 65.995 163.691 68.091 162.039 69.324 C 158.836 71.713 153.522 76.541 151.479 78.42 C 154.053 80.897 156.485 83.179 158.603 85.075 C 161.36 87.544 167.251 92.037 167.251 92.037 L 170 94.943 L 156.921 107.311 L 154.173 104.405 C 154.173 104.405 150.016 98.272 147.705 95.382 C 146.078 93.347 144.142 91.03 142.037 88.573 C 139.927 91.17 136.417 95.577 134.556 98.387 C 133.417 100.105 131.523 103.777 131.523 103.777 L 128.775 106.683 L 119.693 98.094 L 135.634 81.237 C 134.747 80.236 133.854 79.233 132.964 78.239 L 116.786 95.346 L 107.704 86.758 L 110.452 83.851 C 110.452 83.851 114.013 81.756 115.665 80.522 C 119.053 77.995 124.803 72.738 126.546 71.131 C 120.163 64.121 115.127 58.749 115.127 58.749 L 104 46.982 Z"/>
</svg>