<svg id="svg" version="1.1" xmlns="http://www.w3.org/2000/svg" xmlns:xlink="http://www.w3.org/1999/xlink" width="400" height="400" viewBox="0, 0, 400,400"><path id="path0" d="M228.800 8.200 C 228.030 8.497,226.877 8.753,226.239 8.770 C 224.846 8.806,221.043 10.539,219.469 11.855 C 218.847 12.375,218.160 12.800,217.943 12.800 C 214.920 12.800,204.400 27.754,204.400 32.051 C 204.400 32.667,204.034 34.098,203.587 35.232 C 202.142 38.900,202.162 63.757,203.613 67.400 C 203.876 68.060,204.232 70.670,204.404 73.200 C 204.599 76.067,205.034 78.737,205.558 80.287 C 206.021 81.655,206.400 83.521,206.400 84.433 C 206.400 86.045,207.815 92.614,209.009 96.546 C 209.334 97.616,209.610 99.326,209.621 100.346 C 209.656 103.364,211.743 114.025,212.548 115.294 C 212.864 115.792,213.250 116.990,213.406 117.956 C 213.562 118.922,214.025 120.452,214.436 121.356 C 214.846 122.260,215.186 123.758,215.191 124.685 C 215.196 125.612,215.536 127.232,215.947 128.285 C 216.357 129.338,216.823 131.100,216.981 132.200 C 217.140 133.300,217.507 134.740,217.798 135.400 C 218.800 137.671,220.400 144.039,220.400 145.754 C 220.400 146.699,220.750 148.840,221.178 150.512 C 221.605 152.184,222.131 154.418,222.346 155.476 C 222.561 156.534,223.013 158.120,223.351 159.000 C 224.706 162.531,224.205 163.940,221.220 164.993 C 218.744 165.867,211.624 171.732,211.605 172.913 C 211.602 173.086,210.971 173.856,210.201 174.625 C 209.432 175.394,208.494 176.513,208.116 177.112 C 207.738 177.710,206.862 178.920,206.169 179.800 C 204.912 181.396,204.203 182.589,202.985 185.158 C 202.630 185.905,202.084 186.773,201.771 187.086 C 201.458 187.400,201.082 188.129,200.937 188.708 C 200.705 189.631,198.976 193.186,198.109 194.524 C 197.783 195.027,196.369 198.975,195.432 202.000 C 195.125 202.990,194.595 204.520,194.255 205.400 C 193.914 206.280,193.627 207.365,193.618 207.811 C 193.608 208.257,193.352 208.977,193.048 209.411 C 192.745 209.845,192.276 211.280,192.005 212.600 C 191.735 213.920,191.360 215.190,191.172 215.422 C 190.985 215.654,190.626 217.184,190.374 218.822 C 190.122 220.460,189.666 222.405,189.360 223.144 C 189.054 223.884,188.631 226.764,188.419 229.546 C 188.207 232.327,187.756 235.390,187.417 236.352 C 187.078 237.314,186.800 238.810,186.800 239.677 C 186.800 241.454,186.161 242.947,185.560 242.575 C 185.340 242.439,183.624 242.188,181.747 242.017 C 176.966 241.581,177.059 241.731,176.954 234.306 C 176.907 230.948,176.683 224.510,176.458 220.000 C 175.797 206.813,176.067 196.286,177.133 193.685 C 178.145 191.216,178.181 190.801,177.471 189.829 C 176.228 188.130,173.600 191.164,173.600 194.298 C 173.600 194.740,173.353 195.709,173.052 196.451 C 172.751 197.193,172.387 199.003,172.244 200.474 C 172.100 201.944,171.709 203.924,171.373 204.874 C 171.004 205.918,170.611 209.288,170.378 213.400 C 170.167 217.140,169.718 223.080,169.381 226.600 C 169.043 230.120,168.730 234.530,168.684 236.400 L 168.600 239.800 164.844 239.673 C 162.374 239.589,160.903 239.360,160.548 239.005 C 160.251 238.708,159.448 238.342,158.764 238.192 C 157.187 237.846,154.137 235.803,153.545 234.697 C 152.753 233.218,152.644 223.732,153.390 221.200 C 153.747 219.990,154.226 218.190,154.455 217.200 C 154.684 216.210,155.305 214.510,155.836 213.421 C 156.366 212.333,156.800 211.129,156.800 210.745 C 156.800 210.361,156.967 209.944,157.171 209.818 C 157.375 209.692,157.757 208.916,158.021 208.094 C 158.555 206.432,160.241 202.529,160.827 201.600 C 161.035 201.270,161.402 200.550,161.643 200.000 C 161.883 199.450,162.872 197.380,163.841 195.400 C 164.809 193.420,165.601 191.507,165.601 191.149 C 165.600 190.791,165.870 190.274,166.200 190.000 C 166.530 189.726,166.800 189.281,166.800 189.011 C 166.800 188.740,167.220 187.727,167.733 186.760 C 168.247 185.792,168.798 184.474,168.958 183.832 C 169.118 183.189,169.598 182.220,170.025 181.678 C 170.451 181.136,170.800 180.257,170.800 179.725 C 170.800 179.194,171.146 178.093,171.568 177.279 C 171.991 176.466,172.821 174.450,173.412 172.800 C 174.004 171.150,174.808 169.080,175.201 168.200 C 175.593 167.320,176.041 165.702,176.196 164.605 C 176.351 163.508,176.709 162.158,176.991 161.605 C 177.274 161.052,177.638 159.800,177.801 158.822 C 177.964 157.844,178.435 156.061,178.848 154.860 C 179.262 153.658,179.600 152.244,179.600 151.718 C 179.600 151.191,179.892 150.197,180.248 149.508 C 180.630 148.769,181.122 146.028,181.447 142.827 C 181.750 139.842,182.170 136.590,182.381 135.600 C 182.864 133.334,182.875 121.982,182.397 118.000 C 181.735 112.475,180.877 107.411,180.398 106.200 C 180.136 105.540,179.773 104.100,179.590 103.000 C 179.035 99.666,176.756 94.031,174.464 90.326 C 172.115 86.530,166.187 80.000,165.090 80.000 C 164.770 80.000,164.079 79.666,163.554 79.258 C 160.247 76.687,152.717 77.785,150.922 81.100 C 150.535 81.815,150.124 82.406,150.009 82.414 C 148.691 82.504,141.691 83.297,140.000 83.548 C 138.790 83.728,137.260 84.172,136.600 84.535 C 135.940 84.898,135.170 85.196,134.889 85.198 C 132.748 85.208,124.702 91.247,122.452 94.533 C 119.332 99.087,118.532 103.645,120.571 105.248 C 121.813 106.225,125.937 108.400,126.548 108.400 C 126.804 108.400,127.673 108.848,128.478 109.395 C 129.909 110.367,135.860 113.600,136.219 113.600 C 136.679 113.600,136.331 111.066,135.749 110.178 C 134.443 108.185,136.116 102.642,138.557 100.877 C 140.942 99.152,142.724 98.078,143.659 97.803 C 144.176 97.651,145.320 97.198,146.200 96.797 C 147.080 96.396,148.564 95.947,149.498 95.799 C 150.432 95.651,151.297 95.366,151.422 95.165 C 151.761 94.615,154.608 94.726,156.725 95.372 C 157.756 95.686,159.062 96.041,159.626 96.161 C 160.191 96.280,161.041 96.698,161.516 97.089 C 161.991 97.480,162.977 98.236,163.707 98.768 C 165.436 100.030,168.800 104.263,168.800 105.179 C 168.800 105.571,169.160 106.350,169.601 106.910 C 170.041 107.470,170.570 108.979,170.776 110.264 C 170.982 111.549,171.431 113.584,171.775 114.787 C 172.777 118.294,172.659 133.896,171.597 138.325 C 171.159 140.154,170.800 142.966,170.800 144.574 C 170.800 146.609,170.496 148.429,169.800 150.561 C 169.250 152.246,168.800 153.985,168.800 154.425 C 168.800 154.865,168.516 155.895,168.170 156.713 C 167.823 157.531,167.363 159.280,167.147 160.600 C 166.931 161.920,166.522 163.360,166.238 163.800 C 165.953 164.240,165.596 165.273,165.443 166.094 C 165.291 166.916,164.817 168.356,164.392 169.294 C 163.966 170.233,163.614 171.458,163.609 172.018 C 163.604 172.578,162.790 174.648,161.801 176.618 C 160.812 178.588,160.002 180.522,160.001 180.916 C 160.000 181.310,159.640 182.338,159.200 183.200 C 158.760 184.062,158.400 184.973,158.400 185.222 C 158.400 185.472,158.052 186.165,157.627 186.763 C 157.201 187.360,156.727 188.378,156.573 189.024 C 156.419 189.671,156.030 190.503,155.709 190.872 C 155.034 191.651,153.920 193.595,153.001 195.600 C 152.648 196.370,152.108 197.540,151.800 198.200 C 151.493 198.860,151.148 199.850,151.033 200.400 C 150.919 200.950,150.104 202.480,149.224 203.800 C 148.343 205.120,147.618 206.457,147.611 206.771 C 147.605 207.085,146.809 208.525,145.842 209.971 C 144.875 211.417,143.951 213.050,143.788 213.600 C 143.625 214.150,143.362 214.690,143.204 214.800 C 143.045 214.910,142.280 216.203,141.504 217.674 C 140.727 219.144,139.711 220.882,139.246 221.536 C 138.781 222.189,138.400 222.812,138.400 222.920 C 138.400 223.028,137.320 224.745,136.000 226.735 C 134.680 228.725,133.600 230.485,133.600 230.645 C 133.600 231.108,131.132 236.137,130.579 236.800 C 130.304 237.130,129.891 238.030,129.660 238.800 C 128.900 241.334,127.670 244.721,127.170 245.657 C 125.540 248.702,125.540 254.899,127.171 257.945 C 127.407 258.386,127.600 259.113,127.600 259.560 C 127.600 260.373,129.003 261.467,129.320 260.901 C 129.413 260.735,129.600 260.136,129.735 259.569 C 130.230 257.490,132.514 255.843,138.250 253.431 C 139.598 252.864,141.091 252.400,141.570 252.400 C 142.048 252.400,143.010 252.105,143.708 251.744 C 147.956 249.548,165.356 247.627,167.234 249.147 C 168.713 250.345,167.921 259.165,165.952 263.426 C 165.538 264.321,165.200 265.249,165.200 265.489 C 165.200 267.876,160.387 273.597,158.372 273.606 C 157.617 273.609,155.830 273.890,154.400 274.230 C 152.970 274.570,150.990 274.805,150.000 274.752 C 149.010 274.698,147.148 274.800,145.862 274.978 C 143.491 275.306,140.668 274.484,138.758 272.910 C 137.903 272.205,136.930 272.629,136.626 273.837 C 136.294 275.163,136.706 275.813,139.664 278.620 C 141.059 279.944,142.998 282.011,143.974 283.214 C 144.950 284.416,146.079 285.760,146.484 286.200 C 147.699 287.521,149.172 289.950,149.463 291.110 C 149.613 291.710,150.064 292.740,150.466 293.400 C 150.868 294.060,151.199 294.870,151.201 295.200 C 151.203 295.530,151.490 296.340,151.838 297.000 C 153.256 299.691,153.359 308.262,152.000 310.600 C 147.774 317.872,157.019 315.492,162.098 308.000 C 162.470 307.450,163.308 306.280,163.959 305.400 C 164.610 304.520,165.723 302.630,166.432 301.200 C 167.141 299.770,167.947 298.330,168.223 298.000 C 168.499 297.670,168.940 296.590,169.202 295.600 C 169.464 294.610,169.824 293.620,170.002 293.400 C 170.180 293.180,170.458 292.100,170.621 291.000 C 170.784 289.900,171.193 288.578,171.529 288.062 C 171.866 287.547,172.370 285.574,172.651 283.679 C 173.402 278.601,175.178 277.695,183.378 278.207 C 188.745 278.542,189.351 279.225,189.401 285.000 C 189.425 287.816,190.251 294.312,190.875 296.600 C 191.680 299.552,191.738 308.992,190.976 312.992 C 190.057 317.814,190.283 317.449,184.585 323.343 C 182.264 325.743,183.899 327.409,187.407 326.218 C 188.682 325.785,189.474 325.724,190.205 326.002 C 190.765 326.215,191.623 326.374,192.112 326.356 C 193.466 326.305,204.070 327.498,208.800 328.233 C 215.564 329.284,231.541 329.074,233.763 327.906 C 234.183 327.685,236.253 327.360,238.363 327.182 C 241.441 326.924,242.872 326.570,245.600 325.394 C 247.470 324.587,249.360 323.822,249.800 323.693 C 251.291 323.255,255.952 319.575,258.404 316.899 C 262.583 312.338,264.717 307.873,266.393 300.182 C 266.586 299.293,266.786 298.393,266.836 298.182 C 266.886 297.972,266.821 297.530,266.691 297.200 C 266.561 296.870,266.365 295.970,266.256 295.200 C 266.147 294.430,265.933 293.305,265.782 292.700 C 265.529 291.689,265.601 291.600,266.673 291.600 C 268.750 291.600,269.576 294.302,268.262 296.800 C 267.807 297.665,267.836 297.944,268.473 298.869 L 269.210 299.938 270.974 298.952 C 273.331 297.635,277.600 292.656,277.600 291.225 C 277.600 290.869,277.860 290.207,278.177 289.754 C 278.702 289.004,279.536 285.367,280.358 280.242 C 280.530 279.165,280.514 277.545,280.321 276.642 C 280.128 275.739,279.804 273.380,279.600 271.400 C 279.087 266.414,278.834 265.144,278.138 264.064 C 277.806 263.550,277.433 262.110,277.308 260.864 C 277.178 259.577,276.761 258.188,276.340 257.646 C 275.909 257.091,275.600 256.040,275.600 255.130 C 275.600 254.176,275.277 253.130,274.770 252.445 C 274.314 251.828,273.845 250.530,273.728 249.561 C 273.612 248.593,273.175 247.068,272.758 246.174 C 272.341 245.279,271.994 244.199,271.986 243.774 C 271.979 243.348,271.625 242.280,271.200 241.400 C 270.775 240.520,270.421 239.371,270.414 238.847 C 270.406 238.323,270.059 237.333,269.642 236.647 C 269.226 235.961,268.761 234.645,268.611 233.723 C 268.461 232.801,268.110 231.858,267.833 231.627 C 267.555 231.397,266.739 229.361,266.019 227.104 C 265.299 224.847,264.461 222.460,264.157 221.800 C 263.646 220.688,262.272 216.861,261.717 215.000 C 261.586 214.560,261.155 213.736,260.761 213.169 C 260.042 212.135,259.324 210.375,258.061 206.552 C 257.689 205.426,257.185 204.256,256.941 203.952 C 256.129 202.941,255.957 201.733,256.555 201.237 C 257.010 200.859,257.238 200.917,257.664 201.518 C 259.484 204.086,261.218 202.649,262.874 197.200 C 263.442 195.332,263.042 188.953,262.237 187.026 C 261.886 186.188,261.600 185.164,261.600 184.751 C 261.600 183.486,257.526 175.539,255.745 173.333 C 255.005 172.416,254.400 171.488,254.400 171.270 C 254.400 170.673,248.817 165.628,247.422 164.964 C 243.691 163.190,242.096 161.933,241.744 160.489 C 241.598 159.890,241.145 158.971,240.739 158.446 C 240.333 157.921,240.000 157.152,240.000 156.736 C 240.000 155.601,238.508 151.583,237.794 150.794 C 237.134 150.064,236.017 147.341,234.794 143.477 C 234.390 142.199,233.891 140.939,233.685 140.677 C 233.479 140.414,233.200 139.353,233.065 138.317 C 232.930 137.282,232.456 135.754,232.010 134.923 C 231.565 134.092,231.199 132.959,231.199 132.406 C 231.198 131.853,230.838 130.811,230.399 130.090 C 229.959 129.370,229.600 128.379,229.600 127.887 C 229.600 127.396,229.150 126.148,228.600 125.115 C 228.050 124.082,227.599 122.913,227.598 122.518 C 227.596 122.123,227.328 121.288,227.002 120.663 C 226.676 120.038,226.140 118.619,225.811 117.511 C 225.482 116.404,225.052 115.295,224.857 115.049 C 224.661 114.802,224.372 113.700,224.215 112.600 C 224.057 111.500,223.585 109.616,223.164 108.414 C 222.744 107.211,222.400 105.568,222.400 104.761 C 222.400 103.955,221.950 102.100,221.400 100.638 C 220.850 99.177,220.400 97.350,220.400 96.577 C 220.400 95.804,220.111 94.731,219.759 94.193 C 219.299 93.491,218.960 91.201,218.562 86.107 C 218.256 82.198,217.830 77.290,217.614 75.200 C 217.049 69.722,217.113 63.606,217.771 60.283 C 218.085 58.697,218.556 56.050,218.818 54.400 C 219.080 52.750,219.464 51.077,219.671 50.681 C 219.878 50.286,220.209 48.975,220.405 47.769 C 220.602 46.562,221.131 45.106,221.581 44.533 C 222.032 43.961,222.400 43.165,222.400 42.766 C 222.400 42.047,229.057 31.846,230.600 30.200 C 231.040 29.731,232.653 27.942,234.184 26.224 C 235.715 24.506,237.695 22.637,238.584 22.072 C 239.473 21.506,240.593 20.699,241.074 20.277 C 242.232 19.260,247.470 19.413,248.553 20.496 C 248.930 20.873,249.465 21.321,249.740 21.491 C 251.325 22.470,253.735 28.811,252.983 30.028 C 252.862 30.223,252.616 31.692,252.436 33.292 C 252.182 35.551,251.830 36.615,250.855 38.058 C 248.971 40.847,249.136 41.719,251.749 42.779 C 254.919 44.066,258.238 43.080,259.784 40.393 C 260.013 39.995,260.749 38.890,261.419 37.935 C 265.759 31.757,263.461 21.383,256.509 15.770 C 255.459 14.922,254.330 13.950,254.000 13.611 C 253.156 12.742,250.234 10.800,249.771 10.800 C 249.559 10.800,248.669 10.313,247.793 9.717 C 246.247 8.666,245.982 8.627,238.800 8.374 C 234.730 8.230,231.130 8.011,230.800 7.887 C 230.470 7.763,229.570 7.904,228.800 8.200 M227.409 175.500 C 227.532 176.105,227.984 177.320,228.412 178.200 C 228.841 179.080,229.311 180.430,229.458 181.200 C 229.604 181.970,230.056 183.029,230.462 183.554 C 230.868 184.079,231.200 184.763,231.200 185.075 C 231.200 185.386,231.553 186.307,231.985 187.121 C 233.269 189.542,234.800 193.112,234.800 193.686 C 234.800 193.981,235.056 194.588,235.370 195.035 C 235.683 195.483,236.290 196.828,236.720 198.024 C 237.149 199.221,237.725 200.830,237.999 201.600 C 238.274 202.370,238.732 203.540,239.018 204.200 C 239.304 204.860,239.836 206.343,240.200 207.495 C 240.563 208.648,241.027 209.693,241.231 209.819 C 241.434 209.944,241.600 210.349,241.600 210.718 C 241.600 211.336,242.631 213.743,244.376 217.200 C 244.765 217.970,245.212 219.129,245.368 219.776 C 245.525 220.422,246.001 221.440,246.427 222.037 C 246.852 222.635,247.200 223.510,247.200 223.983 C 247.200 224.455,247.545 225.507,247.967 226.321 C 248.389 227.134,248.927 228.250,249.164 228.800 C 249.401 229.350,249.766 230.070,249.976 230.400 C 251.037 232.068,252.401 235.390,252.412 236.333 C 252.419 236.920,252.868 238.120,253.410 239.000 C 253.952 239.880,254.398 240.870,254.400 241.200 C 254.403 241.530,254.650 242.269,254.949 242.842 C 255.248 243.415,255.719 244.855,255.997 246.042 C 256.275 247.229,256.725 248.470,256.997 248.800 C 257.269 249.130,257.608 250.288,257.749 251.374 C 257.890 252.460,258.261 253.739,258.574 254.217 C 258.887 254.694,259.340 256.776,259.581 258.843 C 259.822 260.909,260.259 263.711,260.554 265.070 C 261.319 268.605,260.035 275.600,258.621 275.600 C 257.991 275.600,256.402 274.092,256.391 273.484 C 256.386 273.218,256.030 272.550,255.600 272.000 C 254.657 270.795,254.595 269.388,255.400 267.462 C 256.313 265.277,256.219 259.057,255.249 257.447 C 254.835 256.761,254.379 255.532,254.234 254.717 C 253.669 251.542,250.821 250.847,250.806 253.880 C 250.791 257.106,244.495 259.354,241.721 257.123 C 241.099 256.622,238.461 255.205,235.200 253.620 C 233.770 252.925,231.970 252.028,231.200 251.628 C 230.430 251.228,229.209 250.772,228.486 250.615 C 226.089 250.095,225.845 249.207,225.859 241.053 C 225.865 237.064,226.062 233.080,226.296 232.200 C 228.781 222.868,229.325 221.349,230.698 219.905 C 232.015 218.521,233.766 218.185,235.877 218.913 C 237.844 219.590,238.616 218.736,238.544 215.963 C 238.378 209.634,225.823 207.549,221.587 213.146 C 221.148 213.726,219.955 215.265,218.936 216.567 C 216.922 219.138,216.649 220.500,217.796 222.250 C 218.348 223.092,218.440 224.611,218.419 232.519 C 218.377 248.127,218.316 248.303,213.488 246.616 C 212.046 246.113,209.636 245.577,208.133 245.427 C 206.630 245.277,204.857 244.984,204.193 244.776 C 203.529 244.569,201.935 244.326,200.650 244.237 C 199.366 244.148,198.142 243.902,197.930 243.690 C 196.750 242.510,198.637 220.321,200.167 217.400 C 200.512 216.740,200.796 215.474,200.798 214.587 C 200.799 213.700,201.079 211.990,201.419 210.787 C 201.760 209.584,202.277 207.569,202.568 206.308 C 202.859 205.047,203.391 203.569,203.749 203.022 C 204.107 202.475,204.402 201.707,204.404 201.314 C 204.406 200.921,204.850 199.700,205.391 198.600 C 205.932 197.500,206.385 196.330,206.396 196.000 C 206.408 195.670,206.770 194.950,207.200 194.400 C 207.630 193.850,207.986 193.239,207.991 193.041 C 207.996 192.844,208.675 191.697,209.500 190.492 C 210.325 189.286,211.323 187.762,211.718 187.104 C 212.113 186.446,212.653 185.663,212.918 185.365 C 213.183 185.066,213.928 184.142,214.574 183.311 C 215.992 181.487,219.340 178.668,222.600 176.556 C 226.513 174.019,227.082 173.895,227.409 175.500 M182.093 251.180 C 185.818 251.790,186.186 252.371,186.238 257.720 C 186.262 260.184,186.420 263.416,186.588 264.903 C 186.990 268.453,186.761 268.701,183.032 268.757 C 181.283 268.783,179.624 269.044,178.944 269.398 C 176.374 270.739,174.329 269.944,175.136 267.918 C 175.425 267.193,175.829 264.800,176.033 262.600 C 176.237 260.400,176.502 257.520,176.623 256.200 C 177.123 250.723,177.452 250.420,182.093 251.180 M204.900 253.639 C 205.961 254.058,207.103 254.400,207.437 254.400 C 208.505 254.400,214.343 257.123,216.887 258.808 L 218.684 259.998 218.904 265.899 C 219.025 269.145,219.247 272.107,219.398 272.483 C 219.794 273.469,218.008 273.832,216.529 273.067 C 215.893 272.738,214.659 272.345,213.786 272.195 C 212.914 272.044,211.056 271.578,209.658 271.160 C 208.260 270.742,206.190 270.398,205.058 270.396 C 201.623 270.388,199.966 269.977,199.602 269.042 C 197.532 263.734,196.602 253.717,198.086 252.719 C 198.816 252.228,202.625 252.743,204.900 253.639 M234.597 267.623 C 236.208 268.956,238.578 271.400,239.863 273.055 C 241.148 274.710,242.515 276.437,242.900 276.893 C 243.626 277.753,243.853 279.797,243.263 280.161 C 242.946 280.357,237.353 278.243,233.089 276.317 C 231.148 275.439,231.019 275.232,230.663 272.400 C 230.566 271.630,230.282 269.866,230.031 268.481 C 229.277 264.307,230.345 264.106,234.597 267.623 M211.800 282.183 C 213.340 282.515,215.419 282.789,216.420 282.793 C 220.109 282.807,222.392 285.272,222.398 289.250 C 222.399 290.047,222.670 291.466,223.001 292.402 C 223.331 293.338,223.788 295.273,224.016 296.702 C 224.245 298.131,224.694 299.809,225.016 300.430 C 225.337 301.052,225.602 301.974,225.604 302.480 C 225.606 302.986,226.050 304.300,226.591 305.400 C 227.588 307.426,227.797 308.620,227.357 309.767 C 226.805 311.205,220.255 310.006,216.200 307.724 C 215.320 307.229,213.970 306.474,213.200 306.047 C 211.208 304.941,210.050 303.746,209.751 302.489 C 209.609 301.890,209.268 301.130,208.994 300.800 C 207.908 299.492,204.400 290.919,204.400 289.572 C 204.400 289.126,204.130 288.238,203.800 287.600 C 202.703 285.478,201.939 281.890,202.502 281.499 C 203.155 281.045,208.264 281.421,211.800 282.183 M236.976 287.161 C 237.098 287.359,238.309 287.650,239.666 287.808 C 242.167 288.098,242.483 288.178,246.400 289.520 C 250.922 291.068,251.481 296.390,247.873 303.526 C 245.709 307.804,240.000 306.825,240.000 302.175 C 240.000 301.698,239.640 300.850,239.200 300.291 C 238.750 299.719,238.400 298.668,238.400 297.891 C 238.400 297.112,238.049 296.062,237.596 295.486 C 237.155 294.925,236.674 293.868,236.528 293.139 C 236.382 292.410,235.918 291.229,235.497 290.516 C 234.276 288.445,235.730 285.145,236.976 287.161 M209.157 337.400 C 207.826 339.253,203.878 341.600,202.092 341.600 C 201.627 341.600,201.139 341.775,201.007 341.989 C 200.874 342.203,200.009 342.581,199.083 342.828 C 192.493 344.590,188.865 348.306,190.960 351.146 C 191.488 351.861,192.043 353.105,192.194 353.909 C 192.345 354.714,192.699 355.829,192.981 356.386 C 193.263 356.944,193.619 358.120,193.773 359.000 C 193.926 359.880,194.401 361.744,194.826 363.142 C 195.447 365.183,195.600 366.896,195.600 371.834 L 195.600 377.984 194.200 380.173 C 191.713 384.061,186.990 387.600,184.288 387.600 C 182.457 387.600,181.280 390.018,182.914 390.421 C 189.529 392.053,195.143 391.148,200.319 387.615 C 202.250 386.298,202.871 385.420,205.705 380.000 C 206.568 378.350,207.416 376.820,207.591 376.600 C 207.765 376.380,208.039 375.570,208.200 374.800 C 208.361 374.030,208.628 373.220,208.795 373.000 C 208.961 372.780,209.406 371.189,209.784 369.465 C 210.161 367.740,210.724 365.721,211.035 364.978 C 211.346 364.234,211.600 362.553,211.600 361.242 C 211.600 359.931,211.775 357.540,211.989 355.929 C 212.696 350.603,213.223 336.710,212.740 336.128 C 211.849 335.054,210.497 335.534,209.157 337.400 " stroke="none" fill="#000" fill-rule="evenodd"></path></svg>