<?xml version="1.0" encoding="utf-8"?>
<svg viewBox="20 20 150 150" xmlns="http://www.w3.org/2000/svg">
  <path d="M 105.684 46.064 C 122.029 49.399 134 60.196 134 73 C 134 86.24 121.2 97.334 104 100.251 L 104 106 C 104 106 104.004 106.352 104.013 107 L 105 107 C 105 107 117.058 106.899 123 106 C 125.718 105.589 131 104 131 104 L 134 104 L 134 126 L 131 126 C 131 126 125.718 124.411 123 124 C 117.058 123.101 105 123 105 123 L 104.443 123 C 104.553 125.86 104.689 128.908 104.857 132 L 106 132 C 106 132 125.393 132.119 135 131 C 138.377 130.607 145 129 145 129 L 148 129 L 148 151 L 145 151 C 145 151 138.377 149.393 135 149 C 125.747 147.922 107.415 147.993 106.077 148 C 106.349 150.541 106.655 152.911 107 155 C 107.619 158.75 110 166 110 166 L 110 170 L 80 170 L 80 166 C 80 166 82.381 158.75 83 155 C 83.345 152.911 83.651 150.541 83.923 148 C 82.585 147.993 64.253 147.922 55 149 C 51.623 149.393 45 151 45 151 L 42 151 L 42 129 L 45 129 C 45 129 51.623 130.607 55 131 C 64.607 132.119 84 132 84 132 L 85.143 132 C 85.311 128.908 85.447 125.86 85.557 123 L 85 123 C 85 123 72.942 123.101 67 124 C 64.282 124.411 59 126 59 126 L 56 126 L 56 104 L 59 104 C 59 104 64.282 105.589 67 106 C 72.942 106.899 85 107 85 107 L 85.987 107 C 85.996 106.352 86 106 86 106 L 86 100.251 C 68.8 97.334 56 86.24 56 73 C 56 60.196 67.971 49.399 84.316 46.064 C 84.131 43.955 83.925 41.918 83.698 40.004 C 80.358 40.055 50.179 40.586 35 43.5 C 31.221 44.225 24 47 24 47 L 20 47 L 20 20 L 24 20 C 24 20 31.312 21.193 35 21.5 C 51.285 22.856 84 23 84 23 L 106 23 C 106 23 138.715 22.856 155 21.5 C 158.688 21.193 166 20 166 20 L 170 20 L 170 47 L 166 47 C 166 47 158.779 44.225 155 43.5 C 139.822 40.586 109.643 40.055 106.302 40.004 C 106.075 41.918 105.869 43.955 105.684 46.064 Z M 104 84 L 104 89.43 C 111.663 86.615 117 80.318 117 73 C 117 65.978 112.085 59.895 104.916 56.928 C 104.134 70.74 104 84 104 84 Z M 86 84 C 86 84 85.866 70.74 85.084 56.928 C 77.915 59.895 73 65.978 73 73 C 73 80.318 78.337 86.615 86 89.43 Z"/>
</svg>