<svg viewBox="0 0 150 150" xmlns="http://www.w3.org/2000/svg">
  <path d="M 26 63.5 L 26 49 L 49 26 L 49 63.5 L 63.5 63.5 L 63.5 11.5 L 75 0 L 86.5 11.5 L 86.5 63.5 L 101 63.5 L 101 26 L 124 49 L 124 63.5 L 138.5 63.5 L 150 75 L 138.5 86.5 L 124 86.5 L 124 101 L 101 124 L 101 86.5 L 86.5 86.5 L 86.5 138.5 L 75 150 L 63.5 138.5 L 63.5 86.5 L 49 86.5 L 49 124 L 26 101 L 26 86.5 L 11.5 86.5 L 0 75 L 11.5 63.5 Z" style=""/>
  <path d="M 28 49.828 L 47 30.828 L 47 65.5 L 28 84.5 L 12.328 84.5 L 2.828 75 L 12.328 65.5 L 28 65.5 Z M 103 65.5 L 103 30.828 L 122 49.828 L 122 65.5 L 103 84.5 L 84.5 84.5 L 84.5 137.672 L 75 147.172 L 65.5 137.672 L 65.5 84.5 L 84.5 65.5 Z" style="fill: #ffd700;"/>
  <path d="M 65.472 65.472 L 65.472 12.3 L 74.972 2.8 L 84.472 12.3 L 84.472 65.472 L 84.528 65.472 L 65.472 84.528 L 65.472 84.472 L 46.972 84.472 L 46.972 119.144 L 27.972 100.144 L 27.972 84.528 L 47.028 65.472 Z M 137.644 65.472 L 147.144 74.972 L 137.644 84.472 L 121.972 84.472 L 121.972 100.144 L 102.972 119.144 L 102.972 84.528 L 122.028 65.472 Z" style="fill: #0022aa;"/>
</svg>