<?xml version="1.0" encoding="utf-8"?>
<svg viewBox="0 0 850 850" xmlns="http://www.w3.org/2000/svg">
  <g transform="translate(0 850) scale(.1 -.1)">
<path d="m6234 8471c-46-8-92-34-101-57-3-9 2-55 11-102 35-180 143-345 276-420 62-36 97-83 129-178 34-102 41-179 41-464 0-344-16-504-56-562-83-119-265-190-489-191-179 0-276 35-379 137-139 137-213 371-232 728-9 173-6 181 168 347 71 67 121 165 148 288 15 71 17 98 9 121-18 53-48 56-307 37-275-21-706-16-837 9-107 21-148 20-176-3-21-17-24-27-22-83 3-85 19-149 58-233 38-81 86-141 161-196 88-64 88-65 92-368 6-375-21-580-96-727-37-72-66-103-137-149-139-88-246-126-418-146-306-35-550 45-626 207-20 42-21 60-21 464 0 397 1 422 20 474 39 102 145 194 250 215 163 33 250 147 250 327 0 191-52 235-250 213-47-6-143-9-215-8-71 2-302 0-513-3-334-5-386-7-400-21-23-24-27-122-8-209 30-133 101-221 200-250 23-6 52-19 66-29 14-9 45-26 68-38 54-28 127-93 159-144 50-79 54-123 51-554l-3-398-30-54c-50-91-144-150-289-184-79-18-337-14-420 6-140 35-244 114-283 215-16 43-18 98-21 656l-3 609 35 66c41 79 68 178 64 234l-3 42-95 6c-52 4-124 12-160 18-87 14-512 31-780 31-230 0-247-3-283-51-19-26-19-29-3-110 35-172 133-309 265-370 120-55 133-64 175-110 23-26 48-65 54-87 9-28 12-169 12-483v-445l35-72c80-168 203-317 314-380 47-27 64-31 127-30 144 0 238-58 269-167 19-64 19-64 163-101 182-46 400-41 566 14 113 37 235 121 339 233l84 91 36-11c20-7 64-41 104-80 143-143 254-213 402-253 67-19 105-21 316-22 194-1 257 3 330 17 381 77 670 268 862 570l56 88 64-70c195-214 430-322 668-308 152 9 312 75 427 176 25 23 48 41 51 41s7-132 9-292c3-273 5-297 26-356 31-88 65-135 123-170 117-73 164-238 141-490-17-191-60-324-136-423l-33-44-6-150c-8-217-39-353-97-435-20-28-20-46-17-1396l2-1369-32-68c-51-107-181-231-348-332l-59-35h-721-721l-81-34c-256-108-529-160-843-159-351 1-739 88-997 222-369 192-619 647-712 1296-25 175-41 367-41 491v94l1163-2 1162-3 56-28c133-65 204-197 224-417 6-58 14-84 35-116 75-109 209-187 366-213 32-5 74-13 93-17l34-7-6 54c-3 30-10 81-16 114-19 108-31 432-32 880-2 400 0 454 20 595 25 183 28 312 7 333-33 32-236-18-332-82-114-76-159-142-169-243-20-216-89-347-220-416l-50-27-1162-3c-804-2-1163 1-1163 8 0 45 35 329 55 444 70 409 159 618 340 801 140 142 294 231 497 287l83 23h1190c1140 0 1192-1 1245-19 134-46 224-114 274-206 31-57 31-52-5-338-28-223-24-276 24-329 24-27 47-28 142-8 142 30 272 113 337 214l28 45v646 647l-31 46c-43 66-111 123-195 163-65 31-191 64-245 64-31 0-66-46-90-117-19-57-27-68-68-94-25-16-75-40-111-52l-65-22-1425-5c-1317-6-1431-7-1499-24-255-61-483-193-666-388-103-109-156-209-204-383-129-471-201-1235-201-2146 0-678 38-1137 116-1406 63-219 220-437 418-585 96-71 267-157 391-195l90-28 2117-3 2116-2 50 62c56 70 189 202 269 267 81 66 289 201 386 251l87 45v1030c0 871-2 1034-14 1051-8 11-32 63-54 116-133 319-143 673-31 1043 17 55 46 133 65 174l34 74v932 932l-46 104c-226 508-262 1084-98 1587 46 140 62 169 114 202 121 78 200 202 227 357 26 151 10 198-77 223-39 11-1288 12-1356 1z"/>
<path d="m3354 4217c-169-71-299-179-357-297-31-63-32-68-32-195 0-112 4-138 23-187 63-158 227-248 427-235 164 11 351 79 409 148 29 34 66 129 66 167 0 18 10 35 32 54l33 27-1 98c-1 112-21 183-79 270-76 114-188 173-345 180-90 4-99 2-176-30z"/>
<path d="m3103 1856c-192-63-301-178-311-332-11-174 87-317 247-360 54-15 72-16 119-6 123 26 329 185 352 271 26 100-35 259-143 365-91 91-140 102-264 62z"/>
<path d="m4032 1811c-29-10-70-32-90-48-122-98-211-321-173-436 7-19 29-55 50-79 124-140 455-174 572-57 67 67 108 225 89 345-25 155-116 248-278 283-72 15-108 14-170-8z"/>
</g>
</svg>