<svg id="svg" version="1.1" xmlns="http://www.w3.org/2000/svg" xmlns:xlink="http://www.w3.org/1999/xlink" width="400" height="400" viewBox="0, 0, 400,400"><path id="path0" d="M337.249 23.601 C 336.506 23.776,335.426 24.298,334.849 24.760 C 334.272 25.222,332.810 26.256,331.600 27.057 C 327.089 30.045,324.129 34.607,323.734 39.180 C 323.629 40.401,323.293 42.030,322.987 42.800 C 322.006 45.276,321.236 51.939,321.479 55.854 C 321.664 58.829,321.555 60.019,320.895 62.254 C 320.448 63.764,319.994 66.530,319.886 68.400 C 319.695 71.690,317.595 79.196,315.577 83.800 C 315.192 84.680,314.469 86.480,313.972 87.800 C 313.475 89.120,312.648 91.133,312.134 92.274 C 311.620 93.415,311.200 94.544,311.200 94.782 C 311.200 95.192,309.793 98.232,308.599 100.400 C 306.209 104.741,304.776 106.713,302.162 109.264 C 300.506 110.879,298.868 112.740,298.521 113.400 C 298.174 114.060,297.207 115.464,296.371 116.520 C 294.999 118.253,292.268 123.434,289.407 129.729 C 287.537 133.846,289.074 135.940,291.565 132.668 C 292.972 130.821,301.222 122.800,301.716 122.800 C 301.947 122.800,303.362 121.585,304.861 120.100 C 306.359 118.615,307.994 117.027,308.493 116.572 C 308.992 116.116,310.435 114.636,311.700 113.282 C 312.966 111.928,314.509 110.557,315.129 110.236 C 317.375 109.075,323.489 103.192,326.095 99.684 C 328.521 96.419,332.779 91.125,333.654 90.284 C 334.064 89.891,334.400 89.291,334.400 88.952 C 334.400 88.612,335.004 87.584,335.743 86.667 C 338.716 82.977,339.364 81.363,339.374 77.624 L 339.384 74.200 337.076 70.807 C 335.807 68.942,334.683 66.962,334.579 66.407 C 334.475 65.853,334.103 64.320,333.754 63.000 C 331.809 55.648,331.651 43.450,333.462 40.490 C 337.177 34.415,337.745 33.649,339.057 32.942 C 340.301 32.271,340.330 32.277,341.914 33.532 C 342.795 34.230,343.798 34.800,344.143 34.800 C 346.093 34.800,345.964 29.850,343.955 27.558 C 343.493 27.031,342.586 25.835,341.938 24.900 C 340.685 23.090,340.100 22.928,337.249 23.601 M98.800 29.664 C 94.618 31.356,90.206 36.091,88.732 40.469 C 88.486 41.201,88.150 41.980,87.987 42.200 C 84.069 47.480,83.796 64.612,87.408 78.600 C 89.313 85.976,89.369 86.109,96.077 99.285 C 97.220 101.531,97.616 103.548,96.687 102.395 C 96.419 102.062,95.750 101.585,95.200 101.334 C 93.150 100.400,79.870 87.805,78.073 85.092 C 77.749 84.601,77.280 84.020,77.032 83.800 C 71.103 78.546,65.167 66.961,65.042 60.400 C 64.975 56.878,62.968 55.461,58.357 55.680 L 55.814 55.800 54.743 58.000 C 54.153 59.210,53.550 60.920,53.402 61.800 C 53.254 62.680,52.878 64.288,52.566 65.373 C 51.384 69.491,52.004 75.604,54.030 79.800 C 54.947 81.699,55.001 82.898,54.236 84.338 C 51.088 90.266,52.612 94.636,58.331 96.074 C 59.359 96.332,61.391 97.132,62.846 97.851 C 64.302 98.570,66.012 99.268,66.646 99.404 C 67.281 99.539,68.790 100.066,70.000 100.576 C 71.210 101.085,73.280 101.816,74.600 102.199 C 75.920 102.582,77.945 103.255,79.100 103.694 C 80.265 104.137,82.848 104.620,84.900 104.778 C 87.061 104.944,89.134 105.342,89.883 105.733 C 90.589 106.102,92.749 106.581,94.683 106.799 C 100.508 107.454,102.420 108.514,103.411 111.635 C 103.545 112.056,103.800 112.400,103.978 112.400 C 104.157 112.400,104.533 112.985,104.814 113.700 C 105.095 114.415,105.984 115.810,106.789 116.800 C 107.595 117.790,108.355 118.870,108.478 119.200 C 109.423 121.740,124.446 138.743,125.800 138.806 C 126.356 138.832,130.413 142.702,131.665 144.400 C 132.233 145.170,133.140 146.250,133.680 146.800 C 134.221 147.350,135.861 149.184,137.325 150.876 L 139.987 153.952 138.971 154.752 C 138.411 155.192,137.199 155.810,136.277 156.126 C 132.020 157.584,130.459 158.015,128.600 158.247 C 126.328 158.530,119.587 160.676,115.478 162.425 C 113.959 163.071,112.444 163.600,112.112 163.600 C 111.396 163.600,107.904 165.410,106.189 166.670 C 105.522 167.159,104.262 167.884,103.387 168.280 C 98.757 170.376,92.512 176.031,93.011 177.676 C 93.547 179.442,95.006 181.596,97.821 184.771 C 102.331 189.860,103.400 191.361,104.850 194.645 C 105.502 196.123,110.114 200.313,111.458 200.650 C 112.839 200.997,114.007 200.587,115.752 199.142 L 117.304 197.856 117.066 194.428 C 116.809 190.726,117.384 188.149,118.633 187.400 C 119.000 187.180,120.539 186.173,122.053 185.162 C 123.567 184.152,126.920 182.510,129.503 181.514 C 135.703 179.124,136.506 178.849,139.800 177.987 C 144.150 176.850,148.996 175.374,149.596 175.002 C 150.661 174.345,157.441 173.323,158.396 173.677 C 159.551 174.104,161.292 175.630,167.400 181.567 C 170.040 184.133,173.370 187.241,174.800 188.474 C 179.956 192.919,183.321 196.439,182.859 196.901 C 182.565 197.195,179.514 197.311,173.511 197.258 C 168.610 197.214,164.418 197.318,164.195 197.489 C 163.971 197.660,162.981 198.784,161.995 199.986 C 159.305 203.263,157.976 204.324,156.200 204.612 C 147.527 206.018,152.128 215.942,164.301 222.085 C 166.825 223.358,169.062 224.400,169.272 224.400 C 170.123 224.400,172.504 226.638,173.487 228.363 C 174.064 229.373,174.762 230.470,175.039 230.800 C 175.316 231.130,176.547 233.415,177.775 235.879 C 179.003 238.342,180.161 240.452,180.349 240.568 C 180.537 240.684,180.926 241.639,181.215 242.690 C 181.503 243.740,181.954 244.960,182.216 245.400 C 182.478 245.840,182.926 247.100,183.212 248.200 C 183.498 249.300,183.973 250.555,184.266 250.989 C 184.560 251.423,184.802 252.233,184.805 252.789 C 184.807 253.345,185.081 254.790,185.412 256.000 C 185.744 257.210,186.291 260.270,186.629 262.800 C 186.966 265.330,187.503 268.288,187.821 269.373 C 188.203 270.673,188.400 273.220,188.400 276.842 C 188.400 282.008,188.456 282.407,189.332 283.469 C 189.844 284.091,190.377 284.910,190.515 285.288 C 190.653 285.667,191.239 286.095,191.817 286.240 C 193.568 286.680,194.062 285.746,194.409 281.336 C 194.579 279.171,194.917 276.771,195.159 276.003 C 195.709 274.259,195.729 260.843,195.185 258.485 C 194.967 257.541,194.607 254.751,194.385 252.285 C 194.162 249.818,193.886 246.810,193.772 245.600 C 193.657 244.390,193.218 242.230,192.796 240.800 C 191.846 237.581,190.834 233.302,190.336 230.400 C 190.129 229.190,189.722 227.837,189.432 227.394 C 189.142 226.951,188.768 225.961,188.601 225.194 C 188.333 223.965,187.584 222.246,185.816 218.800 C 185.534 218.250,185.086 217.125,184.821 216.300 C 184.555 215.475,184.191 214.800,184.012 214.800 C 183.554 214.800,183.152 212.990,183.443 212.232 C 183.578 211.880,184.153 211.597,184.743 211.593 C 185.324 211.589,187.049 211.321,188.576 210.998 C 190.725 210.543,191.718 210.509,192.976 210.848 C 193.869 211.089,196.119 211.424,197.977 211.594 C 202.416 211.999,202.630 212.260,202.970 217.690 C 203.112 219.951,203.415 223.690,203.644 226.000 C 204.146 231.075,203.835 272.490,203.245 279.000 C 203.026 281.420,202.735 287.720,202.599 293.000 C 202.450 298.764,202.133 303.559,201.805 305.000 C 201.504 306.320,201.137 310.010,200.988 313.200 C 200.837 316.465,200.491 319.524,200.198 320.200 C 199.912 320.860,199.471 323.830,199.219 326.800 C 198.619 333.882,196.895 341.056,194.800 345.200 C 194.410 345.970,193.965 347.050,193.811 347.600 C 193.657 348.150,192.848 350.040,192.013 351.800 C 191.179 353.560,190.285 355.450,190.025 356.000 C 189.766 356.550,189.041 357.900,188.413 359.000 C 187.786 360.100,186.973 361.569,186.608 362.265 C 185.868 363.670,183.859 365.855,181.292 368.043 C 178.272 370.618,179.254 373.047,183.267 372.928 C 186.039 372.847,186.925 372.219,189.455 368.547 C 190.245 367.398,191.404 366.247,192.029 365.988 C 193.296 365.463,198.164 360.410,199.050 358.700 C 199.364 358.095,199.781 357.600,199.976 357.600 C 200.424 357.600,202.175 354.493,202.809 352.574 C 203.072 351.776,203.537 350.645,203.841 350.061 C 204.146 349.478,204.396 348.779,204.398 348.508 C 204.399 348.237,204.833 346.887,205.363 345.508 C 205.892 344.129,206.817 341.650,207.417 340.000 C 208.017 338.350,208.754 336.433,209.054 335.740 C 209.354 335.046,209.600 334.184,209.600 333.824 C 209.600 333.463,209.939 332.500,210.353 331.684 C 210.767 330.868,211.318 328.593,211.577 326.628 C 211.837 324.663,212.235 322.708,212.463 322.283 C 213.082 321.126,214.672 312.872,215.369 307.200 C 215.707 304.450,216.146 301.390,216.345 300.400 C 216.544 299.410,216.832 293.048,216.984 286.261 C 217.194 276.917,217.409 273.471,217.869 272.061 C 218.379 270.500,218.507 266.015,218.662 244.200 C 218.765 229.750,219.006 218.040,219.204 217.839 C 219.946 217.091,230.095 221.356,231.400 222.965 C 231.729 223.371,234.353 225.040,238.377 227.403 C 238.754 227.624,239.340 228.074,239.679 228.403 C 240.018 228.731,241.241 229.810,242.396 230.800 C 244.896 232.943,248.800 236.868,248.800 237.240 C 248.800 237.385,249.610 238.547,250.600 239.822 C 251.590 241.097,252.400 242.355,252.400 242.618 C 252.400 242.880,253.129 244.011,254.019 245.129 C 254.910 246.248,257.025 249.916,258.719 253.282 C 261.792 259.384,261.804 259.400,263.171 259.400 C 265.250 259.400,265.911 253.679,264.211 250.405 C 263.924 249.852,263.469 248.410,263.199 247.200 C 262.508 244.100,260.811 240.169,259.078 237.655 C 258.265 236.475,257.600 235.354,257.600 235.163 C 257.600 234.622,255.018 230.753,253.640 229.228 C 252.958 228.473,252.399 227.663,252.398 227.428 C 252.396 226.968,246.896 221.802,244.226 219.752 C 243.332 219.066,241.790 217.759,240.800 216.849 C 239.810 215.939,238.643 215.080,238.206 214.940 C 237.769 214.801,236.779 214.187,236.006 213.577 C 233.853 211.877,223.616 206.400,222.593 206.400 C 222.353 206.400,221.311 205.864,220.278 205.209 L 218.400 204.018 218.400 200.898 C 218.400 197.868,218.701 196.932,220.184 195.358 C 228.311 186.728,233.200 181.271,233.200 180.829 C 233.200 180.620,234.415 179.440,235.900 178.205 C 237.385 176.970,239.483 175.203,240.562 174.280 C 244.658 170.774,244.960 170.631,248.089 170.739 C 249.654 170.793,251.978 171.188,253.254 171.618 C 254.531 172.048,255.900 172.400,256.298 172.400 C 256.696 172.400,257.394 172.660,257.848 172.978 C 258.302 173.296,259.557 173.761,260.637 174.011 C 261.716 174.261,263.590 174.915,264.800 175.464 C 266.010 176.014,267.720 176.791,268.600 177.192 C 269.480 177.593,272.180 178.774,274.600 179.816 C 284.294 183.993,288.400 186.484,288.400 188.189 C 288.400 189.901,292.177 191.376,294.026 190.386 C 294.948 189.892,295.078 187.784,294.260 186.589 C 293.963 186.155,293.607 185.350,293.471 184.800 C 293.334 184.250,292.229 182.450,291.015 180.800 C 288.541 177.435,288.397 177.160,287.369 173.800 C 286.868 172.161,286.175 170.956,285.184 170.000 C 283.015 167.907,281.588 166.800,281.057 166.800 C 280.796 166.800,279.612 166.162,278.428 165.381 C 276.290 163.973,274.890 163.816,275.358 165.036 C 275.491 165.382,275.600 166.087,275.600 166.602 C 275.600 167.117,276.075 168.103,276.656 168.793 C 278.022 170.418,277.409 171.382,275.686 170.317 C 275.089 169.948,272.440 168.537,269.800 167.181 C 267.160 165.825,264.550 164.467,264.000 164.164 C 263.450 163.860,262.573 163.609,262.050 163.606 C 261.528 163.603,260.043 163.125,258.750 162.545 C 255.567 161.117,255.606 160.412,259.047 157.127 C 261.936 154.368,263.113 153.126,266.558 149.200 C 267.812 147.770,269.076 146.330,269.365 146.000 C 270.870 144.286,273.554 140.834,273.934 140.124 C 274.172 139.679,274.945 138.662,275.651 137.864 C 276.357 137.067,277.309 135.792,277.767 135.032 C 278.225 134.271,279.448 132.470,280.484 131.029 C 281.520 129.587,282.581 128.001,282.842 127.504 C 283.102 127.007,283.806 125.970,284.404 125.200 C 285.003 124.430,286.610 121.640,287.976 119.000 C 289.343 116.360,291.010 113.507,291.682 112.660 C 292.353 111.812,293.151 110.295,293.454 109.289 C 293.757 108.282,294.256 107.175,294.564 106.829 C 295.515 105.760,298.319 99.878,298.582 98.400 C 298.997 96.068,299.706 93.424,300.032 92.996 C 301.969 90.449,303.750 77.958,302.541 75.400 C 300.474 71.025,297.646 69.690,297.273 72.913 C 297.177 73.740,296.793 74.159,295.717 74.609 C 293.740 75.435,293.361 74.966,293.035 71.297 C 292.724 67.785,291.402 61.906,290.586 60.404 C 289.572 58.536,288.523 55.781,288.228 54.211 C 287.308 49.305,284.851 46.829,280.452 46.374 C 277.421 46.061,270.785 44.524,267.575 43.391 C 265.211 42.557,249.035 42.538,247.114 43.367 C 246.391 43.679,245.215 44.150,244.500 44.415 C 243.359 44.838,243.201 45.074,243.205 46.349 C 243.221 50.577,246.239 52.123,249.220 49.429 C 254.697 44.482,266.346 49.959,270.851 59.600 C 274.245 66.862,275.119 68.922,275.599 70.794 C 275.798 71.567,276.323 73.190,276.767 74.400 C 277.819 77.269,277.988 89.497,277.008 91.844 C 275.863 94.582,274.982 93.537,275.106 89.587 C 275.244 85.193,275.047 84.400,273.819 84.400 C 272.805 84.400,272.662 84.665,272.199 87.400 C 272.049 88.280,271.605 89.720,271.212 90.600 C 270.818 91.480,270.370 93.280,270.216 94.600 C 270.062 95.920,269.677 97.404,269.361 97.897 C 269.044 98.390,268.684 99.650,268.561 100.697 C 268.353 102.463,267.003 107.115,265.747 110.400 C 265.452 111.170,265.024 112.670,264.796 113.734 C 264.568 114.798,264.025 116.366,263.591 117.218 C 263.156 118.071,262.800 119.070,262.800 119.439 C 262.800 119.807,261.607 122.469,260.148 125.355 C 256.597 132.379,256.649 132.279,255.016 135.223 C 254.230 136.640,253.144 138.739,252.604 139.886 C 252.064 141.034,250.615 143.644,249.385 145.686 C 248.155 147.729,246.986 149.670,246.787 150.000 C 246.589 150.330,245.666 151.950,244.737 153.600 C 242.772 157.090,242.164 157.680,240.800 157.422 C 234.193 156.176,231.568 155.628,231.242 155.426 C 231.027 155.293,229.265 154.932,227.326 154.622 C 218.686 153.245,218.664 153.226,218.354 147.081 C 218.219 144.396,217.922 141.480,217.695 140.600 C 217.468 139.720,217.159 134.806,217.009 129.680 C 216.707 119.382,216.764 119.082,218.935 119.446 C 227.548 120.891,230.132 121.949,233.853 125.556 C 235.145 126.809,235.230 127.036,234.969 128.556 C 234.237 132.818,235.051 134.292,238.808 135.509 C 241.650 136.430,243.200 135.719,243.200 133.495 C 243.200 132.331,243.513 131.030,244.475 128.200 C 244.700 127.540,245.045 126.069,245.242 124.932 C 245.440 123.794,245.961 122.024,246.401 120.999 C 247.518 118.391,247.490 118.198,245.453 114.600 C 243.615 111.353,241.215 111.363,239.773 114.622 C 238.520 117.456,236.049 118.080,231.951 116.598 C 230.988 116.250,228.580 115.420,226.600 114.753 C 224.620 114.086,222.460 113.287,221.800 112.976 C 221.140 112.666,219.880 112.229,219.000 112.004 C 214.825 110.937,213.726 106.469,213.591 90.000 C 213.561 86.370,213.360 81.870,213.143 80.000 C 212.709 76.237,212.188 63.346,211.774 46.118 L 211.503 34.836 212.607 32.953 L 213.710 31.069 212.355 29.951 C 209.811 27.853,206.400 28.023,206.400 30.248 C 206.400 33.311,199.600 37.661,192.400 39.204 C 191.190 39.463,189.324 39.928,188.254 40.238 C 187.184 40.547,186.004 40.800,185.632 40.800 C 185.260 40.800,184.345 41.250,183.600 41.800 C 182.855 42.350,182.020 42.800,181.745 42.800 C 180.751 42.800,178.391 44.502,178.221 45.341 C 176.854 52.103,178.334 74.960,180.534 81.052 C 180.862 81.960,181.259 83.760,181.416 85.052 C 181.573 86.343,181.928 87.850,182.204 88.400 C 182.480 88.950,182.835 90.210,182.994 91.200 C 183.153 92.190,183.529 93.540,183.830 94.200 C 184.132 94.860,184.629 96.863,184.935 98.650 C 185.241 100.438,185.629 102.124,185.798 102.397 C 187.957 105.890,186.801 107.200,181.560 107.200 C 179.133 107.200,176.793 107.390,176.359 107.622 C 175.926 107.854,173.693 108.290,171.397 108.591 C 169.100 108.893,167.061 109.239,166.865 109.360 C 166.458 109.612,163.378 108.211,163.002 107.603 C 162.306 106.478,160.101 107.527,159.482 109.278 C 159.338 109.686,158.636 110.050,157.721 110.192 C 149.637 111.449,145.636 114.996,148.375 118.478 C 148.802 119.020,149.277 119.966,149.431 120.582 C 150.526 124.943,164.478 140.014,169.898 142.689 C 171.841 143.649,171.999 143.654,177.052 142.956 C 178.494 142.756,178.964 142.910,180.748 144.164 C 181.872 144.954,182.960 145.600,183.165 145.600 C 183.371 145.600,184.047 146.025,184.669 146.545 C 185.291 147.065,186.215 147.621,186.723 147.779 C 187.292 147.958,187.597 148.324,187.518 148.734 C 187.405 149.326,186.281 149.428,177.395 149.649 C 171.898 149.785,166.680 150.085,165.800 150.315 C 163.357 150.952,155.958 151.320,154.763 150.864 C 153.438 150.358,146.407 142.428,145.554 140.478 C 145.198 139.665,144.148 138.190,143.220 137.200 C 142.293 136.210,141.099 134.770,140.567 134.000 C 138.435 130.912,136.696 128.558,135.968 127.774 C 135.545 127.320,135.200 126.767,135.200 126.544 C 135.200 126.322,134.390 125.097,133.400 123.822 C 132.410 122.547,131.600 121.283,131.600 121.013 C 131.600 120.743,131.240 120.107,130.800 119.600 C 130.360 119.093,130.000 118.539,130.000 118.369 C 130.000 118.200,129.579 117.553,129.064 116.931 C 128.014 115.662,126.605 113.174,121.440 103.469 C 120.758 102.187,119.978 100.747,119.706 100.269 C 119.434 99.791,119.209 99.107,119.206 98.749 C 119.203 98.391,118.931 97.874,118.601 97.601 C 118.272 97.328,117.747 96.271,117.434 95.252 C 116.932 93.615,115.799 90.966,114.847 89.200 C 114.669 88.870,114.296 87.610,114.017 86.400 C 113.738 85.190,113.292 83.840,113.026 83.400 C 112.548 82.609,112.238 80.982,111.010 72.800 C 110.664 70.490,110.204 67.599,109.990 66.376 C 109.466 63.387,109.496 56.795,110.044 54.477 C 110.976 50.537,112.478 46.168,113.165 45.400 C 113.559 44.960,113.992 44.285,114.128 43.900 C 114.477 42.910,115.600 43.016,115.600 44.040 C 115.600 44.501,115.349 45.446,115.043 46.140 C 113.385 49.889,113.215 63.326,114.771 67.600 C 114.971 68.150,115.234 69.059,115.355 69.620 C 115.656 71.016,118.485 74.000,119.507 74.000 C 120.674 74.000,121.002 72.182,120.187 70.231 C 119.412 68.375,119.228 61.531,119.930 60.684 C 120.183 60.380,120.641 59.426,120.948 58.565 C 122.898 53.099,130.082 44.137,133.075 43.436 C 136.700 42.587,137.072 41.942,135.097 39.928 C 130.553 35.294,127.848 34.286,123.975 35.786 C 123.570 35.943,123.172 35.695,122.844 35.082 C 122.565 34.561,121.316 33.628,120.069 33.008 C 118.821 32.388,117.530 31.653,117.200 31.374 C 113.825 28.523,103.901 27.601,98.800 29.664 M150.577 107.238 C 150.246 107.772,151.508 108.897,152.184 108.672 C 152.413 108.596,152.600 108.188,152.600 107.767 C 152.600 106.883,151.047 106.477,150.577 107.238 M190.096 120.700 C 190.828 121.525,192.000 124.853,192.000 126.103 C 192.000 126.584,192.345 128.153,192.766 129.589 C 193.187 131.025,193.806 133.640,194.141 135.400 C 194.476 137.160,194.937 139.320,195.165 140.200 C 196.565 145.588,195.058 147.145,191.059 144.442 C 190.212 143.869,189.000 143.109,188.366 142.754 C 187.732 142.398,186.625 141.524,185.906 140.810 C 185.188 140.096,183.905 139.068,183.056 138.523 C 180.037 136.590,176.676 132.734,175.491 129.844 L 174.382 127.140 175.456 124.747 C 176.839 121.665,177.895 121.084,182.400 120.927 C 184.270 120.861,186.520 120.647,187.400 120.450 C 188.280 120.253,189.107 120.071,189.238 120.046 C 189.369 120.021,189.755 120.315,190.096 120.700 M197.046 167.238 C 197.293 167.443,197.604 168.914,197.736 170.506 C 197.868 172.098,198.151 174.347,198.365 175.505 C 198.579 176.663,198.956 180.173,199.203 183.305 C 199.450 186.437,199.910 189.567,200.226 190.260 C 200.860 191.652,200.990 195.481,200.433 196.360 C 199.901 197.201,197.027 194.789,186.664 184.800 C 170.538 169.257,170.770 169.686,178.000 168.809 C 179.650 168.608,182.170 168.243,183.600 167.997 C 191.716 166.600,195.987 166.359,197.046 167.238 M226.200 166.997 C 235.116 168.318,235.831 168.987,231.966 172.394 C 231.837 172.507,231.567 172.898,231.366 173.263 C 231.165 173.627,229.560 175.493,227.800 177.408 C 226.040 179.324,224.433 181.182,224.229 181.537 C 223.202 183.324,219.611 186.571,219.159 186.119 C 218.577 185.537,218.647 168.232,219.237 167.131 C 219.719 166.231,220.874 166.208,226.200 166.997 " stroke="none" fill="#000" fill-rule="evenodd"></path></svg>