<?xml version="1.0" encoding="utf-8"?>
<svg viewBox="0 0 850 850" xmlns="http://www.w3.org/2000/svg">
  <g transform="translate(0 850) scale(.1 -.1)">
<path d="m2149 8407c-328-288-569-676-630-1017-18-98-15-320 5-440 28-172 69-280 131-349l35-38 113-5c130-6 208-30 284-88 48-36 109-123 119-170 3-14 7-31 10-37 3-10 98-13 433-13h430l16 53c38 126 29 251-26 326-37 52-90 82-234 131-286 99-354 163-355 336 0 106 33 223 105 370 98 202 215 331 365 403 68 33 83 36 160 36 72-1 94-5 142-28 109-53 209-193 255-357 14-51 18-102 18-235 0-189-13-268-69-435l-32-95 23-52c25-59 56-175 73-273 6-36 15-209 20-385s12-395 16-487l7-168h-616c-595 0-618-1-671-20-72-28-138-87-167-152l-24-53-3-474-3-473 31-48c36-57 95-107 165-142 65-33 149-58 196-58h38l3 268c3 266 3 267 30 324 53 113 120 172 248 219 64 24 70 24 430 24h365l8-175c36-803 55-1266 52-1268-2-2-68-15-147-28-183-30-437-94-587-146-250-87-502-227-556-310-70-106-184-244-273-330-104-99-204-162-280-174l-42-7v-207c0-318 24-562 71-709 25-78 64-156 139-281 67-110 87-163 102-274 10-75 14-84 52-124 22-23 63-54 90-67l50-25h797 797l12-52c20-94 59-351 65-435 7-79 9-84 43-114 69-60 131-71 190-33l24 16-8 309-7 310 944-3c870-3 949-5 1004-21 60-18 115-47 168-90 48-37 229-36 379 4l38 10v814 815h-64c-82 0-161-26-200-65-24-24-38-56-63-141-66-229-155-398-272-515-83-83-168-131-261-149-32-6-373-10-871-10h-819v98c0 53-7 385-15 736-8 352-13 641-11 643 2 3 159 6 347 8 382 4 583 16 829 46 743 92 1233 331 1460 714 13 22 45 60 72 85 127 119 185 327 158 568-43 394-289 749-637 921-171 84-252 100-583 111-406 15-835 52-1260 110-91 13-200 20-296 20h-151l-7 348c-3 191-11 523-17 737-13 442-8 654 16 770 20 94 34 123 89 190 68 81 108 145 146 233l36 83 80 28c288 99 435 339 398 649l-7 52h-1287-1288l-83-73zm3261-3517c82-24 131-55 261-167 338-292 500-533 499-748-1-78-25-132-91-196-163-159-537-285-1019-345-106-13-926-38-938-28-4 3-31 1101-32 1282v122h364 364l75 30c194 78 364 94 517 50zm-1760-2604c0-534 2-574 47-809 14-76 24-140 21-142-2-2-191-5-418-5-448-1-481 2-586 51-156 73-240 205-265 415-41 347 149 632 545 820 168 79 412 150 611 177 17 2 33 5 38 6 4 0 7-230 7-513z"/>
<path d="m5569 8257c-98-35-166-76-234-139-103-96-145-197-145-350 0-196 91-342 268-426 77-37 78-37 207-37 119 0 135 2 195 28 131 55 236 158 281 275 27 69 36 204 20 284-31 148-132 283-258 345-69 34-84 38-172 40-80 2-107-1-162-20z"/>
<path d="m5505 6644c-103-21-171-41-231-65-69-29-73-32-97-87-57-126-74-282-42-388 34-115 124-214 233-257 173-68 432 10 492 147 56 127 16 396-81 546-52 80-104 110-190 109-35-1-73-3-84-5z"/>
<path d="m5150 2581c-78-24-185-127-265-256-103-165-143-362-95-472 66-155 309-268 500-233 121 22 205 82 254 182 38 78 49 154 43 308-4 109-9 149-29 205-62 177-176 276-318 274-36 0-76-4-90-8z"/>
</g>
</svg>