<?xml version="1.0" encoding="utf-8"?>
<svg viewBox="0 0 850 850" xmlns="http://www.w3.org/2000/svg">
  <g transform="translate(0 850) scale(.1 -.1)">
<path d="m1500 8463c-187-13-501-48-528-59-31-13-33-16-27-51 22-137 83-249 170-315l50-38h163 162v-23c0-30-52-214-83-298-60-158-76-343-43-484 20-85 73-194 123-256l38-46 100-5c134-7 199-32 260-100 58-65 78-130 77-256l-1-93 44-19c177-76 315-82 439-21 108 53 209 184 256 332 27 84 28 81-69 189-92 104-130 111-170 32-25-49-87-107-133-127-21-8-59-15-85-15-186 1-306 229-290 554 6 130 26 216 70 304 110 215 294 317 592 328 123 5 144 3 175-13 70-37 70-36 81-480 6-219 9-769 7-1223s-1-888 1-965 1-195-4-263l-7-123-202 3c-228 4-257 11-295 78-28 51-108 123-170 154-65 33-176 59-218 51-62-11-63-15-63-371 0-480 25-813 63-851 12-12 25-12 78-3 175 32 329 162 329 279 0 63 31 123 79 149 38 21 49 22 246 20l207-3-1-125c-3-318-33-845-52-930-7-28-8-135-4-290 6-225 2-298-39-910-25-366-51-734-57-817l-12-153h-237-237l-46-31c-58-38-99-89-137-171-31-66-62-218-49-239 7-13 866-23 1649-19 414 2 410 1 410 71 0 23-7 68-16 102-30 115-85 199-170 258l-43 29h-220-221v846c0 835 0 846-20 875-65 91-165 341-211 527l-22 93 33 34c18 18 56 44 84 56 99 44 280 24 459-51l74-31 149-224 149-225h627 626l26 44c33 57 65 139 76 194 13 72-3 106-73 160-244 187-424 360-463 447-46 99-12 108 133 36 154-78 430-264 833-561l185-137 115-12c186-20 522-26 622-11 177 25 346 144 477 334 43 62 155 292 179 366 57 177 73 375 66 803l-5 298-36 107c-84 249-134 334-256 430-247 194-618 299-1129 319l-158 6v91c0 98-11 128-68 189-58 62-174 117-277 132l-45 7v-784-785l51 8c136 22 236 80 311 183l28 39v309 310l218-4 217-4 102-35c330-116 502-355 520-724 15-313-77-601-260-817-91-108-252-210-375-238-87-20-197-9-262 26-77 41-309 275-385 387-32 48-63 87-69 87s-57 7-113 15c-199 28-358 80-477 155-76 48-125 100-163 172l-28 53-3 1013c-2 712 1 1019 8 1033 6 11 26 29 43 39 31 19 55 20 590 20h557v-68c0-58 4-75 28-113 52-81 136-139 251-173 30-9 69-16 86-16 30 0 34 5 59 59 14 32 25 73 24 92 0 19-1 258-2 531-1 604 12 554-147 552-122-1-190-23-257-80-39-33-42-39-42-85 0-27-11-92-25-145s-25-108-25-122c0-42-38-108-80-137-73-51-95-54-353-49-235 5-240 5-322 35-48 17-124 57-177 92-75 50-101 74-135 126-76 114-88 157-88 306 1 108 4 141 23 195 37 109 101 168 200 185 119 20 234 169 260 341 7 42 6 59-4 69-23 22-107 35-312 46-224 12-909 3-959-12-38-12-47-35-38-95 26-174 146-333 264-349 100-14 169-82 206-205 14-50 16-207 15-1693-1-1756 1-1711-51-1867-82-249-240-410-459-466-173-44-345 45-432 223-31 64-33 74-33 173 0 123 17 172 83 238l40 40 118 3c109 4 123 6 167 32 53 31 107 99 133 166 14 37 15 48 3 83-20 63-85 145-137 175l-47 28-377 3c-348 3-378 4-378 20 0 31 68 305 100 405 35 110 110 293 140 345 20 33 20 57 20 1361 0 1047-3 1330-12 1342-30 36-150 42-893 45-452 2-742 7-780 13-56 10-150 12-255 4z"/>
<path d="m5755 2780c-103-22-187-86-226-173-19-43-23-69-23-147 0-113 24-179 84-234 59-53 114-69 217-64 213 10 323 130 311 338-7 127-71 218-183 259-64 24-129 31-180 21z"/>
<path d="m3025 527c-143-48-215-132-215-249 1-69 26-123 82-174 57-53 131-79 223-78 60 0 79 4 125 30 99 55 156 188 130 304-10 44-22 64-59 101-28 29-62 51-86 58-65 19-156 22-200 8z"/>
</g>
</svg>