<svg id="svg" version="1.1" xmlns="http://www.w3.org/2000/svg" xmlns:xlink="http://www.w3.org/1999/xlink" width="400" height="400" viewBox="0, 0, 400,400"><path id="path0" d="M170.000 67.642 C 167.057 67.784,164.192 68.155,163.036 68.542 C 161.956 68.904,160.516 69.208,159.836 69.218 C 159.156 69.227,157.880 69.503,157.000 69.831 C 156.120 70.159,154.472 70.588,153.337 70.786 C 152.203 70.984,150.458 71.518,149.459 71.973 C 148.461 72.428,147.246 72.800,146.761 72.800 C 145.914 72.800,144.520 73.391,138.800 76.178 C 134.753 78.149,130.614 80.476,130.464 80.864 C 130.389 81.058,129.809 81.485,129.174 81.813 C 128.540 82.141,127.121 83.532,126.020 84.905 C 124.920 86.277,123.530 87.977,122.932 88.681 C 120.815 91.175,117.615 97.884,117.184 100.734 C 116.962 102.200,116.536 104.300,116.238 105.400 C 115.750 107.199,115.771 107.601,116.448 109.400 C 116.861 110.500,117.200 111.726,117.200 112.125 C 117.201 115.569,123.694 122.843,128.871 125.201 L 130.600 125.988 131.498 124.894 C 132.690 123.441,132.482 122.945,129.812 120.870 C 128.543 119.883,126.800 116.157,126.800 114.432 C 126.801 112.568,129.665 105.896,131.076 104.471 C 131.364 104.181,131.600 103.701,131.600 103.405 C 131.600 102.511,137.632 97.243,139.866 96.186 C 141.014 95.643,142.065 95.019,142.200 94.799 C 142.336 94.580,142.754 94.400,143.130 94.400 C 143.505 94.400,144.463 94.051,145.260 93.624 C 146.976 92.704,158.000 90.758,158.000 91.374 C 158.000 92.042,156.166 94.000,155.143 94.423 C 154.514 94.684,154.000 95.043,154.000 95.222 C 154.000 95.400,153.649 95.657,153.221 95.793 C 151.144 96.452,145.600 104.047,145.600 106.232 C 145.600 106.588,145.311 107.488,144.958 108.231 C 144.090 110.062,145.376 113.323,147.876 115.627 C 150.304 117.865,150.422 117.812,151.950 113.800 C 152.453 112.480,152.985 111.091,153.132 110.712 C 153.550 109.641,156.868 105.805,158.200 104.854 C 158.860 104.382,160.072 103.479,160.894 102.846 C 161.715 102.213,163.515 101.246,164.894 100.697 C 173.243 97.370,174.375 97.139,183.256 96.959 L 189.513 96.833 189.709 97.857 C 189.872 98.708,189.693 98.970,188.652 99.408 C 187.964 99.697,186.860 100.503,186.200 101.198 C 183.928 103.591,176.250 108.313,172.540 109.598 C 170.615 110.265,168.941 110.971,168.820 111.166 C 168.699 111.361,167.568 111.820,166.307 112.186 C 165.046 112.553,163.911 113.021,163.784 113.226 C 163.657 113.432,163.247 113.600,162.873 113.600 C 162.499 113.600,161.348 114.050,160.315 114.600 C 159.282 115.150,158.152 115.600,157.804 115.600 C 157.456 115.600,155.813 116.320,154.152 117.200 C 152.491 118.080,150.922 118.801,150.666 118.803 C 150.410 118.805,148.231 119.705,145.825 120.803 C 143.418 121.901,141.286 122.800,141.086 122.800 C 140.887 122.800,140.246 123.136,139.662 123.548 C 139.078 123.959,138.150 124.433,137.600 124.601 C 137.050 124.770,136.510 125.038,136.400 125.197 C 136.290 125.356,135.300 125.933,134.200 126.480 C 129.167 128.983,126.868 130.242,125.191 131.414 C 124.196 132.109,122.727 132.894,121.926 133.158 C 119.848 133.844,116.384 135.819,112.564 138.496 C 111.704 139.098,110.550 139.902,110.000 140.280 C 94.134 151.212,86.724 168.343,92.826 179.984 C 96.335 186.676,102.113 190.796,105.318 188.890 C 107.497 187.595,106.701 185.386,103.894 184.937 C 102.968 184.789,101.724 184.182,100.946 183.499 L 99.600 182.317 99.600 178.117 C 99.600 174.434,99.723 173.671,100.600 171.925 C 101.150 170.830,101.600 169.762,101.600 169.551 C 101.600 169.340,101.936 168.680,102.346 168.084 C 102.756 167.488,103.777 165.933,104.615 164.629 C 107.156 160.672,113.400 154.800,115.068 154.800 C 115.206 154.800,116.590 154.068,118.143 153.172 C 119.696 152.277,121.694 151.393,122.583 151.208 C 123.472 151.022,125.229 150.639,126.487 150.355 C 128.775 149.840,130.008 150.116,128.697 150.850 C 128.314 151.064,128.000 151.489,128.000 151.793 C 128.000 152.097,127.663 152.453,127.251 152.584 C 126.839 152.715,125.201 154.181,123.612 155.842 C 120.414 159.185,120.371 159.355,121.620 163.701 C 122.297 166.056,121.406 170.088,119.669 172.531 C 117.955 174.941,111.323 176.739,110.646 174.977 C 110.354 174.216,107.154 174.319,106.898 175.098 C 106.605 175.989,110.246 178.966,112.800 179.926 C 117.621 181.736,121.661 182.070,125.029 180.936 C 127.528 180.095,127.686 179.853,127.413 177.281 C 127.216 175.422,127.362 174.802,128.594 172.239 C 129.367 170.631,130.003 169.065,130.008 168.758 C 130.012 168.451,130.507 167.461,131.108 166.557 C 131.708 165.654,132.672 164.209,133.248 163.347 C 134.904 160.871,142.671 153.416,144.325 152.714 C 144.696 152.556,145.720 151.888,146.600 151.229 C 149.513 149.048,155.630 146.203,156.034 146.841 C 156.592 147.723,156.506 147.950,154.600 150.621 C 153.610 152.008,152.800 153.410,152.800 153.736 C 152.800 154.062,152.080 155.239,151.200 156.352 C 150.320 157.466,149.600 158.507,149.600 158.667 C 149.600 158.826,149.181 159.597,148.669 160.378 C 148.157 161.160,147.285 162.520,146.730 163.400 C 146.175 164.280,145.089 165.990,144.316 167.200 C 143.543 168.410,141.871 171.380,140.600 173.800 C 139.329 176.220,138.066 178.470,137.792 178.800 C 137.518 179.130,137.163 179.850,137.002 180.400 C 136.841 180.950,136.369 181.961,135.954 182.647 C 135.539 183.333,135.200 184.164,135.200 184.493 C 135.200 184.823,134.863 185.521,134.452 186.046 C 134.041 186.571,133.568 187.630,133.402 188.400 C 133.236 189.170,132.778 190.430,132.386 191.200 C 131.352 193.226,129.600 197.909,129.600 198.646 C 129.600 198.993,129.328 199.754,128.995 200.338 C 128.234 201.672,126.910 205.521,126.221 208.400 C 125.932 209.610,125.403 211.269,125.047 212.087 C 124.691 212.905,124.399 213.895,124.398 214.287 C 124.396 214.679,124.149 215.472,123.847 216.050 C 123.546 216.627,123.076 218.067,122.804 219.250 C 122.531 220.432,122.067 222.030,121.773 222.800 C 121.479 223.570,121.033 225.252,120.783 226.538 C 120.532 227.824,120.081 229.466,119.780 230.187 C 119.400 231.096,119.185 233.935,119.078 239.449 C 118.924 247.337,118.914 247.413,117.831 249.000 C 117.230 249.880,115.305 253.570,113.553 257.200 C 110.313 263.911,109.687 265.177,108.900 266.600 C 108.186 267.891,106.800 271.027,106.800 271.351 C 106.800 271.515,106.367 272.583,105.837 273.725 C 103.815 278.082,103.200 279.575,103.200 280.124 C 103.200 280.437,102.863 281.121,102.452 281.646 C 102.041 282.171,101.567 283.230,101.400 284.000 C 101.233 284.770,100.759 285.829,100.348 286.354 C 99.937 286.879,99.600 287.694,99.600 288.165 C 99.600 288.636,99.350 289.379,99.045 289.814 C 98.740 290.250,98.259 291.415,97.976 292.403 C 97.693 293.392,97.243 294.470,96.976 294.800 C 96.709 295.130,96.290 296.354,96.045 297.520 C 95.800 298.686,95.330 300.162,95.000 300.800 C 94.670 301.438,94.400 302.334,94.400 302.790 C 94.400 303.247,94.039 304.648,93.597 305.905 C 91.759 311.135,91.776 318.937,93.628 319.912 C 94.836 320.548,106.378 320.235,113.000 319.386 C 115.420 319.076,119.560 318.713,122.200 318.580 C 129.278 318.222,140.275 316.550,142.887 315.435 C 143.705 315.086,144.785 314.792,145.287 314.782 C 145.789 314.773,146.920 314.488,147.800 314.150 C 148.680 313.811,150.300 313.301,151.400 313.016 C 152.500 312.731,153.850 312.301,154.400 312.062 C 154.950 311.822,157.110 310.981,159.200 310.195 C 163.440 308.598,166.028 307.469,167.900 306.400 C 168.285 306.180,169.050 305.818,169.600 305.596 C 170.150 305.373,171.320 304.737,172.200 304.182 C 173.080 303.627,174.409 302.896,175.154 302.558 C 175.899 302.220,176.979 301.621,177.554 301.225 C 178.129 300.830,179.429 299.980,180.442 299.337 C 182.676 297.919,187.809 293.930,191.949 290.395 C 193.627 288.963,195.720 287.259,196.600 286.609 C 198.828 284.963,201.906 281.823,203.966 279.094 C 206.417 275.847,208.344 274.076,209.766 273.764 C 210.438 273.616,211.351 273.263,211.794 272.980 C 212.237 272.697,213.405 272.253,214.388 271.993 C 215.372 271.734,216.537 271.269,216.977 270.961 C 217.418 270.652,218.323 270.396,218.989 270.391 C 219.655 270.386,220.965 270.035,221.899 269.611 C 222.834 269.187,224.724 268.730,226.099 268.596 C 227.475 268.461,230.525 268.072,232.877 267.731 C 240.193 266.671,253.083 267.616,260.400 269.749 C 261.610 270.102,263.126 270.393,263.770 270.395 C 265.038 270.400,270.012 271.992,272.626 273.230 C 273.521 273.654,274.401 274.000,274.582 274.000 C 274.879 274.000,276.258 274.592,279.200 275.981 C 283.249 277.893,287.409 281.250,287.807 282.925 C 288.103 284.170,287.168 285.778,284.222 289.093 C 280.252 293.561,275.418 297.274,270.600 299.557 C 269.060 300.287,267.443 301.073,267.007 301.303 C 266.571 301.534,264.771 302.061,263.007 302.475 C 261.243 302.889,258.630 303.507,257.200 303.848 C 247.108 306.259,235.209 301.628,235.201 295.286 C 235.198 292.484,240.040 285.106,242.245 284.553 C 242.712 284.436,243.506 283.783,244.009 283.103 L 244.923 281.866 243.613 280.695 C 242.635 279.822,242.034 279.577,241.251 279.734 C 236.195 280.749,234.765 281.169,233.802 281.927 C 233.192 282.407,232.503 282.800,232.272 282.800 C 232.041 282.800,231.480 283.144,231.026 283.565 C 230.572 283.986,229.350 284.779,228.310 285.328 C 220.582 289.408,215.793 302.065,219.429 308.799 C 222.079 313.707,226.751 317.064,233.905 319.202 C 239.300 320.814,255.887 319.975,262.400 317.761 C 263.390 317.424,265.010 316.899,266.000 316.593 C 269.146 315.620,272.549 314.385,274.200 313.616 C 275.080 313.207,276.880 312.368,278.200 311.753 C 279.520 311.138,280.696 310.499,280.814 310.333 C 280.932 310.167,281.666 309.764,282.446 309.439 C 283.226 309.113,284.096 308.566,284.381 308.223 C 284.665 307.880,285.072 307.600,285.285 307.600 C 285.740 307.600,293.793 300.991,295.692 299.059 C 298.041 296.669,300.181 294.221,300.866 293.141 C 301.236 292.559,302.497 291.086,303.669 289.868 C 304.841 288.650,306.009 287.327,306.263 286.927 C 306.784 286.109,309.150 288.307,309.184 289.640 C 309.193 289.993,309.620 291.073,310.132 292.040 C 310.645 293.008,311.183 294.395,311.327 295.123 C 311.471 295.851,311.849 296.706,312.166 297.023 C 313.582 298.439,313.493 308.855,312.030 312.890 C 311.574 314.150,311.200 315.725,311.200 316.390 C 311.200 317.061,310.848 317.952,310.410 318.390 C 309.976 318.824,309.509 319.625,309.372 320.169 C 308.860 322.209,305.104 323.600,300.105 323.600 C 295.257 323.600,295.434 323.671,291.280 320.059 C 288.951 318.033,288.711 317.917,288.108 318.520 C 287.222 319.406,287.916 326.297,288.949 326.876 C 289.307 327.076,289.600 327.465,289.600 327.739 C 289.600 328.688,292.751 331.515,294.473 332.111 C 300.276 334.120,302.647 334.409,305.062 333.400 C 305.851 333.070,306.881 332.800,307.350 332.800 C 310.192 332.800,317.269 327.530,320.017 323.368 C 321.364 321.329,321.527 321.037,322.348 319.200 C 326.280 310.407,327.709 302.271,326.245 297.010 C 325.938 295.904,325.573 294.190,325.435 293.200 C 325.062 290.533,323.701 287.094,320.449 280.600 C 319.466 278.638,318.286 276.933,314.913 272.607 C 312.846 269.956,312.630 269.161,313.160 266.160 C 314.459 258.803,312.731 244.797,310.176 241.974 C 309.865 241.629,309.497 240.784,309.359 240.094 C 309.221 239.405,308.769 238.534,308.354 238.158 C 307.939 237.783,307.600 237.252,307.600 236.979 C 307.600 236.471,305.185 233.557,302.977 231.400 C 301.301 229.762,296.220 226.398,294.668 225.898 C 293.971 225.673,292.950 225.264,292.400 224.988 C 291.850 224.713,290.320 224.268,289.000 224.000 C 287.680 223.732,286.385 223.339,286.123 223.126 C 285.860 222.914,284.286 222.610,282.624 222.451 C 278.835 222.089,278.135 221.521,279.800 220.158 C 285.408 215.565,299.113 213.217,304.432 215.937 C 308.639 218.089,310.041 214.251,306.109 211.344 C 303.066 209.094,294.995 206.453,293.541 207.231 C 293.147 207.442,291.064 207.690,288.912 207.782 C 282.935 208.036,274.992 209.660,273.042 211.026 C 272.591 211.342,271.924 211.600,271.559 211.600 C 270.639 211.600,254.850 218.900,250.800 221.198 C 247.763 222.921,242.793 226.011,241.634 226.895 C 239.508 228.519,239.517 228.512,237.926 229.700 C 237.116 230.305,236.306 230.802,236.127 230.804 C 235.947 230.807,234.955 231.588,233.921 232.541 C 232.012 234.303,231.294 234.866,228.800 236.559 C 228.030 237.082,226.500 238.354,225.400 239.386 C 224.300 240.418,222.230 242.279,220.800 243.522 C 219.370 244.764,216.738 247.195,214.950 248.924 C 209.290 254.400,206.105 256.031,196.400 258.426 C 190.406 259.905,188.261 260.412,185.400 261.028 C 183.860 261.360,182.150 261.868,181.600 262.156 C 178.680 263.690,156.783 264.145,153.594 262.739 C 149.841 261.085,148.409 255.787,150.150 250.000 C 150.448 249.010,150.813 247.120,150.961 245.800 C 151.186 243.796,153.646 235.085,155.253 230.600 C 155.490 229.940,155.992 228.320,156.369 227.000 C 156.746 225.680,157.258 224.240,157.507 223.800 C 157.756 223.360,158.454 221.830,159.058 220.400 C 159.662 218.970,160.527 217.308,160.978 216.707 C 163.130 213.843,163.511 213.293,164.381 211.800 C 167.901 205.752,170.433 202.192,173.342 199.200 C 173.663 198.870,174.851 197.430,175.983 196.000 C 177.114 194.570,178.795 192.500,179.718 191.400 C 181.963 188.723,213.717 157.030,216.188 155.000 C 217.259 154.120,218.972 152.590,219.995 151.600 C 221.017 150.610,222.519 149.294,223.332 148.676 C 225.903 146.720,241.317 130.883,241.825 129.676 C 242.092 129.040,242.601 128.408,242.956 128.272 C 244.968 127.500,242.379 122.800,239.942 122.800 C 239.730 122.800,238.779 122.446,237.829 122.013 C 236.878 121.580,235.257 121.037,234.225 120.806 C 233.193 120.574,231.956 120.136,231.475 119.831 C 230.994 119.526,229.790 119.151,228.800 118.997 C 227.810 118.843,226.460 118.477,225.800 118.184 C 225.140 117.891,223.610 117.564,222.400 117.457 C 213.587 116.678,206.283 116.353,202.082 116.552 L 197.164 116.785 197.868 115.592 C 198.256 114.936,198.899 114.295,199.298 114.169 C 202.849 113.042,217.390 97.999,217.129 95.723 C 217.011 94.692,216.835 94.583,215.000 94.393 C 212.535 94.138,212.000 93.818,212.000 92.600 C 212.000 90.246,221.956 89.514,227.600 91.453 C 233.733 93.560,234.746 92.981,232.591 88.600 C 232.050 87.500,231.606 86.412,231.604 86.183 C 231.592 84.800,225.521 80.355,219.200 77.101 C 217.550 76.251,216.029 75.386,215.820 75.178 C 215.611 74.970,215.179 74.800,214.860 74.800 C 214.308 74.800,211.511 73.584,208.340 71.967 C 207.537 71.557,206.097 71.106,205.140 70.964 C 204.183 70.822,203.028 70.474,202.574 70.192 C 199.769 68.448,182.031 67.059,170.000 67.642 M166.945 124.600 C 167.515 126.086,164.951 127.747,161.360 128.219 C 158.635 128.577,157.962 127.505,160.304 126.538 C 161.127 126.198,162.070 125.684,162.400 125.394 C 162.955 124.908,165.191 124.120,166.257 124.036 C 166.509 124.016,166.818 124.270,166.945 124.600 M221.984 132.181 C 222.706 133.050,222.178 134.125,220.292 135.626 C 219.362 136.367,217.820 137.699,216.866 138.586 C 215.912 139.474,214.832 140.366,214.466 140.569 C 214.100 140.772,213.565 141.267,213.277 141.669 C 212.990 142.071,212.504 142.400,212.197 142.400 C 211.891 142.400,211.496 142.626,211.320 142.903 C 210.808 143.706,206.133 147.600,205.679 147.600 C 205.452 147.600,205.207 147.735,205.133 147.901 C 205.005 148.189,200.116 152.140,197.832 153.800 C 195.641 155.393,190.995 158.977,190.800 159.225 C 190.690 159.365,188.890 160.894,186.800 162.623 C 180.762 167.618,166.957 181.766,161.916 188.126 C 160.837 189.487,159.589 191.050,159.142 191.600 C 158.694 192.150,158.136 193.005,157.900 193.500 C 157.664 193.995,157.338 194.400,157.175 194.400 C 157.012 194.400,156.681 194.895,156.439 195.500 C 156.198 196.105,155.281 197.590,154.401 198.800 C 153.521 200.010,152.801 201.122,152.801 201.272 C 152.800 201.421,152.108 202.591,151.262 203.872 C 150.416 205.152,149.598 206.715,149.443 207.345 C 149.168 208.464,147.253 211.200,146.743 211.200 C 146.024 211.200,146.051 209.044,146.792 207.419 C 147.236 206.443,147.608 205.139,147.618 204.522 C 147.627 203.905,147.916 202.680,148.259 201.800 C 148.603 200.920,149.094 199.300,149.352 198.200 C 149.609 197.100,150.022 195.840,150.269 195.400 C 150.516 194.960,150.927 193.790,151.182 192.800 C 151.911 189.977,153.610 185.663,154.051 185.516 C 154.271 185.443,154.553 184.629,154.676 183.708 C 154.800 182.786,155.238 181.727,155.650 181.354 C 156.063 180.981,156.400 180.407,156.400 180.078 C 156.400 179.541,157.963 175.933,158.859 174.400 C 159.052 174.070,159.577 172.999,160.025 172.020 C 160.474 171.040,161.461 169.375,162.220 168.319 C 162.979 167.262,163.600 166.297,163.600 166.172 C 163.600 166.048,164.050 165.357,164.600 164.636 C 165.150 163.914,165.600 163.213,165.600 163.076 C 165.600 162.940,166.142 162.057,166.804 161.114 C 169.816 156.827,170.400 155.940,170.400 155.659 C 170.400 155.404,171.683 153.397,174.400 149.402 C 174.730 148.916,175.347 147.997,175.772 147.360 C 176.197 146.722,176.743 146.020,176.987 145.800 C 177.230 145.580,177.856 144.793,178.377 144.050 C 178.951 143.233,180.151 142.335,181.417 141.775 C 185.479 139.979,202.141 138.532,208.637 139.411 C 212.010 139.867,213.907 138.604,212.345 136.941 C 211.474 136.014,211.853 133.600,212.870 133.600 C 213.075 133.600,213.905 133.150,214.714 132.600 C 216.472 131.406,221.118 131.138,221.984 132.181 M256.141 231.904 C 256.360 232.259,255.749 233.626,253.805 237.134 C 253.032 238.527,252.394 240.057,252.387 240.534 C 252.380 241.010,252.110 241.749,251.787 242.176 C 250.761 243.534,251.013 246.732,252.188 247.267 C 253.297 247.773,254.400 247.188,254.400 246.094 C 254.400 244.093,265.680 236.391,268.600 236.398 C 269.040 236.399,270.347 236.040,271.504 235.600 C 276.205 233.813,283.402 234.808,287.269 237.778 C 287.858 238.230,289.070 239.127,289.962 239.771 C 292.715 241.757,296.114 250.290,296.109 255.200 C 296.107 257.293,294.339 267.358,293.785 268.428 C 292.892 270.156,292.720 270.118,289.973 267.590 C 287.447 265.267,278.510 260.349,275.400 259.572 C 274.740 259.407,273.169 258.895,271.910 258.436 C 270.650 257.976,268.924 257.600,268.074 257.600 C 267.223 257.600,265.644 257.332,264.564 257.005 C 260.441 255.756,238.167 255.186,234.200 256.228 C 232.390 256.704,231.863 255.574,232.970 253.594 C 233.522 252.607,234.255 251.180,234.599 250.422 C 234.943 249.664,235.484 248.764,235.802 248.422 C 236.119 248.080,237.622 246.360,239.141 244.600 C 240.660 242.840,242.779 240.680,243.850 239.800 C 244.921 238.920,246.627 237.435,247.640 236.500 C 248.654 235.565,249.644 234.797,249.841 234.793 C 250.220 234.785,253.518 232.694,254.200 232.030 C 254.683 231.559,255.880 231.482,256.141 231.904 M227.941 255.830 C 228.592 257.259,228.317 257.503,225.694 257.831 C 222.393 258.243,221.949 257.557,224.400 255.827 C 226.242 254.528,227.348 254.528,227.941 255.830 M140.466 278.804 C 141.602 280.340,146.711 282.820,151.400 284.111 C 154.582 284.987,170.714 284.653,172.800 283.668 C 173.790 283.200,175.053 282.814,175.606 282.809 C 176.159 282.804,177.260 282.453,178.052 282.028 C 178.844 281.604,180.191 281.132,181.046 280.981 C 181.901 280.829,184.087 279.997,185.904 279.131 C 191.310 276.557,191.114 278.801,185.600 282.606 C 184.830 283.138,183.480 284.113,182.600 284.772 C 176.737 289.169,171.893 292.164,168.623 293.412 C 167.606 293.801,166.679 294.272,166.563 294.459 C 166.448 294.647,165.899 294.800,165.345 294.800 C 164.790 294.800,163.226 295.233,161.868 295.761 C 160.511 296.290,158.680 296.943,157.800 297.213 C 156.920 297.483,156.020 297.841,155.800 298.009 C 155.580 298.176,154.320 298.524,153.000 298.782 C 151.680 299.041,149.790 299.496,148.800 299.795 C 144.971 300.952,131.371 301.315,129.309 300.315 C 127.503 299.440,127.190 292.576,128.863 290.531 C 129.074 290.273,129.823 288.923,130.527 287.531 C 134.467 279.748,138.528 276.182,140.466 278.804 M109.720 301.682 C 109.998 303.756,109.857 304.000,108.376 304.000 C 107.157 304.000,107.059 303.818,107.197 301.800 C 107.376 299.187,109.373 299.093,109.720 301.682 " stroke="none" fill="#000" fill-rule="evenodd"></path></svg>