<svg id="svg" version="1.1" xmlns="http://www.w3.org/2000/svg" xmlns:xlink="http://www.w3.org/1999/xlink" width="400" height="400" viewBox="0, 0, 400,400"><path id="path0" d="M190.667 34.667 C 189.456 35.877,190.447 37.828,193.222 39.695 C 195.568 41.273,201.264 46.701,202.353 48.397 C 202.708 48.949,204.114 50.871,205.478 52.669 C 206.842 54.467,208.543 56.987,209.259 58.269 C 209.974 59.551,210.685 60.690,210.838 60.800 C 210.992 60.910,211.317 61.744,211.561 62.653 C 211.806 63.563,212.263 64.520,212.577 64.781 C 212.891 65.042,213.262 65.770,213.400 66.400 C 213.538 67.030,213.909 67.758,214.223 68.019 C 214.537 68.280,214.984 69.237,215.216 70.147 C 215.448 71.056,215.888 72.340,216.193 73.000 C 217.167 75.105,218.038 78.111,218.590 81.271 C 218.885 82.960,219.395 85.300,219.725 86.471 C 220.232 88.277,220.471 92.324,220.488 99.400 C 220.500 104.219,219.995 113.008,219.644 114.088 C 219.410 114.809,219.043 116.971,218.828 118.891 C 218.614 120.811,218.279 122.701,218.085 123.091 C 217.891 123.481,217.505 124.880,217.228 126.200 C 216.951 127.520,216.401 129.320,216.007 130.200 C 215.612 131.080,215.174 132.457,215.034 133.260 C 214.894 134.063,214.525 134.930,214.215 135.187 C 213.905 135.445,213.526 136.228,213.372 136.928 C 213.218 137.627,212.757 138.435,212.346 138.723 C 211.936 139.010,211.600 139.484,211.600 139.776 C 211.600 140.068,210.854 140.981,209.941 141.806 C 206.906 144.548,209.048 146.421,215.354 146.540 C 219.445 146.618,220.042 147.489,217.800 150.108 C 217.030 151.008,216.400 151.883,216.400 152.054 C 216.400 152.224,215.050 153.004,213.400 153.787 C 211.750 154.570,210.400 155.291,210.400 155.390 C 210.400 155.661,213.767 162.171,214.026 162.400 C 214.151 162.510,214.934 163.635,215.766 164.901 C 218.845 169.583,220.868 170.742,225.525 170.490 C 227.644 170.375,231.200 166.291,231.200 163.972 C 231.200 163.743,231.586 162.711,232.058 161.678 C 232.529 160.645,233.149 158.900,233.435 157.800 C 233.721 156.700,234.320 154.450,234.765 152.800 C 235.210 151.150,235.746 149.080,235.955 148.200 C 237.640 141.124,238.073 138.749,238.430 134.645 C 238.654 132.065,239.011 129.496,239.225 128.935 C 239.889 127.188,239.737 113.484,239.004 109.000 C 238.222 104.219,236.533 96.275,235.941 94.600 C 235.708 93.940,235.256 92.336,234.936 91.036 C 234.616 89.736,234.120 88.206,233.834 87.636 C 233.547 87.066,233.208 85.922,233.081 85.094 C 232.953 84.265,232.477 83.116,232.024 82.540 C 231.571 81.964,231.200 81.181,231.200 80.800 C 231.200 80.419,230.840 79.650,230.400 79.091 C 229.960 78.531,229.600 77.895,229.600 77.678 C 229.600 77.460,229.060 76.255,228.400 75.000 C 227.740 73.745,227.200 72.467,227.200 72.159 C 227.200 71.852,227.032 71.600,226.827 71.600 C 226.622 71.600,226.340 71.241,226.201 70.803 C 226.062 70.365,225.195 69.060,224.274 67.903 C 223.353 66.746,222.420 65.502,222.200 65.138 C 220.861 62.921,217.720 58.635,216.561 57.441 C 215.812 56.670,215.194 55.896,215.187 55.720 C 215.179 55.544,214.369 54.511,213.387 53.425 C 212.404 52.339,211.600 51.264,211.600 51.036 C 211.600 50.808,210.385 49.428,208.900 47.970 C 207.415 46.511,205.235 44.301,204.055 43.059 C 202.875 41.817,201.729 40.800,201.508 40.800 C 201.286 40.800,200.452 40.254,199.653 39.586 C 197.509 37.795,197.434 37.742,196.062 37.032 C 195.368 36.673,194.800 36.195,194.800 35.969 C 194.800 35.162,191.281 34.052,190.667 34.667 M141.596 60.772 C 140.343 62.076,139.007 63.741,138.626 64.472 C 138.246 65.202,137.655 66.340,137.314 67.000 C 136.973 67.660,136.437 68.496,136.124 68.857 C 135.447 69.637,133.231 74.021,133.213 74.615 C 133.206 74.844,132.840 75.737,132.400 76.600 C 131.960 77.463,131.600 78.629,131.600 79.191 C 131.600 79.752,131.248 80.868,130.819 81.670 C 130.389 82.472,129.914 84.089,129.764 85.264 C 129.614 86.439,129.269 87.850,128.998 88.400 C 128.726 88.950,128.383 90.300,128.234 91.400 C 128.086 92.500,127.704 94.300,127.387 95.400 C 125.361 102.406,125.412 147.684,127.452 153.943 C 128.160 156.116,127.814 158.184,126.588 159.107 C 126.081 159.488,124.333 160.758,122.703 161.930 C 118.689 164.815,110.555 173.208,105.254 179.936 C 103.515 182.144,102.559 183.617,101.317 186.000 C 101.031 186.550,100.270 187.810,99.626 188.800 C 97.653 191.833,96.127 194.550,95.809 195.600 C 95.642 196.150,95.294 196.870,95.037 197.200 C 94.779 197.530,94.058 198.970,93.436 200.400 C 92.813 201.830,92.149 203.270,91.960 203.600 C 91.539 204.338,89.436 208.347,87.268 212.547 C 86.374 214.278,85.524 216.235,85.379 216.896 C 85.234 217.558,84.792 218.662,84.398 219.349 C 84.003 220.037,83.192 222.220,82.596 224.200 C 81.999 226.180,81.276 228.340,80.989 229.000 C 79.414 232.620,77.764 239.965,76.631 248.400 C 76.320 250.710,75.848 253.201,75.581 253.937 C 74.963 255.641,75.356 260.318,76.384 263.479 C 76.800 264.756,77.267 266.520,77.422 267.400 C 77.905 270.131,79.638 271.481,87.800 275.486 C 91.434 277.270,91.859 277.549,96.230 281.043 C 98.462 282.826,100.807 284.415,101.442 284.575 C 102.076 284.734,102.801 285.035,103.052 285.244 C 103.806 285.869,107.362 287.597,107.900 287.598 C 108.942 287.602,108.464 285.254,107.300 284.650 C 104.389 283.138,98.000 274.193,98.000 271.628 C 98.000 271.266,97.648 270.279,97.218 269.436 C 96.788 268.592,96.228 266.889,95.973 265.651 C 95.719 264.413,95.313 263.040,95.072 262.600 C 94.831 262.160,94.488 260.000,94.309 257.800 C 94.130 255.600,93.893 252.810,93.782 251.600 C 93.619 249.819,93.730 249.211,94.363 248.406 C 95.430 247.050,95.560 247.305,96.226 252.056 C 96.545 254.335,96.969 256.740,97.168 257.400 C 97.368 258.060,97.647 259.581,97.790 260.779 C 97.932 261.978,98.293 263.418,98.591 263.979 C 98.889 264.541,99.784 266.350,100.580 268.000 C 103.110 273.246,106.602 277.605,109.599 279.257 C 110.369 279.682,111.720 280.464,112.600 280.994 C 114.891 282.375,115.923 282.800,116.990 282.800 C 117.506 282.800,119.070 283.158,120.464 283.595 C 122.049 284.092,124.200 284.401,126.200 284.419 C 129.751 284.451,132.334 284.843,134.310 285.649 C 137.542 286.967,137.992 284.460,135.215 280.614 C 132.856 277.346,132.509 275.955,133.136 272.293 C 134.293 265.542,132.272 263.646,129.066 268.472 C 123.177 277.338,112.019 268.664,109.935 253.600 C 108.661 244.396,110.570 218.772,112.974 212.800 C 113.284 212.030,113.745 210.502,113.998 209.405 C 114.252 208.308,114.617 207.221,114.809 206.989 C 115.002 206.757,115.357 205.675,115.598 204.584 C 115.839 203.493,116.973 200.737,118.118 198.459 C 120.961 192.805,121.126 192.505,122.762 189.996 C 123.553 188.784,124.435 187.338,124.722 186.782 C 125.632 185.018,132.030 177.543,132.496 177.699 C 132.742 177.781,133.136 178.196,133.371 178.622 C 133.607 179.048,134.083 179.847,134.428 180.398 C 134.774 180.949,135.381 182.300,135.778 183.400 C 136.174 184.500,137.017 186.226,137.649 187.235 C 138.282 188.244,138.800 189.181,138.800 189.317 C 138.800 189.633,140.164 191.624,142.202 194.285 C 143.081 195.432,144.495 197.286,145.345 198.405 C 146.195 199.524,148.175 201.543,149.745 202.891 C 151.315 204.239,152.780 205.559,153.000 205.825 C 155.199 208.483,158.208 209.518,160.435 208.382 C 162.446 207.356,162.635 206.849,161.999 204.197 C 161.612 202.583,161.595 201.688,161.928 200.531 C 163.603 194.714,163.549 195.047,162.960 194.114 C 162.147 192.828,162.267 191.092,163.224 190.272 C 163.801 189.778,164.011 189.191,163.924 188.315 C 163.793 186.990,163.868 187.048,158.451 184.111 C 155.286 182.395,152.404 179.477,148.600 174.138 C 146.232 170.816,147.389 168.790,152.681 166.993 C 153.726 166.638,154.765 166.201,154.990 166.022 C 155.216 165.842,156.030 165.607,156.800 165.499 C 157.570 165.391,159.640 164.897,161.400 164.400 C 167.513 162.675,178.149 163.483,185.200 166.207 C 185.970 166.505,187.281 166.956,188.113 167.209 C 189.780 167.717,193.100 169.472,193.929 170.283 C 194.219 170.567,194.696 170.800,194.989 170.800 C 196.436 170.800,206.400 181.840,206.400 183.444 C 206.400 183.694,206.739 184.686,207.154 185.649 C 207.729 186.985,207.957 188.753,208.117 193.113 L 208.326 198.827 207.120 201.113 C 202.481 209.912,193.924 210.605,189.895 202.509 C 188.437 199.580,188.550 199.344,191.610 198.906 C 194.588 198.480,194.837 197.210,192.437 194.695 C 191.547 193.763,190.433 192.493,189.960 191.874 C 185.807 186.430,181.288 189.497,181.521 197.600 C 181.745 205.389,183.784 210.426,188.909 215.849 L 190.467 217.498 190.232 220.649 C 189.366 232.270,189.855 247.487,191.174 249.951 C 191.376 250.329,191.816 252.477,192.150 254.724 C 192.485 256.971,192.867 258.985,193.000 259.199 C 193.132 259.413,193.400 260.573,193.596 261.777 C 193.981 264.143,197.398 274.099,198.268 275.389 C 198.561 275.823,198.800 276.473,198.800 276.833 C 198.800 277.542,200.963 281.824,201.814 282.800 C 202.102 283.130,202.458 283.882,202.605 284.471 C 202.752 285.059,203.216 285.852,203.636 286.233 C 204.056 286.613,204.400 287.183,204.400 287.500 C 204.400 287.817,204.756 288.576,205.190 289.186 C 205.625 289.796,206.168 290.724,206.398 291.248 C 206.628 291.771,207.334 293.010,207.968 294.000 C 208.601 294.990,209.704 296.925,210.420 298.300 C 211.135 299.675,211.844 300.800,211.997 300.800 C 212.149 300.800,212.617 301.459,213.037 302.265 C 213.457 303.071,214.748 305.276,215.906 307.165 C 217.064 309.054,218.369 311.320,218.806 312.200 C 219.243 313.080,220.058 314.520,220.616 315.400 C 221.887 317.403,224.401 322.605,226.513 327.600 C 229.733 335.217,230.638 346.725,228.475 352.563 C 227.994 353.862,227.598 355.302,227.596 355.763 C 227.590 356.843,222.565 362.254,221.062 362.797 C 220.217 363.103,219.410 363.056,217.920 362.613 C 213.400 361.271,213.372 364.488,217.884 366.754 C 220.529 368.082,224.243 367.355,227.369 364.896 C 227.996 364.403,228.619 363.999,228.754 363.998 C 229.097 363.996,231.296 361.860,231.893 360.951 C 232.164 360.538,232.804 359.568,233.316 358.795 C 234.552 356.930,236.106 353.906,237.220 351.200 C 239.073 346.697,238.685 333.726,236.400 323.800 C 235.483 319.816,234.358 315.741,234.001 315.114 C 233.786 314.736,233.445 313.746,233.243 312.914 C 233.041 312.081,232.514 310.500,232.072 309.400 C 231.630 308.300,230.784 306.050,230.193 304.400 C 229.602 302.750,228.953 301.130,228.751 300.800 C 228.549 300.470,228.109 299.570,227.774 298.800 C 227.439 298.030,227.005 297.040,226.810 296.600 C 226.615 296.160,226.250 295.128,225.999 294.306 C 225.747 293.484,225.374 292.708,225.170 292.581 C 224.588 292.222,222.400 287.606,222.400 286.738 C 222.400 286.309,222.052 285.293,221.626 284.479 C 221.200 283.666,220.416 282.010,219.883 280.800 C 219.350 279.590,218.529 277.740,218.057 276.689 C 217.586 275.638,217.200 274.551,217.200 274.274 C 217.200 273.996,216.850 273.084,216.423 272.246 C 215.996 271.408,215.524 270.154,215.374 269.461 C 215.224 268.767,214.692 267.120,214.192 265.800 C 212.731 261.947,211.592 258.263,211.593 257.400 C 211.594 256.960,211.309 256.060,210.960 255.400 C 210.611 254.740,210.163 253.030,209.964 251.600 C 209.765 250.170,209.348 248.280,209.037 247.400 C 208.351 245.457,207.371 228.010,207.732 224.150 C 208.079 220.426,208.119 220.400,213.300 220.400 C 218.792 220.400,220.646 219.539,224.644 215.130 C 229.042 210.280,229.213 198.056,225.010 189.000 C 224.499 187.900,223.957 186.583,223.805 186.073 C 223.653 185.564,222.825 183.904,221.965 182.386 C 221.104 180.867,220.400 179.427,220.400 179.186 C 220.400 178.815,218.673 176.243,217.993 175.600 C 217.877 175.490,217.440 174.865,217.023 174.210 C 215.507 171.833,210.226 166.422,207.375 164.325 C 206.289 163.526,204.950 162.385,204.400 161.788 C 203.850 161.192,202.680 160.368,201.800 159.957 C 200.184 159.203,199.428 158.774,197.592 157.572 C 197.038 157.209,196.138 156.778,195.592 156.615 C 195.047 156.451,194.150 156.024,193.600 155.667 C 192.032 154.649,187.248 152.800,186.181 152.800 C 185.650 152.800,184.538 152.531,183.708 152.203 C 182.879 151.875,180.760 151.344,179.000 151.024 C 177.240 150.704,174.015 150.070,171.833 149.616 C 169.652 149.161,167.312 148.891,166.633 149.016 C 165.955 149.140,163.150 149.392,160.400 149.575 C 153.988 150.001,147.329 151.317,141.800 153.249 C 141.140 153.480,140.308 153.758,139.951 153.868 C 138.840 154.208,137.559 151.871,137.174 148.802 C 136.983 147.282,136.558 145.395,136.229 144.608 C 135.900 143.821,135.522 141.787,135.389 140.089 C 135.255 138.390,134.776 134.660,134.323 131.800 C 133.594 127.190,133.495 124.648,133.450 109.400 L 133.400 92.200 134.513 86.600 C 135.125 83.520,135.980 79.871,136.413 78.492 C 136.846 77.112,137.200 75.430,137.200 74.753 C 137.200 74.077,137.464 73.046,137.787 72.462 C 138.111 71.878,138.655 70.770,138.998 70.000 C 139.341 69.230,139.844 68.240,140.116 67.800 C 140.388 67.360,141.145 66.103,141.798 65.006 C 142.452 63.909,143.605 62.469,144.362 61.806 C 146.808 59.663,146.873 59.570,146.365 58.958 C 145.385 57.777,143.947 58.324,141.596 60.772 M332.525 105.700 C 332.734 106.973,334.213 111.218,335.139 113.200 C 335.866 114.755,336.901 120.004,336.875 122.000 C 336.764 130.489,335.976 138.418,334.994 140.908 C 334.667 141.738,334.400 142.958,334.400 143.620 C 334.400 144.282,333.950 145.893,333.400 147.200 C 332.850 148.507,332.400 149.997,332.400 150.511 C 332.400 151.026,332.133 151.796,331.806 152.224 C 331.480 152.651,331.026 153.665,330.797 154.479 C 330.568 155.292,329.770 157.037,329.024 158.358 C 328.278 159.678,327.543 161.172,327.392 161.679 C 327.240 162.185,326.325 163.783,325.358 165.229 C 324.391 166.675,323.598 168.025,323.595 168.229 C 323.592 168.433,322.422 169.749,320.995 171.154 C 319.568 172.559,318.400 173.868,318.400 174.062 C 318.400 174.359,311.556 182.185,310.759 182.800 C 310.616 182.910,309.987 183.360,309.361 183.800 C 308.172 184.636,306.614 186.143,303.619 189.354 C 302.640 190.404,301.290 191.540,300.619 191.879 C 299.949 192.218,298.113 193.552,296.540 194.843 C 294.967 196.133,293.257 197.371,292.740 197.594 C 292.223 197.816,291.530 198.179,291.200 198.399 C 290.870 198.620,290.150 198.984,289.600 199.208 C 289.050 199.433,287.790 200.144,286.800 200.790 C 285.810 201.435,283.920 202.495,282.600 203.146 C 276.340 206.232,272.496 207.978,271.400 208.232 C 270.740 208.385,269.987 208.677,269.727 208.882 C 269.245 209.260,260.764 211.285,257.729 211.746 C 253.098 212.450,247.171 211.068,245.349 208.859 C 244.329 207.622,242.400 208.113,242.400 209.609 C 242.400 210.351,237.411 216.799,236.836 216.800 C 236.632 216.801,235.605 217.590,233.683 219.224 C 232.641 220.110,235.094 223.532,237.266 224.221 C 239.594 224.960,237.347 226.400,233.865 226.400 C 230.904 226.400,229.422 227.997,231.297 229.168 C 234.460 231.143,252.357 232.020,257.516 230.453 C 259.061 229.984,260.606 229.600,260.951 229.600 C 261.295 229.600,262.595 229.150,263.838 228.600 C 265.082 228.050,266.421 227.600,266.813 227.600 C 267.205 227.600,268.398 227.163,269.463 226.629 C 270.528 226.095,273.380 224.715,275.800 223.562 C 278.220 222.409,281.148 220.866,282.308 220.133 C 283.467 219.400,284.637 218.797,284.908 218.793 C 285.339 218.786,287.615 217.410,289.690 215.902 C 290.069 215.626,291.303 214.860,292.432 214.200 C 295.642 212.323,304.443 205.646,307.800 202.540 C 308.241 202.133,309.321 201.270,310.200 200.622 C 312.615 198.843,317.189 193.919,320.800 189.210 C 321.350 188.492,322.205 187.406,322.700 186.795 C 323.195 186.184,323.600 185.519,323.600 185.318 C 323.600 185.116,323.920 184.602,324.310 184.175 C 325.713 182.644,330.138 175.083,331.202 172.400 C 331.420 171.850,331.765 171.130,331.970 170.800 C 332.174 170.470,332.607 169.390,332.933 168.400 C 333.818 165.706,334.769 163.146,335.385 161.800 C 335.687 161.140,336.059 159.923,336.212 159.096 C 336.365 158.268,336.638 157.500,336.817 157.389 C 337.373 157.046,339.151 151.071,339.625 147.957 C 339.872 146.330,340.325 143.920,340.631 142.600 C 341.287 139.774,341.409 127.725,340.804 125.614 C 340.586 124.855,340.128 122.344,339.785 120.034 C 339.442 117.725,339.013 115.647,338.833 115.418 C 338.652 115.188,338.285 114.064,338.017 112.920 C 337.749 111.776,337.280 110.633,336.975 110.380 C 336.671 110.127,336.307 109.313,336.168 108.572 C 335.944 107.375,335.611 106.813,333.992 104.900 C 333.117 103.867,332.298 104.314,332.525 105.700 M332.426 203.900 C 331.064 207.217,325.867 213.727,322.653 216.143 C 321.524 216.992,320.510 217.806,320.400 217.952 C 318.569 220.387,307.563 227.547,305.589 227.587 C 305.253 227.594,304.580 227.879,304.093 228.220 C 303.606 228.561,302.081 229.082,300.704 229.377 C 299.327 229.673,297.696 230.113,297.079 230.355 C 296.462 230.598,294.458 230.967,292.625 231.175 C 290.792 231.383,288.382 231.851,287.270 232.215 C 285.316 232.854,282.903 232.854,279.800 232.215 C 278.943 232.039,278.203 232.215,277.212 232.831 L 275.824 233.695 276.954 234.596 C 278.203 235.592,285.394 236.317,288.879 235.800 C 289.826 235.659,292.040 235.490,293.800 235.424 C 298.385 235.253,304.187 234.542,305.134 234.035 C 305.580 233.797,307.171 233.317,308.669 232.969 C 310.167 232.622,311.575 232.193,311.797 232.015 C 312.018 231.838,312.830 231.566,313.600 231.411 C 315.351 231.060,318.653 229.640,322.123 227.747 C 323.780 226.843,328.221 222.222,328.682 220.924 C 328.901 220.306,329.303 219.170,329.575 218.400 C 329.847 217.630,330.339 216.010,330.669 214.800 C 330.999 213.590,331.948 211.160,332.777 209.400 C 335.418 203.793,335.574 202.800,333.816 202.800 C 333.169 202.800,332.738 203.142,332.426 203.900 " stroke="none" fill="#000" fill-rule="evenodd"></path></svg>