<?xml version="1.0" encoding="utf-8"?>
<svg viewBox="0 0 850 850" xmlns="http://www.w3.org/2000/svg">
  <g transform="translate(0 850) scale(.1 -.1)">
<path d="m3874 8411c-8-79 1-265 17-341 26-124 84-203 174-238 70-27 87-54 93-146l5-76h-460c-281 0-482 4-517 11-126 23-202 77-258 181-58 109-171 192-300 223-119 28-286 15-307-23-19-37-22-156-7-359 21-277 21-533 0-638-16-87-12-156 12-176 22-18 210-24 286-9 92 17 174 61 248 130 73 69 149 112 228 129 31 6 157 11 306 11 248 0 255 1 307 25 93 42 175 59 289 59 145-1 176-11 243-84 58-62 90-130 108-227 14-74 5-1540-10-1848-11-207-11-344 0-795 8-311 14-966 14-1525v-980l-48-120c-122-300-256-479-423-561l-78-39h-425c-417 0-427 0-474 22-65 30-148 112-180 177-65 133-61 47-65 1400l-3 1228-30 45c-45 64-104 197-123 274-20 83-21 227-1 304 22 84 76 195 137 279 67 92 133 217 147 282 10 42 8 82-14 260-44 344-28 506 54 548 21 11 59 16 129 16 91 0 101 2 143 28 96 62 175 180 200 301 12 57 8 241-6 274-7 16-48 17-666 17-766 0-692 12-704-116-13-154 25-280 123-408 28-36 67-98 87-139l36-73 6-439c6-456-10-1520-27-1800-5-88-18-223-27-300-16-120-18-228-18-770 0-623 7-814 41-1210 22-256 61-519 84-573 11-24 49-75 84-113 36-38 84-92 107-121 43-55 109-180 109-209 0-9 8-23 18-32 129-117 777-141 1094-41 77 25 84 29 182 128 121 121 197 166 280 166 123 0 172-42 186-157 16-121 48-185 106-209 20-9 69-14 124-14h91l34 72c18 40 38 97 44 126 8 37 11 418 11 1282v1229l25 135c27 148 67 284 96 332 18 30 19 60 19 632v600l-34 51c-100 149-108 290-26 456 22 44 44 100 49 125 7 27 11 270 11 618v572h154c236 0 403 37 579 127 86 45 91 46 172 44 175-4 298 40 343 124 14 26 16 75 13 375-3 469 18 655 91 791 33 63 67 90 133 108 86 23 194 133 234 238 26 68 44 178 36 219-11 63-139 159-253 190-65 18-65 18-170-20-73-27-227-47-441-55-231-10-265-18-340-86-34-31-41-44-41-74 0-59 28-160 62-223 33-62 120-150 174-175 90-43 165-283 180-578 11-205-21-302-140-421-121-121-286-184-480-184-105 0-185 15-263 50l-43 19v295 295l-79 78c-88 87-121 154-121 244 0 66 20 110 79 175 66 72 120 222 121 336 0 53-6 62-67 109-164 124-463 207-795 222l-87 3-7-65z"/>
<path d="m3437 3804c-95-23-167-63-237-134-77-77-113-140-140-246-24-94-26-231-5-295 63-183 329-246 561-132 125 61 194 156 202 278 4 61-1 92-32 202-60 216-103 305-161 329-42 17-112 17-188-2z"/>
<path d="m3364 2221c-253-69-382-258-345-506 18-124 66-197 160-244 61-31 306-91 343-85 97 19 254 150 307 258 22 44 23 57 18 145-12 208-91 358-226 426-52 26-171 29-257 6z"/>
</g>
</svg>