<svg id="svg" version="1.1" xmlns="http://www.w3.org/2000/svg" xmlns:xlink="http://www.w3.org/1999/xlink" width="400" height="400" viewBox="0, 0, 400,400"><path id="path0" d="M107.783 48.700 C 107.444 49.085,106.274 50.506,105.183 51.859 L 103.200 54.317 103.200 61.883 C 103.200 68.048,103.342 70.000,103.969 72.425 C 104.392 74.061,104.861 76.480,105.011 77.800 C 105.162 79.120,105.513 80.564,105.792 81.009 C 106.071 81.454,106.424 82.624,106.578 83.609 C 106.813 85.115,108.800 89.767,111.038 94.051 C 111.340 94.629,111.778 95.992,112.012 97.080 C 112.274 98.304,113.001 99.766,113.918 100.916 C 115.751 103.214,117.040 105.261,117.419 106.475 C 117.906 108.039,121.241 113.700,122.795 115.600 C 125.365 118.744,129.365 123.769,130.400 125.157 C 131.794 127.026,133.269 128.759,134.129 129.539 C 134.529 129.903,135.096 130.740,135.389 131.400 C 135.681 132.060,136.433 133.099,137.060 133.709 C 139.327 135.915,142.606 138.785,142.867 138.792 C 143.014 138.796,144.724 140.350,146.667 142.245 C 148.973 144.493,151.173 146.205,153.000 147.172 C 154.540 147.987,156.179 148.894,156.642 149.187 C 157.300 149.604,158.305 149.641,161.242 149.360 L 165.000 149.000 165.000 147.600 C 165.000 146.291,164.883 146.163,163.200 145.635 C 159.725 144.545,158.652 143.880,155.838 141.071 C 152.779 138.018,149.200 133.732,149.200 133.122 C 149.200 132.915,148.390 131.752,147.400 130.536 C 146.410 129.321,145.588 128.118,145.573 127.863 C 145.559 127.608,144.933 126.590,144.182 125.600 C 143.432 124.610,142.537 123.260,142.195 122.600 C 141.852 121.940,141.134 120.680,140.599 119.800 C 139.647 118.233,138.036 114.989,136.228 111.000 C 135.729 109.900,134.955 108.190,134.507 107.200 C 134.059 106.210,133.221 104.458,132.646 103.307 C 132.071 102.156,131.600 100.864,131.600 100.436 C 131.600 100.008,131.358 99.415,131.062 99.120 C 130.767 98.824,130.292 97.326,130.008 95.791 C 129.724 94.256,129.236 92.348,128.923 91.552 C 128.603 90.736,128.408 89.164,128.477 87.952 L 128.600 85.800 130.526 85.677 C 132.413 85.557,132.864 85.700,137.800 87.994 C 143.413 90.602,145.619 91.707,145.801 92.002 C 145.916 92.187,146.505 92.447,147.110 92.580 C 147.715 92.713,148.838 93.449,149.605 94.214 C 150.372 94.980,151.900 96.226,153.000 96.984 C 158.850 101.010,160.779 102.667,164.400 106.778 C 165.830 108.401,167.270 110.019,167.600 110.372 C 167.930 110.724,168.547 111.547,168.971 112.200 C 169.644 113.237,171.202 115.069,173.200 117.173 C 173.530 117.520,174.378 118.703,175.085 119.802 C 175.792 120.901,176.638 122.076,176.965 122.414 C 177.729 123.204,179.600 125.957,179.600 126.292 C 179.600 126.433,179.941 126.920,180.357 127.374 C 180.774 127.828,181.528 129.190,182.033 130.400 C 182.537 131.610,183.700 133.686,184.615 135.012 C 185.531 136.339,186.496 138.080,186.761 138.880 C 187.025 139.681,187.502 140.552,187.820 140.817 C 188.139 141.082,188.400 141.594,188.400 141.956 C 188.400 142.318,188.850 143.277,189.400 144.086 C 189.950 144.895,190.400 145.674,190.400 145.816 C 190.400 145.958,190.760 146.531,191.200 147.091 C 191.640 147.650,192.000 148.387,192.000 148.728 C 192.000 149.069,192.342 150.079,192.760 150.974 C 193.178 151.868,193.742 153.320,194.012 154.200 C 194.283 155.080,194.700 156.046,194.940 156.346 C 195.384 156.904,195.883 158.124,197.236 161.957 C 197.654 163.143,198.146 164.313,198.328 164.557 C 198.511 164.801,198.892 165.808,199.175 166.797 C 199.458 167.785,199.940 168.950,200.245 169.386 C 200.550 169.821,200.802 170.453,200.804 170.789 C 200.806 171.125,201.250 172.300,201.791 173.400 C 202.332 174.500,202.781 175.902,202.787 176.516 C 202.794 177.130,203.136 178.300,203.546 179.116 C 203.956 179.932,204.419 181.301,204.575 182.158 C 204.731 183.016,205.150 184.163,205.507 184.707 C 205.864 185.252,206.286 186.531,206.444 187.549 C 206.721 189.325,207.025 190.382,208.842 195.887 C 209.293 197.254,209.551 198.724,209.415 199.153 C 209.131 200.047,210.209 205.087,210.848 205.858 C 211.082 206.140,211.448 207.770,211.660 209.479 C 211.872 211.189,212.305 212.874,212.623 213.225 C 212.940 213.576,213.200 214.163,213.200 214.530 C 213.200 214.897,213.556 216.233,213.990 217.498 C 214.425 218.764,214.954 221.330,215.165 223.200 C 215.377 225.070,215.815 227.140,216.138 227.800 C 216.461 228.460,216.846 230.530,216.993 232.400 C 217.140 234.270,217.624 237.870,218.069 240.400 C 219.919 250.929,220.214 300.738,218.475 309.000 C 216.888 316.544,210.332 317.130,202.809 310.400 C 202.440 310.070,201.684 309.530,201.129 309.200 C 200.574 308.870,198.973 307.250,197.571 305.600 C 194.243 301.684,194.312 301.767,193.506 300.710 C 193.125 300.210,192.270 299.100,191.606 298.245 C 190.943 297.390,190.399 296.400,190.399 296.045 C 190.398 295.690,190.038 294.811,189.599 294.090 C 189.159 293.370,188.800 292.542,188.800 292.250 C 188.800 291.958,188.360 290.891,187.822 289.880 C 187.284 288.868,186.718 287.356,186.564 286.520 C 186.410 285.684,185.950 284.571,185.542 284.046 C 185.134 283.521,184.800 282.745,184.800 282.320 C 184.800 281.895,184.610 281.193,184.378 280.759 C 183.701 279.493,182.709 272.836,182.761 269.901 C 182.787 268.417,182.607 266.881,182.362 266.487 C 182.017 265.935,182.108 265.148,182.757 263.044 C 184.376 257.803,182.872 255.418,179.315 257.586 C 175.898 259.670,174.631 262.427,174.161 268.800 C 173.600 276.405,174.088 289.249,175.018 291.400 C 175.304 292.060,175.824 293.626,176.174 294.880 C 176.524 296.133,176.988 297.269,177.205 297.403 C 177.422 297.537,177.602 298.132,177.604 298.724 C 177.606 299.316,178.056 300.763,178.604 301.940 C 179.152 303.117,179.601 304.377,179.602 304.740 C 179.604 305.103,179.888 305.940,180.235 306.600 C 180.581 307.260,181.470 309.330,182.210 311.200 C 183.661 314.868,184.851 317.312,185.691 318.348 C 185.982 318.706,186.830 320.260,187.576 321.800 C 189.089 324.922,193.370 329.458,196.134 330.869 C 197.840 331.738,197.606 332.382,195.580 332.394 C 193.382 332.407,193.032 334.153,194.600 337.275 C 195.150 338.370,195.600 339.436,195.600 339.644 C 195.600 339.852,196.770 341.646,198.200 343.630 C 199.630 345.614,200.800 347.412,200.800 347.626 C 200.800 350.014,206.156 356.258,210.465 358.894 C 211.496 359.525,211.601 359.799,211.615 361.894 C 211.635 365.035,213.562 367.565,215.322 366.763 C 216.424 366.261,216.761 365.071,215.945 364.566 C 215.389 364.223,215.712 357.576,216.366 355.875 C 216.604 355.257,216.913 353.457,217.052 351.875 C 217.191 350.294,217.618 348.280,217.999 347.400 C 218.381 346.520,218.822 345.260,218.978 344.600 C 219.135 343.940,219.984 341.870,220.867 340.000 C 223.308 334.823,223.892 333.489,224.193 332.400 C 224.345 331.850,225.193 329.870,226.076 328.000 C 226.960 326.130,228.114 323.682,228.642 322.560 C 229.169 321.438,229.600 320.268,229.599 319.960 C 229.598 319.652,229.947 318.680,230.373 317.800 C 231.524 315.427,232.694 311.320,232.995 308.600 C 233.141 307.280,233.605 305.030,234.024 303.600 C 234.444 302.170,235.051 298.840,235.373 296.200 C 235.694 293.560,236.218 289.510,236.537 287.200 C 237.411 280.866,238.150 265.626,237.837 260.400 C 237.685 257.870,237.496 254.069,237.416 251.952 C 237.235 247.159,236.527 242.378,235.776 240.872 C 235.462 240.242,235.014 237.870,234.781 235.601 C 234.548 233.333,234.097 230.477,233.779 229.254 C 233.460 228.032,233.200 226.293,233.200 225.389 C 233.200 223.365,232.447 219.147,231.986 218.586 C 231.798 218.359,231.468 217.069,231.250 215.720 C 231.033 214.371,230.596 212.757,230.280 212.134 C 229.963 211.510,229.576 210.100,229.421 209.000 C 229.265 207.900,228.894 206.620,228.597 206.157 C 228.299 205.693,227.847 204.163,227.593 202.757 C 227.338 201.350,226.979 200.018,226.795 199.795 C 226.610 199.572,226.243 198.492,225.980 197.395 C 225.716 196.298,225.276 195.037,225.002 194.594 C 224.729 194.151,224.370 193.161,224.204 192.394 C 224.039 191.627,223.639 190.483,223.316 189.851 C 222.993 189.219,222.187 186.879,221.525 184.651 C 220.863 182.423,219.979 180.039,219.561 179.353 C 219.142 178.667,218.800 177.877,218.800 177.597 C 218.800 177.112,218.316 175.971,216.156 171.360 C 215.630 170.238,215.196 168.978,215.191 168.560 C 215.186 168.142,214.830 167.350,214.400 166.800 C 213.970 166.250,213.614 165.617,213.609 165.393 C 213.604 165.169,213.174 164.359,212.654 163.593 C 212.133 162.827,211.579 161.615,211.422 160.900 C 211.265 160.185,210.985 159.600,210.799 159.600 C 210.614 159.600,210.255 158.971,210.001 158.203 C 209.747 157.435,209.304 156.670,209.015 156.503 C 208.726 156.336,208.278 155.172,208.020 153.915 C 207.761 152.659,207.156 150.921,206.675 150.054 C 204.489 146.116,203.141 143.957,202.099 142.728 C 201.481 141.998,200.186 139.780,199.223 137.800 C 198.259 135.820,197.050 133.627,196.536 132.927 C 196.021 132.226,195.600 131.483,195.600 131.276 C 195.600 131.068,195.345 130.686,195.033 130.427 C 194.554 130.030,193.315 128.147,190.679 123.811 C 190.416 123.377,189.439 122.027,188.510 120.811 C 187.580 119.595,186.320 117.917,185.710 117.083 C 185.099 116.248,183.475 114.247,182.100 112.635 C 180.725 111.023,179.597 109.546,179.593 109.352 C 179.589 109.159,179.112 108.550,178.532 108.000 C 177.953 107.450,176.809 106.100,175.992 105.000 C 175.174 103.900,172.760 101.200,170.627 99.000 C 165.800 94.022,165.600 93.800,165.600 93.435 C 165.600 92.973,154.670 81.602,154.209 81.585 C 153.984 81.577,153.170 80.738,152.400 79.721 C 150.675 77.443,148.038 74.882,147.100 74.575 C 146.715 74.449,146.400 74.184,146.400 73.985 C 146.400 73.787,145.455 72.991,144.300 72.216 C 140.862 69.910,137.550 67.307,136.933 66.425 C 136.615 65.971,136.177 65.600,135.960 65.600 C 135.744 65.600,135.349 65.430,135.083 65.222 C 134.620 64.861,130.282 61.109,128.587 59.605 C 128.140 59.208,127.150 58.595,126.387 58.243 C 125.624 57.890,123.651 56.611,122.002 55.401 C 120.353 54.190,118.852 53.200,118.665 53.200 C 118.479 53.200,117.869 52.840,117.309 52.400 C 116.750 51.960,116.027 51.600,115.704 51.600 C 115.380 51.600,114.581 51.150,113.927 50.600 C 113.273 50.050,112.510 49.600,112.231 49.600 C 111.952 49.600,111.398 49.240,111.000 48.800 C 110.107 47.813,108.606 47.767,107.783 48.700 M240.757 57.530 C 239.743 57.942,238.132 58.405,237.177 58.557 C 233.672 59.118,233.164 62.973,236.484 63.807 C 237.706 64.113,241.010 67.289,241.886 69.000 C 242.224 69.660,243.558 71.309,244.850 72.665 C 246.143 74.021,247.200 75.338,247.200 75.592 C 247.200 75.846,247.650 76.643,248.200 77.364 C 248.750 78.086,249.200 78.861,249.200 79.089 C 249.200 79.316,249.446 79.706,249.747 79.956 C 250.047 80.205,250.604 81.397,250.984 82.604 C 251.363 83.811,251.837 84.899,252.037 85.023 C 252.237 85.146,252.400 85.644,252.400 86.130 C 252.400 86.615,252.760 87.684,253.200 88.504 C 253.640 89.325,254.000 90.331,254.000 90.739 C 254.000 91.147,254.450 92.327,255.000 93.362 C 255.550 94.396,256.000 95.460,256.000 95.727 C 256.000 95.994,256.353 96.870,256.784 97.675 C 257.216 98.480,257.850 100.886,258.193 103.022 C 258.537 105.159,258.896 107.032,258.991 107.185 C 259.085 107.338,259.350 108.634,259.578 110.064 C 259.807 111.494,260.262 113.202,260.589 113.858 C 261.463 115.609,261.530 141.177,260.670 144.400 C 260.347 145.610,259.953 147.950,259.795 149.600 C 259.636 151.250,259.239 153.122,258.912 153.759 C 258.585 154.397,258.145 156.197,257.934 157.759 C 257.555 160.562,255.817 166.567,255.127 167.458 C 254.931 167.710,254.608 168.922,254.408 170.152 C 254.208 171.382,253.314 173.882,252.422 175.708 C 251.530 177.534,250.800 179.184,250.800 179.375 C 250.800 180.074,248.459 184.653,247.839 185.168 C 247.488 185.459,247.200 185.918,247.200 186.187 C 247.200 186.456,246.856 186.987,246.436 187.367 C 246.016 187.748,245.553 188.534,245.407 189.115 C 245.028 190.625,240.252 196.151,236.691 199.200 C 232.004 203.212,232.724 205.111,238.775 204.697 C 242.373 204.450,244.248 203.558,247.285 200.648 C 248.302 199.674,249.374 198.724,249.667 198.538 C 249.960 198.352,250.989 197.300,251.954 196.200 C 252.918 195.100,254.194 193.660,254.788 193.000 C 256.171 191.464,259.204 187.696,260.101 186.400 C 260.481 185.850,261.591 184.320,262.567 183.000 C 263.543 181.680,264.992 179.310,265.788 177.734 C 266.584 176.158,267.498 174.651,267.818 174.385 C 268.138 174.119,268.400 173.725,268.400 173.509 C 268.400 173.292,268.850 172.581,269.400 171.927 C 269.950 171.273,270.400 170.495,270.400 170.198 C 270.400 169.900,270.632 169.419,270.915 169.129 C 272.705 167.290,278.669 155.215,279.000 152.760 C 279.160 151.572,279.531 149.880,279.825 149.000 C 280.119 148.120,280.446 146.230,280.552 144.800 C 280.658 143.370,280.944 140.962,281.188 139.449 C 281.432 137.936,281.545 136.612,281.439 136.506 C 281.333 136.399,281.612 135.387,282.059 134.256 C 282.646 132.771,282.808 131.700,282.642 130.400 C 282.330 127.962,282.764 127.322,284.297 127.958 C 285.865 128.607,287.381 127.914,288.039 126.248 C 288.310 125.562,288.746 124.730,289.008 124.400 C 289.696 123.532,291.317 120.267,292.830 116.700 C 293.553 114.995,294.274 113.600,294.432 113.600 C 294.591 113.600,294.942 112.655,295.214 111.500 C 295.485 110.345,295.953 108.914,296.254 108.320 C 296.554 107.726,296.800 106.819,296.800 106.304 C 296.800 105.790,297.160 104.663,297.600 103.800 C 299.521 100.032,298.008 87.600,295.628 87.600 C 295.457 87.600,294.827 87.146,294.229 86.592 C 291.380 83.951,285.732 82.595,284.378 84.227 C 283.545 85.230,284.063 90.683,285.360 94.572 C 286.937 99.298,287.003 108.036,285.507 113.800 C 285.279 114.680,285.121 116.878,285.157 118.685 C 285.222 121.941,284.516 124.800,283.647 124.800 C 282.999 124.800,282.831 123.661,282.642 118.000 C 282.526 114.547,282.251 112.095,281.876 111.200 C 281.511 110.327,281.183 107.543,281.004 103.800 C 280.794 99.422,280.525 97.367,280.007 96.200 C 279.617 95.320,279.169 93.702,279.010 92.605 C 278.852 91.508,278.493 90.158,278.213 89.605 C 277.933 89.052,277.574 87.700,277.416 86.600 C 277.258 85.500,276.785 83.616,276.364 82.414 C 275.944 81.211,275.600 79.541,275.600 78.701 C 275.600 77.861,275.150 76.285,274.600 75.200 C 274.050 74.115,273.600 72.990,273.600 72.700 C 273.600 72.410,272.430 70.932,271.000 69.415 C 269.570 67.898,268.397 66.554,268.394 66.429 C 268.357 64.912,260.045 58.800,258.019 58.800 C 257.557 58.800,256.150 58.427,254.890 57.971 C 251.497 56.742,243.321 56.487,240.757 57.530 " stroke="none" fill="#000" fill-rule="evenodd"></path></svg>