<?xml version="1.0" encoding="utf-8"?>
<svg viewBox="0 0 850 850" xmlns="http://www.w3.org/2000/svg">
  <g transform="translate(0 850) scale(.1 -.1)">
<path d="m7045 8450c-238-30-606-43-825-29-243 15-312 14-350-6l-31-16 7-67c18-174 94-317 213-403 52-37 58-39 129-39 194 0 239-89 229-455-6-218-15-265-70-368-73-139-226-235-424-266-101-16-297-14-389 4-83 16-202 68-244 107-46 42-78 92-94 147-13 46-16 116-16 433v378l26 76c29 86 43 207 26 218-6 4-87 14-179 22-136 13-251 15-598 11-450-6-485-10-525-52-19-21-20-24-6-104 27-152 113-291 225-363 41-25 53-28 132-28h87l41-47c94-109 157-277 168-443 12-204-59-334-229-415-166-80-426-70-544 20-19 15-47 52-63 84-16 31-47 74-70 94-47 42-148 77-223 77h-50l6 38c14 92 18 395 6 484-51 379-241 611-556 682-291 65-617-3-878-184-284-197-540-567-691-1001-30-86-44-111-85-155-107-113-163-230-164-343l-1-63 51-29c28-16 86-39 130-51 74-20 105-22 473-26 448-4 413-10 462 86 21 40 24 61 24 147 0 92-3 105-33 170-18 38-44 84-57 101-36 47-51 151-36 249 38 255 241 478 479 526 246 50 374-166 272-460-35-103-88-192-207-348-388-510-973-1576-1330-2423-471-1116-656-2036-532-2643 57-281 206-662 360-918 262-438 648-744 1038-824 119-24 501-17 576 10 78 29 139 97 167 186 20 65 23 94 23 241v167l-29 30c-61 64-110 71-446 62-195-4-398 91-568 268-85 88-186 242-223 338-34 88-90 297-114 423-62 333-60 826 5 1255 69 449 205 943 345 1255 129 286 268 622 318 766 66 189 171 392 297 574 152 220 176 258 215 356 69 170 257 388 393 457 133 66 193 61 409-34 186-83 263-102 398-102 259 0 553 112 814 311l65 49 47-52c108-118 326-189 664-216 711-57 1234 172 1386 608 14 40 23 105 30 206 15 232 35 353 96 568 28 100 40 129 57 137 92 42 191 167 230 292 31 98 43 228 23 254-20 27-84 28-262 6z"/>
<path d="m3155 5931c-136-34-225-160-212-301 8-96 63-176 151-223 40-21 53-22 431-28 372-5 393-6 451-28 80-29 141-81 150-126 8-45-22-107-78-162-24-23-117-92-208-154s-201-139-245-172c-580-437-870-947-936-1647-22-235 3-683 56-994 76-448 189-713 413-962 189-211 215-249 246-351l15-53h-28c-16 0-40-9-54-21-39-30-50-86-44-219 13-247 76-416 173-456 28-12 367-14 2093-14 2050 0 2059 0 2126 21 158 48 200 171 126 365-53 136-134 231-241 283-55 26-55 26-372 31l-316 5-39 31c-21 17-48 48-61 70-38 65-28 106 72 279 212 368 322 735 366 1219 16 180 14 540-5 681-85 647-420 1171-897 1403-355 173-745 187-1181 42-423-140-725-392-836-695-164-451 101-878 660-1066 106-35 198-40 228-10 22 22 47 172 36 223-20 93-90 164-242 249-146 80-182 128-191 250-17 238 177 485 444 565 77 24 235 23 324 0 91-24 234-96 305-153 130-105 245-282 309-473 143-431 98-918-124-1362-127-252-305-474-535-666-304-255-581-365-874-349-666 37-1280 791-1340 1646-26 364 61 720 241 986 201 296 675 822 943 1046 326 272 623 446 968 568 307 107 593 155 1026 171 135 5 266 14 291 20 33 8 68 31 135 88 114 98 135 129 135 196 0 73-27 177-53 204-51 55 74 52-1924 51-1016-1-1861-4-1878-8z"/>
<path d="m4512 2320c-144-52-251-144-307-262-120-253 33-491 315-491 142-1 262 46 360 139 81 77 115 148 115 244 0 64-4 82-27 120-43 71-189 217-241 240-67 30-151 34-215 10z"/>
</g>
</svg>