<?xml version="1.0" encoding="utf-8"?>
<svg viewBox="0 0 850 850" xmlns="http://www.w3.org/2000/svg">
  <g transform="translate(0 850) scale(.1 -.1)">
<path d="m2390 8470c-246-29-434-143-538-324-88-154-253-292-399-334-76-21-135-79-158-154-45-150-42-436 6-583 31-93 92-182 153-222l48-33h380 379l24 26c38 41 50 96 49 229-1 131-22 239-53 284-11 15-36 36-55 46-42 23-45 45-21 138 32 124 105 226 195 272 114 58 314 85 405 55 65-21 123-67 155-123 25-43 30-63 30-118 0-36-7-87-16-114-17-48-28-61-172-197-104-97-171-267-172-430v-68h636 637l-6 98c-10 177-80 334-190 425-136 112-167 166-167 291 0 101 67 194 178 250 66 33 137 46 252 46 171 0 275-37 361-127 76-80 115-162 140-296 18-96 13-984-5-1029-21-50-54-86-97-108-37-19-61-20-635-20-561 0-602-1-697-21-544-109-1025-381-1278-720-199-266-281-529-281-894 1-253 35-452 112-650 165-420 508-678 967-725 267-28 595 37 882 175 172 83 228 120 252 167 47 91 150 174 262 210 57 19 86 20 377 19 173-1 353-6 400-11 644-75 1067-364 1226-837 66-198 87-462 65-813-42-650-190-1084-464-1360-245-247-568-360-1027-361-288-1-493 54-681 182-379 257-527 774-348 1214 21 51 29 87 29 131 0 123 37 244 101 324 44 55 125 99 264 144 350 113 579 54 689-178 42-86 71-219 63-291-17-163-181-304-405-347-89-17-132-68-132-156 0-34 5-54 18-64 99-89 616-48 800 64 145 87 253 243 297 425 13 55 16 97 12 175-8 155-14 167-108 233-152 107-258 230-300 350-25 72-47 100-124 162-251 201-627 254-1045 149-240-61-423-165-588-334-358-366-489-1007-332-1614 159-616 668-967 1520-1052 622-62 1081 2 1525 213 228 109 403 231 584 406 191 185 324 368 437 600 163 336 237 687 237 1120-2 637-156 1098-482 1438-399 416-1027 626-1956 656l-240 7-87-83c-99-94-174-146-303-208-230-111-543-175-855-175-403 0-677 110-818 328-85 131-124 337-103 549 14 152 31 218 85 328 55 111 129 200 279 333 121 108 189 194 207 263l11 39h789c781 0 790 0 846-21 96-36 165-112 213-232 30-75 100-153 149-167 49-13 288-13 351 1 74 16 127 59 161 130 57 121 49 283-26 505-62 184-66 247-62 1005 3 620 3 624 25 679 36 88 76 135 145 169l61 31h355 355l51-39c98-74 154-210 155-372 1-72-3-93-25-137-61-122-243-205-481-219l-103-6-19-51c-35-93-54-216-55-346l-1-125 50-7c87-12 350-21 388-14 24 4 61 28 112 72 42 35 99 76 126 89 112 57 249 68 421 35 80-15 144-20 285-20h182l7 46c17 113-23 264-91 343-25 30-55 72-66 94-42 80-35 187 17 290 13 27 24 56 24 64 0 31-110 241-181 349-88 131-224 270-333 342-96 62-217 107-328 122-58 8-443 10-1273 7-1074-3-1198-5-1275-21-134-27-295-85-383-138-44-26-82-48-84-48-3 0-25 14-51 32-184 126-546 200-822 168z"/>
<path d="m3300 5422c-135-45-272-146-339-251-93-144-106-355-30-502 30-61 111-136 177-167 50-24 69-27 162-26 123 0 170 16 246 86 133 123 254 399 242 553-7 79-23 108-105 192-112 115-233 155-353 115z"/>
</g>
</svg>