<svg id="svg" version="1.1" xmlns="http://www.w3.org/2000/svg" xmlns:xlink="http://www.w3.org/1999/xlink" width="400" height="400" viewBox="0, 0, 400,400"><path id="path0" d="M145.100 79.682 C 141.099 81.404,144.394 84.025,151.800 85.012 C 156.009 85.573,158.480 87.915,155.797 88.801 C 154.222 89.321,153.420 90.466,153.734 91.745 C 154.614 95.320,154.887 96.094,155.503 96.760 C 155.886 97.175,157.100 98.743,158.200 100.243 C 162.782 106.492,167.693 109.096,166.587 104.691 C 165.849 101.752,170.987 101.326,177.600 103.778 C 178.590 104.145,179.896 104.603,180.502 104.795 C 181.108 104.988,182.078 105.518,182.656 105.973 C 183.235 106.428,184.044 106.800,184.454 106.800 C 184.864 106.800,185.518 107.115,185.907 107.500 C 186.881 108.466,188.623 109.596,191.068 110.850 C 193.132 111.909,195.314 113.486,197.987 115.850 C 200.834 118.370,203.849 120.652,205.800 121.767 C 208.869 123.519,214.850 128.824,218.016 132.600 C 218.938 133.700,221.431 136.400,223.555 138.600 C 225.679 140.800,228.314 143.664,229.409 144.965 C 230.504 146.266,231.850 147.806,232.400 148.388 C 234.025 150.108,236.991 153.601,237.106 153.932 C 237.165 154.100,234.863 156.614,231.990 159.519 C 226.105 165.470,225.578 165.714,223.560 163.415 C 222.891 162.654,221.682 161.624,220.872 161.126 C 220.062 160.629,218.966 159.791,218.436 159.265 C 217.236 158.075,214.226 156.137,210.585 154.211 C 209.053 153.401,207.440 152.417,207.000 152.025 C 206.175 151.289,201.940 149.200,201.274 149.200 C 201.067 149.200,200.652 148.904,200.352 148.542 C 200.051 148.180,197.734 146.886,195.203 145.666 C 192.671 144.445,190.387 143.237,190.127 142.979 C 189.867 142.722,188.934 142.396,188.055 142.255 C 187.176 142.115,186.211 141.753,185.910 141.453 C 185.609 141.152,184.933 140.769,184.409 140.603 C 183.884 140.436,182.903 139.963,182.228 139.552 C 181.552 139.140,180.677 138.802,180.282 138.801 C 179.887 138.801,178.718 138.350,177.685 137.800 C 176.652 137.250,175.503 136.800,175.132 136.800 C 174.761 136.800,174.195 136.538,173.875 136.218 C 173.542 135.885,171.781 135.449,169.747 135.196 C 167.796 134.954,165.366 134.496,164.346 134.178 C 161.852 133.400,160.259 133.450,159.462 134.331 C 158.045 135.897,158.812 136.624,162.705 137.404 C 163.525 137.568,164.392 138.168,165.040 139.017 C 165.607 139.760,166.460 140.488,166.936 140.633 C 167.411 140.779,168.578 141.529,169.529 142.300 C 170.481 143.071,171.921 143.913,172.729 144.170 C 175.155 144.943,178.198 146.948,183.246 151.101 C 186.452 153.737,187.111 154.243,188.600 155.206 C 192.637 157.818,212.847 178.639,212.777 180.113 C 212.764 180.381,212.359 181.164,211.877 181.853 C 209.487 185.269,207.935 187.723,206.033 191.092 C 204.887 193.123,203.785 194.885,203.586 195.009 C 203.386 195.132,202.876 196.017,202.452 196.976 C 201.203 199.798,198.780 199.821,194.918 197.047 C 193.811 196.251,192.504 195.600,192.014 195.600 C 191.524 195.600,190.646 195.336,190.062 195.013 C 189.478 194.689,188.370 194.153,187.600 193.821 C 186.830 193.488,185.930 193.031,185.600 192.804 C 185.270 192.577,184.370 192.115,183.600 191.777 C 182.830 191.439,180.400 190.211,178.200 189.049 C 168.844 184.105,169.452 184.444,166.754 182.656 C 165.959 182.129,164.669 181.487,163.886 181.229 C 163.104 180.970,162.248 180.498,161.983 180.180 C 161.718 179.861,161.352 179.600,161.169 179.600 C 160.985 179.600,160.172 179.150,159.362 178.600 C 158.551 178.050,157.627 177.600,157.307 177.600 C 156.987 177.600,155.686 176.810,154.416 175.844 C 153.145 174.878,151.691 173.956,151.182 173.794 C 150.674 173.633,149.796 173.072,149.231 172.548 C 148.666 172.025,147.473 171.252,146.579 170.832 C 145.686 170.412,144.718 169.783,144.429 169.434 C 144.139 169.085,143.709 168.800,143.473 168.800 C 142.936 168.800,140.461 167.141,137.663 164.907 C 136.488 163.968,135.385 163.200,135.211 163.200 C 134.935 163.200,131.875 160.963,129.333 158.903 C 128.856 158.516,127.988 157.840,127.403 157.400 C 126.819 156.960,125.229 155.581,123.870 154.336 C 122.512 153.091,120.050 150.950,118.400 149.578 C 115.478 147.148,111.438 143.371,106.765 138.700 C 105.499 137.435,104.310 136.400,104.123 136.400 C 103.935 136.400,103.454 135.791,103.054 135.048 C 102.653 134.304,101.900 133.468,101.381 133.190 C 100.861 132.912,100.170 132.123,99.844 131.436 C 99.518 130.750,98.772 129.741,98.186 129.194 C 97.599 128.647,96.338 127.030,95.382 125.600 C 94.425 124.170,93.117 122.262,92.473 121.361 C 91.829 120.459,91.076 119.019,90.800 118.161 C 90.525 117.302,90.073 116.330,89.797 116.000 C 89.521 115.670,89.163 114.950,89.002 114.400 C 88.841 113.850,88.384 112.860,87.988 112.200 C 87.591 111.540,86.998 109.650,86.668 108.000 C 85.497 102.131,85.485 101.808,86.372 99.862 C 86.827 98.862,87.200 97.825,87.200 97.557 C 87.200 96.393,91.421 90.800,92.299 90.800 C 92.507 90.800,93.093 90.440,93.600 90.000 C 94.985 88.799,98.595 88.816,101.695 90.038 C 104.065 90.972,106.121 91.018,106.839 90.153 C 107.492 89.366,105.902 87.893,103.600 87.150 C 102.830 86.902,101.930 86.482,101.600 86.218 C 100.830 85.600,94.040 83.600,92.713 83.600 C 92.157 83.600,90.284 83.134,88.551 82.565 C 84.985 81.394,82.769 81.459,80.601 82.799 C 79.888 83.240,79.057 83.604,78.753 83.609 C 78.449 83.615,76.870 84.515,75.245 85.609 C 73.620 86.704,72.176 87.600,72.036 87.600 C 71.896 87.600,71.443 88.230,71.028 89.000 C 70.613 89.770,70.137 90.400,69.969 90.400 C 69.801 90.400,69.537 90.978,69.382 91.684 C 69.226 92.390,68.751 93.637,68.325 94.454 C 67.648 95.753,67.575 96.536,67.741 100.670 C 67.846 103.271,67.943 105.914,67.956 106.543 C 67.984 107.832,69.324 112.173,70.452 114.626 C 70.863 115.521,71.200 116.633,71.200 117.098 C 71.200 117.563,71.425 118.181,71.701 118.471 C 71.976 118.762,72.905 120.170,73.765 121.600 C 77.153 127.233,83.709 135.396,86.771 137.795 C 87.890 138.672,88.902 139.691,89.019 140.059 C 89.136 140.428,90.260 141.585,91.516 142.630 C 92.772 143.676,94.790 145.564,96.000 146.827 C 98.457 149.392,102.687 152.800,103.413 152.800 C 103.837 152.800,107.080 155.178,113.579 160.254 C 116.936 162.876,117.709 163.431,118.800 163.997 C 119.350 164.282,120.700 165.211,121.800 166.060 C 122.900 166.910,124.160 167.878,124.600 168.212 C 125.040 168.547,125.850 169.181,126.400 169.622 C 129.217 171.882,130.678 172.880,132.547 173.823 C 133.676 174.392,135.680 175.655,137.000 176.629 C 138.320 177.603,140.030 178.767,140.800 179.214 C 141.570 179.662,142.920 180.564,143.800 181.218 C 147.414 183.903,148.868 184.759,154.600 187.578 C 157.900 189.201,161.148 190.995,161.819 191.564 C 162.489 192.134,165.369 193.770,168.219 195.200 C 171.068 196.630,173.458 197.928,173.528 198.084 C 173.598 198.240,174.768 199.123,176.128 200.046 C 177.488 200.969,178.690 201.837,178.800 201.976 C 178.910 202.114,180.260 202.847,181.800 203.604 C 183.340 204.361,184.870 205.193,185.200 205.452 C 185.530 205.712,186.880 206.484,188.200 207.169 C 194.925 210.657,195.321 211.239,193.063 214.314 C 192.258 215.410,191.600 216.500,191.600 216.736 C 191.600 217.234,190.016 219.641,189.058 220.600 C 188.696 220.961,188.400 221.607,188.400 222.034 C 188.400 224.175,185.093 224.713,181.200 223.206 C 178.625 222.209,176.331 221.653,172.000 220.976 C 169.910 220.649,167.300 220.038,166.200 219.619 C 165.100 219.199,162.940 218.748,161.400 218.616 C 159.860 218.483,157.430 218.201,156.000 217.988 C 154.570 217.775,151.330 217.318,148.800 216.972 C 146.270 216.626,143.480 216.183,142.600 215.988 C 141.720 215.793,137.872 215.430,134.048 215.182 C 130.225 214.934,126.265 214.461,125.248 214.131 C 123.082 213.429,99.385 213.359,97.100 214.048 C 96.385 214.263,93.640 214.692,91.000 215.000 C 87.858 215.366,85.653 215.843,84.615 216.380 C 83.744 216.831,82.789 217.200,82.493 217.200 C 81.765 217.200,78.352 218.756,77.567 219.446 C 77.219 219.752,75.869 220.190,74.567 220.419 C 73.265 220.648,71.390 221.259,70.400 221.778 C 69.410 222.296,67.340 223.382,65.800 224.191 C 64.260 225.000,62.631 226.005,62.181 226.425 C 61.730 226.844,60.830 227.294,60.181 227.425 C 56.838 228.096,56.517 230.675,59.800 230.483 C 64.366 230.216,66.719 230.282,68.800 230.737 C 73.508 231.765,74.081 231.754,75.763 230.606 C 77.601 229.351,81.007 227.941,81.356 228.290 C 82.035 228.968,81.463 230.573,80.000 232.096 C 78.265 233.902,77.805 236.208,78.985 237.187 C 79.306 237.454,79.682 238.028,79.820 238.463 C 80.570 240.825,88.536 246.919,91.498 247.396 C 92.432 247.547,93.283 247.811,93.390 247.984 C 94.199 249.293,101.992 251.848,102.778 251.062 C 103.795 250.045,101.094 246.600,98.043 245.022 C 94.529 243.205,93.420 238.154,95.659 234.166 C 97.344 231.167,102.894 227.146,106.463 226.339 C 109.903 225.561,124.243 225.231,129.400 225.811 C 132.040 226.108,137.080 226.652,140.600 227.021 C 144.120 227.390,148.530 228.106,150.400 228.613 C 152.270 229.119,155.600 229.736,157.800 229.982 C 163.975 230.675,169.301 231.586,169.852 232.043 C 170.127 232.271,171.996 232.612,174.005 232.800 C 180.532 233.413,183.005 235.469,180.621 238.302 C 180.060 238.969,179.600 239.690,179.600 239.904 C 179.600 240.117,179.238 240.752,178.796 241.314 C 178.355 241.875,177.883 242.886,177.748 243.559 C 177.614 244.231,177.255 244.988,176.952 245.240 C 176.648 245.492,176.400 245.875,176.400 246.091 C 176.400 246.307,175.978 247.325,175.461 248.353 C 174.945 249.381,174.390 250.937,174.228 251.811 C 174.065 252.685,173.588 253.961,173.166 254.647 C 172.745 255.333,172.400 256.108,172.400 256.369 C 172.400 256.630,172.062 257.599,171.649 258.522 C 171.236 259.445,170.770 261.085,170.614 262.167 C 170.459 263.248,170.082 264.513,169.778 264.977 C 169.474 265.441,168.960 266.986,168.635 268.411 C 167.883 271.712,166.589 276.095,166.083 277.056 C 165.868 277.465,165.568 278.790,165.417 280.000 C 165.265 281.210,164.812 284.090,164.409 286.400 C 164.007 288.710,163.467 291.859,163.211 293.397 L 162.744 296.195 163.978 297.297 C 164.657 297.904,165.569 298.400,166.005 298.400 C 166.440 298.400,167.884 298.776,169.213 299.236 C 171.761 300.118,172.892 300.119,178.800 299.248 C 180.450 299.004,183.600 298.648,185.800 298.456 C 188.000 298.264,190.340 297.911,191.000 297.671 C 191.660 297.431,193.820 296.974,195.800 296.655 C 201.005 295.815,204.157 295.016,205.234 294.261 C 205.753 293.897,206.633 293.596,207.189 293.591 C 207.745 293.586,209.010 293.211,210.000 292.758 C 210.990 292.305,212.610 291.791,213.600 291.616 C 215.612 291.261,219.479 289.952,222.800 288.502 C 230.966 284.936,238.921 280.913,242.000 278.793 C 243.210 277.960,244.650 277.146,245.200 276.985 C 246.148 276.707,249.100 274.562,254.415 270.288 C 258.312 267.155,258.668 267.165,264.200 270.569 C 265.960 271.652,268.300 273.055,269.400 273.688 C 270.500 274.321,272.120 275.285,273.000 275.829 C 273.880 276.373,275.050 277.038,275.600 277.306 C 276.783 277.884,276.724 277.841,279.853 280.392 C 281.203 281.491,282.674 282.528,283.123 282.696 C 283.571 282.863,284.717 283.665,285.669 284.478 C 286.621 285.291,288.840 287.116,290.600 288.534 C 292.360 289.951,294.656 291.986,295.703 293.056 C 298.395 295.807,299.251 296.544,300.284 297.000 C 300.782 297.220,303.577 299.753,306.495 302.628 C 309.413 305.504,312.697 308.564,313.794 309.428 C 317.371 312.248,321.937 317.164,323.737 320.133 C 324.160 320.830,325.427 322.336,326.553 323.480 C 330.902 327.901,331.936 329.107,332.762 330.726 C 333.232 331.646,333.759 332.400,333.933 332.400 C 334.108 332.400,335.409 333.601,336.825 335.069 C 341.462 339.876,342.096 340.400,343.278 340.400 C 344.516 340.400,344.877 339.038,343.900 338.059 C 343.556 337.715,343.396 336.035,343.388 332.679 C 343.377 328.588,343.232 327.445,342.488 325.600 C 342.000 324.390,341.484 322.500,341.342 321.400 C 341.199 320.300,340.749 318.971,340.341 318.446 C 339.933 317.921,339.600 317.289,339.600 317.040 C 339.600 316.792,339.268 315.961,338.861 315.194 C 338.455 314.427,337.991 313.260,337.830 312.600 C 337.669 311.940,337.305 311.130,337.021 310.800 C 336.737 310.470,336.030 308.524,335.451 306.476 C 334.871 304.428,333.947 302.092,333.398 301.283 C 332.849 300.475,332.400 299.536,332.400 299.196 C 332.400 298.856,332.156 298.223,331.857 297.789 C 331.558 297.355,331.085 296.280,330.805 295.400 C 330.525 294.520,330.151 293.616,329.974 293.391 C 329.253 292.473,327.200 288.277,327.200 287.721 C 327.200 287.392,326.862 286.646,326.450 286.062 C 326.037 285.478,325.576 284.427,325.424 283.728 C 325.273 283.028,324.880 282.232,324.551 281.959 C 324.223 281.687,323.698 280.909,323.385 280.232 C 323.072 279.554,322.638 278.730,322.421 278.400 C 322.204 278.070,321.482 276.597,320.817 275.126 C 320.153 273.656,319.429 272.342,319.210 272.206 C 318.990 272.070,317.998 270.303,317.006 268.280 C 316.014 266.256,314.760 264.086,314.218 263.458 C 313.677 262.829,313.032 261.704,312.786 260.958 C 312.540 260.211,312.186 259.600,312.001 259.600 C 311.815 259.600,311.537 259.015,311.382 258.300 C 311.227 257.585,310.787 256.550,310.403 256.000 C 310.019 255.450,309.573 254.576,309.412 254.059 C 309.252 253.541,308.733 252.529,308.260 251.811 C 306.788 249.574,305.039 246.725,304.094 245.028 C 303.596 244.133,302.876 242.934,302.494 242.364 C 302.112 241.794,301.312 240.594,300.716 239.697 C 300.120 238.801,299.459 237.960,299.247 237.829 C 299.035 237.698,298.752 237.098,298.619 236.495 C 298.485 235.893,297.661 234.604,296.788 233.632 C 294.768 231.384,294.776 230.476,296.830 228.621 C 297.726 227.811,298.644 226.620,298.869 225.974 C 299.094 225.328,299.448 224.800,299.655 224.800 C 299.862 224.800,300.645 223.519,301.395 221.954 C 302.145 220.389,302.993 218.814,303.279 218.454 C 304.566 216.837,308.930 206.777,309.375 204.400 C 309.520 203.630,309.975 202.190,310.387 201.200 C 311.153 199.357,312.166 194.148,312.621 189.709 C 312.943 186.564,310.287 184.773,309.333 187.491 C 309.040 188.324,307.604 189.578,306.928 189.591 C 306.215 189.605,306.100 188.015,306.669 186.009 C 308.308 180.226,301.383 174.751,293.335 175.467 C 289.230 175.831,288.934 176.357,290.421 180.637 C 291.630 184.117,291.914 190.322,291.007 193.408 C 290.620 194.724,290.072 197.330,289.790 199.200 C 288.848 205.445,287.996 208.952,287.220 209.784 C 286.802 210.233,286.335 211.100,286.184 211.711 C 285.912 212.804,284.960 213.600,283.924 213.600 C 283.634 213.600,282.767 212.765,281.998 211.745 C 281.229 210.725,280.047 209.299,279.372 208.577 C 278.696 207.854,277.621 206.574,276.982 205.732 C 274.249 202.124,262.531 190.400,261.659 190.400 C 261.381 190.400,260.416 189.590,259.515 188.600 C 258.614 187.610,257.645 186.800,257.361 186.800 C 257.077 186.800,256.610 186.468,256.323 186.062 C 255.759 185.265,251.496 181.567,249.453 180.101 C 247.988 179.050,244.946 176.434,242.700 174.292 C 241.830 173.463,240.768 172.597,240.340 172.368 C 239.912 172.139,239.379 171.470,239.155 170.881 C 238.726 169.753,238.627 169.889,241.381 167.794 C 241.811 167.467,242.368 167.200,242.619 167.200 C 242.871 167.200,243.402 166.840,243.800 166.400 C 244.198 165.960,244.704 165.600,244.924 165.600 C 245.144 165.600,245.914 165.150,246.636 164.600 C 247.357 164.050,248.076 163.600,248.233 163.600 C 248.391 163.600,249.438 163.169,250.560 162.643 C 257.176 159.540,257.075 159.561,259.157 160.830 C 262.265 162.725,263.294 160.699,260.776 157.645 C 260.129 156.860,259.600 156.076,259.600 155.903 C 259.600 155.077,254.969 149.924,248.003 143.000 C 247.560 142.560,245.956 140.940,244.438 139.400 C 239.664 134.556,233.093 128.191,230.600 125.995 C 229.280 124.832,227.210 122.984,226.000 121.888 C 224.790 120.792,223.350 119.608,222.800 119.256 C 222.250 118.904,220.450 117.521,218.800 116.182 C 217.150 114.843,214.630 113.065,213.200 112.230 C 211.770 111.395,209.520 109.871,208.200 108.845 C 206.880 107.818,204.325 106.048,202.523 104.912 C 200.721 103.776,198.921 102.550,198.523 102.189 C 197.330 101.106,192.827 98.367,191.468 97.899 C 190.771 97.659,189.300 96.803,188.200 95.997 C 187.100 95.191,185.719 94.412,185.132 94.266 C 184.544 94.120,182.856 93.191,181.379 92.200 C 179.902 91.210,178.434 90.400,178.117 90.400 C 177.799 90.400,176.338 89.709,174.870 88.863 C 171.016 86.646,164.618 83.600,163.813 83.600 C 163.434 83.600,162.635 83.252,162.037 82.827 C 161.440 82.401,160.422 81.924,159.776 81.765 C 159.129 81.607,157.973 81.145,157.206 80.739 C 156.439 80.332,155.359 79.999,154.806 79.998 C 154.253 79.996,153.284 79.726,152.654 79.398 C 151.042 78.557,147.396 78.694,145.100 79.682 M234.695 182.380 C 235.708 183.051,236.776 183.600,237.069 183.600 C 237.361 183.600,237.600 183.758,237.600 183.951 C 237.600 184.145,238.144 184.528,238.809 184.804 C 239.475 185.079,240.150 185.512,240.309 185.766 C 240.469 186.020,241.590 186.846,242.800 187.603 C 244.010 188.360,245.235 189.298,245.523 189.689 C 245.810 190.080,246.270 190.400,246.545 190.400 C 246.819 190.400,247.928 191.322,249.008 192.449 C 250.088 193.576,251.698 194.956,252.586 195.516 C 255.655 197.450,270.835 213.499,275.200 219.425 C 279.778 225.640,279.729 226.382,274.342 232.468 C 273.109 233.860,271.202 236.125,270.103 237.500 C 269.004 238.875,267.018 241.156,265.690 242.568 C 264.361 243.981,263.151 245.466,263.001 245.868 C 261.632 249.529,254.355 253.539,252.600 251.600 C 252.202 251.160,251.648 250.800,251.369 250.800 C 251.090 250.800,250.353 250.376,249.731 249.858 C 248.583 248.903,241.947 245.475,240.300 244.987 C 239.805 244.841,238.320 244.224,237.000 243.617 C 235.680 243.009,233.880 242.293,233.000 242.024 C 230.730 241.332,226.344 239.539,225.411 238.922 C 224.977 238.635,224.370 238.400,224.061 238.400 C 223.752 238.400,222.398 237.932,221.050 237.361 C 216.009 235.222,214.965 234.831,213.600 234.573 C 212.830 234.427,211.989 234.138,211.731 233.931 C 210.510 232.949,203.733 230.814,201.800 230.802 C 201.140 230.798,200.060 230.437,199.400 230.000 C 198.740 229.563,197.850 229.204,197.422 229.203 C 194.154 229.192,192.729 225.614,195.063 223.280 C 195.358 222.984,195.600 222.466,195.600 222.127 C 195.600 221.788,196.293 220.676,197.140 219.656 C 197.987 218.635,198.799 217.310,198.945 216.712 C 199.521 214.344,202.128 212.998,204.097 214.052 C 204.562 214.301,205.979 214.746,207.247 215.042 C 208.515 215.338,210.508 216.190,211.676 216.937 C 212.844 217.683,214.413 218.428,215.161 218.592 C 215.910 218.756,218.340 219.864,220.561 221.054 C 226.253 224.103,229.181 225.458,230.800 225.795 C 231.570 225.955,232.761 226.427,233.447 226.843 C 234.133 227.259,234.921 227.600,235.197 227.600 C 235.772 227.600,239.860 229.301,242.121 230.481 C 243.639 231.273,247.781 232.055,248.669 231.717 C 249.809 231.282,249.469 226.200,247.990 221.569 C 247.556 220.209,247.200 218.429,247.200 217.613 C 247.200 215.973,245.269 209.282,244.253 207.400 C 243.897 206.740,243.604 205.861,243.602 205.447 C 243.601 205.033,243.259 204.133,242.843 203.447 C 242.427 202.761,241.957 201.570,241.799 200.800 C 241.640 200.030,241.286 199.130,241.011 198.800 C 240.481 198.163,238.107 194.085,236.330 190.758 C 235.742 189.657,234.838 188.180,234.322 187.478 C 233.806 186.775,233.117 185.677,232.792 185.038 C 232.466 184.400,231.705 183.511,231.100 183.063 C 230.079 182.308,229.687 181.246,230.230 180.703 C 230.629 180.304,232.782 181.113,234.695 182.380 M222.253 189.900 C 222.401 190.505,222.922 191.483,223.412 192.072 C 223.901 192.662,224.715 194.012,225.220 195.072 C 225.725 196.133,226.467 197.429,226.869 197.954 C 227.271 198.479,227.600 199.216,227.600 199.592 C 227.600 199.968,227.960 200.602,228.400 201.000 C 228.840 201.398,229.200 202.122,229.200 202.608 C 229.200 203.094,229.560 203.950,230.000 204.509 C 231.339 206.212,230.816 208.536,229.380 207.263 C 228.779 206.730,223.182 204.904,221.200 204.594 C 220.210 204.440,219.103 204.051,218.740 203.731 C 218.377 203.411,217.207 202.916,216.140 202.631 C 215.073 202.346,213.359 201.714,212.331 201.227 L 210.462 200.341 211.270 198.970 C 211.715 198.217,212.245 197.600,212.448 197.600 C 212.651 197.600,213.030 197.105,213.291 196.500 C 213.551 195.895,214.544 194.500,215.498 193.400 C 216.451 192.300,217.719 190.832,218.316 190.138 C 219.801 188.410,221.859 188.285,222.253 189.900 M194.118 238.988 C 194.733 239.309,196.353 239.765,197.718 240.001 C 199.083 240.238,200.740 240.683,201.400 240.991 C 205.106 242.719,206.355 243.207,207.610 243.418 C 208.863 243.629,210.385 244.220,215.400 246.444 C 216.280 246.834,217.495 247.273,218.100 247.420 C 218.705 247.567,219.200 247.833,219.200 248.012 C 219.200 248.190,219.757 248.459,220.438 248.608 C 222.422 249.044,227.649 251.633,232.000 254.335 C 232.770 254.813,234.093 255.543,234.940 255.956 C 237.819 257.361,243.192 260.997,243.422 261.696 C 243.774 262.763,243.512 263.000,237.800 266.800 C 237.304 267.130,235.912 268.075,234.708 268.900 C 233.503 269.725,232.346 270.400,232.136 270.400 C 231.927 270.400,231.160 270.839,230.432 271.377 C 229.704 271.914,227.464 273.188,225.454 274.208 C 220.500 276.723,218.725 277.708,218.084 278.300 C 217.787 278.575,217.243 278.800,216.877 278.800 C 216.241 278.800,213.890 279.820,210.000 281.783 C 209.010 282.283,206.940 283.092,205.400 283.582 C 203.860 284.071,201.790 284.745,200.800 285.079 C 199.810 285.414,197.920 285.854,196.600 286.058 C 191.388 286.862,184.909 287.975,183.200 288.360 C 178.916 289.324,175.900 288.646,175.671 286.667 C 175.489 285.095,176.285 284.277,177.717 284.563 C 179.254 284.871,180.675 284.485,181.027 283.664 C 181.793 281.878,183.593 268.910,183.597 265.146 C 183.599 263.220,183.821 261.668,184.198 260.946 C 184.526 260.316,184.796 258.894,184.798 257.787 C 184.799 256.680,185.083 254.790,185.429 253.587 C 185.774 252.384,186.289 250.405,186.573 249.188 C 186.856 247.971,187.362 246.441,187.697 245.788 C 188.032 245.135,188.436 243.812,188.597 242.849 C 189.260 238.855,191.227 237.480,194.118 238.988 M290.300 242.855 C 291.015 243.976,291.601 245.367,291.601 245.946 C 291.603 247.125,292.320 248.421,294.733 251.609 C 295.637 252.803,296.488 254.324,296.625 254.990 C 296.762 255.655,297.595 257.267,298.478 258.572 C 299.360 259.877,300.322 261.677,300.616 262.572 C 301.760 266.057,302.744 268.651,303.356 269.800 C 303.707 270.460,303.996 271.258,303.998 271.574 C 303.999 271.889,304.337 272.879,304.749 273.774 C 307.037 278.741,306.683 284.054,304.227 281.602 C 303.063 280.440,301.522 279.200,301.239 279.199 C 301.107 279.199,300.370 278.646,299.600 277.972 C 297.806 276.401,294.728 274.408,292.272 273.228 C 291.212 272.719,289.862 271.903,289.272 271.416 C 288.683 270.929,287.120 269.896,285.800 269.120 C 284.480 268.345,281.330 266.455,278.800 264.919 C 276.270 263.384,273.390 261.729,272.400 261.242 C 271.410 260.755,270.150 260.005,269.600 259.575 L 268.600 258.794 270.893 256.697 C 272.154 255.544,274.127 253.880,275.279 253.000 C 277.787 251.083,284.585 244.402,286.166 242.300 C 287.744 240.203,288.689 240.330,290.300 242.855 " stroke="none" fill="#000" fill-rule="evenodd"></path></svg>