<?xml version="1.0" encoding="utf-8"?>
<svg viewBox="20.017 20 150.015 150" xmlns="http://www.w3.org/2000/svg">
  <path d="M 66.39 34.698 C 66.39 34.698 61.609 40.431 59.506 43.507 C 55.714 49.053 50.486 57.903 46.408 65 L 85.477 65 C 85.056 54.883 84.31 42.927 83 35 C 82.381 31.25 80 24 80 24 L 80 20 L 110 20 L 110 24 C 110 24 107.619 31.25 107 35 C 105.691 42.927 104.944 54.883 104.523 65 L 143.641 65 C 139.563 57.903 134.335 49.053 130.543 43.507 C 128.44 40.431 123.659 34.698 123.659 34.698 L 121.8 31.156 L 143.049 20 L 144.909 23.541 C 144.909 23.541 146.913 30.732 148.251 34.211 C 152.805 46.049 164.144 68.785 164.144 68.785 L 170.032 80 C 170.032 80 140.013 79.167 125 79 C 118.03 78.923 111.059 78.872 104.089 78.849 C 104.02 82.043 104 84 104 84 L 104 96.396 C 108.863 96.211 118.479 95.768 124 95 C 126.364 94.671 131 93.5 131 93.5 L 135 93.5 L 135 111.5 L 131 111.5 C 131 111.5 126.347 110.718 124 110.5 C 118.48 109.987 108.932 109.693 104.056 109.57 C 104.122 113.005 104.257 118.599 104.519 124.918 C 109.515 124.788 118.65 124.497 124 124 C 126.347 123.782 131 123 131 123 L 135 123 L 135 141 L 131 141 C 131 141 126.364 139.829 124 139.5 C 118.914 138.793 110.353 138.361 105.234 138.152 C 105.662 144.363 106.235 150.369 107 155 C 107.619 158.75 110 166 110 166 L 110 170 L 80 170 L 80 166 C 80 166 82.381 158.75 83 155 C 83.765 150.369 84.338 144.363 84.766 138.152 C 79.647 138.361 71.086 138.793 66 139.5 C 63.636 139.829 59 141 59 141 L 55 141 L 55 123 L 59 123 C 59 123 63.653 123.782 66 124 C 71.35 124.497 80.485 124.788 85.481 124.918 C 85.743 118.599 85.878 113.005 85.944 109.57 C 81.068 109.693 71.52 109.987 66 110.5 C 63.653 110.718 59 111.5 59 111.5 L 55 111.5 L 55 93.5 L 59 93.5 C 59 93.5 63.636 94.671 66 95 C 71.521 95.768 81.137 96.211 86 96.396 L 86 84 C 86 84 85.98 82.043 85.911 78.849 C 78.941 78.872 71.97 78.923 65 79 C 50.003 79.167 20.017 80 20.017 80 L 25.905 68.785 C 25.905 68.785 37.244 46.049 41.798 34.211 C 43.136 30.733 45.14 23.542 45.14 23.542 L 47 20 L 68.249 31.156 Z"/>
</svg>