<?xml version="1.0" encoding="utf-8"?>
<svg viewBox="0 0 850 850" xmlns="http://www.w3.org/2000/svg">
  <g transform="translate(0 850) scale(.1 -.1)">
<path d="m1432 8315c-158-65-275-139-322-205-31-43-53-184-48-305 10-221 112-326 345-358 155-20 310 15 422 98 137 101 181 236 130 401-70 228-194 362-363 393-78 14-69 16-164-24z"/>
<path d="m2665 6964c-55-8-157-18-226-22-137-8-159-17-159-62 0-36 34-133 65-185 20-35 31-43 64-49 89-14 137-96 134-231 0-44-6-100-12-125-7-29-11-219-11-525 0-507-3-556-50-717-52-181-173-449-246-549-93-126-237-173-574-185-129-5-185-3-259 10-401 70-680 412-721 884-37 419 150 768 488 912 148 63 415 103 531 80 182-37 293-222 295-490 1-145-14-204-58-227s-200-28-327-12c-57 8-138 14-180 14-68 0-83-4-154-40-96-48-137-99-161-198-15-59-15-69 0-121 14-48 29-69 89-130 108-108 279-212 392-237 78-17 109-3 231 111 101 94 135 117 236 159 58 24 104 89 148 208 56 155 74 267 74 473 1 170-2 198-31 346-18 88-41 185-52 215-50 146-124 237-247 301-38 20-124 72-192 116-141 92-172 102-330 102-350 0-658-126-901-370-122-122-268-319-368-497-78-141-129-550-104-841 34-393 154-678 375-890 178-171 379-269 651-317 162-29 259-91 291-187 36-109-31-223-185-319-32-19-59-45-71-68-54-108-75-307-66-631 9-316 18-401 42-415 10-5 37-28 60-50 35-35 44-52 63-130 33-133 73-209 150-286 73-73 168-126 286-159 82-23 242-27 345-8 102 19 174 17 206-8 45-33 64-66 71-123 8-66 53-122 123-155 43-20 64-21 436-24l390-3 27 38c56 81 72 132 72 228 0 75-4 98-24 138-45 93-61 104-152 112-161 14-250 54-296 133l-28 47-3 1635c-2 1058 1 1671 8 1738 12 127 46 233 109 337 26 44 53 95 59 114 8 21 12 113 12 248 0 228 11 336 40 394 22 42 36 54 72 63 41 9 124 81 163 139 45 68 76 156 82 234l6 62-34 6c-19 3-88 2-154-4-71-6-140-6-170-1-73 13-225 10-340-6zm-742-3738c40-17 71-51 86-95 7-22 11-130 11-310 0-360-7-345 172-354 169-9 234-71 224-215-6-99-36-159-96-192-44-25-49-25-262-25-203 0-218 1-244 21-52 39-66 67-75 160-6 49-17 110-25 135-18 57-74 123-125 150l-39 19v244c0 217 2 251 20 309 29 94 71 140 145 158 52 12 174 10 208-5z"/>
<path d="m4333 6952c-139-49-232-166-295-372l-22-75-6-1016-5-1016-30-49c-35-55-113-114-154-114-57 0-167-94-212-182-44-86-48-109-28-150 39-77 95-96 309-105 172-6 709 13 747 28 27 10 53 63 53 106 0 63-90 210-155 254l-35 24v836 836l31 61c84 170 331 279 609 270 176-6 216-35 270-200 17-53 35-82 87-140 83-92 125-178 124-250-1-29-4-303-9-608l-7-555-28-57c-32-66-95-125-179-170-78-41-160-131-188-204-29-78-36-139-20-169 23-44 61-48 293-35 335 19 548 17 635-5 60-15 83-16 135-8 81 14 132 36 151 65 13 21 14 29 2 69-35 115-102 207-193 265-41 27-58 46-82 96-17 35-36 91-41 125-11 65-8 83 38 246 15 54 17 106 16 392-1 208-7 400-17 520-14 168-14 200-1 273 39 225 154 387 322 453 52 21 77 23 276 27 237 4 342-6 434-40 66-25 128-84 161-152 43-93 50-166 61-636 5-245 17-663 26-930s18-771 19-1120 5-646 8-660c4-14 11-79 17-145 17-190-9-311-90-432-63-94-123-151-193-183-128-60-116-60-1113-60h-911l-39 29c-84 62-122 130-131 240-13 159 77 265 280 330 163 52 353 73 752 86 170 6 198 4 267-14 129-33 174-62 271-170 73-80 203-141 303-141 41 0 43 2 53 38 6 20 11 102 11 182s7 226 16 325c19 212 15 421-9 477-22 52-42 60-115 43-97-23-189-73-268-146-84-78-139-112-235-146-68-24-86-25-443-33-204-5-608-9-897-10-589 0-626-3-825-75-166-59-237-112-289-214-52-103-84-140-155-180-57-32-69-43-95-96-28-56-30-68-33-195-4-150 12-278 49-373 27-70 82-124 204-198 94-57 167-122 200-179 28-48 115-91 197-97 35-3 124 2 198 11 250 30 666 40 1095 27 215-6 491-18 615-25 124-8 241-12 260-9s87 13 150 24c172 28 305 40 368 32 46-5 63-12 90-39 45-45 43-85-10-188-37-72-42-90-46-166-5-106 10-156 57-187 51-35 92-38 281-19 220 21 503 21 719 0 180-17 360-15 403 6 40 19 63 86 63 185 0 71-4 88-33 147-42 86-100 137-222 195-52 25-105 54-117 66l-23 20v367 366l-35 70c-45 92-80 217-101 356-14 96-15 147-8 343 16 413 9 551-51 970-56 389-57 435-50 1266 8 936 8 973-10 1088-40 250-137 411-293 484l-67 32h-360c-384-1-515-12-641-55-123-43-175-89-266-238-28-45-66-96-84-111-76-67-268-67-395 0-77 42-130 99-187 204-54 101-95 139-189 177-57 23-63 23-498 25-404 3-444 1-492-15z"/>
<path d="m5700 1049c-123-35-249-106-305-172-142-165-134-417 16-567 64-64 172-123 273-151 70-18 89-20 144-11 147 25 262 110 325 243 102 214 83 432-47 547-97 85-302 141-406 111z"/>
</g>
</svg>