<svg id="svg" version="1.1" xmlns="http://www.w3.org/2000/svg" xmlns:xlink="http://www.w3.org/1999/xlink" width="400" height="400" viewBox="0, 0, 400,400"><path id="path0" d="M266.531 82.124 C 264.084 84.122,258.272 86.798,256.369 86.802 C 252.904 86.810,251.990 87.622,251.849 90.812 C 251.671 94.881,249.200 96.019,249.200 92.031 C 249.200 89.542,248.544 88.051,247.313 87.742 C 245.967 87.404,245.873 87.620,245.755 91.303 C 245.456 100.721,245.082 105.506,244.543 106.797 C 244.222 107.565,243.790 109.005,243.581 109.997 C 242.675 114.314,240.247 120.900,239.009 122.400 C 238.736 122.730,238.314 123.593,238.071 124.318 C 237.541 125.898,236.042 128.087,235.605 127.920 C 235.306 127.806,229.377 120.624,229.122 120.067 C 229.055 119.920,228.280 119.190,227.400 118.444 C 226.520 117.698,224.540 115.923,223.000 114.499 C 219.138 110.927,216.872 108.940,213.991 106.600 C 212.637 105.500,210.780 103.951,209.865 103.157 C 208.949 102.363,207.750 101.479,207.200 101.191 C 206.650 100.904,205.284 99.979,204.164 99.135 C 203.044 98.291,201.997 97.600,201.837 97.600 C 201.538 97.600,199.009 95.787,198.071 94.900 C 197.781 94.625,197.269 94.400,196.933 94.400 C 196.598 94.400,195.846 94.064,195.262 93.652 C 194.005 92.767,189.900 90.800,189.310 90.800 C 189.084 90.800,188.675 90.531,188.402 90.203 C 188.130 89.874,187.163 89.422,186.253 89.197 C 185.344 88.972,184.060 88.521,183.400 88.196 C 181.750 87.383,177.742 86.020,175.752 85.595 C 174.846 85.402,173.052 84.874,171.766 84.422 C 170.480 83.970,168.521 83.594,167.414 83.586 C 166.306 83.578,164.410 83.341,163.200 83.060 C 161.609 82.690,159.783 82.638,156.600 82.873 C 145.820 83.670,144.102 84.093,135.800 88.004 C 132.260 89.671,129.630 90.800,129.287 90.800 C 129.087 90.800,128.613 91.144,128.233 91.564 C 127.852 91.984,127.071 92.446,126.497 92.590 C 125.923 92.734,124.969 93.245,124.377 93.726 C 123.785 94.207,122.783 94.951,122.150 95.381 C 120.919 96.216,114.271 102.868,113.087 104.449 C 111.770 106.208,108.749 110.949,108.161 112.180 C 107.841 112.851,107.316 113.850,106.995 114.400 C 106.674 114.950,106.409 115.724,106.406 116.120 C 106.403 116.516,106.147 117.328,105.839 117.925 C 105.530 118.522,105.148 119.908,104.989 121.005 C 104.831 122.102,104.493 123.540,104.239 124.200 C 103.188 126.923,103.734 127.397,108.315 127.739 C 111.564 127.982,112.142 128.461,111.890 130.700 C 111.659 132.749,108.192 136.311,105.385 137.384 C 103.569 138.078,101.114 140.910,101.487 141.881 C 101.722 142.495,103.509 142.460,107.733 141.759 C 109.353 141.490,113.385 142.157,115.400 143.026 C 116.060 143.311,117.835 144.027,119.344 144.617 C 122.528 145.862,129.363 149.357,130.754 150.450 C 131.279 150.862,131.917 151.200,132.173 151.200 C 132.428 151.200,132.989 151.469,133.419 151.799 C 133.848 152.128,134.900 152.938,135.755 153.599 C 136.610 154.259,137.551 154.800,137.846 154.800 C 139.853 154.800,139.786 158.205,137.686 162.800 C 136.558 165.269,136.719 179.303,137.900 181.394 C 138.395 182.271,138.800 183.299,138.800 183.680 C 138.800 184.061,139.160 184.565,139.600 184.800 C 140.040 185.035,140.400 185.455,140.400 185.733 C 140.400 188.449,149.103 191.844,150.806 189.792 C 151.364 189.120,150.368 187.600,149.369 187.600 C 145.870 187.600,142.111 172.085,144.849 168.945 C 145.206 168.535,145.626 167.490,145.782 166.622 C 145.938 165.754,146.514 164.159,147.062 163.078 C 148.505 160.231,149.073 160.397,155.696 165.597 C 156.959 166.589,159.536 168.570,161.422 170.000 C 173.908 179.464,184.840 191.062,186.761 196.880 C 187.025 197.681,187.502 198.552,187.820 198.817 C 188.139 199.082,188.400 199.502,188.400 199.752 C 188.400 200.002,188.850 201.052,189.400 202.085 C 189.950 203.118,190.400 204.427,190.400 204.995 C 190.400 205.562,190.670 206.672,191.000 207.462 C 191.751 209.259,191.775 212.148,191.048 213.314 C 189.456 215.866,189.777 216.603,192.828 217.407 C 194.911 217.957,195.551 217.754,199.047 215.435 C 200.145 214.707,204.400 209.921,204.400 209.415 C 204.400 209.282,205.210 207.945,206.200 206.442 C 207.190 204.939,208.000 203.529,208.000 203.309 C 208.000 203.088,208.334 202.479,208.742 201.954 C 209.150 201.429,209.713 200.280,209.994 199.400 C 210.275 198.520,210.644 197.620,210.815 197.400 C 210.986 197.180,211.401 196.010,211.737 194.800 C 212.072 193.590,212.621 191.880,212.956 191.000 C 213.291 190.120,213.573 188.830,213.582 188.132 C 213.592 187.435,213.911 185.725,214.292 184.332 C 215.151 181.183,215.282 168.026,214.480 165.325 C 213.907 163.395,214.236 160.400,215.020 160.400 C 215.305 160.400,216.049 159.995,216.672 159.500 C 217.296 159.005,218.095 158.420,218.447 158.200 C 220.199 157.106,221.584 156.091,223.464 154.522 C 226.311 152.146,227.600 152.286,227.600 154.971 C 227.600 155.469,227.947 156.190,228.371 156.574 C 228.795 156.957,229.268 158.020,229.422 158.936 C 229.576 159.851,230.039 161.029,230.451 161.554 C 230.863 162.079,231.200 162.984,231.200 163.565 C 231.200 164.146,231.468 165.005,231.796 165.472 C 232.123 165.940,232.640 167.388,232.944 168.690 C 233.247 169.993,233.675 171.405,233.893 171.829 C 234.112 172.253,234.413 173.402,234.563 174.383 C 234.713 175.364,235.188 176.962,235.618 177.934 C 236.048 178.906,236.400 180.183,236.400 180.772 C 236.400 181.361,236.847 183.543,237.393 185.621 C 237.938 187.700,238.388 189.953,238.393 190.629 C 238.397 191.305,238.661 192.655,238.981 193.629 C 240.373 197.873,240.411 216.656,239.036 221.200 C 238.736 222.190,238.377 223.928,238.237 225.063 C 238.097 226.198,237.626 228.161,237.191 229.426 C 236.756 230.691,236.400 231.989,236.400 232.311 C 236.400 232.634,235.906 234.162,235.303 235.707 C 233.508 240.302,232.459 241.126,224.000 244.589 C 220.582 245.988,218.593 247.059,216.400 248.680 C 215.410 249.412,214.046 250.268,213.368 250.582 C 212.691 250.897,211.904 251.434,211.619 251.777 C 210.935 252.601,208.049 252.590,206.860 251.757 C 206.356 251.404,205.011 250.879,203.871 250.590 C 202.732 250.302,201.080 249.789,200.200 249.450 C 199.320 249.112,198.150 248.826,197.600 248.815 C 197.050 248.804,196.125 248.547,195.545 248.245 C 194.965 247.942,193.572 247.389,192.450 247.017 C 191.328 246.644,190.307 246.173,190.181 245.969 C 190.056 245.766,189.540 245.600,189.036 245.600 C 188.532 245.600,187.273 245.150,186.238 244.600 C 185.204 244.050,184.020 243.600,183.607 243.600 C 183.194 243.600,181.178 242.817,179.128 241.861 C 177.078 240.904,174.950 239.915,174.400 239.663 C 173.850 239.412,173.130 239.049,172.800 238.857 C 171.522 238.114,167.700 236.400,167.322 236.400 C 167.103 236.400,166.607 236.050,166.221 235.623 C 165.834 235.195,164.951 234.722,164.259 234.571 C 163.566 234.419,162.571 233.959,162.046 233.548 C 161.521 233.137,160.871 232.800,160.600 232.800 C 160.329 232.800,159.635 232.428,159.056 231.973 C 157.646 230.864,155.805 230.355,155.240 230.920 C 154.695 231.465,154.660 232.800,155.190 232.800 C 155.405 232.800,156.170 233.464,156.890 234.276 C 158.104 235.644,160.793 238.345,163.884 241.301 C 166.384 243.692,164.601 243.841,160.297 241.600 C 158.607 240.720,156.973 240.000,156.666 240.000 C 156.359 240.000,155.650 239.640,155.091 239.200 C 154.531 238.760,153.832 238.398,153.537 238.396 C 153.242 238.394,152.100 237.950,151.000 237.409 C 149.900 236.868,148.771 236.419,148.491 236.413 C 148.042 236.401,147.246 235.969,144.200 234.080 C 143.760 233.807,142.770 233.298,142.000 232.949 C 141.230 232.600,138.476 231.029,135.881 229.457 C 133.285 227.886,130.675 226.330,130.081 226.000 C 129.170 225.495,125.995 223.020,121.622 219.408 C 117.822 216.270,113.572 210.265,111.490 205.092 C 108.652 198.042,112.421 187.655,117.600 188.254 C 120.164 188.551,121.694 186.422,120.284 184.519 C 117.162 180.304,116.519 179.884,112.124 179.185 C 102.555 177.662,92.922 182.900,90.760 190.800 C 90.489 191.790,90.027 192.955,89.734 193.389 C 89.048 194.402,88.999 202.079,89.670 203.326 C 90.376 204.638,90.759 207.178,90.295 207.465 C 90.075 207.601,89.729 207.417,89.527 207.056 C 89.159 206.397,87.387 206.139,87.087 206.700 C 86.564 207.679,87.585 213.932,88.541 215.600 C 90.476 218.977,98.412 227.024,101.564 228.806 C 102.154 229.139,103.557 230.088,104.684 230.915 C 105.810 231.741,107.332 232.619,108.066 232.865 C 108.800 233.112,109.670 233.537,110.000 233.809 C 110.330 234.082,111.050 234.440,111.600 234.605 C 112.150 234.770,113.050 235.216,113.600 235.597 C 114.150 235.978,115.257 236.409,116.060 236.555 C 116.863 236.701,117.730 237.075,117.987 237.385 C 118.245 237.695,119.028 238.068,119.728 238.214 C 120.427 238.359,121.360 238.704,121.800 238.979 C 122.240 239.254,123.319 239.715,124.198 240.003 C 125.077 240.291,126.589 240.948,127.558 241.463 C 128.526 241.979,129.638 242.400,130.027 242.400 C 130.417 242.400,131.245 242.650,131.868 242.956 C 132.960 243.492,133.721 243.777,137.600 245.105 C 138.590 245.444,140.030 245.969,140.800 246.271 C 141.570 246.573,143.199 246.980,144.420 247.176 C 145.641 247.372,148.588 248.184,150.969 248.980 C 153.350 249.777,156.131 250.538,157.149 250.671 C 158.167 250.805,159.630 251.223,160.400 251.602 C 161.170 251.980,162.710 252.406,163.822 252.548 C 164.934 252.691,166.547 253.165,167.407 253.603 C 168.266 254.042,169.336 254.401,169.785 254.402 C 170.233 254.404,171.112 254.672,171.737 254.998 C 172.362 255.324,173.733 255.846,174.782 256.157 C 175.831 256.469,177.029 256.900,177.445 257.115 C 178.644 257.736,182.486 259.137,183.800 259.433 C 184.460 259.581,185.581 260.052,186.292 260.479 C 189.210 262.233,190.765 260.888,188.513 258.558 C 185.769 255.719,185.836 252.737,188.589 255.134 C 189.471 255.901,192.853 257.308,195.400 257.966 C 198.501 258.768,199.681 260.300,197.923 261.241 C 197.440 261.500,196.405 262.301,195.623 263.021 C 194.301 264.239,191.561 266.301,189.200 267.856 C 188.650 268.218,187.716 268.846,187.126 269.250 C 186.535 269.655,184.915 270.540,183.526 271.217 C 182.136 271.894,180.730 272.622,180.400 272.835 C 180.070 273.049,179.460 273.336,179.045 273.473 C 178.629 273.610,177.495 274.145,176.523 274.661 C 175.552 275.178,174.328 275.600,173.802 275.600 C 173.277 275.600,172.739 275.775,172.608 275.988 C 172.476 276.201,171.122 276.747,169.600 277.200 C 168.078 277.653,166.737 278.178,166.621 278.367 C 166.504 278.555,165.732 278.828,164.904 278.974 C 163.476 279.225,162.287 279.568,155.832 281.596 C 149.780 283.496,130.374 283.508,123.036 281.616 C 121.296 281.167,119.084 280.800,118.120 280.800 C 117.157 280.800,115.700 280.462,114.884 280.049 C 114.068 279.636,112.827 279.174,112.128 279.023 C 111.428 278.872,110.641 278.490,110.379 278.174 C 110.117 277.858,109.631 277.600,109.300 277.600 C 106.808 277.600,100.878 272.065,98.800 267.800 C 96.760 263.613,97.238 257.587,99.800 255.187 C 102.056 253.073,102.856 252.699,104.610 252.939 C 108.012 253.406,107.539 250.428,103.868 248.267 C 102.478 247.449,100.069 247.422,99.024 248.213 C 98.596 248.536,97.950 248.800,97.587 248.800 C 96.959 248.800,91.985 253.416,90.127 255.724 C 87.877 258.517,86.881 266.478,88.315 270.200 C 88.569 270.860,88.873 271.882,88.989 272.472 C 89.106 273.062,89.471 273.814,89.801 274.143 C 90.130 274.473,90.400 274.905,90.400 275.103 C 90.400 276.530,101.308 289.600,102.499 289.600 C 102.597 289.600,104.190 290.500,106.039 291.600 C 107.887 292.700,109.677 293.600,110.015 293.600 C 110.354 293.600,111.337 293.960,112.200 294.400 C 113.063 294.840,114.316 295.201,114.985 295.202 C 115.653 295.204,116.740 295.488,117.400 295.834 C 118.060 296.180,120.208 296.631,122.173 296.836 C 124.139 297.041,126.479 297.415,127.373 297.667 C 129.733 298.332,139.984 298.190,143.180 297.449 C 147.273 296.498,149.558 295.998,152.800 295.342 C 154.450 295.008,156.199 294.480,156.686 294.168 C 157.173 293.855,158.033 293.600,158.597 293.600 C 159.160 293.600,161.102 293.129,162.911 292.554 C 166.498 291.414,168.740 290.506,176.800 286.927 C 180.083 285.469,182.498 284.153,183.090 283.500 C 183.439 283.115,184.122 282.800,184.608 282.800 C 185.094 282.800,185.921 282.462,186.446 282.050 C 186.971 281.637,188.660 280.633,190.200 279.817 C 191.740 279.002,194.440 277.396,196.200 276.250 C 200.253 273.609,203.324 271.726,205.537 270.526 C 206.492 270.007,207.540 269.317,207.866 268.992 C 208.191 268.666,208.636 268.400,208.855 268.400 C 209.299 268.400,212.125 266.369,212.333 265.900 C 212.739 264.988,217.159 266.473,221.600 269.014 C 222.150 269.328,223.230 269.879,224.000 270.238 C 224.770 270.596,225.490 271.005,225.600 271.145 C 225.710 271.285,226.430 271.714,227.200 272.098 C 227.970 272.481,228.870 272.968,229.200 273.180 C 229.530 273.392,231.870 274.772,234.400 276.246 C 236.930 277.721,240.432 279.799,242.183 280.864 C 243.934 281.929,245.577 282.800,245.834 282.800 C 246.092 282.800,246.515 283.056,246.775 283.370 C 247.035 283.683,248.774 284.718,250.640 285.670 C 255.088 287.938,256.594 288.754,259.002 290.198 C 261.369 291.618,262.253 292.112,265.999 294.107 C 267.554 294.935,269.719 296.240,270.810 297.007 C 271.900 297.773,272.972 298.400,273.192 298.400 C 273.412 298.400,274.585 299.300,275.800 300.400 C 277.015 301.500,278.294 302.400,278.643 302.400 C 278.991 302.400,279.754 302.663,280.338 302.984 C 280.922 303.305,282.750 304.205,284.400 304.983 C 286.050 305.762,287.940 306.716,288.600 307.104 C 289.260 307.492,291.368 308.668,293.284 309.717 C 295.200 310.766,296.867 311.785,296.989 311.981 C 297.486 312.786,299.561 312.838,301.268 312.088 C 302.220 311.669,303.585 311.096,304.300 310.815 C 305.015 310.533,305.600 310.172,305.600 310.013 C 305.600 309.853,305.942 309.560,306.360 309.361 C 308.905 308.151,312.437 302.099,313.022 297.943 C 313.158 296.984,313.523 295.521,313.834 294.692 C 314.483 292.962,314.580 289.326,314.017 287.844 C 313.806 287.289,313.448 285.073,313.222 282.918 C 312.836 279.241,311.387 274.111,310.202 272.225 C 309.917 271.771,309.549 270.953,309.385 270.408 C 309.222 269.862,308.779 268.962,308.402 268.408 C 308.024 267.853,306.930 266.140,305.969 264.600 C 303.817 261.149,300.499 257.147,298.274 255.317 C 297.353 254.560,295.814 253.281,294.854 252.475 C 293.894 251.669,292.634 250.810,292.054 250.566 C 291.474 250.322,290.753 249.825,290.451 249.461 C 290.149 249.098,289.713 248.800,289.483 248.800 C 289.252 248.800,288.779 248.556,288.431 248.258 C 287.786 247.705,285.515 246.534,281.600 244.738 C 279.659 243.848,276.441 242.768,270.400 240.980 C 269.410 240.687,267.548 240.240,266.262 239.987 C 264.976 239.734,263.287 239.261,262.508 238.936 C 261.590 238.552,259.368 238.303,256.196 238.227 C 250.451 238.089,250.223 238.001,250.569 236.049 C 250.711 235.252,251.105 233.070,251.444 231.200 C 251.784 229.330,252.231 226.853,252.437 225.696 C 252.644 224.538,253.079 222.567,253.405 221.315 C 255.318 213.972,255.344 184.825,253.447 175.800 C 253.123 174.260,252.732 171.830,252.578 170.400 C 252.424 168.970,252.056 167.205,251.760 166.477 C 251.464 165.749,251.103 164.219,250.959 163.077 C 250.815 161.935,250.360 160.245,249.949 159.322 C 249.537 158.399,249.200 157.342,249.200 156.972 C 249.200 156.126,246.202 149.013,244.374 145.521 C 243.948 144.707,243.600 143.821,243.600 143.552 C 243.600 143.283,243.309 142.741,242.953 142.348 C 242.548 141.901,242.396 141.288,242.547 140.716 C 242.779 139.840,243.607 138.896,250.891 131.212 C 252.658 129.349,254.277 127.324,254.490 126.712 C 254.997 125.260,256.926 125.130,257.642 126.500 C 257.901 126.995,259.316 128.840,260.786 130.600 C 262.257 132.360,263.791 134.340,264.196 135.000 C 265.009 136.324,268.005 141.000,269.466 143.222 C 269.980 144.003,270.400 144.799,270.400 144.990 C 270.400 145.181,270.637 145.621,270.927 145.969 C 271.216 146.316,271.909 147.770,272.467 149.200 C 273.025 150.630,273.886 152.790,274.381 154.000 C 274.877 155.210,275.432 156.920,275.615 157.800 C 275.798 158.680,276.239 160.093,276.596 160.940 C 278.028 164.342,278.785 176.694,277.773 180.173 C 277.458 181.258,277.200 182.630,277.200 183.224 C 277.200 183.817,276.934 184.523,276.608 184.793 C 274.120 186.858,275.164 189.829,278.348 189.746 C 282.923 189.626,289.823 185.139,291.490 181.200 C 291.816 180.430,292.682 178.962,293.414 177.937 C 294.147 176.912,294.967 175.337,295.236 174.437 C 295.506 173.537,295.864 172.800,296.032 172.800 C 296.200 172.800,296.535 172.204,296.775 171.475 C 297.016 170.746,297.930 169.450,298.806 168.594 C 300.610 166.833,300.809 165.844,299.500 165.153 C 296.552 163.598,292.890 159.419,290.602 155.000 C 289.805 153.460,288.898 151.750,288.588 151.200 C 288.278 150.650,287.726 149.480,287.362 148.600 C 285.864 144.978,284.233 141.729,283.348 140.600 C 282.831 139.940,282.116 139.030,281.760 138.579 C 281.404 138.127,280.907 137.381,280.656 136.922 C 278.547 133.058,272.432 127.214,268.194 125.011 C 258.913 120.187,258.850 120.126,260.565 117.650 C 261.134 116.829,261.600 115.862,261.600 115.502 C 261.600 115.142,261.795 114.727,262.033 114.580 C 262.271 114.432,262.796 113.542,263.200 112.600 C 263.604 111.658,264.129 110.768,264.367 110.620 C 264.605 110.473,264.800 110.060,264.800 109.703 C 264.800 109.345,265.129 108.321,265.532 107.426 C 267.315 103.462,268.130 101.237,268.618 99.000 C 268.905 97.680,269.422 95.610,269.766 94.400 C 270.517 91.756,270.628 83.739,269.936 82.219 C 269.347 80.926,268.042 80.889,266.531 82.124 M171.698 108.426 C 174.360 108.694,176.498 109.140,177.452 109.626 C 178.286 110.052,179.336 110.401,179.785 110.402 C 180.233 110.404,181.078 110.654,181.661 110.959 C 182.245 111.263,183.379 111.729,184.181 111.994 C 186.396 112.725,195.042 117.259,198.200 119.345 C 202.239 122.013,203.583 122.941,204.143 123.448 C 204.416 123.695,205.195 124.184,205.874 124.535 C 206.553 124.886,208.165 126.380,209.455 127.855 C 210.745 129.330,212.760 131.541,213.934 132.768 C 215.107 133.996,216.706 135.990,217.487 137.200 C 218.269 138.410,219.218 139.853,219.598 140.408 C 221.733 143.527,221.118 145.218,216.331 149.400 C 210.824 154.211,211.019 154.208,207.881 149.536 C 206.648 147.701,204.707 145.390,203.567 144.400 C 202.427 143.410,200.753 141.950,199.847 141.157 C 197.185 138.823,190.924 134.804,189.949 134.802 C 189.591 134.801,189.074 134.530,188.800 134.200 C 188.526 133.870,187.915 133.600,187.442 133.600 C 186.970 133.600,185.327 133.233,183.791 132.785 C 175.162 130.266,163.109 132.378,155.598 137.726 C 155.049 138.116,153.727 138.997,152.661 139.682 C 151.594 140.367,149.806 142.070,148.687 143.466 C 145.663 147.240,145.275 147.418,142.988 146.089 C 141.958 145.490,140.414 144.595,139.557 144.100 C 138.701 143.605,137.235 142.750,136.300 142.200 C 135.365 141.650,134.030 140.934,133.333 140.609 C 131.324 139.670,130.339 138.002,130.822 136.355 C 131.040 135.610,131.408 133.650,131.638 132.000 C 131.869 130.350,132.291 128.637,132.576 128.194 C 132.862 127.751,133.219 126.825,133.370 126.136 C 133.522 125.447,133.995 124.566,134.423 124.179 C 134.850 123.793,135.200 123.261,135.200 122.999 C 135.200 122.737,135.515 122.152,135.900 121.699 C 136.285 121.247,137.050 120.300,137.600 119.597 C 141.572 114.515,146.591 110.831,150.400 110.203 C 151.390 110.039,152.736 109.631,153.390 109.296 C 154.438 108.759,158.087 108.403,166.031 108.061 C 166.817 108.028,169.368 108.192,171.698 108.426 M176.000 143.862 C 177.650 144.198,179.360 144.700,179.800 144.976 C 180.240 145.253,181.257 145.601,182.059 145.750 C 182.862 145.899,183.970 146.376,184.523 146.811 C 185.075 147.245,185.681 147.600,185.870 147.600 C 187.372 147.600,194.876 156.163,196.562 159.800 C 197.173 161.120,197.924 162.673,198.231 163.251 C 198.537 163.829,198.991 165.269,199.240 166.451 C 199.490 167.633,199.854 168.800,200.049 169.044 C 200.245 169.289,200.575 170.828,200.783 172.465 C 200.990 174.101,201.338 176.231,201.555 177.197 C 201.772 178.163,201.879 179.414,201.793 179.977 C 201.707 180.539,201.428 183.070,201.174 185.600 C 200.707 190.241,199.324 194.407,198.253 194.395 C 197.857 194.391,196.097 192.112,195.635 191.004 C 195.460 190.585,191.818 185.516,190.800 184.273 C 188.833 181.874,177.924 171.270,176.637 170.508 C 176.352 170.338,175.327 169.527,174.359 168.704 C 173.392 167.881,170.530 165.581,168.000 163.594 C 165.470 161.607,163.040 159.665,162.600 159.280 C 162.160 158.895,160.795 157.900,159.566 157.069 C 156.205 154.795,154.800 153.378,154.800 152.261 C 154.800 150.956,159.398 146.161,161.023 145.772 C 161.670 145.617,162.441 145.299,162.737 145.066 C 163.728 144.281,169.760 142.896,171.400 143.075 C 172.280 143.171,174.350 143.525,176.000 143.862 M92.000 209.224 C 92.000 209.651,91.820 210.000,91.600 210.000 C 91.380 210.000,91.200 209.539,91.200 208.976 C 91.200 208.396,91.373 208.060,91.600 208.200 C 91.820 208.336,92.000 208.797,92.000 209.224 M265.800 254.846 C 266.680 255.070,268.882 255.578,270.694 255.973 C 272.506 256.369,274.216 256.871,274.494 257.090 C 274.772 257.309,275.598 257.601,276.330 257.740 C 281.513 258.723,291.600 266.352,291.600 269.290 C 291.600 269.501,291.960 270.131,292.400 270.691 C 292.840 271.250,293.200 272.001,293.200 272.360 C 293.200 272.718,293.567 273.696,294.014 274.531 C 295.527 277.353,296.097 290.376,294.814 292.775 C 294.226 293.872,293.068 293.815,290.406 292.559 C 287.190 291.042,285.300 290.175,282.600 288.981 C 281.280 288.397,279.480 287.586,278.600 287.179 C 277.720 286.772,275.650 285.866,274.000 285.166 C 272.350 284.466,270.645 283.647,270.211 283.347 C 269.777 283.046,269.165 282.800,268.851 282.800 C 268.537 282.800,267.362 282.372,266.240 281.849 C 259.416 278.670,256.841 277.449,252.000 275.100 C 249.030 273.658,245.160 271.807,243.400 270.985 C 237.196 268.089,236.914 267.330,240.210 262.400 C 241.166 260.970,242.079 259.440,242.239 259.000 C 242.859 257.294,244.062 256.000,245.026 256.000 C 245.560 256.000,247.033 255.649,248.298 255.221 C 251.987 253.972,261.562 253.767,265.800 254.846 M229.867 255.430 C 230.824 257.924,227.831 261.739,225.214 261.361 C 221.904 260.883,221.254 259.001,223.927 257.637 C 224.766 257.209,225.689 256.575,225.976 256.229 C 226.263 255.883,226.746 255.600,227.049 255.600 C 227.352 255.600,227.600 255.420,227.600 255.200 C 227.600 254.544,229.605 254.747,229.867 255.430 M202.804 281.395 C 202.234 282.081,202.563 283.868,203.438 284.839 C 203.755 285.190,204.264 286.360,204.570 287.439 C 204.875 288.518,205.427 290.209,205.794 291.198 C 207.616 296.092,206.153 311.788,203.614 314.600 C 203.217 315.040,202.763 315.824,202.605 316.343 C 202.448 316.861,202.022 317.657,201.659 318.110 C 199.844 320.381,197.751 322.502,196.734 323.103 C 194.363 324.503,196.743 326.819,199.687 325.975 C 200.406 325.769,201.721 325.600,202.609 325.600 C 205.225 325.600,212.699 321.452,217.182 317.511 C 217.502 317.230,218.402 316.815,219.182 316.589 C 220.958 316.075,221.469 313.714,220.024 312.702 C 218.843 311.875,218.379 308.782,218.482 302.429 C 218.554 297.951,218.450 296.776,217.885 295.720 C 217.508 295.016,217.197 294.026,217.193 293.520 C 217.180 291.721,214.166 287.510,211.382 285.400 C 210.801 284.960,210.028 284.309,209.663 283.953 C 207.655 281.994,203.571 280.471,202.804 281.395 " stroke="none" fill="#000" fill-rule="evenodd"></path></svg>