<?xml version="1.0" encoding="utf-8"?>
<svg viewBox="0 0 850 850" xmlns="http://www.w3.org/2000/svg">
  <g transform="translate(0 850) scale(.1 -.1)">
<path d="m5284 8440c-157-18-170-23-263-113-98-94-166-141-283-197-132-63-219-82-399-87l-156-5-13-42c-30-101-89-192-137-212-30-13-38-13-68 2-37 17-62 47-118 139-69 115-174 196-312 243-75 25-92 26-260 27-211 0-295-15-420-75-157-76-269-192-360-375-72-145-134-371-135-489 0-27-8-36-61-69-103-66-175-179-206-322-15-69-15-75 1-100 48-72 166-89 589-82 328 5 400 13 469 48 47 24 53 46 34 137-19 94-63 183-125 254-65 76-86 137-85 253 1 151 57 254 168 313 47 25 61 27 166 27 104 0 121-3 172-27 109-51 186-150 217-281 11-46 10-50-29-131-48-100-85-236-101-378-14-129-4-158 69-191 45-21 59-22 407-22 340 0 364 1 437 22 101 29 177 62 187 82 11 22-12 130-44 199-14 31-43 79-65 107-115 149-135 315-57 475 46 95 178 225 277 273 123 60 183 72 360 72 167-1 248-16 379-69 165-67 300-175 362-288 32-58 34-70 34-153 0-80-3-97-31-156-78-165-297-330-591-448-217-87-657-295-924-436-973-517-1564-1053-2054-1865-118-196-335-635-373-757-85-268-259-904-314-1148-46-203-44-330 13-784l20-163 78-117c108-160 167-268 207-374 39-107 57-128 219-250 149-113 189-154 242-242 70-119 221-256 373-339 79-43 263-117 373-151 152-46 604-121 797-132 189-10 491 20 728 73 129 29 468 139 662 216 231 92 449 212 538 299 81 77 278 344 387 524 174 287 243 503 216 672-7 43-16 191-21 328-14 401-30 563-75 770-88 410-294 747-582 952-76 54-217 137-337 199-346 178-764 197-1256 57-578-164-977-493-1113-918-48-151-52-181-51-380 0-172 3-199 27-288 88-327 285-592 532-713 124-61 198-78 325-78 118 1 179 14 323 72 159 64 242 117 348 222 53 52 123 111 157 130l60 34 4 111c4 84 1 123-12 165-30 101-115 208-219 277-31 20-74 51-96 68-42 31-140 78-187 89l-28 6v-137c0-160-16-251-60-340-56-114-151-173-277-173-175 0-283 151-283 395 0 344 233 675 605 863 105 52 234 97 335 116 102 20 293 20 381 2 318-68 562-308 692-683 76-217 112-439 111-688-1-252-38-438-125-624-234-499-773-781-1494-781-174 0-295 17-433 61-242 78-432 197-627 393-273 273-430 587-502 1001-27 155-24 508 5 679 69 399 215 780 449 1169 88 147 201 299 379 512 210 252 335 386 525 566 89 85 235 226 323 314 296 296 521 450 714 490 49 10 119 39 211 85 500 250 1030 398 1500 418l154 7 14 40c73 212 11 442-157 575l-40 32-76-16c-42-9-82-16-90-16-12 0-14 44-14 256v256l-39 84c-195 416-536 642-991 659-63 2-147 0-186-5z"/>
<path d="m4240 5253c-176-116-262-268-246-437 15-159 99-250 257-278 115-20 274 24 363 102 20 18 49 56 64 84 25 48 27 59 27 181 0 120-2 134-27 187-59 126-160 198-288 206l-75 4-75-49z"/>
</g>
</svg>