<?xml version="1.0" encoding="utf-8"?>
<svg viewBox="0 0 850 850" xmlns="http://www.w3.org/2000/svg">
  <g transform="translate(0 850) scale(.1 -.1)">
<path d="m5368 8439c-165-39-384-188-467-318-132-205-92-472 98-662 84-84 168-132 261-149 133-26 231 16 376 157 209 205 283 362 255 543-30 190-119 323-264 391-96 44-180 57-259 38z"/>
<path d="m6640 7089c-426-55-844-279-1203-646l-67-69-103 99c-320 311-651 497-1028 579-91 20-133 22-344 23-214 0-252-3-355-24-232-47-505-153-688-267l-72-46-46 46c-159 156-551 247-1008 233-630-19-1144-231-1406-578-104-139-209-393-246-599-27-148-23-358 9-481 96-366 365-613 744-685 133-25 360-16 468 19 138 45 226 115 276 222 37 79 53 163 45 248-15 167-52 184-347 166-307-19-433 15-491 130-39 76-40 198-2 309 99 297 391 506 709 507 100 0 116-3 170-28 138-65 229-205 270-418 14-76 16-302 15-2335-1-2436 1-2344-54-2519-32-102-83-188-143-242-77-70-96-73-428-73-344 0-365-4-448-80-77-71-102-129-102-245 0-49 6-114 14-143 17-68 69-125 128-141 30-8 446-11 1495-9 1356 3 1455 4 1485 20 17 10 41 30 52 44 52 66 71 251 38 351-23 65-85 136-151 171l-51 27-355 6c-393 7-414 10-550 76-107 52-203 150-258 263-75 152-72 116-72 951v747l-26 58c-41 93-64 198-64 293 0 146 45 271 139 387l48 59 6 133c4 119 8 138 33 189 63 131 173 207 535 373 179 82 254 130 278 179 44 85 51 231 17 341l-13 45-272 3-271 2v603 603l58 55c424 411 843 554 1272 433 114-32 306-129 411-208 106-80 239-219 270-283 22-45 24-59 23-213 0-175-16-269-80-500-27-95-28-96-158-255-71-87-138-175-148-194-24-47-24-131 1-179 54-105 205-184 317-167 42 6 55 15 117 81 75 80 161 142 268 194l66 33 66-32c105-50 212-127 274-196 64-74 101-91 175-81 108 15 218 88 258 173 25 54 24 128-3 179-9 16-74 100-146 187-140 170-135 160-187 364-34 135-54 254-60 373-11 181 20 257 166 400 240 235 536 363 840 362 203 0 362-43 508-138 255-166 369-397 298-604l-13-38 52-11c73-16 165-63 202-102 88-93 95-202 32-512-48-240-68-285-147-333-29-18-73-34-99-38-70-8-173 17-241 59-42 26-69 35-100 35-134 0-352-153-423-296-78-157-15-319 215-550 75-75 118-109 166-132 93-46 166-59 238-44 91 19 127 51 199 179 67 121 156 258 293 448 146 204 154 215 180 221 143 38 260 171 304 349 40 156 52 429 38 820-11 290-20 332-96 469-179 320-660 659-1092 771-194 49-444 67-624 44z"/>
<path d="m5250 3760c-274-34-627-131-795-218-57-30-102-69-246-212-96-96-292-301-434-455s-329-350-416-436c-86-86-165-171-174-189-30-58-17-163 33-263 50-101 118-186 196-246l59-46 96 5c53 3 213 5 356 5 347 0 425-13 655-110 193-82 382-18 664 224 196 169 273 311 264 485-8 146-85 257-223 322-193 92-422 48-474-89-16-42-13-123 5-160 21-41 81-104 117-123 23-13 27-21 27-60 0-126-94-214-227-214-89 1-138 23-222 103-43 40-103 82-169 117-177 95-226 126-250 161-52 75-3 241 117 400 146 192 438 409 658 489 97 35 230 60 312 60 113-1 287-46 368-96 263-161 365-243 466-376 228-300 299-725 206-1243-30-163-87-381-114-435-57-113-204-231-354-287-53-19-76-33-86-53-23-45-106-130-149-153-36-19-53-22-141-18-246 10-307 7-351-16-48-26-109-93-119-130-4-18 5-48 34-107 110-221 288-337 499-324 107 7 173 37 224 102 84 107 190 168 334 191 350 57 717 254 985 532 210 218 336 455 390 735 18 95 21 135 16 253-3 77-13 174-22 215-78 360-320 774-669 1146l-85 91-133 6c-138 6-220 22-289 57-22 12-95 74-163 138-203 193-270 221-536 227-91 2-199 0-240-5z"/>
</g>
</svg>