<?xml version="1.0" encoding="utf-8"?>
<svg viewBox="0 0 850 850" xmlns="http://www.w3.org/2000/svg">
  <g transform="translate(0 850) scale(.1 -.1)">
<path d="m5015 8470c-293-26-565-104-765-218-70-40-94-61-137-118-146-192-290-259-438-203-46 17-76 39-132 96-143 143-185 153-643 153-398 0-436-5-577-75-195-96-375-315-513-624-157-350-295-959-241-1061 35-65-30-60 767-60h723l20 29c33 46 35 81 11 172-61 239-193 390-380 433-74 18-92 35-147 146-35 67-38 81-38 155 0 64 5 89 23 123 52 97 168 191 324 260 73 32 93 37 164 37 75 0 87-3 167-43 182-90 386-331 487-576 54-129 115-181 228-192 75-8 118 11 189 83s117 143 197 300c85 167 166 280 275 386 100 96 152 134 261 188 240 120 556 120 787 0 227-118 334-287 336-526 1-112-14-177-63-280-43-90-103-165-187-234-278-229-659-604-1001-988l-145-163h-1096-1097l-22 38c-76 136-270 245-436 246-98 1-98 0-80-224 8-96 17-294 20-440 7-287-1-415-37-554-32-125-24-308 25-531 20-93 39-180 42-192 6-29 26-29 127-4 141 37 255 111 326 215l29 41 5 240c4 190 9 259 25 332 33 149 90 255 155 290 28 15 69 17 307 17l275 1 85 43c88 45 197 71 295 72 134 0 357-54 513-125l72-34-106-137c-425-552-1171-1552-1291-1732-101-150-354-573-490-817-329-590-456-913-531-1345-5-30-24-110-41-178-78-301-80-545-8-689 14-27 46-68 72-92 121-111 285-125 595-51 229 55 508 86 1e3 110 297 15 1623 23 2195 13 286-5 505-5 526 0 89 22 155 122 190 287 19 93 20 133 19 2412l-1 2317 64 84c234 307 285 586 119 659-52 23-152 26-235 7l-55-12-514-555c-282-306-556-599-609-652-52-52-98-106-102-119-13-50 130-157 242-181 83-17 135-7 222 45 63 38 82 45 127 45 55 0 114-23 144-56 17-20 32-202 60-744 17-324 17-1247 0-1470-36-474-93-747-206-985-122-259-328-464-557-556l-84-34h-1040-1040l-55 26c-67 31-116 79-143 139-32 69-35 211-7 342 67 318 200 710 361 1062 89 193 128 262 378 655 227 358 368 591 451 746 56 104 421 627 638 915 393 519 757 945 1117 1306 342 343 468 440 664 506 279 95 521 245 670 417 60 70 66 82 90 219 77 428-9 762-260 1013-224 224-599 373-1089 434-157 19-434 26-565 15z"/>
<path d="m4125 2266c-237-54-402-206-480-440-22-66-25-90-20-140 9-86 42-202 72-258 108-199 355-279 618-203 275 80 395 240 395 530 0 235-93 411-257 487-58 28-79 32-167 35-61 1-125-3-161-11z"/>
</g>
</svg>