<svg viewBox="0 0 70 150" xmlns="http://www.w3.org/2000/svg" xmlns:xlink="http://www.w3.org/1999/xlink" xmlns:bx="https://boxy-svg.com">
  <defs>
    <linearGradient id="gradient-2-1" gradientUnits="userSpaceOnUse" x1="35" y1="0" x2="35" y2="150" xlink:href="#gradient-2"/>
    <linearGradient id="gradient-2" bx:pinned="true">
      <stop style="stop-color: rgb(221, 221, 255);" offset="0"/>
      <stop style="stop-color: rgb(170, 170, 204);" offset="1"/>
    </linearGradient>
    <linearGradient id="gradient-1-1" gradientUnits="userSpaceOnUse" x1="35" y1="0" x2="35" y2="150" gradientTransform="matrix(1.089729, 0, 0, 1.089729, -3.139636, -8.743251)" xlink:href="#gradient-1"/>
    <linearGradient id="gradient-1" bx:pinned="true">
      <stop offset="0" style="stop-color: rgb(170, 170, 204);"/>
      <stop offset="1" style="stop-color: rgb(119, 119, 153);"/>
    </linearGradient>
    <linearGradient id="gradient-2-0" gradientUnits="userSpaceOnUse" x1="35" y1="0" x2="35" y2="150" gradientTransform="matrix(1.154734, 0, 0, 1.154734, -5.444008, -2.274281)" xlink:href="#gradient-2"/>
  </defs>
  <path style="fill: url(#gradient-2-1);" d="M 70 124.2 C 62.68 120.837 55.18 125.082 50.923 130.554 C 46.666 136.026 45.356 140.395 47.473 143.244 C 49.124 145.465 49.701 144.604 50.531 145.652 C 51.366 146.706 51 150 49.7 150 C 46 150 24 150 20.3 150 C 19 150 18.634 146.706 19.469 145.652 C 20.299 144.604 20.876 145.465 22.527 143.244 C 24.644 140.395 23.334 136.026 19.077 130.554 C 14.82 125.082 7.32 120.837 0 124.2 C 0 106.243 4.71 47.84 35 0 C 65.29 47.84 70 106.243 70 124.2 Z"/>
  <path style="fill: url(#gradient-1-1);" d="M 64.894 117.991 C 62.889 117.888 61.558 117.917 57.428 119.433 C 53.452 121.119 49.471 124.358 46.972 127.49 C 44.633 130.535 42.772 133.956 41.97 136.625 C 41.286 139.746 42.422 145 42.422 145 L 27.571 145 C 27.571 145 28.688 139.599 27.999 136.508 C 27.195 133.834 25.348 130.51 23.011 127.469 C 20.51 124.335 16.472 121.089 12.499 119.404 C 8.368 117.887 7.086 117.88 5.086 117.988 C 5.449 98.073 8.937 54.311 35.032 9.572 C 61.761 54.552 64.29 96.178 64.894 117.991 Z"/>
  <path style="fill: url(#gradient-2-0);" d="M 50.863 63.529 C 52.926 61.099 52.864 57.536 51.421 57.436 C 49.829 57.326 49.855 59.475 51.253 61.945 C 45.577 60.932 49.74 51.73 52.827 52.748 C 55.192 53.528 55.122 57.126 54.811 59.597 C 53.435 70.532 43.311 81.684 42.948 90.281 C 42.768 94.536 44.361 98.837 47.561 98.708 C 53.406 98.473 52.467 86.894 50.142 86.855 C 49.016 86.836 48.783 87.748 49.512 90.193 C 44.068 87.69 46.717 82.204 49.423 80.347 C 53.078 77.84 56.872 79.673 58.06 75.967 C 58.559 74.409 56.526 74.773 55.544 76.089 C 54.821 74.268 56.278 71.575 57.915 71.44 C 59.485 71.311 60.995 73.225 61.043 75.469 C 61.137 79.863 53.755 82.25 54.036 86.635 C 54.316 91.017 60.097 94.065 58.293 102.778 C 56.734 110.31 54.125 113.821 48.149 114.342 C 44.883 114.627 41.759 113.561 38.702 112.466 C 41.108 115.743 40.617 118.71 37.82 120.862 C 35.035 123.003 30.883 122.664 30.775 125.794 C 30.724 127.268 31.613 128.846 33.062 128.281 C 33.856 127.971 34.14 127.085 32.86 125.758 C 34.265 125.645 35.162 126.511 35.177 127.533 C 35.204 129.329 33.097 131.541 31.711 131.384 C 29.737 131.161 27.118 128.137 27.141 124.88 C 27.17 120.835 27.703 120.972 30.387 120.882 C 32.329 120.817 35.126 118.249 34.954 116.023 C 34.635 111.9 30.84 109.809 27.47 109.478 C 21.027 108.845 17.893 110.678 17.733 113.993 C 17.661 115.48 19.134 116.534 20.15 116.112 C 20.886 115.807 20.996 115.09 20.255 114.579 C 23.328 114.389 21.405 118.947 17.216 119.121 C 15.096 119.209 11.804 117.143 11.947 114.982 C 12.208 111.027 16.719 107.732 21.603 106.468 C 16.367 106.184 9.241 103.805 9.323 98.112 C 9.413 91.897 14.305 90.362 18.243 90.137 C 19.763 87.099 22.04 84.849 23.036 83.952 C 22.87 82.907 22.774 81.866 22.754 80.842 C 22.711 78.668 23.047 76.645 23.66 74.731 C 21.603 71.546 20.734 65.426 21.326 61.509 C 22.645 52.776 25.368 50.143 31.123 44.655 C 33.714 42.184 32.078 39.206 30.388 40.408 C 30.47 38.414 31.276 37.756 32.313 37.916 C 33.942 38.168 34.987 42.94 32.766 45.845 C 30.009 49.452 25.249 53.92 25.63 60.514 C 25.743 62.466 27.237 64.491 28.547 65.882 C 34.424 58.035 42.678 51.002 42.818 40.356 C 42.879 35.706 40.622 28.941 37.076 27.642 C 36.141 27.299 36.239 28.984 36.256 30.513 C 34.742 23.996 30.012 24.207 29.895 20.511 C 29.754 16.031 32.098 14.929 33.385 14.722 C 35.347 14.406 37.848 17.281 37.699 19.263 C 37.547 21.29 35.832 21.833 34.216 21.484 C 32.735 21.164 31.752 18.817 32.926 17.42 C 33.481 19.871 34.863 18.672 34.964 18.129 C 35.215 16.774 34.26 16.189 33.413 16.223 C 32.337 16.266 31.611 18.257 31.813 19.62 C 32.649 25.263 46.629 23.774 48.237 38.86 C 48.974 45.773 48.39 53.979 45.741 59.566 C 43.26 64.8 38.713 69.74 38.012 75.481 C 42.052 70.855 47.288 67.74 50.863 63.529 Z M 14.007 98.265 C 14.584 101.632 18.274 103.082 21.395 103.707 C 19.582 102.484 16.671 99.87 16.761 95.739 C 16.788 94.525 17.012 93.362 17.365 92.269 C 15.26 93.443 13.502 95.319 14.007 98.265 Z M 26.598 97.249 C 28.106 99.01 30.197 99.228 31.585 99.135 C 28.902 97.051 26.722 94.14 25.199 90.911 C 24.872 92.596 24.806 95.156 26.598 97.249 Z"/>
  <path style="fill: rgb(51, 51, 85);" d="M 70 124.2 C 62.68 120.837 55.18 125.082 50.923 130.554 C 46.666 136.026 45.356 140.395 47.473 143.244 C 49.124 145.465 49.701 144.604 50.531 145.652 C 51.366 146.706 51 150 49.7 150 C 46 150 24 150 20.3 150 C 19 150 18.634 146.706 19.469 145.652 C 20.299 144.604 20.876 145.465 22.527 143.244 C 24.644 140.395 23.334 136.026 19.077 130.554 C 14.82 125.082 7.32 120.837 0 124.2 C 0 106.243 4.71 47.84 35 0 C 65.29 47.84 70 106.243 70 124.2 Z M 35 1.879 C 5.549 49.181 1.252 103.314 1.009 122.746 C 4.469 121.628 7.589 121.752 11.058 123.135 C 14.522 124.517 17.671 127.118 19.866 129.94 C 22.04 132.734 23.528 135.366 24.155 137.614 C 24.801 139.926 24.484 142.173 23.33 143.84 C 22.363 145.079 21.603 145.586 21.082 145.808 C 20.505 146.054 20.342 145.934 20.253 146.273 C 19.941 146.543 19.942 147.24 20.072 148.066 C 20.135 148.469 20.214 148.718 20.351 148.937 C 20.368 148.965 20.379 148.985 20.384 149 C 24.291 149 45.709 149 49.616 149 C 49.621 148.985 49.632 148.965 49.649 148.937 C 49.786 148.718 49.865 148.469 49.928 148.066 C 50.058 147.24 50.059 146.543 49.747 146.273 C 49.658 145.934 49.495 146.054 48.918 145.808 C 48.397 145.586 47.637 145.08 46.67 143.841 C 45.516 142.173 45.199 139.926 45.845 137.614 C 46.472 135.366 47.96 132.734 50.134 129.94 C 52.329 127.118 55.478 124.517 58.942 123.135 C 62.411 121.752 65.534 121.633 68.992 122.747 C 68.79 103.38 65.214 49.492 35 1.879 Z"/>
</svg>