<?xml version="1.0" encoding="utf-8"?>
<svg viewBox="20 20 150 150" xmlns="http://www.w3.org/2000/svg">
  <path d="M 104 106 C 104 106 104.07 112.936 104.405 122 L 105 122 C 105 122 117.776 121.348 124 120 C 127.091 119.331 133 117 133 117 L 136 117 L 136 144 L 133 144 C 133 144 127.091 141.669 124 141 C 118.334 139.773 107.239 139.123 105.294 139.016 C 105.716 144.918 106.271 150.584 107 155 C 107.619 158.75 110 166 110 166 L 110 170 L 80 170 L 80 166 C 80 166 82.381 158.75 83 155 C 83.729 150.584 84.284 144.918 84.706 139.016 C 82.761 139.123 71.666 139.773 66 141 C 62.909 141.669 57 144 57 144 L 54 144 L 54 117 L 57 117 C 57 117 62.909 119.331 66 120 C 72.224 121.348 85 122 85 122 L 85.595 122 C 85.93 112.936 86 106 86 106 L 86 99 L 84 99 C 84 99 64.533 99.264 55 101 C 51.576 101.624 45 104 45 104 L 42 104 L 42 77 L 45 77 C 45 77 51.576 79.376 55 80 C 64.533 81.736 84 82 84 82 L 85.972 82 C 85.946 80.424 85.899 77.999 85.819 75.027 C 75.871 72.869 67.682 67.291 63.349 59.967 L 63.348 59.967 C 61.201 56.338 60 52.281 60 48 C 60 45.22 60.506 42.535 61.449 40 C 56.101 40 50.841 40 47 40 C 37.4 40 25 50 25 50 L 20 50 L 37 20 L 81 20 L 81 26.3 C 79 29.6 76 34.943 76 41 C 76 50.941 84.507 59 95 59 L 95 58.989 C 98.844 58.989 102.422 57.907 105.412 56.048 L 105.43 56.048 C 110.592 52.83 114 47.292 114 41 C 114 34.943 111 29.6 109 26.3 L 109 20 L 153 20 L 170 50 L 165 50 C 165 50 152.6 40 143 40 C 139.159 40 133.899 40 129 40 C 129.448 42.299 129.906 44.722 129.987 47.227 C 129.996 47.48 130 47.734 130 47.989 C 130 47.991 130 47.993 130 47.994 C 130 47.996 130 47.998 130 48 C 130 52.281 128.799 56.338 126.652 59.967 L 126.645 59.967 C 122.309 67.285 114.124 72.859 104.181 75.016 C 104.101 77.993 104.054 80.422 104.028 82 L 106 82 C 106 82 125.467 81.736 135 80 C 138.424 79.376 145 77 145 77 L 148 77 L 148 104 L 145 104 C 145 104 138.424 101.624 135 101 C 125.467 99.264 106 99 106 99 L 104 99 Z"/>
</svg>