<?xml version="1.0" encoding="utf-8"?>
<svg viewBox="20.135 20 149.73 150" xmlns="http://www.w3.org/2000/svg">
  <path d="M 86 61 L 86 39.283 C 75.563 42.336 67.336 50.563 64.283 61 Z M 104 61 L 125.717 61 C 122.664 50.563 114.437 42.336 104 39.283 Z M 104 79 L 104 100.717 C 114.437 97.664 122.664 89.437 125.717 79 Z M 107 155 C 107.619 158.75 110 166 110 166 L 110 170 L 80 170 L 80 166 C 80 166 82.381 158.75 83 155 C 83.041 154.751 83.082 154.498 83.122 154.242 C 56.409 150.803 33.528 135.929 20.135 114.988 L 35.42 105.804 C 35.848 106.514 36.288 107.216 36.74 107.91 C 47.335 125.445 64.543 137.901 84.546 141.157 C 85.128 133.694 85.482 125.642 85.695 119.129 C 62.545 114.754 45.036 94.422 45.036 70 C 45.036 42.386 67.422 20 95.036 20 C 122.65 20 145.036 42.386 145.036 70 C 145.036 94.447 127.491 114.796 104.306 119.142 C 104.519 125.652 104.873 133.696 105.454 141.153 C 125.457 137.897 142.665 125.441 153.26 107.906 C 153.712 107.212 154.152 106.51 154.58 105.8 L 169.865 114.984 C 156.472 135.925 133.591 150.799 106.878 154.238 C 106.918 154.496 106.959 154.75 107 155 Z M 86 79 L 64.283 79 C 67.336 89.437 75.563 97.664 86 100.717 Z"/>
</svg>