<?xml version="1.0" encoding="utf-8"?>
<svg viewBox="0 0 850 850" xmlns="http://www.w3.org/2000/svg">
  <g transform="translate(0 850) scale(.1 -.1)">
<path d="m4545 8423c-225-20-561-143-780-285-131-85-329-170-420-180l-30-3-3 142-3 141-65 7c-175 19-326-40-408-158l-36-52v-716-715l28-45c39-61 104-114 171-141 58-22 234-37 285-24l24 6 4 297c5 332 13 383 82 530 135 285 372 442 728 484 288 33 520-32 678-191 87-87 135-171 176-305 25-82 28-104 28-250 0-114-5-181-17-233-58-250-171-458-344-629l-85-83h-486-485l6-92c11-176 77-330 192-443 94-94 152-121 274-130 349-23 734-149 998-325 367-246 585-572 692-1041 53-234 60-408 25-639-74-484-389-908-886-1188l-56-32h-769-768l-82 40c-190 94-324 241-385 425-20 62-23 89-23 235 0 195 16 280 75 398 39 78 103 153 152 178l28 14 31-62c54-108 99-328 99-490v-66l98-92c178-168 333-270 410-270h32v118c0 346-62 790-138 990-19 48-19 57-6 134 70 414 290 642 574 597 179-28 268-134 258-307-12-191-157-343-360-377l-38-6v-52c0-74 23-158 71-255 47-97 86-145 143-175 34-18 56-22 136-21 156 1 307 62 452 183 302 253 422 588 323 901-69 216-237 452-411 576-278 199-654 226-1016 75l-67-29-128 224-128 223-90 21c-154 36-283 53-372 48-46-2-88-9-93-14-13-13 62-250 140-444 139-344 162-553 81-725-40-87-70-117-163-165-383-197-705-488-811-731-148-337-114-923 74-1298 34-69 47-85 87-107 241-135 397-283 422-399l6-30 1445-3 1445-2 135 89c215 143 382 289 449 389l29 44-34 61c-129 237-107 456 67 678 86 108 164 303 226 564 122 506 102 1003-58 1486-175 528-494 880-882 973l-86 20 83 88c199 209 342 492 389 767 19 109 21 328 5 434-36 243-180 619-326 857-261 422-607 620-1018 583z"/>
<path d="m4240 979c-155-19-255-62-340-148-92-92-131-197-131-354 0-212 90-331 296-393 134-40 390-14 502 52 104 61 174 224 174 408 0 158-37 261-125 345-87 81-209 111-376 90z"/>
</g>
</svg>