<?xml version="1.0" standalone="no"?>
<!DOCTYPE svg PUBLIC "-//W3C//DTD SVG 20010904//EN"
 "http://www.w3.org/TR/2001/REC-SVG-20010904/DTD/svg10.dtd">
<svg version="1.0" xmlns="http://www.w3.org/2000/svg"
 width="50pt" height="50pt" viewBox="0 0 500 500"
 preserveAspectRatio="xMidYMid meet">

<g transform="translate(0,500) scale(0.1,-0.1)"
fill="#464646" stroke="none">
<path d="M500 3521 l0 -229 83 -16 c121 -23 330 -66 348 -72 18 -5 34 -39 44
-94 9 -44 59 -193 95 -281 l27 -66 -70 -119 c-38 -66 -87 -153 -110 -194 -22
-41 -51 -92 -64 -113 l-24 -39 33 -42 c287 -367 483 -602 493 -592 62 61 350
312 361 314 7 2 26 -5 41 -16 45 -30 172 -97 244 -127 59 -24 68 -31 73 -59 6
-29 33 -224 60 -431 l11 -90 361 -3 361 -2 12 72 c6 40 19 129 28 198 8 69 21
163 27 209 7 56 16 86 26 91 39 20 129 60 133 60 3 0 47 25 98 55 51 30 97 55
102 55 5 0 14 -6 21 -13 13 -12 80 -71 250 -221 95 -85 99 -87 117 -69 10 10
126 153 258 318 l240 300 -24 40 c-13 22 -38 67 -55 100 -18 33 -69 122 -112
198 -57 97 -78 141 -71 150 6 6 16 30 23 52 7 22 16 45 20 50 9 12 64 187 83
265 12 46 18 55 38 58 32 3 130 21 209 37 36 7 98 19 138 26 l72 12 0 229 0
228 -615 0 -615 0 0 -44 c0 -71 -20 -195 -45 -282 -83 -290 -276 -516 -519
-607 -75 -28 -90 -30 -211 -29 -120 0 -136 2 -205 30 -141 56 -224 116 -321
235 -99 120 -157 231 -198 382 -22 80 -41 205 -41 271 l0 44 -615 0 -615 0 0
-229z"/>
</g>
</svg>
